<?xml version="1.0" standalone="no"?>
<!DOCTYPE svg PUBLIC "-//W3C//DTD SVG 20010904//EN"
 "http://www.w3.org/TR/2001/REC-SVG-20010904/DTD/svg10.dtd">
<svg version="1.0" xmlns="http://www.w3.org/2000/svg"
 width="880.000000pt" height="995.000000pt" viewBox="0 0 880.000000 995.000000"
 preserveAspectRatio="xMidYMid meet">
<metadata>
Created by potrace 1.16, written by Peter Selinger 2001-2019
</metadata>
<g transform="translate(0.000000,995.000000) scale(0.100000,-0.100000)"
fill="#000000" stroke="none">
<path d="M6420 9539 c-96 -11 -300 -62 -404 -100 -203 -75 -444 -217 -614
-362 -46 -40 -117 -99 -156 -132 -425 -355 -721 -896 -881 -1616 -66 -296
-104 -557 -135 -944 -11 -137 -22 -260 -25 -271 -3 -12 -11 -111 -20 -220 -30
-394 -15 -877 40 -1290 l7 -51 -158 -95 c-621 -373 -1177 -582 -1779 -669
-267 -38 -758 -35 -1008 5 -100 17 -115 14 -123 -20 -10 -38 2 -53 46 -60 37
-6 41 -9 36 -30 -9 -34 15 -51 91 -63 329 -52 647 -70 970 -53 387 20 725 79
1103 194 163 49 642 227 797 297 l112 49 22 -96 c100 -444 302 -1001 541
-1495 50 -103 89 -189 87 -191 -12 -12 -353 -114 -365 -109 -44 17 -104 -32
-104 -84 0 -27 13 -48 66 -109 74 -84 74 -84 -67 -24 -139 60 -233 54 -259
-16 -6 -14 -6 -34 -1 -47 5 -13 77 -81 160 -151 83 -70 151 -131 151 -136 0
-5 14 -17 31 -25 17 -9 117 -85 222 -169 428 -340 942 -706 1371 -975 72 -45
137 -81 147 -81 29 0 68 39 75 75 4 26 1 43 -16 69 l-21 35 22 31 c22 29 22
33 11 102 -11 61 -10 73 3 88 23 25 19 52 -29 189 -58 167 -252 1133 -236
1175 11 29 5 51 -20 81 -11 13 -41 140 -89 385 -40 201 -77 386 -83 413 -15
73 -77 96 -132 48 -36 -31 -37 -55 -7 -208 32 -166 36 -150 -51 -198 l-46 -25
-12 34 c-19 57 -55 78 -112 63 -19 -5 -41 -28 -74 -80 -72 -111 -135 -186
-176 -207 l-36 -20 -31 67 c-107 227 -286 714 -377 1023 -93 312 -192 726
-181 754 3 7 49 38 104 69 236 134 594 390 838 598 155 133 473 452 597 599
211 250 420 541 573 800 139 234 307 589 401 845 65 176 84 223 166 405 122
272 187 467 230 688 28 149 30 393 3 517 -38 177 -108 314 -228 441 -127 134
-280 220 -475 265 -101 24 -369 34 -492 18z m482 -195 c219 -58 384 -179 468
-344 18 -36 62 -171 57 -176 -1 -1 -20 31 -41 72 -113 219 -375 394 -706 469
l-65 15 97 -6 c53 -3 139 -16 190 -30z m-246 -289 c183 -32 296 -88 409 -201
52 -51 82 -93 113 -155 53 -106 70 -173 84 -324 10 -107 9 -133 -10 -240 -61
-355 -208 -637 -662 -1276 -487 -684 -992 -1233 -1608 -1747 -145 -121 -355
-284 -368 -286 -10 -1 -27 131 -49 364 -58 615 -60 1199 -5 1673 25 220 31
252 75 371 217 599 493 1064 826 1396 58 58 136 129 175 158 284 213 701 322
1020 267z m-946 -9 c0 -2 -23 -18 -50 -36 -67 -43 -157 -115 -257 -206 -71
-64 -132 -132 -291 -320 -56 -65 -9 7 75 118 155 203 283 318 465 418 56 31
58 32 58 26z m1162 -2088 c-11 -18 -41 -70 -66 -116 -106 -189 -296 -484 -436
-677 -467 -645 -1000 -1174 -1585 -1574 -65 -45 -122 -81 -126 -81 -6 0 -23
98 -24 136 0 6 81 71 180 146 396 298 758 622 1088 973 311 331 543 617 882
1088 97 134 126 170 87 105z m-2608 -2575 c2 -10 7 -36 11 -59 l6 -40 -178
-87 c-98 -47 -218 -101 -268 -120 -136 -52 -512 -163 -521 -154 -2 2 50 25
114 51 227 94 667 321 794 410 29 20 35 20 42 -1z m312 -328 c44 -195 122
-483 195 -715 32 -101 57 -186 55 -187 -5 -5 -74 176 -121 317 -88 261 -202
697 -190 728 13 35 30 -5 61 -143z"/>
</g>
</svg>
