<?xml version="1.0" standalone="no"?>
<!DOCTYPE svg PUBLIC "-//W3C//DTD SVG 20010904//EN"
 "http://www.w3.org/TR/2001/REC-SVG-20010904/DTD/svg10.dtd">
<svg version="1.0" xmlns="http://www.w3.org/2000/svg"
 width="253.000000pt" height="159.000000pt" viewBox="0 0 253.000000 159.000000"
 preserveAspectRatio="xMidYMid meet">

<g transform="translate(0.000000,159.000000) scale(0.100000,-0.100000)"
fill="#000000" stroke="none">
<path d="M418 1104 c-15 -8 -32 -23 -38 -34 -13 -24 -13 -256 0 -281 6 -10 24
-26 40 -34 80 -41 160 3 160 89 l0 46 -45 0 c-43 0 -45 -1 -45 -30 0 -16 -4
-30 -10 -30 -6 0 -10 40 -10 100 0 60 4 100 10 100 6 0 10 -11 10 -25 0 -23 4
-25 45 -25 l45 0 0 41 c0 81 -86 125 -162 83z"/>
<path d="M820 956 c0 -140 2 -156 21 -180 17 -21 29 -26 65 -26 44 0 44 0 44
35 0 24 -6 37 -20 45 -18 10 -20 21 -20 145 l0 135 -45 0 -45 0 0 -154z"/>
<path d="M1430 1086 c0 -13 -3 -32 -6 -41 -6 -14 0 -16 42 -13 49 3 49 3 49
38 0 34 -1 35 -42 38 -40 3 -43 1 -43 -22z"/>
<path d="M626 995 c-24 -22 -26 -30 -26 -113 0 -82 2 -90 26 -113 20 -19 37
-24 74 -24 37 0 54 5 74 24 24 23 26 31 26 113 0 81 -2 91 -25 113 -34 35
-111 35 -149 0z m84 -115 c0 -33 -4 -60 -10 -60 -6 0 -10 27 -10 60 0 33 4 60
10 60 6 0 10 -27 10 -60z"/>
<path d="M993 996 c-24 -21 -28 -32 -31 -95 -5 -84 9 -126 49 -146 66 -35 148
0 149 63 0 19 -5 22 -39 22 -22 0 -41 -5 -43 -12 -5 -15 -28 -1 -28 18 0 10
14 14 55 14 l55 0 0 55 c0 46 -4 60 -25 80 -34 34 -103 35 -142 1z m87 -76 c0
-21 -15 -27 -25 -10 -7 12 2 30 16 30 5 0 9 -9 9 -20z"/>
<path d="M1212 1000 c-27 -26 -36 -59 -28 -108 8 -45 8 -56 0 -107 -7 -51 14
-72 76 -77 38 -3 45 -6 48 -26 3 -20 8 -23 45 -20 41 3 42 4 45 44 4 52 -21
75 -88 82 -53 5 -60 22 -9 22 46 0 79 39 79 93 0 27 6 49 15 57 8 7 15 23 15
36 0 23 -2 24 -88 24 -75 0 -92 -3 -110 -20z m78 -85 c0 -14 -4 -25 -10 -25
-5 0 -10 11 -10 25 0 14 5 25 10 25 6 0 10 -11 10 -25z"/>
<path d="M1430 886 l0 -136 45 0 46 0 -3 133 -3 132 -42 3 -43 3 0 -135z"/>
<path d="M1537 1013 c-14 -13 -7 -193 8 -222 29 -58 128 -67 173 -16 20 24 22
36 22 136 l0 109 -45 0 -44 0 -3 -95 c-4 -127 -22 -129 -26 -2 l-3 97 -38 0
c-21 0 -41 -3 -44 -7z"/>
<path d="M1781 996 c-19 -20 -21 -34 -21 -134 l0 -112 45 0 45 0 0 95 c0 57 4
95 10 95 6 0 10 -38 10 -95 l0 -95 45 0 45 0 0 95 c0 57 4 95 10 95 6 0 10
-38 10 -95 l0 -95 45 0 45 0 0 109 c0 93 -3 112 -20 134 -20 25 -24 25 -134
25 -105 0 -116 -1 -135 -22z"/>
<path d="M1560 578 c0 -12 -3 -18 -6 -15 -13 12 -44 -14 -44 -36 0 -29 18 -47
47 -47 21 0 23 4 23 60 0 33 -4 60 -10 60 -5 0 -10 -10 -10 -22z m0 -53 c0
-26 -14 -33 -25 -15 -9 14 1 40 15 40 5 0 10 -11 10 -25z"/>
<path d="M480 575 c0 -8 -3 -15 -8 -15 -4 0 -7 -18 -7 -40 0 -22 3 -40 7 -40
5 0 8 7 8 15 0 8 5 15 10 15 6 0 10 -8 10 -17 0 -14 3 -13 16 5 8 12 13 26 9
31 -3 5 -1 12 4 15 11 7 3 46 -9 46 -5 0 -11 -8 -13 -17 -4 -17 -5 -17 -6 0
-1 21 -21 23 -21 2z"/>
<path d="M550 535 c0 -30 5 -55 10 -55 6 0 10 17 10 37 0 37 0 37 16 15 19
-28 28 -28 42 1 10 20 11 19 11 -15 1 -60 21 -44 21 17 0 62 -18 74 -39 28
l-13 -27 -16 27 c-27 44 -42 34 -42 -28z"/>
<path d="M910 580 c0 -5 7 -10 15 -10 11 0 15 -12 15 -45 0 -25 5 -45 10 -45
6 0 10 20 10 45 0 33 4 45 15 45 8 0 15 5 15 10 0 6 -18 10 -40 10 -22 0 -40
-4 -40 -10z"/>
<path d="M1000 580 c0 -5 5 -10 10 -10 6 0 10 5 10 10 0 6 -4 10 -10 10 -5 0
-10 -4 -10 -10z"/>
<path d="M1263 576 c11 -9 17 -27 17 -55 0 -22 5 -41 10 -41 6 0 10 20 10 45
0 33 4 45 14 45 8 0 18 5 21 10 4 6 -12 10 -42 10 -42 -1 -46 -2 -30 -14z"/>
<path d="M1430 535 l0 -55 35 0 c19 0 35 5 35 10 0 6 -11 10 -25 10 -16 0 -25
6 -25 15 0 8 9 15 20 15 11 0 20 5 20 10 0 6 -9 10 -20 10 -11 0 -20 5 -20 10
0 6 9 10 19 10 11 0 23 5 26 10 4 6 -8 10 -29 10 l-36 0 0 -55z"/>
<path d="M1858 568 c-7 -21 6 -81 18 -85 9 -3 10 15 5 90 -1 12 -19 8 -23 -5z"/>
<path d="M698 559 c-21 -12 -24 -49 -6 -67 18 -18 46 -14 58 7 14 27 13 37 -6
55 -18 19 -23 19 -46 5z m32 -40 c0 -20 -15 -26 -25 -9 -9 15 3 43 15 35 5 -3
10 -15 10 -26z"/>
<path d="M793 562 c-19 -3 -23 -10 -23 -37 0 -19 5 -37 10 -40 6 -4 10 6 10
24 0 18 7 34 17 40 22 12 15 18 -14 13z"/>
<path d="M842 561 c-8 -5 -12 -22 -10 -42 2 -29 7 -34 31 -37 15 -2 27 1 27 7
0 6 -9 11 -20 11 -11 0 -20 5 -20 10 0 6 11 10 25 10 30 0 34 25 6 40 -23 12
-22 12 -39 1z m28 -21 c0 -5 -5 -10 -11 -10 -5 0 -7 5 -4 10 3 6 8 10 11 10 2
0 4 -4 4 -10z"/>
<path d="M1063 562 c-19 -3 -23 -10 -23 -43 0 -47 17 -52 22 -6 2 17 8 32 13
32 6 0 11 -15 13 -32 4 -41 22 -43 22 -3 0 17 5 30 10 30 6 0 10 -13 10 -30 0
-16 5 -30 11 -30 6 0 9 17 7 42 -3 38 -5 41 -33 42 -16 1 -40 0 -52 -2z"/>
<path d="M1186 554 c-19 -18 -21 -45 -4 -62 15 -15 58 -16 58 -2 0 6 -9 10
-20 10 -11 0 -20 5 -20 10 0 6 9 10 20 10 24 0 28 35 4 44 -21 8 -20 8 -38
-10z m34 -14 c0 -5 -4 -10 -10 -10 -5 0 -10 5 -10 10 0 6 5 10 10 10 6 0 10
-4 10 -10z"/>
<path d="M1346 554 c-19 -18 -20 -28 -6 -55 12 -21 40 -25 58 -7 18 18 14 56
-7 68 -25 13 -27 13 -45 -6z m41 -38 c-4 -9 -11 -16 -17 -16 -11 0 -14 33 -3
44 11 10 26 -11 20 -28z"/>
<path d="M1705 556 c-11 -8 -16 -22 -13 -41 2 -24 8 -31 31 -33 32 -4 37 13 6
21 -25 7 -22 43 4 41 20 -2 23 12 3 19 -8 3 -22 0 -31 -7z"/>
<path d="M1786 560 c-18 -6 -18 -7 5 -14 l24 -7 -22 -9 c-13 -5 -23 -18 -23
-30 0 -16 6 -20 36 -20 29 0 35 3 30 16 -3 9 -6 26 -6 39 0 26 -16 35 -44 25z
m24 -50 c0 -5 -5 -10 -11 -10 -5 0 -7 5 -4 10 3 6 8 10 11 10 2 0 4 -4 4 -10z"/>
<path d="M1926 557 c-27 -20 -18 -71 13 -75 13 -2 28 1 34 7 8 8 3 11 -16 11
-15 0 -27 5 -27 10 0 6 11 10 25 10 30 0 34 25 6 39 -13 7 -23 6 -35 -2z m29
-17 c3 -5 -1 -10 -10 -10 -9 0 -13 5 -10 10 3 6 8 10 10 10 2 0 7 -4 10 -10z"/>
<path d="M1000 520 c0 -22 5 -40 10 -40 6 0 10 18 10 40 0 22 -4 40 -10 40 -5
0 -10 -18 -10 -40z"/>
<path d="M1602 523 c3 -35 6 -38 36 -40 31 -1 32 0 32 38 0 21 -4 39 -10 39
-5 0 -10 -14 -10 -31 0 -38 -24 -35 -28 4 -5 42 -24 32 -20 -10z"/>
</g>
</svg>
