<?xml version="1.0" standalone="no"?>
<!DOCTYPE svg PUBLIC "-//W3C//DTD SVG 20010904//EN"
 "http://www.w3.org/TR/2001/REC-SVG-20010904/DTD/svg10.dtd">
<svg version="1.0" xmlns="http://www.w3.org/2000/svg"
 width="283.000000pt" height="272.000000pt" viewBox="0 0 283.000000 272.000000"
 preserveAspectRatio="xMidYMid meet">

<g transform="translate(0.000000,272.000000) scale(0.100000,-0.100000)"
fill="#000000" stroke="none">
<path d="M0 1735 l0 -985 385 0 385 0 0 -375 0 -375 1020 0 1020 0 0 975 0
975 -425 0 -425 0 0 380 0 380 438 3 c240 1 -201 3 -980 5 l-1418 2 0 -985z
m1928 583 c2 -310 0 -368 -12 -368 -7 0 -16 10 -20 23 -3 12 -6 172 -6 355 l0
332 -919 0 -918 0 4 -912 c2 -502 6 -919 8 -925 3 -10 83 -13 355 -13 308 0
350 -2 350 -15 0 -14 -41 -15 -362 -10 -200 4 -369 8 -375 11 -10 3 -13 200
-13 942 0 516 3 942 7 945 3 4 432 6 952 5 l946 -3 3 -367z m-608 -108 l0
-260 -235 0 -235 0 0 253 c0 140 3 257 7 260 3 4 109 7 235 7 l228 0 0 -260z
m1393 -290 c5 -4 3 -45 -4 -91 -13 -92 -8 -260 16 -549 8 -96 19 -285 25 -419
6 -135 13 -247 15 -249 2 -3 -3 -18 -11 -34 -12 -24 -16 -81 -19 -286 -2 -142
-4 -261 -4 -266 -1 -9 -1887 -4 -1895 5 -5 5 -9 924 -7 1536 l1 363 433 3
c580 4 1440 -4 1450 -13z m-1963 -435 c19 6 20 1 20 -174 0 -203 7 -189 -81
-170 l-52 11 6 164 c3 90 8 168 11 173 4 6 20 6 41 0 20 -6 45 -7 55 -4z"/>
<path d="M1083 1692 c-25 -16 -34 -70 -44 -266 -15 -291 -15 -314 -1 -501 7
-93 16 -252 19 -351 l6 -181 101 -9 c55 -4 137 -8 181 -9 l80 0 7 90 c4 50 12
110 17 135 5 25 13 83 17 128 5 67 12 89 30 112 32 37 63 44 110 23 30 -14 68
-18 167 -18 l129 0 30 -34 31 -34 -7 -131 c-4 -72 -9 -153 -12 -179 -6 -48 -6
-48 20 -41 22 5 26 3 26 -15 0 -20 4 -21 149 -21 83 0 152 4 155 8 12 21 26
563 17 672 -6 63 -11 203 -12 310 -1 107 -5 200 -9 205 -4 6 -10 22 -14 37
l-6 26 -186 -3 c-125 -2 -189 -6 -197 -14 -8 -8 -12 -62 -12 -166 0 -139 -2
-156 -21 -182 -34 -46 -80 -63 -182 -65 -79 -2 -95 1 -119 18 -52 39 -55 52
-48 260 l6 191 -32 7 c-44 9 -382 7 -396 -2z"/>
</g>
</svg>
