<?xml version="1.0" standalone="no"?>
<!DOCTYPE svg PUBLIC "-//W3C//DTD SVG 20010904//EN"
 "http://www.w3.org/TR/2001/REC-SVG-20010904/DTD/svg10.dtd">
<svg version="1.0" xmlns="http://www.w3.org/2000/svg"
 width="283.000000pt" height="272.000000pt" viewBox="0 0 283.000000 272.000000"
 preserveAspectRatio="xMidYMid meet">

<g transform="translate(0.000000,272.000000) scale(0.100000,-0.100000)"
fill="#000000" stroke="none">
<path d="M0 1735 l0 -985 385 0 385 0 0 -375 0 -375 1020 0 1020 0 0 975 0
975 -425 0 -425 0 0 380 0 380 438 3 c240 1 -201 3 -980 5 l-1418 2 0 -985z
m1928 583 c2 -310 0 -368 -12 -368 -7 0 -16 10 -20 23 -3 12 -6 172 -6 355 l0
332 -919 0 -918 0 4 -912 c2 -502 6 -919 8 -925 3 -10 83 -13 355 -13 308 0
350 -2 350 -15 0 -14 -41 -15 -362 -10 -200 4 -369 8 -375 11 -10 3 -13 200
-13 942 0 516 3 942 7 945 3 4 432 6 952 5 l946 -3 3 -367z m-608 -108 l0
-260 -235 0 -235 0 0 253 c0 140 3 257 7 260 3 4 109 7 235 7 l228 0 0 -260z
m365 -291 c-32 -16 -35 -19 -13 -16 19 3 25 0 21 -10 -4 -11 -79 -13 -404 -13
l-399 0 0 -360 0 -360 30 0 30 0 0 -80 0 -80 -30 0 -30 0 0 -480 0 -480 880 0
880 0 0 310 c0 200 4 310 10 310 6 0 10 -30 10 -70 l0 -70 30 0 c24 0 30 4 31
23 2 24 5 45 14 92 5 23 4 26 -4 15 -9 -13 -11 -13 -11 0 0 9 4 20 10 26 5 5
6 24 1 44 -4 19 -6 90 -5 158 l2 122 -44 0 -44 0 0 440 0 440 -223 0 c-122 0
-236 4 -254 9 -22 7 -34 6 -37 -2 -5 -9 -8 -9 -12 1 -3 6 -12 12 -20 12 -9 0
-13 -3 -11 -7 3 -5 -73 -8 -168 -8 -95 0 -170 2 -166 5 11 9 7 30 -9 41 -10 6
150 7 470 3 267 -4 489 -10 493 -14 5 -4 3 -45 -4 -91 -13 -92 -8 -260 16
-549 24 -288 38 -685 25 -710 -7 -14 -13 -113 -15 -278 -2 -141 -4 -261 -4
-266 -1 -9 -1887 -4 -1895 5 -5 5 -9 924 -7 1536 l1 363 433 3 c237 1 439 3
447 4 8 1 -3 -7 -25 -18z m58 -6 c-7 -2 -19 -2 -25 0 -7 3 -2 5 12 5 14 0 19
-2 13 -5z m-6 -19 c-3 -3 -12 -4 -19 -1 -8 3 -5 6 6 6 11 1 17 -2 13 -5z
m-311 -186 c4 -5 -69 -8 -162 -8 -93 0 -174 -4 -181 -8 -25 -16 -34 -70 -44
-271 -15 -282 -15 -302 -1 -496 7 -93 16 -252 19 -351 l6 -181 101 -9 c55 -4
137 -8 181 -9 l80 0 3 45 c1 25 9 88 17 140 7 52 17 130 21 173 11 124 53 161
146 127 l53 -19 -67 0 -68 -1 0 -160 0 -160 -39 0 c-45 0 -49 -9 -46 -102 l1
-56 -198 -2 -198 -1 -2 163 c-2 99 -7 162 -13 160 -5 -2 -12 5 -16 15 -7 17
-8 17 -8 1 -1 -22 -21 -24 -21 -3 0 8 4 23 9 33 19 38 27 80 28 137 1 59 0 59
-7 15 l-7 -45 -3 45 -3 45 -7 -45 -7 -45 -1 42 c-1 23 2 44 7 47 5 3 7 16 3
28 -4 17 -2 20 12 15 13 -5 15 -2 12 16 -3 12 -8 52 -11 89 -4 37 -10 70 -14
73 -14 8 -10 69 7 97 14 24 14 33 3 63 -7 19 -10 39 -6 44 3 5 0 13 -6 16 -6
4 -8 18 -4 34 4 14 9 35 11 46 2 11 8 21 14 23 5 2 10 23 10 46 0 23 5 69 11
102 6 32 11 68 11 79 0 19 7 20 183 20 101 0 187 -3 191 -7z m103 -193 c2
-141 6 -202 14 -207 9 -6 8 -8 -2 -8 -12 0 -11 -3 2 -12 9 -7 20 -24 26 -38
l9 -25 11 25 11 25 -3 -24 c-3 -35 -21 -36 -59 -2 l-33 30 2 205 2 206 -22 0
c-17 0 -19 2 -8 9 11 7 9 10 -10 14 -13 2 -6 4 17 3 l41 -1 2 -200z m498 199
c-3 -3 -12 -4 -19 -1 -8 3 -5 6 6 6 11 1 17 -2 13 -5z m227 -9 c-4 -11 7 -21
37 -35 24 -11 37 -20 29 -21 -10 0 -11 -2 -2 -6 9 -4 12 -142 12 -644 l0 -640
-201 2 c-120 1 -196 5 -188 10 12 7 11 9 -1 9 -13 0 -13 1 0 10 9 6 10 10 3
10 -8 0 -11 28 -10 95 0 52 5 95 9 95 4 0 8 14 8 31 0 16 -3 28 -7 26 -5 -3
-8 17 -9 44 0 32 3 45 9 37 6 -8 6 -4 2 12 -4 14 -7 34 -6 45 0 19 -1 19 -13
2 -8 -10 -18 -17 -22 -16 -28 5 -34 -4 -34 -46 0 -25 -4 -45 -10 -45 -6 0 -10
30 -10 70 0 48 4 70 12 70 32 0 -12 19 -52 23 -25 2 -14 4 24 3 64 -2 70 -4
98 -35 l31 -34 -7 -131 c-4 -72 -9 -153 -12 -179 -6 -47 -6 -48 19 -42 19 5
25 2 30 -14 5 -20 12 -21 150 -21 80 0 148 4 151 8 12 21 26 563 17 672 -6 63
-11 203 -12 310 -1 107 -5 200 -9 205 -4 6 -10 22 -14 36 l-6 27 -170 -2 c-93
-1 -170 1 -170 5 0 4 15 5 34 2 19 -3 36 -1 40 6 5 7 -2 11 -16 12 -23 1 -23
1 2 9 23 7 23 8 3 9 -12 1 -24 5 -27 10 -4 5 5 6 21 2 16 -4 28 -14 28 -22 0
-8 12 -15 30 -17 24 -2 27 -1 15 9 -12 9 -11 10 5 4 32 -11 105 -13 111 -3 3
5 14 2 24 -7 12 -11 26 -14 39 -10 17 5 19 10 11 26 -6 11 -8 24 -5 29 9 15
15 12 9 -5z m41 -4 c-3 -6 -11 -11 -16 -11 -5 0 -4 6 3 14 14 16 24 13 13 -3z
m-245 -6 c-7 -9 -15 -13 -17 -11 -7 7 7 26 19 26 6 0 6 -6 -2 -15z m118 -2
c-6 -7 -27 -12 -47 -12 -34 2 -34 2 -6 7 26 4 28 5 10 12 -15 6 -10 8 17 7 28
-2 34 -5 26 -14z m-213 -13 c-3 -5 -10 -10 -16 -10 -5 0 -9 5 -9 10 0 6 7 10
16 10 8 0 12 -4 9 -10z m370 0 c3 -6 -1 -7 -9 -4 -18 7 -21 14 -7 14 6 0 13
-4 16 -10z m-1338 -62 c-3 -8 -6 -5 -6 6 -1 11 2 17 5 13 3 -3 4 -12 1 -19z
m20 0 c-3 -8 -6 -5 -6 6 -1 11 2 17 5 13 3 -3 4 -12 1 -19z m876 10 c-4 -7 -8
-81 -8 -163 0 -163 -6 -186 -60 -221 -31 -20 -37 -15 -39 33 -1 37 0 38 37 41
l37 3 0 160 c0 154 1 159 21 159 14 0 18 -4 12 -12z m-893 -48 c0 -11 -4 -20
-9 -20 -5 0 -7 9 -4 20 3 11 7 20 9 20 2 0 4 -9 4 -20z m11 -107 c-16 -30 -20
-33 -21 -16 0 12 7 28 15 37 8 8 16 27 16 43 l2 28 4 -27 c2 -15 -5 -43 -16
-65z m-251 12 c19 6 20 1 20 -174 0 -203 7 -189 -81 -170 l-52 11 6 164 c3 90
8 168 11 173 4 6 20 6 41 0 20 -6 45 -7 55 -4z m231 -101 c-5 -21 -9 -30 -10
-19 -1 24 10 67 15 62 3 -2 0 -22 -5 -43z m19 -73 c0 -5 3 -17 7 -27 6 -15 4
-15 -14 2 -20 19 -21 34 -2 34 5 0 9 -4 9 -9z m580 -21 c0 -5 -2 -10 -4 -10
-3 0 -8 5 -11 10 -3 6 -1 10 4 10 6 0 11 -4 11 -10z m-597 -51 c-4 -4 -9 6
-10 24 -1 30 -1 31 8 8 5 -14 6 -28 2 -32z m787 -10 c0 -8 -141 -18 -153 -12
-4 3 -5 8 -2 13 6 9 155 8 155 -1z m-778 -111 c-9 -9 -9 -15 0 -26 16 -19 22
-120 7 -105 -6 6 -11 32 -11 57 1 25 -3 48 -9 52 -10 6 6 34 19 34 3 0 1 -5
-6 -12z m-8 -179 c-8 -17 -9 -13 -9 21 0 34 1 38 9 21 5 -13 5 -29 0 -42z
m1612 33 c5 1 10 -16 10 -39 1 -24 -2 -43 -6 -43 -5 0 -11 -10 -13 -22 -3 -14
-5 -9 -4 12 0 19 -3 53 -7 75 -5 26 -4 35 2 27 5 -8 13 -12 18 -10z m53 -9 c1
9 6 17 11 17 6 0 10 -30 10 -70 0 -52 -3 -70 -14 -70 -9 0 -12 9 -10 28 2 15
1 19 -2 9 -3 -9 -10 -15 -15 -12 -5 4 -9 -1 -9 -9 0 -9 -4 -16 -10 -16 -5 0
-10 9 -10 19 0 11 5 23 10 26 6 3 10 23 10 44 0 43 11 61 21 34 7 -17 8 -17 8
0z m-909 -133 c0 -9 -31 -30 -44 -30 -3 0 -6 9 -6 20 0 15 7 20 25 20 14 0 25
-4 25 -10z m-735 -10 c3 -5 1 -10 -4 -10 -6 0 -11 5 -11 10 0 6 2 10 4 10 3 0
8 -4 11 -10z m1665 -70 c0 -40 -4 -70 -10 -70 -6 0 -10 30 -10 70 0 40 4 70
10 70 6 0 10 -30 10 -70z m-1670 44 c0 -2 -7 -4 -15 -4 -8 0 -15 4 -15 10 0 5
7 7 15 4 8 -4 15 -8 15 -10z m-16 -39 c-4 -8 -8 -15 -10 -15 -2 0 -4 7 -4 15
0 8 4 15 10 15 5 0 7 -7 4 -15z m-7 -67 c-3 -7 -5 -2 -5 12 0 14 2 19 5 13 2
-7 2 -19 0 -25z m893 -98 c0 -40 -4 -70 -10 -70 -6 0 -10 30 -10 70 0 40 4 70
10 70 6 0 10 -30 10 -70z m67 18 c-3 -8 -6 -5 -6 6 -1 11 2 17 5 13 3 -3 4
-12 1 -19z m-407 -178 c0 -40 -4 -70 -10 -70 -6 0 -10 30 -10 70 0 40 4 70 10
70 6 0 10 -30 10 -70z m340 0 c0 -40 -4 -70 -10 -70 -6 0 -10 30 -10 70 0 40
4 70 10 70 6 0 10 -30 10 -70z"/>
<path d="M1068 1903 c100 -2 264 -2 365 0 100 1 18 2 -183 2 -201 0 -283 -1
-182 -2z"/>
<path d="M2677 1763 c-10 -9 -8 -45 2 -62 5 -8 8 2 7 28 0 23 -1 41 -2 41 0 0
-4 -3 -7 -7z"/>
</g>
</svg>
