<?xml version="1.0" standalone="no"?>
<!DOCTYPE svg PUBLIC "-//W3C//DTD SVG 20010904//EN"
 "http://www.w3.org/TR/2001/REC-SVG-20010904/DTD/svg10.dtd">
<svg version="1.0" xmlns="http://www.w3.org/2000/svg"
 width="400.000000pt" height="197.000000pt" viewBox="0 0 400.000000 197.000000"
 preserveAspectRatio="xMidYMid meet">

<g transform="translate(0.000000,197.000000) scale(0.100000,-0.100000)"
fill="#000000" stroke="none">
<path d="M0 985 l0 -985 2000 0 2000 0 0 985 0 985 -2000 0 -2000 0 0 -985z
m3903 945 c5 -4 3 -45 -4 -91 -13 -92 -8 -260 16 -549 24 -288 38 -685 25
-710 -7 -14 -13 -113 -15 -278 -2 -141 -4 -261 -4 -266 -1 -9 -1887 -4 -1895
5 -5 5 -9 924 -7 1536 l1 363 433 3 c580 4 1440 -4 1450 -13z m-1975 -515 c2
-286 0 -715 -4 -954 l-6 -434 -939 5 c-515 3 -942 9 -948 13 -12 7 -16 1876
-4 1888 3 4 432 6 952 5 l946 -3 3 -520z"/>
<path d="M2273 1702 c-25 -16 -34 -70 -44 -271 -15 -282 -15 -302 -1 -496 7
-93 16 -252 19 -351 l6 -181 101 -9 c55 -4 137 -8 181 -9 l80 0 3 45 c1 25 9
88 17 140 7 52 17 130 21 173 11 121 60 166 140 130 30 -14 68 -18 167 -18
l129 0 30 -34 31 -34 -7 -131 c-4 -72 -9 -153 -12 -179 -6 -48 -6 -48 20 -41
22 5 26 3 26 -15 0 -20 4 -21 149 -21 83 0 152 4 155 8 12 20 26 554 16 667
-5 66 -10 208 -11 315 -1 107 -5 200 -9 205 -4 6 -10 22 -14 37 l-6 26 -186
-3 c-125 -2 -189 -6 -197 -14 -8 -8 -12 -62 -12 -166 0 -139 -2 -156 -21 -182
-34 -46 -80 -63 -182 -65 -79 -2 -95 1 -119 18 -52 39 -55 52 -48 260 l6 191
-32 7 c-44 9 -382 7 -396 -2z"/>
<path d="M57 998 c2 -502 6 -919 8 -926 4 -9 135 -12 612 -12 334 0 746 3 916
7 l307 6 0 407 c0 224 -3 637 -7 918 l-6 512 -917 0 -917 0 4 -912z m1261 195
c-3 -524 -3 -528 -26 -585 -33 -81 -61 -119 -116 -156 -81 -54 -173 -77 -306
-77 -63 1 -142 7 -174 14 l-59 13 6 164 c3 90 8 168 12 173 3 6 17 6 36 -1 43
-15 100 4 133 43 l26 31 0 447 c0 246 3 451 7 454 3 4 109 7 235 7 l229 0 -3
-527z"/>
</g>
</svg>
