<?xml version="1.0" standalone="no"?>
<!DOCTYPE svg PUBLIC "-//W3C//DTD SVG 20010904//EN"
 "http://www.w3.org/TR/2001/REC-SVG-20010904/DTD/svg10.dtd">
<svg version="1.0" xmlns="http://www.w3.org/2000/svg"
 width="298.000000pt" height="285.000000pt" viewBox="0 0 298.000000 285.000000"
 preserveAspectRatio="xMidYMid meet">

<g transform="translate(0.000000,285.000000) scale(0.100000,-0.100000)"
fill="#000000" stroke="none">
<path d="M940 2430 c0 -402 1 -420 19 -420 26 0 31 81 31 485 l0 332 618 5
c339 2 763 2 942 -1 l325 -6 -5 -60 c-10 -123 -3 -378 18 -640 28 -357 37
-627 22 -655 -7 -13 -12 -110 -14 -274 -2 -140 -7 -259 -10 -265 -5 -8 -139
-11 -462 -11 l-454 0 0 416 0 417 47 -6 c37 -4 54 -12 76 -38 l30 -32 -7 -131
c-4 -72 -9 -153 -12 -179 -6 -47 -6 -48 19 -42 19 5 25 2 30 -14 5 -20 12 -21
150 -21 80 0 148 4 151 8 12 21 26 563 17 672 -6 63 -11 203 -12 310 -1 107
-5 200 -9 205 -4 6 -10 22 -14 37 l-6 26 -186 -3 c-125 -2 -189 -6 -197 -14
-8 -8 -12 -62 -12 -166 0 -139 -2 -156 -21 -182 -34 -46 -79 -63 -182 -65 -79
-1 -96 1 -120 19 -51 38 -54 52 -48 256 l6 187 -26 10 c-14 6 -108 10 -208 10
-162 0 -185 -2 -198 -17 -25 -30 -28 -48 -38 -257 -5 -110 -13 -227 -16 -258
l-6 -58 396 0 c257 0 396 -4 396 -10 0 -7 -335 -10 -985 -10 l-985 0 0 -985 0
-985 985 0 985 0 0 435 0 435 500 0 500 0 0 980 0 980 -1015 0 -1015 0 0 -420z
m988 -1414 c-3 -519 -9 -949 -13 -956 -7 -11 -189 -12 -941 -8 -513 4 -937 9
-943 13 -12 7 -16 1877 -4 1888 3 4 434 7 956 7 l950 0 -5 -944z"/>
<path d="M57 1018 c2 -502 6 -919 8 -926 4 -9 149 -12 687 -11 376 1 787 4
913 8 l230 6 3 235 c2 129 0 542 -4 918 l-6 682 -918 0 -917 0 4 -912z m1263
219 c0 -460 -2 -508 -19 -567 -45 -159 -102 -213 -278 -261 -65 -18 -95 -21
-178 -16 -55 3 -124 11 -154 17 l-54 12 6 164 c3 90 8 168 12 173 3 6 17 6 36
-1 43 -15 100 4 133 43 l26 31 0 447 c0 246 3 451 7 454 3 4 109 7 235 7 l228
0 0 -503z"/>
</g>
</svg>
