<?xml version="1.0" standalone="no"?>
<!DOCTYPE svg PUBLIC "-//W3C//DTD SVG 20010904//EN"
 "http://www.w3.org/TR/2001/REC-SVG-20010904/DTD/svg10.dtd">
<svg version="1.0" xmlns="http://www.w3.org/2000/svg"
 width="1125.000000pt" height="750.000000pt" viewBox="0 0 1125.000000 750.000000"
 preserveAspectRatio="xMidYMid meet">

<g transform="translate(0.000000,750.000000) scale(0.100000,-0.100000)"
fill="#000000" stroke="none">
<path d="M0 6896 c0 -583 4 -694 21 -651 7 19 8 19 15 -2 3 -13 14 -23 25 -23
11 0 19 -6 19 -14 0 -7 7 -19 16 -27 13 -10 17 -10 25 2 7 11 9 11 9 -4 0 -9
11 -22 24 -28 13 -6 27 -20 30 -32 3 -11 10 -17 19 -14 7 3 19 -4 26 -14 6
-11 16 -17 21 -14 6 3 10 -1 10 -9 0 -9 9 -25 20 -36 11 -11 20 -22 20 -25 0
-3 -23 -5 -50 -5 -28 0 -60 -6 -73 -12 -12 -7 -23 -13 -25 -14 -9 -4 13 -33
29 -37 10 -3 17 -1 13 4 -3 5 6 9 20 9 14 0 26 4 26 9 0 5 15 12 33 15 17 3
43 8 56 11 33 6 115 -38 166 -90 48 -50 97 -145 122 -237 22 -78 26 -354 6
-366 -8 -5 -15 -46 -18 -107 -9 -139 -30 -251 -67 -347 -42 -114 -172 -308
-200 -300 -5 1 -7 -2 -3 -8 4 -6 1 -18 -6 -26 -10 -12 -14 -12 -20 -2 -7 10
-9 8 -9 -5 0 -10 -9 -27 -19 -39 -19 -19 -21 -12 -8 22 3 8 8 24 13 35 4 11 8
22 9 25 1 3 10 23 20 45 10 22 18 46 16 52 -1 8 4 10 14 7 10 -4 15 0 15 10 0
9 5 16 10 16 6 0 10 7 10 16 0 9 5 12 12 8 7 -4 8 -3 4 5 -4 6 -1 23 8 36 51
78 106 189 136 278 13 37 27 62 31 56 23 -38 5 276 -21 371 -15 53 -13 67 6
44 14 -18 15 -16 10 26 -5 32 -3 41 4 30 5 -8 10 -26 10 -39 0 -13 3 -22 6
-18 9 9 10 106 2 100 -5 -2 -8 0 -8 6 0 5 7 14 15 18 13 7 12 17 -5 72 -27 91
-44 122 -92 174 -64 67 -104 81 -218 78 l-45 -2 30 -13 c17 -7 54 -38 82 -70
95 -103 155 -311 156 -541 1 -187 -32 -344 -98 -475 -27 -53 -137 -222 -173
-265 -62 -76 -145 -165 -153 -165 -13 0 -11 17 3 32 20 20 20 63 1 81 -10 9
-33 29 -51 43 -30 24 -32 25 -32 6 0 -12 9 -23 20 -27 11 -4 27 -17 36 -30 13
-21 13 -27 0 -60 -9 -20 -20 -34 -26 -30 -5 3 -10 1 -10 -5 0 -6 10 -14 21
-19 21 -7 21 -8 -10 -30 l-31 -22 0 -2170 0 -2169 1413 0 1412 0 -77 75 c-42
41 -81 75 -87 75 -6 0 -10 3 -9 8 2 6 -117 123 -162 159 -40 32 -103 94 -88
86 28 -14 268 -227 358 -317 46 -47 91 -86 99 -86 10 0 11 3 2 14 -7 8 -8 16
-4 18 4 3 3 4 -4 2 -13 -3 -46 30 -37 38 3 3 -3 5 -13 4 -11 0 -18 5 -17 16 1
10 -2 15 -7 12 -11 -6 -110 87 -103 98 3 4 -1 8 -9 8 -18 0 -49 34 -40 44 4 4
-1 4 -12 0 -15 -6 -17 -4 -12 10 4 10 3 15 -3 11 -5 -3 -20 4 -33 17 -13 13
-49 45 -80 71 -32 27 -54 53 -51 59 5 7 2 8 -5 4 -15 -10 -53 23 -44 37 4 6 0
8 -11 4 -9 -4 -15 -3 -12 2 8 13 -21 34 -35 25 -7 -4 -9 -3 -6 3 4 5 -5 16
-18 23 -14 7 -25 17 -25 22 0 5 -5 6 -12 2 -7 -5 -8 -3 -3 6 6 10 4 12 -11 6
-10 -4 -15 -4 -11 0 4 4 1 14 -6 23 -9 12 -5 11 18 -3 67 -42 319 -233 365
-277 8 -8 37 -32 64 -53 27 -22 100 -86 162 -143 l113 -103 1887 2 1888 3 31
60 c18 33 36 71 40 85 4 14 16 43 26 66 10 22 20 51 22 65 2 13 20 76 40 139
48 150 90 373 113 588 12 121 22 176 31 179 7 3 10 9 7 14 -12 20 -13 124 -1
131 9 6 9 8 -1 8 -7 0 -10 4 -7 10 3 5 2 10 -4 10 -17 0 0 30 18 31 12 0 11 3
-5 11 -26 12 -22 61 4 51 10 -4 13 -2 8 5 -4 7 -14 12 -22 12 -8 0 -14 5 -14
10 0 6 5 10 10 10 6 0 10 7 10 16 0 8 5 12 10 9 6 -4 7 -11 4 -17 -5 -8 3 -9
26 -5 18 4 36 7 41 7 5 0 9 5 9 10 0 6 -11 10 -25 10 -14 0 -25 -4 -25 -10 0
-5 -9 -1 -20 10 -11 11 -25 20 -31 20 -5 0 -7 5 -4 10 4 6 11 8 16 5 5 -3 6 1
3 9 -4 11 0 16 12 16 14 0 15 3 6 8 -8 5 -10 16 -6 28 10 27 2 17 -41 -46 -21
-30 -35 -48 -33 -40 3 8 11 33 18 55 32 102 52 134 89 146 20 6 43 18 52 25 9
8 18 12 21 9 3 -3 4 15 2 40 -4 44 -3 45 17 35 17 -9 20 -18 16 -43 -14 -77
-40 -314 -50 -452 -12 -144 -13 -150 -34 -153 -21 -3 -23 -8 -23 -72 0 -94
-35 -349 -70 -510 -43 -195 -96 -357 -171 -518 -22 -46 -39 -86 -39 -88 0 -2
999 -4 2220 -4 l2220 0 0 3750 0 3750 -4142 0 -4142 0 30 -32 c16 -18 34 -37
40 -43 6 -5 42 -46 80 -90 238 -271 425 -578 554 -908 23 -59 49 -106 63 -117
27 -22 91 -147 102 -200 4 -19 15 -53 25 -75 57 -128 66 -476 16 -694 -21 -96
-48 -73 -61 51 -6 53 -12 71 -34 92 -25 23 -140 86 -159 86 -5 0 -5 25 -1 58
8 58 17 384 11 377 -2 -2 -7 -25 -12 -52 l-8 -48 -1 52 c0 28 4 55 9 58 17 11
8 68 -12 73 -10 2 -18 12 -18 21 0 10 -3 21 -7 25 -5 4 -13 29 -20 54 -28 112
-47 177 -52 182 -3 3 -15 30 -25 60 -43 124 -167 374 -237 478 -16 24 -29 45
-29 48 0 10 -123 177 -183 249 -71 84 -198 218 -250 263 l-38 32 -1374 0
-1375 0 0 -604z m9326 284 c0 -12 -4 -16 -9 -11 -5 5 -6 14 -3 20 10 15 12 14
12 -9z m-6923 -58 c-35 -68 -31 -80 25 -88 64 -9 196 -51 257 -82 148 -74 309
-223 388 -358 274 -469 82 -1069 -416 -1299 -92 -43 -190 -68 -229 -59 -17 3
-28 2 -25 -3 6 -10 -152 0 -278 18 -272 37 -528 202 -657 422 -91 156 -125
263 -135 424 -9 141 26 313 88 434 22 44 94 154 113 175 6 6 25 26 42 45 62
68 124 118 194 158 135 76 227 107 388 131 83 13 111 30 48 30 -31 0 -238 -25
-276 -34 -8 -1 -27 -8 -42 -14 -15 -6 -35 -9 -45 -5 -11 4 -14 3 -9 -5 5 -8
-1 -12 -18 -12 -14 0 -28 -4 -31 -10 -3 -5 -15 -10 -26 -10 -10 0 -19 -4 -19
-10 0 -5 -9 -10 -19 -10 -10 0 -21 -7 -25 -15 -3 -8 -9 -14 -14 -13 -11 4
-163 -106 -214 -155 -22 -21 -36 -42 -32 -49 4 -7 3 -8 -4 -4 -7 4 -12 1 -12
-8 0 -9 -5 -16 -10 -16 -6 0 -15 -11 -20 -25 -5 -14 -15 -25 -21 -25 -6 0 -8
-7 -5 -16 3 -8 2 -13 -2 -10 -9 5 -48 -54 -44 -67 4 -12 -28 -41 -36 -33 -3 4
-2 10 3 14 6 4 18 25 28 47 51 109 184 272 289 353 203 156 429 228 719 229
l105 1 -23 -46z m221 -7 c15 -8 35 -15 42 -15 8 0 44 -13 81 -30 258 -117 468
-369 558 -671 38 -125 45 -184 51 -386 5 -185 3 -202 -32 -351 -11 -49 -12
-72 -4 -103 6 -23 8 -59 5 -81 l-7 -40 -17 24 c-13 21 -20 24 -43 16 -14 -5
-29 -15 -32 -23 -8 -22 6 -86 20 -92 10 -4 8 -12 -9 -36 -12 -18 -23 -39 -25
-47 -3 -19 -92 -100 -154 -142 -27 -17 -48 -35 -48 -39 0 -5 -7 -6 -15 -3 -8
4 -15 1 -15 -6 0 -6 -4 -9 -9 -5 -5 3 -12 1 -16 -5 -3 -5 -1 -10 6 -10 7 0 10
-3 7 -6 -4 -3 -18 2 -31 11 -24 16 -25 15 -20 -3 5 -20 -22 -39 -32 -22 -9 14
-25 12 -25 -3 0 -7 -17 -19 -37 -26 -21 -8 -41 -18 -44 -23 -3 -5 -19 -10 -35
-11 -16 -1 -34 -8 -40 -16 -6 -8 -16 -11 -22 -7 -23 14 -11 25 33 32 62 9 46
26 -21 22 -36 -3 -54 0 -54 8 0 6 -24 19 -54 28 -30 10 -60 23 -66 31 -8 10
-45 11 -163 8 -83 -3 -183 -1 -222 5 -89 12 -224 49 -248 67 -18 13 -18 15 -1
44 22 37 24 37 117 10 94 -27 306 -37 414 -19 544 87 898 621 769 1160 -66
279 -282 528 -550 637 -84 34 -85 35 -73 93 3 14 6 28 6 33 1 11 23 8 55 -8z
m6754 -7 c11 -14 10 -16 -5 -14 -10 2 -17 6 -15 9 1 4 2 12 2 19 0 6 1 9 3 7
1 -2 8 -12 15 -21z m12 -38 c0 8 9 0 20 -18 15 -24 18 -38 10 -50 -8 -14 -9
-12 -10 11 0 16 -4 26 -9 22 -6 -3 -15 3 -20 14 -14 25 -14 41 -1 21 9 -13 10
-13 10 0z m41 -97 c-12 -20 -14 -14 -5 12 4 9 9 14 11 11 3 -2 0 -13 -6 -23z
m29 -13 c0 -5 -5 -10 -11 -10 -5 0 -7 5 -4 10 3 6 8 10 11 10 2 0 4 -4 4 -10z
m44 -99 c-7 -7 -12 3 -19 34 l-6 30 14 -30 c8 -16 13 -32 11 -34z m76 -95 c0
-12 -5 -7 -19 24 -11 24 -11 24 3 6 9 -11 16 -24 16 -30z m54 -93 c20 -37 34
-68 32 -70 -2 -2 -20 28 -40 67 -20 38 -35 70 -32 70 2 0 21 -30 40 -67z
m-681 -150 c41 -76 96 -178 122 -228 26 -49 100 -189 165 -310 64 -121 152
-286 195 -367 47 -90 85 -150 96 -153 20 -7 25 -21 10 -27 -6 -1 19 -55 53
-118 85 -153 148 -282 141 -288 -2 -3 -9 6 -14 19 -7 16 -10 19 -10 7 -1 -15
15 -32 30 -33 4 0 30 -45 59 -100 101 -192 133 -250 143 -256 5 -4 44 -12 86
-19 42 -7 83 -16 91 -21 10 -6 1 -7 -24 -3 -26 5 -37 3 -32 -4 12 -20 -6 -41
-40 -48 -19 -3 -34 -8 -34 -10 0 -2 13 -26 30 -53 16 -28 42 -77 58 -108 16
-32 80 -155 142 -273 62 -118 142 -271 177 -340 36 -69 72 -132 79 -141 8 -8
14 -21 14 -27 0 -6 29 -65 65 -132 52 -96 275 -516 352 -662 8 -16 19 -28 24
-28 5 0 9 -4 9 -10 0 -5 17 -36 39 -69 21 -33 42 -78 46 -98 3 -21 53 -129
110 -240 58 -112 101 -203 97 -203 -4 0 -52 87 -106 193 -99 193 -116 222
-116 199 0 -7 -9 -22 -20 -34 -26 -28 -92 -21 -146 16 l-39 26 -16 -52 c-20
-68 -68 -190 -80 -202 -11 -12 -22 -1 -24 24 -1 11 -9 26 -18 33 -15 11 -15
17 9 82 27 74 42 182 29 212 -5 10 -7 21 -7 26 1 4 -20 -7 -47 -25 -27 -18
-64 -42 -84 -53 l-35 -20 159 -305 c87 -168 158 -309 158 -315 1 -18 -33 46
-169 310 -140 274 -152 295 -187 333 -12 13 -19 30 -17 37 8 20 -67 156 -111
204 -56 60 -62 72 -70 126 -7 44 -102 245 -152 322 -9 13 -12 31 -8 45 4 15 3
18 -3 10 -6 -8 -24 17 -60 82 -29 53 -52 98 -52 102 0 3 -12 15 -26 26 -15 12
-23 26 -20 35 4 8 -11 47 -33 87 -21 39 -73 136 -114 216 -42 80 -86 165 -99
189 -13 24 -34 55 -47 70 -32 36 -53 79 -45 93 4 7 3 8 -4 4 -8 -5 -12 0 -12
14 0 11 -23 64 -51 118 -95 180 -166 316 -223 424 -132 255 -170 321 -187 325
-23 6 -32 42 -10 41 122 -2 426 15 442 25 16 10 21 9 29 -3 5 -8 10 -11 10 -6
0 8 -96 194 -107 206 -2 2 -12 0 -21 -6 -9 -6 -53 -30 -97 -53 -177 -95 -245
-137 -245 -151 0 -19 -54 48 -56 70 -1 8 -29 65 -61 125 -33 61 -88 163 -122
228 -58 110 -333 626 -408 765 -19 34 -30 62 -25 62 4 0 70 -116 145 -257 75
-142 137 -251 137 -243 0 9 67 83 149 166 l149 150 -20 39 c-11 22 -55 106
-99 186 -74 138 -84 159 -75 159 2 0 37 -62 79 -137z m735 42 c-3 -3 -9 2 -12
12 -6 14 -5 15 5 6 7 -7 10 -15 7 -18z m-8398 -79 c0 -8 -4 -17 -9 -20 -5 -4
-12 -24 -16 -46 -4 -22 -11 -40 -16 -40 -5 0 -9 -13 -9 -30 0 -16 -4 -30 -9
-30 -8 0 -2 43 12 80 3 8 11 34 17 58 10 40 30 58 30 28z m2130 -61 c0 -5 -5
-3 -10 5 -5 8 -10 20 -10 25 0 6 5 3 10 -5 5 -8 10 -19 10 -25z m6349 -15 c11
-24 11 -24 -3 -6 -9 11 -16 24 -16 30 0 12 5 7 19 -24z m-25 -6 c3 -8 2 -12
-4 -9 -6 3 -10 10 -10 16 0 14 7 11 14 -7z m66 -68 c0 -12 -5 -7 -19 24 -11
24 -11 24 3 6 9 -11 16 -24 16 -30z m-6343 -38 c-3 -8 -6 -5 -6 6 -1 11 2 17
5 13 3 -3 4 -12 1 -19z m-2240 -30 c-3 -7 -5 -2 -5 12 0 14 2 19 5 13 2 -7 2
-19 0 -25z m8628 -8 c3 -5 1 -10 -4 -10 -6 0 -11 5 -11 10 0 6 2 10 4 10 3 0
8 -4 11 -10z m-10 -30 c3 -5 1 -10 -4 -10 -6 0 -11 5 -11 10 0 6 2 10 4 10 3
0 8 -4 11 -10z m-8606 -300 c21 -93 23 -106 12 -89 -23 35 -41 162 -39 272 l1
112 8 -125 c4 -69 12 -145 18 -170z m6925 233 c9 -18 14 -33 12 -33 -6 0 -36
55 -36 66 0 11 5 3 24 -33z m1716 17 c0 -5 -5 -10 -11 -10 -5 0 -7 5 -4 10 3
6 8 10 11 10 2 0 4 -4 4 -10z m18 -65 c-3 -3 -9 2 -12 12 -6 14 -5 15 5 6 7
-7 10 -15 7 -18z m-1704 -11 c3 -8 2 -12 -4 -9 -6 3 -10 10 -10 16 0 14 7 11
14 -7z m41 -74 c14 -27 23 -50 20 -50 -2 0 -16 23 -30 50 -14 28 -23 50 -20
50 2 0 16 -22 30 -50z m-152 -9 c25 15 84 0 110 -27 12 -13 28 -24 35 -24 6 0
12 -5 12 -11 0 -6 7 -9 15 -5 8 3 14 0 12 -7 -1 -7 6 -11 15 -11 22 2 114
-139 122 -186 3 -20 12 -63 20 -98 8 -34 13 -72 12 -85 -6 -46 -39 -147 -52
-158 -8 -6 -14 -18 -14 -25 0 -21 -9 -17 -46 21 -18 19 -29 35 -23 35 8 0 7 5
-1 15 -10 12 -10 18 0 30 7 8 15 13 19 11 3 -2 7 14 9 36 1 23 6 46 9 52 23
37 -28 208 -75 254 -76 72 -129 100 -152 79 -10 -9 -12 -8 -7 6 6 15 3 16 -13
7 -10 -5 -28 -10 -40 -10 -12 0 -18 -4 -15 -10 3 -5 -7 -12 -22 -16 -15 -4
-40 -15 -54 -25 -14 -10 -30 -15 -34 -11 -5 4 -5 1 -1 -6 4 -7 3 -18 -2 -25
-5 -7 -17 -43 -26 -80 -23 -90 -13 -133 50 -222 12 -17 25 -40 28 -52 4 -13
12 -23 17 -23 5 0 9 -9 9 -20 0 -11 3 -20 8 -20 4 0 12 -11 19 -25 6 -14 7
-25 3 -25 -4 0 -3 -11 3 -24 8 -16 14 -21 19 -13 5 8 8 7 8 -3 0 -8 3 -26 7
-39 4 -17 3 -22 -5 -17 -9 5 -9 0 -2 -19 15 -40 13 -68 -5 -61 -17 6 -21 -9
-5 -19 16 -10 11 -41 -10 -60 -12 -11 -18 -26 -15 -35 4 -12 -1 -19 -15 -23
-11 -3 -20 -9 -19 -14 3 -20 -2 -33 -13 -30 -7 1 -12 -7 -13 -18 0 -32 -99
-93 -171 -107 -57 -10 -64 -9 -115 14 -30 14 -76 47 -103 72 -27 25 -53 46
-57 46 -5 0 -16 14 -24 30 -9 17 -20 28 -25 25 -6 -4 -10 1 -10 9 0 9 -4 16
-10 16 -5 0 -10 6 -10 13 0 8 -16 31 -36 51 -20 20 -37 47 -39 59 -4 36 -9 52
-19 58 -5 4 -8 18 -8 32 0 19 -4 24 -17 20 -13 -5 -13 -3 3 15 18 21 18 23 2
67 -15 37 -16 51 -6 81 7 20 10 48 7 64 -4 19 -2 30 8 34 10 3 12 0 8 -12 -3
-9 6 -1 21 18 14 19 24 41 21 49 -7 18 33 61 57 61 23 0 128 -68 128 -83 0 -3
-16 -14 -35 -26 -19 -11 -35 -16 -35 -11 0 6 -5 10 -11 10 -5 0 -7 -4 -4 -10
3 -5 0 -10 -7 -10 -9 0 -9 -3 2 -10 11 -7 12 -12 4 -17 -23 -15 -41 -79 -43
-148 -4 -148 73 -329 160 -374 45 -24 122 -29 169 -11 3 1 11 3 17 4 7 0 12 5
12 10 0 4 16 19 36 33 19 13 33 28 30 32 -2 5 6 20 20 35 14 15 24 30 23 34
-1 7 3 21 21 67 5 11 5 30 0 43 -5 13 -5 22 1 22 6 0 10 -5 10 -12 0 -6 3 -8
7 -5 3 4 -1 15 -10 25 -10 10 -14 21 -11 25 4 4 0 17 -8 29 -8 13 -20 42 -28
66 -7 23 -17 42 -22 42 -5 0 -7 4 -3 10 3 5 -6 27 -20 49 -14 23 -25 45 -25
51 0 6 -4 9 -8 6 -7 -4 -9 3 -13 59 -1 14 -6 28 -12 32 -6 3 -7 1 -3 -5 4 -7
3 -12 -2 -12 -13 0 -23 27 -16 44 3 8 1 17 -5 20 -6 4 -8 13 -5 21 4 8 9 13
14 10 4 -2 6 7 4 21 -1 14 4 37 12 52 8 15 14 36 14 47 0 15 3 17 9 7 6 -10
12 0 19 30 10 38 62 107 62 82 0 -5 4 -3 8 3 4 7 32 17 62 23 29 6 55 12 58
14 2 3 14 1 26 -4 13 -4 29 -4 39 1z m1951 -98 c9 -18 14 -33 12 -33 -6 0 -36
55 -36 66 0 11 5 3 24 -33z m-1960 -21 c3 -5 -1 -9 -9 -9 -8 0 -12 4 -9 9 3 4
7 8 9 8 2 0 6 -4 9 -8z m-7684 -22 c0 -5 -2 -10 -4 -10 -3 0 -8 5 -11 10 -3 6
-1 10 4 10 6 0 11 -4 11 -10z m9709 -90 c0 -8 -6 0 -14 19 -8 18 -15 36 -15
40 1 13 29 -45 29 -59z m-8823 32 c-2 -4 13 -43 35 -87 21 -44 38 -76 39 -70
0 5 9 -8 21 -30 11 -22 27 -45 35 -51 8 -6 14 -14 14 -17 0 -4 27 -35 60 -69
33 -35 60 -66 60 -70 0 -5 5 -8 11 -8 6 0 33 -16 59 -35 26 -19 65 -38 86 -43
37 -8 39 -10 38 -48 0 -21 -4 -52 -8 -68 l-7 -29 -19 31 c-10 17 -44 49 -75
72 -62 46 -154 135 -200 193 -99 126 -193 337 -150 337 4 0 4 -3 1 -8z m4997
-12 c-3 -12 -8 -19 -11 -16 -5 6 5 36 12 36 2 0 2 -9 -1 -20z m-16 -92 c-2
-13 -4 -5 -4 17 -1 22 1 32 4 23 2 -10 2 -28 0 -40z m893 32 c6 -11 8 -20 6
-20 -3 0 -10 9 -16 20 -6 11 -8 20 -6 20 3 0 10 -9 16 -20z m60 -110 c17 -33
28 -60 25 -60 -2 0 -18 27 -35 60 -17 33 -28 60 -25 60 2 0 18 -27 35 -60z
m-6633 -22 c-3 -7 -5 -2 -5 12 0 14 2 19 5 13 2 -7 2 -19 0 -25z m6797 -3 c-4
-8 -10 -12 -15 -9 -11 6 -2 24 11 24 5 0 7 -7 4 -15z m-542 -180 c36 -66 88
-163 115 -215 28 -52 88 -165 133 -250 45 -85 104 -195 130 -245 26 -49 124
-234 217 -410 94 -176 201 -378 238 -450 78 -150 228 -433 290 -550 268 -502
432 -812 515 -970 150 -285 340 -643 395 -745 34 -63 95 -178 135 -255 40 -77
88 -168 107 -203 18 -34 30 -62 26 -62 -5 0 -29 40 -54 88 -26 48 -87 164
-136 257 -50 94 -118 224 -153 290 -61 117 -104 198 -180 340 -64 119 -124
233 -225 425 -128 244 -1041 1968 -1255 2370 -92 173 -193 365 -225 425 -32
61 -80 150 -107 199 -26 49 -48 94 -48 100 0 6 4 4 9 -4 4 -8 37 -69 73 -135z
m3369 118 c-12 -20 -14 -14 -5 12 4 9 9 14 11 11 3 -2 0 -13 -6 -23z m-2921
-47 c0 -12 -5 -7 -19 24 -11 24 -11 24 3 6 9 -11 16 -24 16 -30z m1218 19 c-3
-3 -9 2 -12 12 -6 14 -5 15 5 6 7 -7 10 -15 7 -18z m36 -61 c3 -8 2 -12 -4 -9
-6 3 -10 10 -10 16 0 14 7 11 14 -7z m1738 -46 c-13 -13 -24 5 -16 27 7 16 8
16 17 0 6 -11 6 -20 -1 -27z m9 -31 c-10 -9 -11 -8 -5 6 3 10 9 15 12 12 3 -3
0 -11 -7 -18z m-1701 -7 c6 -11 8 -20 6 -20 -3 0 -10 9 -16 20 -6 11 -8 20 -6
20 3 0 10 -9 16 -20z m1748 -32 c11 -14 10 -16 -5 -14 -10 2 -17 6 -15 9 1 4
2 12 2 19 0 6 1 9 3 7 1 -2 8 -12 15 -21z m-1698 -35 c0 -7 4 -13 9 -13 5 0
15 -15 22 -32 7 -18 27 -54 44 -79 16 -26 64 -113 105 -195 41 -82 78 -151 81
-154 10 -8 49 -93 49 -107 0 -7 4 -13 8 -13 14 0 54 -80 48 -95 -3 -8 0 -12 7
-10 7 3 20 -12 29 -33 21 -44 39 -74 53 -84 6 -5 4 -12 -5 -19 -10 -7 -11 -12
-4 -15 12 -5 7 -44 -5 -44 -4 0 -12 5 -19 12 -7 7 -12 8 -12 3 0 -6 -5 -3 -11
5 -9 13 -10 13 -6 0 2 -8 9 -14 15 -13 5 1 13 -5 17 -15 3 -9 3 -13 -1 -9 -4
4 -13 2 -21 -4 -10 -9 -13 -8 -13 1 0 7 -6 10 -14 7 -15 -6 -56 19 -56 34 0 6
5 7 12 3 7 -4 8 -3 4 5 -4 6 -11 9 -16 6 -5 -3 -23 25 -40 62 -34 74 -32 71
-72 131 -31 46 -35 57 -15 45 6 -4 22 -8 34 -8 17 -1 20 2 11 13 -8 9 -13 10
-18 2 -4 -7 -12 -5 -21 6 -9 11 -9 15 -2 10 9 -5 11 -2 7 8 -3 9 -9 15 -12 14
-22 -2 -30 4 -25 23 5 18 3 20 -17 14 -25 -8 -246 -149 -295 -188 -16 -13 -43
-32 -60 -41 -16 -9 -57 -32 -90 -51 -33 -19 -109 -60 -170 -91 -60 -31 -139
-72 -174 -91 -73 -39 -102 -40 -108 -3 -2 13 -9 27 -15 32 -7 4 -9 10 -5 14 4
4 2 13 -4 21 -9 10 -8 13 5 13 16 0 16 1 1 17 -16 15 -15 18 7 34 24 19 37 22
76 19 12 -1 22 3 22 9 0 6 -7 8 -15 5 -23 -9 -18 4 6 17 12 6 19 7 15 1 -6
-10 23 -26 32 -17 3 3 0 5 -6 5 -6 0 -9 6 -6 13 7 20 83 60 100 53 8 -3 13 -2
10 3 -9 14 44 33 59 21 10 -8 25 -5 59 11 54 25 66 39 35 39 -31 0 -11 19 27
26 15 3 34 9 40 15 7 6 16 4 24 -6 10 -12 15 -13 28 -3 13 12 14 10 3 -12 -9
-20 -6 -18 19 10 16 19 30 40 30 47 0 7 5 13 11 13 5 0 7 5 4 10 -9 14 -25 12
-25 -3 0 -8 -6 -14 -14 -14 -8 0 -12 6 -9 13 5 14 31 26 41 20 4 -2 13 2 20
10 10 10 10 14 1 14 -7 0 -10 3 -6 6 3 3 14 1 24 -5 10 -6 13 -11 7 -11 -7 0
-14 -6 -17 -12 -3 -9 5 -13 24 -13 21 0 27 4 26 19 -1 12 9 24 30 35 17 9 34
24 36 34 7 23 28 22 34 -3 4 -16 8 -18 19 -9 8 6 14 17 14 24 0 6 9 20 20 30
20 19 28 41 10 30 -5 -3 -10 -1 -10 4 0 6 5 11 10 11 6 0 10 6 10 14 0 8 7 16
15 20 9 3 15 0 15 -8 0 -7 7 -19 15 -26 8 -7 12 -17 8 -23 -3 -6 -1 -7 5 -3 6
3 10 15 9 26 -1 10 -5 16 -9 14 -4 -3 -8 1 -8 9 0 19 -40 65 -40 46 -1 -10 -4
-9 -11 4 -5 9 -16 17 -24 17 -11 0 -13 8 -8 30 5 26 3 29 -12 24 -15 -6 -17
-3 -13 20 3 15 3 24 0 22 -6 -6 -42 38 -42 52 0 6 -16 29 -35 53 -23 27 -33
45 -26 52 5 5 7 16 4 25 -5 10 -2 13 6 8 7 -5 10 -14 7 -22 -3 -8 -1 -14 5
-14 15 0 66 -56 74 -80 4 -12 9 -19 12 -17 6 7 -22 61 -41 76 -8 7 -12 20 -9
28 4 10 2 14 -4 10 -6 -4 -13 3 -17 16 -9 35 -7 47 9 47 8 0 15 7 15 15 0 13
3 13 20 3 11 -7 20 -18 20 -25z m-93 -15 c-3 -8 -6 -5 -6 6 -1 11 2 17 5 13 3
-3 4 -12 1 -19z m1827 -23 c17 -30 17 -30 -2 -8 -11 12 -23 19 -26 15 -4 -3
-4 2 0 11 3 10 7 17 8 15 1 -2 10 -16 20 -33z m36 -68 c0 -5 -4 -5 -10 -2 -5
3 -10 14 -10 23 0 15 2 15 10 2 5 -8 10 -19 10 -23z m18 -53 c-3 -14 -5 -12
-10 9 -3 19 -2 25 4 19 6 -6 8 -18 6 -28z m-5165 -29 c464 -72 860 -254 1205
-554 70 -61 70 -59 -8 -104 -32 -18 -50 -23 -60 -17 -8 5 -27 10 -42 10 -20 0
-28 5 -28 18 0 11 -11 24 -25 30 -14 6 -25 16 -25 22 0 5 -5 10 -11 10 -19 0
-149 124 -149 143 0 10 -7 20 -15 23 -8 4 -15 12 -15 20 0 22 -28 5 -34 -22
-4 -14 -13 -27 -21 -30 -15 -6 -47 22 -58 49 -5 13 -19 17 -60 17 -49 0 -88 8
-142 30 -11 4 -31 12 -45 17 -27 11 -200 -5 -200 -18 0 -4 -19 -10 -42 -14
-24 -4 -58 -14 -77 -21 -25 -11 -36 -11 -41 -3 -5 7 -31 9 -84 4 -65 -6 -81
-12 -101 -33 -16 -17 -40 -27 -75 -33 -61 -9 -72 -17 -47 -30 21 -12 22 -32 2
-49 -13 -10 -15 -9 -15 9 0 11 -4 21 -10 21 -5 0 -10 -18 -10 -39 0 -33 -4
-40 -22 -44 -22 -3 -21 -4 7 -16 16 -7 32 -15 35 -19 3 -4 22 -15 43 -24 20
-10 37 -23 37 -29 0 -7 7 -17 17 -24 9 -7 17 -21 18 -31 3 -41 30 -114 42
-114 19 0 16 -17 -4 -30 -17 -11 -17 -11 0 -6 11 3 31 -1 45 -9 15 -8 70 -29
122 -46 144 -48 323 -143 450 -241 71 -54 116 -53 170 7 14 15 44 40 67 55 43
29 130 107 167 149 35 41 189 194 232 231 201 176 281 230 341 230 52 0 150
-89 224 -202 59 -92 55 -113 -32 -204 l-72 -74 48 -72 c99 -146 213 -393 269
-578 70 -235 96 -401 103 -650 7 -257 -1 -334 -73 -700 l-5 -25 15 25 c8 14
15 19 16 12 0 -7 4 -11 9 -7 5 3 16 -1 23 -9 13 -12 16 -11 27 6 10 16 15 17
26 8 8 -7 13 -16 10 -20 -9 -15 26 -40 58 -41 59 -2 62 -4 59 -24 -2 -11 -6
-53 -9 -93 -6 -71 -16 -91 -26 -52 -4 15 -14 20 -37 20 -18 0 -29 -4 -25 -10
3 -6 -3 -10 -14 -10 -13 0 -21 -7 -21 -17 0 -30 -24 -83 -37 -83 -18 0 -20 37
-10 170 3 46 2 67 -3 55 -7 -17 -9 -16 -9 10 -1 21 -4 26 -10 17 -6 -10 -10
-6 -15 14 -6 22 -9 25 -17 13 -7 -12 -9 -12 -9 1 -1 8 -19 -36 -40 -99 -22
-63 -42 -116 -45 -120 -11 -11 -25 24 -20 49 3 14 20 69 36 123 17 54 29 100
27 102 -2 3 -21 -50 -42 -115 -21 -66 -43 -120 -49 -120 -7 1 -23 7 -37 15
-18 10 -20 14 -8 15 11 0 18 12 23 40 4 22 11 42 16 46 5 3 9 12 9 21 0 8 6
29 14 46 31 70 89 310 83 347 -1 8 4 66 12 128 8 69 11 141 7 185 -4 40 -9
115 -11 167 -3 52 -12 120 -20 150 -9 30 -20 75 -24 100 -7 41 -34 107 -50
120 -3 3 -15 32 -26 65 -10 33 -42 96 -70 140 -28 44 -57 92 -65 108 -7 15
-17 27 -22 27 -4 0 -8 7 -8 15 0 9 -6 18 -14 21 -8 3 -15 30 -19 78 -8 92 -27
136 -72 171 -32 24 -44 27 -86 23 -31 -3 -58 -13 -72 -26 -12 -11 -38 -27 -57
-35 -19 -9 -51 -30 -70 -47 -19 -17 -79 -70 -132 -117 -54 -48 -98 -91 -98
-96 0 -5 -27 -37 -61 -72 l-60 -63 35 -71 c297 -588 144 -1333 -365 -1781
-226 -200 -503 -325 -794 -360 -44 -5 -102 -12 -130 -16 -104 -13 -397 31
-555 83 -277 91 -525 255 -702 464 -158 187 -252 379 -318 649 -27 110 -38
370 -21 491 73 497 361 896 811 1124 205 104 487 175 693 175 73 0 107 4 107
11 0 20 -308 5 -425 -20 -154 -33 -315 -87 -442 -149 -58 -28 -68 -29 -215
-32 -84 -2 -166 -3 -183 -3 -60 0 -410 -49 -413 -58 -5 -12 -82 -12 -82 1 0
16 -86 12 -100 -5 -11 -13 -8 -15 21 -15 32 -1 33 -2 15 -15 -14 -10 -23 -12
-32 -4 -9 7 -17 4 -28 -13 -9 -12 -16 -27 -16 -32 0 -15 -42 -46 -62 -46 -10
0 -18 7 -18 15 0 8 -7 15 -15 15 -10 0 -14 7 -12 23 2 12 2 16 0 10 -3 -7 -11
-13 -19 -13 -11 0 -12 4 -4 19 5 11 10 28 10 39 0 10 9 29 20 42 11 13 20 26
21 29 0 3 2 16 3 27 3 27 41 76 51 66 5 -4 5 -1 1 6 -5 7 4 26 21 47 15 18 44
55 63 80 81 108 157 188 290 304 86 76 252 201 266 201 3 0 24 13 47 28 23 15
56 34 72 42 17 8 32 17 35 20 6 6 245 119 280 133 14 5 32 13 40 17 29 14 295
79 390 95 52 9 133 20 180 25 116 12 413 4 533 -15z m5211 -45 c5 -19 2 -16
-13 10 -11 19 -20 39 -21 45 0 16 27 -28 34 -55z m36 -83 c-10 -9 -12 -8 -7 5
3 10 2 20 -3 23 -6 4 -10 11 -10 18 0 6 7 1 16 -12 13 -18 14 -25 4 -34z
m-4695 18 c77 -29 257 -116 252 -122 -2 -2 -31 10 -63 26 -101 50 -188 88
-226 100 -21 7 -38 14 -38 17 0 7 7 5 75 -21z m4708 -40 c-3 -9 -8 -14 -10
-11 -3 3 -2 9 2 15 9 16 15 13 8 -4z m26 -23 c6 -12 6 -23 -1 -33 -8 -11 -9
-11 -4 3 3 10 1 20 -4 23 -10 6 -14 25 -5 25 2 0 9 -8 14 -18z m-7906 -12 c4
-17 2 -18 -14 -9 -22 11 -25 29 -5 29 7 0 16 -9 19 -20z m-48 -8 c-3 -3 -11 0
-18 7 -9 10 -8 11 6 5 10 -3 15 -9 12 -12z m7992 -63 c-1 -4 5 -15 14 -25 9
-11 20 -30 23 -44 6 -23 5 -23 -10 4 -13 23 -18 26 -26 15 -6 -10 -7 -7 -3 10
5 16 4 21 -4 17 -7 -4 -9 -1 -5 8 3 8 1 23 -5 33 -7 13 -10 14 -11 4 0 -8 -2
-12 -5 -9 -3 3 -2 13 1 23 6 16 8 15 20 -6 6 -13 11 -27 11 -30z m-4452 -17
c-3 -3 -11 0 -18 7 -9 10 -8 11 6 5 10 -3 15 -9 12 -12z m2518 -10 c-3 -12
-10 -22 -15 -22 -5 0 -7 4 -3 9 3 5 0 13 -7 17 -8 5 -6 10 8 14 24 9 24 9 17
-18z m-2403 -58 c0 -2 -9 0 -20 6 -11 6 -20 13 -20 16 0 2 9 0 20 -6 11 -6 20
-13 20 -16z m1428 -9 c-3 -3 -9 2 -12 12 -6 14 -5 15 5 6 7 -7 10 -15 7 -18z
m-1323 -59 c39 -27 99 -75 135 -105 36 -30 67 -56 69 -58 2 -2 1 -6 -2 -9 -3
-4 -32 16 -62 45 -31 28 -97 81 -146 117 -49 37 -89 68 -89 71 0 6 18 -5 95
-61z m1355 4 c11 -22 18 -40 15 -40 -2 0 -14 18 -25 40 -11 22 -18 40 -15 40
2 0 14 -18 25 -40z m2970 -47 c-9 -16 -10 -15 -5 5 4 13 2 21 -3 20 -6 -2 -10
0 -11 5 -3 26 1 29 15 9 11 -17 12 -26 4 -39z m20 -18 c0 -8 -4 -15 -10 -15
-5 0 -7 7 -4 15 4 8 8 15 10 15 2 0 4 -7 4 -15z m-2920 -69 c0 -12 -5 -7 -19
24 -11 24 -11 24 3 6 9 -11 16 -24 16 -30z m463 11 c-5 -8 -8 -8 -10 0 -3 7
-12 9 -21 6 -14 -4 -14 -3 -3 5 17 12 43 4 34 -11z m1854 1 c-3 -8 -6 -5 -6 6
-1 11 2 17 5 13 3 -3 4 -12 1 -19z m683 -78 c34 -67 39 -90 15 -70 -8 7 -13
16 -10 20 7 12 -35 91 -45 85 -6 -3 -7 1 -4 9 3 9 8 16 10 16 2 0 17 -27 34
-60z m-26 4 c3 -8 2 -12 -4 -9 -6 3 -10 10 -10 16 0 14 7 11 14 -7z m-2930
-20 c3 -8 2 -12 -4 -9 -6 3 -10 10 -10 16 0 14 7 11 14 -7z m3047 -160 c17
-28 17 -32 3 -38 -12 -4 -14 -1 -9 14 4 11 2 20 -4 20 -6 0 -11 7 -11 16 0 8
-4 12 -10 9 -10 -6 -13 5 -11 40 2 17 0 17 -8 5 -12 -17 -14 -10 -4 16 6 15 9
12 21 -16 8 -19 22 -49 33 -66z m-10622 67 c-13 -11 -26 -17 -28 -15 -5 5 30
33 43 34 4 0 -2 -9 -15 -19z m8581 -52 c0 -5 5 -7 10 -4 6 3 10 1 10 -4 0 -6
5 -11 11 -11 5 0 7 6 3 13 -6 9 -5 9 8 0 8 -7 19 -9 23 -5 5 4 5 -2 1 -13 -6
-16 -5 -18 5 -7 15 14 55 16 64 2 3 -5 12 -10 18 -10 7 0 6 4 -3 10 -30 19 3
9 63 -19 34 -16 70 -32 81 -35 10 -4 16 -12 13 -20 -4 -10 0 -12 14 -9 22 6
59 -22 59 -44 0 -7 6 -13 14 -13 36 0 186 -238 157 -248 -8 -3 -7 -10 0 -24 7
-12 7 -24 2 -29 -5 -5 -6 -33 -2 -62 8 -62 3 -94 -16 -114 -8 -8 -15 -18 -15
-23 0 -5 -8 -6 -17 -3 -15 6 -16 4 -5 -9 10 -13 10 -17 -3 -22 -8 -3 -15 -13
-15 -21 0 -9 -4 -14 -9 -11 -5 3 -11 -6 -14 -19 -4 -25 -4 -25 14 -9 11 9 19
13 19 7 0 -20 -36 -42 -58 -36 -13 3 -22 1 -22 -6 0 -6 4 -11 9 -11 14 0 -3
-53 -17 -56 -7 -1 -8 0 -2 3 13 6 13 43 -1 43 -5 0 -8 -4 -4 -10 7 -11 -25
-51 -36 -44 -4 2 -5 -6 -1 -18 5 -21 4 -22 -13 -8 -17 14 -18 13 -12 -2 4 -11
0 -23 -9 -30 -9 -7 -27 -23 -40 -35 -13 -12 -26 -17 -29 -12 -10 16 -40 10
-55 -11 -8 -11 -23 -20 -33 -20 -10 0 -31 -9 -46 -19 -20 -15 -41 -19 -90 -17
-34 1 -65 -2 -67 -6 -3 -4 -14 -8 -26 -8 -13 0 -18 5 -15 14 4 10 1 13 -8 9
-8 -3 -12 -9 -9 -14 3 -5 2 -9 -3 -10 -4 0 -18 -2 -30 -5 -13 -2 -23 1 -23 6
0 6 5 10 10 10 6 0 10 4 10 10 0 5 -7 6 -17 3 -11 -4 -14 -3 -9 5 5 8 1 10
-10 5 -11 -4 -15 -3 -11 4 5 7 -1 9 -15 5 -14 -3 -19 -2 -14 6 4 7 3 12 -2 12
-5 0 -9 -11 -9 -25 0 -20 2 -23 17 -15 12 7 21 6 29 -4 8 -10 4 -13 -24 -13
-20 0 -36 6 -40 15 -3 8 -12 11 -20 8 -9 -3 -15 1 -15 11 0 13 -3 13 -15 3
-12 -10 -15 -10 -15 4 0 8 -11 18 -24 22 -23 5 -61 38 -61 53 0 3 -6 5 -12 5
-7 -1 -22 12 -32 30 -11 17 -34 42 -51 54 -17 13 -28 28 -24 34 4 6 3 8 -3 5
-6 -4 -16 0 -23 8 -10 13 -10 15 1 12 8 -2 11 -2 6 0 -4 3 -5 8 -2 13 3 4 -4
6 -15 3 -17 -5 -20 0 -20 29 0 19 5 39 10 44 7 7 4 10 -12 10 -28 -1 -36 28
-14 50 20 20 10 37 -18 30 -18 -4 -19 -3 -6 7 9 7 14 24 12 45 -2 18 2 40 8
47 7 9 9 26 5 45 -4 18 -3 30 4 30 6 0 8 6 5 14 -3 9 3 20 15 28 l21 13 -22
18 c-13 10 -17 16 -10 12 10 -5 18 9 10 18 -2 1 5 13 15 27 9 13 17 35 17 47
0 13 4 23 10 23 5 0 7 -8 4 -17 -3 -10 1 -7 9 7 10 17 12 30 6 42 -6 11 -5 19
3 24 7 4 8 3 4 -4 -4 -7 -1 -12 8 -12 9 0 18 11 22 25 3 14 16 31 28 37 20 11
20 10 4 -9 -20 -22 -24 -43 -8 -43 6 0 10 6 10 13 0 23 70 97 85 90 8 -3 15 0
15 7 0 6 6 8 13 4 6 -4 9 -4 5 1 -9 9 9 35 24 35 6 0 5 -7 -2 -15 -11 -13 -10
-14 4 -9 9 3 16 15 16 25 0 16 3 18 18 10 14 -7 25 -6 42 6 17 12 25 13 28 5
5 -15 49 -16 54 0 2 6 21 13 42 14 21 2 41 6 44 9 9 9 32 5 32 -6z m320 -43
c0 -12 -5 -7 -19 24 -11 24 -11 24 3 6 9 -11 16 -24 16 -30z m1777 -75 c17
-32 27 -64 23 -71 -4 -7 -10 1 -13 20 -4 17 -11 29 -16 25 -5 -3 -13 0 -17 6
-5 8 -3 9 6 4 10 -6 12 -4 7 9 -4 10 -7 21 -7 24 0 4 -5 0 -11 -8 -8 -12 -9
-10 -4 8 4 13 2 22 -4 22 -6 0 -11 5 -11 10 0 25 19 5 47 -49z m87 -161 c18
-36 43 -82 54 -102 12 -21 19 -45 15 -54 -4 -12 -3 -15 5 -10 7 4 12 3 12 -3
0 -5 6 -16 13 -23 19 -21 70 -119 64 -124 -3 -3 -8 4 -12 15 -4 12 -11 18 -17
15 -7 -5 -9 -2 -6 7 3 8 0 23 -8 34 -8 10 -14 13 -14 6 0 -7 -5 -9 -11 -5 -8
5 -8 9 1 14 9 6 9 12 -1 29 -17 25 -31 28 -22 4 3 -10 3 -15 -1 -11 -7 5 -13
27 -15 51 -1 5 -6 5 -13 1 -7 -4 -8 -3 -4 5 4 6 12 8 18 5 6 -4 8 -1 6 7 -3 8
-11 13 -18 11 -8 -2 -10 3 -7 13 4 8 3 15 -1 15 -4 0 -15 18 -25 40 -19 44
-28 52 -20 18 3 -13 2 -20 -2 -16 -4 4 -8 22 -7 40 1 25 -2 29 -9 18 -8 -11
-9 -7 -4 15 6 29 6 29 -10 10 -16 -20 -16 -20 -10 2 3 12 1 24 -4 27 -6 4 -7
14 -4 22 7 19 10 15 57 -76z m-3000 64 c3 -8 2 -12 -4 -9 -6 3 -10 10 -10 16
0 14 7 11 14 -7z m20 -40 c3 -8 2 -12 -4 -9 -6 3 -10 10 -10 16 0 14 7 11 14
-7z m34 -69 c-3 -3 -9 2 -12 12 -6 14 -5 15 5 6 7 -7 10 -15 7 -18z m41 -75
c11 -24 11 -24 -3 -6 -9 11 -16 24 -16 30 0 12 5 7 19 -24z m61 -115 c0 -5 -5
-3 -10 5 -5 8 -10 20 -10 25 0 6 5 3 10 -5 5 -8 10 -19 10 -25z m1254 -41 c3
-8 2 -12 -4 -9 -6 3 -10 10 -10 16 0 14 7 11 14 -7z m20 -40 c3 -8 2 -12 -4
-9 -6 3 -10 10 -10 16 0 14 7 11 14 -7z m1726 -29 c0 -5 -5 -3 -10 5 -5 8 -10
20 -10 25 0 6 5 3 10 -5 5 -8 10 -19 10 -25z m60 -59 c0 -6 -7 -1 -15 10 -8
10 -15 23 -15 28 0 6 7 1 15 -10 8 -10 15 -23 15 -28z m-1710 -56 c11 -22 18
-40 15 -40 -2 0 -14 18 -25 40 -11 22 -18 40 -15 40 2 0 14 -18 25 -40z m67
-155 c4 0 33 -19 63 -41 59 -44 117 -109 112 -126 -2 -6 3 -18 11 -27 28 -33
75 -129 59 -124 -10 4 -13 2 -8 -8 3 -8 9 -22 12 -31 4 -10 11 -18 16 -18 5 0
6 5 2 12 -4 7 -3 8 4 4 17 -10 15 -23 -9 -45 -13 -12 -17 -21 -10 -26 6 -3 9
-10 6 -15 -3 -5 -1 -19 5 -30 9 -16 8 -18 -5 -14 -10 4 -15 0 -15 -10 0 -9 5
-16 10 -16 6 0 9 -3 9 -7 -3 -20 2 -34 11 -28 6 3 10 -3 10 -14 0 -11 -5 -23
-11 -27 -8 -4 -7 -9 2 -15 10 -6 11 -9 2 -9 -7 0 -13 -6 -13 -12 0 -7 -5 -20
-10 -28 -9 -13 -11 -13 -20 0 -8 13 -10 13 -10 -2 0 -9 -13 -22 -30 -30 -16
-7 -30 -16 -30 -20 0 -5 -3 -7 -7 -7 -19 3 -33 -2 -33 -12 0 -6 7 -8 16 -5 10
4 14 1 12 -6 -3 -7 -13 -13 -24 -14 -11 -1 -31 -7 -44 -14 -33 -18 -140 -20
-140 -2 0 14 -36 16 -45 2 -3 -5 0 -7 8 -4 8 3 18 1 22 -5 7 -12 -24 -15 -41
-3 -6 4 -14 16 -18 27 -3 11 -19 26 -36 33 -38 17 -90 63 -90 79 0 7 -7 13
-16 13 -8 0 -13 4 -9 9 3 5 1 12 -5 16 -6 4 -8 10 -5 15 8 13 -6 40 -20 40 -7
0 -15 -11 -17 -24 -4 -19 -1 -23 11 -19 12 3 12 2 -1 -7 -10 -6 -18 -23 -18
-38 0 -22 -2 -24 -11 -12 -9 12 -10 11 -6 -7 3 -13 2 -23 -1 -23 -7 0 -8 -11
-13 -80 -2 -24 -6 -29 -21 -24 -10 3 -18 1 -18 -5 0 -6 6 -11 13 -11 7 0 8 -3
2 -8 -5 -4 -16 -17 -23 -30 -11 -20 -11 -23 4 -20 9 2 19 -3 21 -9 3 -7 0 -13
-7 -13 -6 0 -8 -4 -5 -10 3 -5 2 -10 -3 -10 -6 0 -13 8 -17 18 -6 16 -7 16
-21 -2 -17 -23 -18 -36 -3 -36 5 0 7 5 4 10 -3 6 -1 10 6 10 7 0 9 -8 4 -22
-4 -13 -8 -36 -9 -53 -2 -16 -8 -40 -15 -52 -6 -13 -9 -23 -5 -23 3 0 1 -7 -6
-15 -7 -8 -9 -15 -6 -15 4 0 1 -10 -6 -22 -7 -13 -11 -30 -10 -39 3 -18 -41
-54 -72 -60 -23 -5 -81 46 -71 61 4 6 2 17 -5 25 -9 10 -7 21 6 47 10 18 17
36 17 39 -2 6 25 78 86 232 17 43 31 88 31 101 0 12 4 26 9 32 19 18 16 253
-3 279 -13 17 -14 17 -47 -8 -41 -30 -181 -111 -264 -151 -33 -16 -68 -36 -77
-44 -10 -8 -24 -12 -33 -9 -8 4 -15 2 -15 -3 0 -6 -7 -10 -16 -10 -8 0 -13 4
-9 9 3 5 1 12 -5 16 -5 3 -10 1 -10 -4 0 -6 -5 -11 -11 -11 -6 0 -8 7 -5 16 4
11 2 15 -8 11 -14 -6 -29 26 -18 38 4 4 7 14 7 22 0 9 7 19 15 21 13 5 13 3 0
-13 -13 -16 -13 -18 0 -13 16 5 17 21 4 53 -7 17 -6 18 8 7 12 -9 18 -10 23
-2 5 8 11 8 20 0 9 -7 19 -5 36 9 18 14 29 17 47 10 13 -5 21 -5 18 -1 -10 17
66 65 89 56 11 -5 15 1 15 25 0 17 5 31 10 31 6 0 10 6 10 14 0 16 18 31 26
23 6 -6 -17 -59 -31 -70 -6 -5 -3 -7 6 -4 9 3 22 0 28 -6 9 -9 11 -8 6 6 -4
10 -2 17 4 17 6 0 11 8 11 18 0 13 2 14 9 3 11 -17 32 -5 25 14 -4 9 2 18 12
22 11 4 27 16 37 28 17 18 18 18 13 1 -5 -15 -4 -17 8 -7 8 6 18 11 22 10 29
-5 34 3 13 20 -13 11 -20 23 -16 27 4 5 12 2 18 -6 7 -12 10 -11 15 8 5 16 12
21 24 17 27 -8 76 5 58 16 -9 6 -9 9 -1 9 7 0 16 -7 21 -15 9 -17 42 -11 42 7
0 6 -6 5 -15 -2 -18 -15 -20 1 -3 18 9 9 9 12 0 12 -7 0 -12 -4 -12 -10 0 -5
-8 -6 -17 -3 -14 6 -12 9 12 19 15 6 30 19 31 29 3 22 24 45 24 26 0 -8 6 -11
16 -7 8 3 13 2 10 -3 -3 -5 0 -14 8 -20 11 -9 13 -6 11 13 -2 18 6 28 37 45
22 11 50 21 61 22 22 0 22 0 0 9 -13 5 -23 13 -23 18 0 13 56 35 69 28 5 -4
12 3 16 14 5 15 12 19 26 15 15 -5 19 -1 19 16 0 20 5 17 40 -22 21 -24 43
-44 47 -44z m-1217 15 c0 -5 -2 -10 -4 -10 -3 0 -8 5 -11 10 -3 6 -1 10 4 10
6 0 11 -4 11 -10z m990 -24 c0 -2 -8 -10 -17 -17 -16 -13 -17 -12 -4 4 13 16
21 21 21 13z m-283 -82 c-3 -3 -12 -4 -19 -1 -8 3 -5 6 6 6 11 1 17 -2 13 -5z
m63 -79 c0 -8 -4 -15 -10 -15 -5 0 -7 7 -4 15 4 8 8 15 10 15 2 0 4 -7 4 -15z
m-2385 -45 c-3 -5 -10 -10 -16 -10 -5 0 -9 5 -9 10 0 6 7 10 16 10 8 0 12 -4
9 -10z m1789 -106 c3 -8 2 -12 -4 -9 -6 3 -10 10 -10 16 0 14 7 11 14 -7z
m-1436 -159 c-3 -3 -9 2 -12 12 -6 14 -5 15 5 6 7 -7 10 -15 7 -18z m-287
-102 c-12 -20 -14 -14 -5 12 4 9 9 14 11 11 3 -2 0 -13 -6 -23z m3108 -43 c11
-24 11 -24 -3 -6 -9 11 -16 24 -16 30 0 12 5 7 19 -24z m-1214 -20 c9 -16 13
-30 11 -30 -3 0 -12 14 -21 30 -9 17 -13 30 -11 30 3 0 12 -13 21 -30z m-1657
-75 c-3 -3 -9 2 -12 12 -6 14 -5 15 5 6 7 -7 10 -15 7 -18z m2932 -19 c0 -12
-5 -7 -19 24 -11 24 -11 24 3 6 9 -11 16 -24 16 -30z m-2936 -11 c-4 -8 -8
-15 -10 -15 -2 0 -4 7 -4 15 0 8 4 15 10 15 5 0 7 -7 4 -15z m3010 -4 c4 -5
-3 -7 -14 -4 -23 6 -26 13 -6 13 8 0 17 -4 20 -9z m-83 -11 c5 0 10 -10 10
-22 l2 -23 4 23 c5 25 13 28 31 10 9 -9 12 -9 12 0 0 18 26 3 29 -16 6 -53 -8
-104 -49 -172 -20 -35 -50 -101 -50 -113 0 -7 -7 -25 -15 -41 -35 -67 -83
-185 -77 -191 4 -3 2 -9 -4 -13 -14 -10 -54 -94 -48 -103 2 -4 19 -6 37 -4 17
3 93 -9 167 -24 74 -16 138 -27 142 -24 5 2 8 0 8 -6 0 -6 6 -8 13 -6 7 3 35
1 62 -5 28 -6 66 -12 85 -14 19 -2 41 -4 48 -5 6 0 21 -10 32 -21 11 -11 20
-15 20 -9 0 8 4 8 13 1 6 -5 21 -11 31 -13 12 -3 20 -13 21 -29 3 -34 -13 -52
-39 -44 -18 6 -19 5 -7 -10 19 -22 -6 -22 -31 0 -16 16 -18 16 -24 0 -8 -21
-29 -20 -51 3 -18 19 -73 26 -73 10 0 -5 -5 -9 -11 -9 -8 0 -7 5 2 16 10 13
10 17 -2 25 -10 6 -15 3 -17 -11 -2 -11 -8 -20 -13 -20 -6 0 -7 6 -3 13 5 9 4
9 -6 0 -10 -9 -18 -8 -36 3 -16 11 -28 13 -41 6 -25 -13 -119 -8 -138 8 -9 7
-18 10 -22 7 -3 -4 -12 -2 -20 4 -10 9 -13 8 -13 0 0 -7 -5 -9 -12 -4 -7 4
-33 9 -58 10 -32 3 -50 10 -61 25 -16 20 -18 20 -49 4 -38 -18 -60 -21 -60 -6
0 6 -7 10 -16 10 -11 0 -14 -5 -10 -17 4 -10 4 -14 0 -10 -4 4 -14 -2 -21 -13
-12 -17 -21 -19 -49 -14 -22 4 -34 2 -34 -5 0 -6 8 -11 18 -11 9 -1 -8 -11
-38 -24 -30 -12 -89 -42 -130 -66 -41 -24 -85 -48 -97 -54 -13 -6 -23 -15 -23
-19 0 -4 -8 -3 -19 2 -10 6 -22 7 -26 3 -4 -4 -5 6 -1 21 4 19 3 26 -4 22 -5
-3 -10 -13 -10 -21 0 -12 -4 -12 -25 3 -26 19 -34 45 -12 40 8 -1 11 10 10 36
-1 20 3 37 8 37 5 0 9 -6 9 -13 0 -8 7 -14 15 -14 8 0 15 4 15 9 0 4 -5 8 -11
8 -7 0 0 9 14 20 27 22 47 26 47 10 0 -5 7 -7 16 -3 9 3 14 13 11 24 -3 11 0
22 5 26 7 4 8 1 4 -8 -4 -8 -1 -6 7 3 20 25 64 40 71 25 3 -7 3 -2 0 10 -4 19
3 26 43 44 26 13 53 22 59 21 6 -1 17 5 24 13 7 8 21 15 31 15 11 0 19 4 19 8
0 5 11 15 25 22 22 12 27 11 38 -2 9 -12 17 -13 32 -7 19 9 18 9 -3 5 -13 -2
-20 0 -16 6 4 5 21 8 38 5 31 -6 31 -6 5 6 -32 14 -35 23 -14 43 18 18 21 49
3 38 -8 -5 -9 -2 -3 12 4 10 8 29 9 41 1 12 4 25 9 29 4 4 7 17 7 29 0 12 9
34 21 49 11 14 18 30 15 35 -10 15 5 43 20 37 8 -3 11 0 8 9 -13 32 121 329
144 320 7 -3 18 -5 23 -5z m-1147 -106 c3 -8 2 -12 -4 -9 -6 3 -10 10 -10 16
0 14 7 11 14 -7z m1254 -59 c-3 -3 -9 2 -12 12 -6 14 -5 15 5 6 7 -7 10 -15 7
-18z m-3087 -22 c13 -16 12 -17 -3 -4 -10 7 -18 15 -18 17 0 8 8 3 21 -13z
m71 -45 c-7 -7 -12 -8 -12 -2 0 14 12 26 19 19 2 -3 -1 -11 -7 -17z m3058 -13
c0 -5 -5 -3 -10 5 -5 8 -10 20 -10 25 0 6 5 3 10 -5 5 -8 10 -19 10 -25z
m-3020 5 c0 -5 -5 -10 -11 -10 -5 0 -7 5 -4 10 3 6 8 10 11 10 2 0 4 -4 4 -10z
m-150 -44 c0 -11 -19 -15 -25 -6 -3 5 1 10 9 10 9 0 16 -2 16 -4z m30 -11 c0
-8 -2 -15 -4 -15 -2 0 -6 7 -10 15 -3 8 -1 15 4 15 6 0 10 -7 10 -15z m3249
-155 c11 -24 11 -24 -3 -6 -9 11 -16 24 -16 30 0 12 5 7 19 -24z m-3483 -17
c-3 -4 -6 -1 -6 5 0 7 -8 12 -17 12 -15 0 -16 2 -3 10 10 6 17 4 23 -6 5 -9 6
-18 3 -21z m174 23 c0 -3 -4 -8 -10 -11 -5 -3 -10 -1 -10 4 0 6 5 11 10 11 6
0 10 -2 10 -4z m-54 -71 c4 -8 10 -15 16 -15 5 0 6 5 3 10 -10 16 28 12 53 -6
25 -17 29 -44 7 -44 -8 0 -15 -5 -15 -11 0 -6 -7 -3 -16 6 -12 11 -20 13 -27
6 -6 -6 -35 -11 -64 -11 -50 0 -53 1 -53 25 0 16 6 25 15 25 8 0 15 5 15 10 0
7 -6 7 -19 0 -30 -16 -46 -13 -31 5 8 10 30 15 62 15 34 0 50 -4 54 -15z
m2184 -20 c0 -5 -5 -3 -10 5 -5 8 -10 20 -10 25 0 6 5 3 10 -5 5 -8 10 -19 10
-25z m1219 5 c11 -24 11 -24 -3 -6 -9 11 -16 24 -16 30 0 12 5 7 19 -24z
m-555 -42 c7 -5 5 -8 -6 -8 -17 0 -22 -10 -19 -37 3 -18 -16 -16 -23 2 -3 8
-1 15 5 15 6 0 8 4 5 9 -3 4 0 20 7 34 10 21 13 23 16 9 2 -9 8 -20 15 -24z
m596 -29 c12 -23 20 -43 18 -45 -3 -2 -14 17 -26 41 -27 56 -20 60 8 4z
m-1221 -9 c11 -24 11 -24 -3 -6 -9 11 -16 24 -16 30 0 12 5 7 19 -24z m46 -81
c9 -17 15 -33 13 -35 -3 -2 -12 12 -21 31 -21 43 -13 47 8 4z m-2246 -20 c-21
-13 -39 -11 -39 6 0 8 7 15 16 15 9 0 13 -5 9 -12 -3 -7 0 -5 7 5 8 10 14 13
17 6 2 -6 -3 -15 -10 -20z m618 9 c-3 -8 -6 -5 -6 6 -1 11 2 17 5 13 3 -3 4
-12 1 -19z m-210 -40 c-3 -8 -6 -5 -6 6 -1 11 2 17 5 13 3 -3 4 -12 1 -19z
m543 -8 c0 -11 -4 -20 -10 -20 -5 0 -10 2 -10 4 0 2 -3 11 -6 20 -4 11 -1 16
10 16 9 0 16 -8 16 -20z m128 -17 c2 -8 -5 -13 -17 -13 -12 0 -21 6 -21 16 0
18 31 15 38 -3z m1825 -30 c-7 -2 -19 -2 -25 0 -7 3 -2 5 12 5 14 0 19 -2 13
-5z m-3283 -103 c0 -5 -7 -10 -16 -10 -8 0 -12 5 -9 10 3 6 10 10 16 10 5 0 9
-4 9 -10z m28 -26 c-16 -16 -31 -23 -38 -19 -9 6 -6 13 11 26 38 29 58 24 27
-7z m2682 6 c0 -5 -4 -10 -10 -10 -5 0 -10 5 -10 10 0 6 5 10 10 10 6 0 10 -4
10 -10z m-3083 -62 c-3 -8 -6 -5 -6 6 -1 11 2 17 5 13 3 -3 4 -12 1 -19z m893
-11 c0 -6 -5 -19 -10 -27 -8 -13 -11 -12 -24 5 -21 27 -20 30 9 33 14 1 25 -3
25 -11z m2315 -97 c9 -16 13 -30 11 -30 -3 0 -12 14 -21 30 -9 17 -13 30 -11
30 3 0 12 -13 21 -30z m-2381 -14 c-3 -9 -10 -16 -15 -16 -6 0 -5 9 1 21 13
24 24 20 14 -5z m2415 -56 c11 -24 11 -24 -3 -6 -9 11 -16 24 -16 30 0 12 5 7
19 -24z m-2436 -91 c-33 -56 -169 -233 -247 -321 -200 -229 -509 -450 -800
-575 -60 -25 -82 -31 -90 -22 -8 9 -8 10 1 5 6 -3 14 -2 18 4 4 6 10 8 15 5 4
-3 10 1 13 9 3 7 26 19 51 26 26 7 49 17 52 21 3 5 23 13 46 19 22 6 50 21 62
33 13 12 31 23 42 25 10 2 25 11 32 20 6 9 12 13 12 8 0 -6 43 23 105 71 6 5
24 17 40 27 17 11 44 32 60 48 17 15 33 28 37 28 17 0 238 206 238 222 0 4 7
8 15 8 8 0 15 3 15 8 0 4 18 26 39 50 57 62 153 182 146 182 -16 0 91 128 108
129 5 1 0 -13 -10 -30z m-249 -1 c-1 -13 -3 -24 -4 -25 -2 -2 -3 -7 -4 -12 -2
-18 -16 -24 -17 -8 -1 10 -2 23 -3 30 -2 13 13 37 24 37 3 0 6 -10 4 -22z
m2740 -4 c3 -8 2 -12 -4 -9 -6 3 -10 10 -10 16 0 14 7 11 14 -7z m-2579 -24
c4 -6 -20 -45 -52 -87 -32 -42 -64 -85 -72 -97 -24 -35 -291 -296 -303 -296
-6 0 -21 11 -33 24 -19 21 -20 26 -8 42 8 11 19 18 24 16 5 -1 9 5 9 14 0 8 4
13 9 9 5 -3 18 8 27 25 10 16 22 30 27 30 4 0 5 -4 2 -10 -13 -21 7 -8 40 26
19 19 38 33 43 30 5 -3 15 4 22 15 8 10 20 19 26 19 28 0 78 58 111 126 44 94
107 149 128 114z m-3742 -95 c-3 -9 -8 -14 -10 -11 -3 3 -2 9 2 15 9 16 15 13
8 -4z m316 -27 c64 -5 145 -11 181 -14 36 -2 67 -9 68 -14 2 -6 18 -10 35 -10
18 0 53 -7 79 -14 25 -8 48 -12 51 -10 8 9 77 -30 77 -43 0 -7 -4 -13 -10 -13
-23 0 -6 -26 68 -101 141 -147 247 -201 390 -201 45 0 82 -3 82 -7 0 -16 123
-102 153 -107 47 -8 78 -26 73 -41 -3 -7 0 -13 8 -13 7 0 23 -11 36 -25 58
-61 194 -136 303 -167 58 -16 88 -19 155 -13 105 8 132 18 160 58 24 36 28 77
11 109 -6 11 -9 22 -6 24 8 8 97 11 97 4 0 -11 112 -40 151 -40 68 1 209 44
209 64 0 4 7 3 15 -4 12 -10 15 -10 15 1 0 10 11 14 37 13 20 -1 69 9 110 22
40 13 83 24 95 24 12 0 31 8 42 18 21 19 174 58 184 47 3 -3 3 -6 1 -8 -2 -2
-20 -14 -39 -28 -235 -168 -605 -326 -900 -384 -608 -118 -1239 16 -1755 375
-142 98 -357 293 -348 316 4 10 0 12 -12 8 -14 -6 -16 -3 -10 17 3 13 3 19 -2
12 -10 -15 -29 -1 -67 49 l-28 37 21 30 c26 36 104 64 135 48 10 -5 71 -14
135 -19z m2281 -13 c0 -8 -4 -15 -10 -15 -5 0 -10 7 -10 15 0 8 5 15 10 15 6
0 10 -7 10 -15z m570 -101 c0 -8 -4 -14 -10 -14 -5 0 -10 9 -10 21 0 11 5 17
10 14 6 -3 10 -13 10 -21z m2471 -306 c8 -15 8 -18 0 -14 -6 4 -16 16 -22 28
-8 15 -8 18 0 14 6 -4 16 -16 22 -28z m-6579 -258 c-2 -8 3 -10 15 -6 14 6 16
5 6 -5 -10 -10 -16 -10 -25 -1 -7 7 -8 12 -2 12 5 0 2 5 -6 11 -13 9 -13 10 0
6 8 -2 14 -10 12 -17z m3599 -115 c-18 -8 -38 -15 -45 -14 -15 1 46 28 64 28
8 0 0 -6 -19 -14z m-3477 -24 c-2 -3 -12 3 -22 13 -16 17 -16 18 5 5 12 -7 20
-15 17 -18z m3396 -6 c0 -6 -132 -46 -137 -42 -5 6 98 46 120 46 9 1 17 -1 17
-4z m-3360 -15 c0 -5 -2 -10 -4 -10 -3 0 -8 5 -11 10 -3 6 -1 10 4 10 6 0 11
-4 11 -10z m45 -40 c3 -5 1 -10 -4 -10 -6 0 -11 5 -11 10 0 6 2 10 4 10 3 0 8
-4 11 -10z m3112 -6 c-3 -3 -12 -4 -19 -1 -8 3 -5 6 6 6 11 1 17 -2 13 -5z"/>
<path d="M2412 6857 c-16 -43 -15 -94 1 -104 6 -4 21 -8 32 -9 11 -1 27 -4 36
-8 12 -5 20 4 34 40 21 56 12 99 -22 99 -12 0 -25 3 -29 8 -17 17 -41 5 -52
-26z m48 -7 c0 -5 -9 -24 -20 -42 -22 -36 -28 -17 -8 27 11 25 28 34 28 15z
m50 -25 c0 -14 -32 -66 -37 -61 -8 7 17 66 28 66 5 0 9 -2 9 -5z"/>
<path d="M2383 6715 c-45 -31 -53 -124 -13 -145 51 -27 102 13 104 80 0 33 -5
46 -23 61 -28 23 -40 24 -68 4z m51 -41 c19 -7 21 -45 4 -62 -30 -30 -75 0
-64 43 6 25 27 32 60 19z"/>
<path d="M2321 6547 c-16 -42 -14 -47 19 -40 39 7 39 -11 1 -27 -36 -15 -65
-45 -57 -59 4 -6 22 -13 41 -17 20 -3 37 -10 40 -14 10 -17 -8 -39 -43 -53
-35 -14 -38 -14 -48 5 -10 19 -12 19 -23 -12 -16 -47 -15 -66 3 -51 17 14 42
-8 62 -54 l12 -30 11 28 c15 39 14 50 -5 43 -11 -4 -14 -1 -12 12 2 9 12 17
23 17 14 0 23 14 37 60 24 81 24 87 -9 79 -26 -5 -26 -4 7 17 19 13 36 23 37
24 2 1 5 15 9 31 5 28 4 29 -31 31 -22 1 -42 9 -50 20 -13 17 -14 16 -24 -10z"/>
<path d="M9064 6193 c-15 -20 -57 -70 -91 -109 -35 -40 -63 -74 -63 -76 0 -2
53 -1 117 0 85 3 123 8 134 18 17 16 29 8 42 -28 5 -13 1 -18 -12 -18 -10 0
-31 -17 -47 -37 -15 -21 -57 -71 -93 -112 -55 -62 -62 -73 -41 -68 14 3 88 11
165 18 77 6 142 13 144 15 3 2 -99 202 -192 372 l-34 63 -29 -38z"/>
<path d="M8925 5959 c-41 -6 -65 -15 -77 -29 -14 -18 -21 -19 -38 -10 -32 17
-34 6 -7 -37 13 -21 34 -60 47 -86 14 -27 28 -51 33 -54 6 -3 27 14 49 38 21
24 65 71 97 104 82 86 82 85 14 84 -32 -1 -85 -5 -118 -10z"/>
<path d="M9255 5740 c-38 -10 -111 -26 -162 -35 -50 -9 -100 -18 -110 -20 -10
-2 -22 -4 -28 -4 -37 -4 -37 -19 1 -87 20 -38 39 -71 41 -73 2 -3 36 10 76 29
39 18 97 44 127 58 30 13 73 32 95 42 77 35 83 35 91 -5 8 -43 -6 -62 -50 -70
-17 -4 -42 -14 -54 -24 l-24 -17 36 -61 c20 -34 36 -66 36 -72 0 -16 6 -14 49
13 21 14 55 32 76 40 20 9 35 21 33 28 -8 34 -143 278 -152 277 -6 0 -42 -9
-81 -19z"/>
<path d="M9205 5511 c-6 -5 -28 -14 -50 -21 -22 -7 -51 -19 -64 -27 -12 -8
-31 -13 -42 -10 -15 4 -12 -8 21 -73 22 -43 44 -81 49 -84 9 -6 36 6 110 52
19 12 38 19 42 17 4 -3 12 2 19 9 9 12 4 28 -26 80 -40 68 -43 72 -59 57z"/>
<path d="M9625 5173 c-11 -2 -31 -22 -45 -43 -41 -63 -212 -259 -224 -257 -15
3 -9 -19 20 -69 l25 -43 34 20 c19 12 39 18 44 15 5 -3 11 -2 13 2 1 5 53 33
113 63 61 29 112 55 114 56 2 1 -5 15 -15 30 -10 15 -17 34 -16 42 2 7 -1 11
-5 8 -5 -3 -18 8 -28 26 -10 18 -22 34 -26 37 -10 7 1 61 12 54 5 -3 9 3 9 13
0 15 4 14 20 -7 11 -14 20 -22 20 -18 0 12 -33 78 -39 77 -3 -1 -15 -4 -26 -6z"/>
<path d="M9400 5145 c0 -13 47 -72 52 -65 1 3 19 22 38 43 l35 38 -63 -3 c-35
-1 -62 -7 -62 -13z"/>
<path d="M9200 5140 c1 -3 25 -52 55 -109 l53 -104 39 43 c21 24 46 52 55 62
17 17 16 20 -14 68 l-32 51 -78 -2 c-43 -2 -78 -6 -78 -9z"/>
<path d="M9706 4840 c-26 -17 -96 -55 -156 -86 -61 -31 -110 -60 -110 -65 0
-8 110 -221 155 -301 l21 -37 28 45 c31 50 44 54 72 22 10 -12 14 -18 8 -15
-7 4 -14 0 -17 -8 -4 -9 -1 -12 10 -8 13 5 13 2 -1 -26 -9 -17 -20 -31 -24
-31 -5 0 -7 -17 -6 -37 4 -86 21 -108 92 -119 70 -11 97 44 66 135 -10 31 -18
76 -17 101 1 38 7 50 37 77 40 37 87 43 124 17 26 -18 27 -15 5 31 -18 37 -24
40 -110 50 -80 9 -113 23 -113 50 0 38 23 48 91 41 60 -7 60 -7 49 15 -9 15
-15 18 -23 10 -8 -8 -17 -5 -34 11 -13 12 -23 25 -23 29 0 5 -17 35 -38 69
l-38 60 -48 -30z"/>
<path d="M9924 4447 c-12 -6 -29 -23 -38 -38 -15 -25 -15 -31 0 -71 34 -93 36
-107 30 -152 -5 -32 -14 -51 -29 -61 -27 -17 -83 -17 -119 1 -46 24 -48 16
-13 -46 19 -33 80 -148 136 -255 l102 -195 56 31 c103 58 121 71 119 82 -4 23
87 213 107 220 12 5 2 32 -57 144 -39 76 -86 165 -105 198 -31 56 -33 58 -33
29 0 -43 -20 -96 -34 -91 -11 4 -11 12 0 98 8 57 -7 86 -51 105 -39 16 -41 16
-71 1z"/>
<path d="M10295 3909 c-4 -13 -22 -66 -41 -117 -19 -51 -34 -95 -34 -97 0 -3
19 -5 43 -6 23 0 75 -6 115 -13 69 -13 82 -11 63 9 -4 6 -34 60 -66 120 -67
129 -71 134 -80 104z"/>
<path d="M10445 3629 c7 -21 5 -22 -41 -16 -27 3 -92 9 -144 13 -95 6 -95 6
-160 -29 -36 -19 -64 -39 -63 -44 1 -5 21 -45 44 -88 l43 -79 12 48 c7 26 21
57 31 68 29 32 102 71 123 65 11 -3 18 -1 14 4 -12 21 146 1 166 -21 3 -3 20
-18 39 -35 l33 -30 -42 83 c-40 76 -70 110 -55 61z"/>
<path d="M10310 3494 c-88 -30 -119 -110 -79 -204 12 -28 31 -56 42 -61 48
-26 212 35 236 89 7 14 15 47 18 72 4 40 2 48 -24 72 -27 26 -88 48 -128 47
-11 0 -40 -7 -65 -15z"/>
<path d="M10565 3406 c8 -71 -26 -141 -93 -190 -47 -34 -59 -38 -124 -41 -73
-4 -73 -4 -112 33 l-38 37 25 -50 c14 -27 36 -69 49 -92 l24 -42 60 41 c57 40
220 130 270 149 20 7 26 5 31 -9 3 -9 12 -24 19 -32 11 -13 8 -15 -14 -16 -15
-1 -56 -20 -92 -43 -36 -23 -72 -44 -80 -49 -52 -25 -140 -97 -140 -115 0 -28
36 -83 70 -107 40 -29 79 -20 185 41 47 27 93 49 103 49 9 1 28 7 42 14 17 10
30 11 42 5 19 -10 24 0 9 17 -5 5 -39 68 -77 139 -37 72 -90 171 -116 220
l-48 90 5 -49z"/>
<path d="M10770 2933 c-14 -9 -50 -33 -81 -54 -31 -21 -59 -36 -62 -32 -3 3
-13 -2 -21 -10 -18 -17 -132 -33 -166 -22 -21 7 -21 7 -4 -27 9 -18 27 -52 41
-74 l24 -42 57 30 c87 46 302 170 302 174 0 2 -8 19 -17 39 -18 38 -35 42 -73
18z"/>
<path d="M10821 2780 c-13 -11 -28 -20 -35 -20 -6 0 -19 -7 -29 -14 -18 -14
-17 -16 6 -53 14 -21 50 -58 81 -82 56 -41 58 -42 82 -26 14 9 28 23 31 32 13
35 -64 183 -96 183 -9 -1 -27 -10 -40 -20z"/>
<path d="M8018 5943 c6 -2 18 -2 25 0 6 3 1 5 -13 5 -14 0 -19 -2 -12 -5z"/>
<path d="M7458 5668 c5 -5 16 -8 23 -6 8 3 3 7 -10 11 -17 4 -21 3 -13 -5z"/>
<path d="M7351 5540 c-1 -23 15 -45 23 -31 4 6 3 11 -3 11 -5 0 -12 8 -14 18
-3 12 -5 13 -6 2z"/>
<path d="M7335 5501 c-3 -5 -1 -12 5 -16 5 -3 10 1 10 9 0 18 -6 21 -15 7z"/>
<path d="M7320 5446 c0 -8 5 -18 10 -21 6 -3 10 1 10 9 0 8 -4 18 -10 21 -5 3
-10 -1 -10 -9z"/>
<path d="M7947 5084 c-3 -5 1 -15 9 -22 16 -14 18 -5 5 17 -5 7 -11 9 -14 5z"/>
<path d="M7850 5006 c7 -7 14 -6 21 1 9 9 7 12 -9 10 -14 -1 -18 -5 -12 -11z"/>
<path d="M8570 5302 c0 -5 7 -15 15 -22 8 -7 15 -8 15 -2 0 5 -7 15 -15 22 -8
7 -15 8 -15 2z"/>
<path d="M8550 5216 c0 -2 7 -9 15 -16 13 -11 14 -10 9 4 -5 14 -24 23 -24 12z"/>
<path d="M8685 5020 c-3 -5 -1 -10 4 -10 6 0 11 5 11 10 0 6 -2 10 -4 10 -3 0
-8 -4 -11 -10z"/>
<path d="M8790 4919 c0 -5 5 -7 10 -4 6 3 10 8 10 11 0 2 -4 4 -10 4 -5 0 -10
-5 -10 -11z"/>
<path d="M8700 4901 c0 -10 19 -25 25 -20 1 2 -3 10 -11 17 -8 7 -14 8 -14 3z"/>
<path d="M8762 4845 c0 -16 2 -22 5 -12 2 9 2 23 0 30 -3 6 -5 -1 -5 -18z"/>
<path d="M8580 4750 c0 -5 5 -10 10 -10 6 0 10 5 10 10 0 6 -4 10 -10 10 -5 0
-10 -4 -10 -10z"/>
<path d="M8890 4627 c0 -9 61 -97 66 -97 8 0 -39 80 -53 92 -7 6 -13 8 -13 5z"/>
<path d="M8124 4524 c3 -9 6 -18 6 -20 0 -2 5 -4 11 -4 8 0 9 4 0 13 -6 8 -8
17 -4 20 3 4 1 7 -6 7 -8 0 -11 -6 -7 -16z"/>
<path d="M8050 4521 c0 -5 -9 -13 -21 -16 -11 -4 -18 -9 -15 -12 3 -3 20 4 38
16 22 14 27 21 16 21 -10 0 -18 -4 -18 -9z"/>
<path d="M8920 4511 c0 -5 5 -13 10 -16 6 -3 10 -2 10 4 0 5 -4 13 -10 16 -5
3 -10 2 -10 -4z"/>
<path d="M8950 4510 c0 -5 4 -10 10 -10 5 0 7 -8 3 -17 -4 -14 -3 -15 6 -7 6
6 9 18 5 27 -7 18 -24 23 -24 7z"/>
<path d="M7978 4453 c-10 -2 -18 -9 -18 -14 0 -6 7 -6 18 -1 9 5 24 12 32 15
13 5 13 5 0 5 -8 0 -23 -2 -32 -5z"/>
<path d="M8032 4440 c-9 -15 -7 -19 11 -24 11 -3 23 -3 26 -1 2 3 -1 5 -7 5
-19 0 -14 18 6 22 14 3 14 5 -4 10 -14 3 -25 -1 -32 -12z"/>
<path d="M7910 4430 c-8 -5 -12 -12 -9 -15 4 -3 12 1 19 10 14 17 11 19 -10 5z"/>
<path d="M8990 4419 c0 -5 5 -7 10 -4 6 3 10 8 10 11 0 2 -4 4 -10 4 -5 0 -10
-5 -10 -11z"/>
<path d="M7891 4374 c0 -11 3 -14 6 -6 3 7 2 16 -1 19 -3 4 -6 -2 -5 -13z"/>
<path d="M7924 4366 c1 -31 6 -32 29 -6 9 11 13 20 8 20 -5 0 -16 3 -24 6 -11
4 -15 -1 -13 -20z"/>
<path d="M4720 4150 c-146 -22 -190 -32 -254 -60 -26 -11 -54 -20 -61 -20 -19
0 -70 -52 -67 -68 3 -14 -51 -72 -67 -72 -6 0 -21 -11 -33 -25 -12 -14 -26
-25 -31 -25 -30 0 -275 -226 -351 -324 -115 -147 -190 -284 -181 -328 5 -21 2
-28 -16 -33 -14 -5 -17 -10 -10 -14 8 -6 8 -16 0 -39 -6 -19 -15 -29 -22 -25
-6 4 -8 0 -5 -9 4 -8 -4 -58 -16 -110 -13 -52 -27 -129 -30 -171 -4 -42 -12
-80 -17 -83 -6 -3 -6 -10 -1 -17 5 -7 13 -61 17 -122 12 -194 22 -272 35 -280
5 -3 11 -23 15 -44 9 -54 105 -239 171 -331 61 -85 209 -235 294 -297 74 -55
100 -78 100 -91 0 -11 36 -36 53 -37 4 0 11 -4 15 -10 18 -25 177 -88 302
-120 190 -48 477 -51 644 -6 44 12 88 21 98 21 11 0 36 9 56 20 20 10 81 39
134 64 157 72 336 204 443 327 158 180 256 359 322 584 33 113 35 131 40 305
6 218 -9 340 -62 504 -140 433 -447 740 -884 886 -212 71 -388 85 -631 50z
m-1064 -1166 c-8 -33 -18 -92 -22 -131 -3 -40 -10 -73 -15 -73 -5 0 -6 21 -3
48 8 64 45 224 51 219 2 -3 -3 -31 -11 -63z m-24 -371 c2 -40 1 -73 -3 -73
-11 0 -19 42 -19 105 0 83 17 57 22 -32z"/>
<path d="M6884 4117 c-3 -8 15 -46 40 -85 134 -207 241 -466 301 -727 14 -60
22 -90 20 -65 -3 25 -21 108 -40 184 -18 77 -31 144 -28 149 3 6 2 7 -4 4 -11
-7 -37 59 -28 73 3 5 1 18 -4 27 -6 10 -11 14 -11 8 -1 -5 -14 19 -30 54 -17
35 -27 68 -23 74 3 6 1 7 -5 3 -7 -4 -12 -1 -13 6 -3 55 -73 193 -91 181 -7
-4 -8 -1 -4 6 5 7 -4 29 -19 52 -31 43 -41 51 -25 17 10 -21 10 -22 -4 -5 -8
11 -12 25 -10 32 3 7 1 16 -5 20 -6 3 -14 0 -17 -8z m145 -217 c11 -24 11 -24
-3 -6 -9 11 -16 24 -16 30 0 12 5 7 19 -24z"/>
<path d="M2951 3974 c0 -11 3 -14 6 -6 3 7 2 16 -1 19 -3 4 -6 -2 -5 -13z"/>
<path d="M7254 3148 c19 -127 26 -232 27 -403 2 -186 2 -187 10 -80 10 139
-18 525 -38 525 -3 0 -2 -19 1 -42z"/>
<path d="M7266 2485 c-4 -36 -16 -110 -27 -166 -11 -55 -19 -103 -16 -105 6
-6 45 196 53 274 4 34 5 62 2 62 -3 0 -8 -29 -12 -65z"/>
<path d="M7211 2184 c0 -11 3 -14 6 -6 3 7 2 16 -1 19 -3 4 -6 -2 -5 -13z"/>
<path d="M8775 4330 c4 -6 11 -8 16 -5 14 9 11 15 -7 15 -8 0 -12 -5 -9 -10z"/>
<path d="M8930 4300 c0 -5 5 -10 10 -10 6 0 10 5 10 10 0 6 -4 10 -10 10 -5 0
-10 -4 -10 -10z"/>
<path d="M8638 4273 c7 -3 16 -2 19 1 4 3 -2 6 -13 5 -11 0 -14 -3 -6 -6z"/>
<path d="M8988 4273 c7 -3 16 -2 19 1 4 3 -2 6 -13 5 -11 0 -14 -3 -6 -6z"/>
<path d="M9125 4232 c-11 -2 -24 -8 -29 -13 -6 -5 3 -5 20 0 16 4 35 6 42 4 6
-3 12 -3 12 0 0 9 -24 13 -45 9z"/>
<path d="M8619 4193 c-5 -12 -16 -23 -26 -23 -10 0 -38 -14 -63 -30 -25 -16
-48 -30 -52 -30 -10 0 -58 -49 -89 -90 -64 -87 -83 -252 -40 -362 12 -32 27
-58 32 -58 5 0 9 -7 9 -16 0 -8 4 -13 9 -10 5 3 28 -13 50 -36 25 -24 38 -44
31 -48 -6 -4 0 -15 15 -30 14 -13 25 -19 25 -13 0 6 -7 16 -15 23 -8 7 -12 17
-9 22 3 5 11 3 17 -4 7 -8 39 -24 72 -37 74 -28 105 -41 127 -52 24 -12 37
-11 18 1 -13 9 -13 10 0 9 26 -2 67 -17 48 -18 -10 -1 -18 -8 -18 -16 0 -13 3
-13 20 -3 11 7 20 18 20 23 0 11 21 16 73 19 15 0 27 5 27 9 0 5 5 5 10 2 6
-3 10 -2 10 3 0 4 30 21 68 36 37 15 81 38 98 51 48 36 114 102 114 113 0 6 3
12 8 14 30 13 82 170 82 250 0 76 -44 201 -83 235 -18 16 -32 34 -30 40 2 6
-4 13 -14 16 -10 2 -27 8 -38 13 -18 7 -18 6 -6 -9 7 -9 20 -17 28 -17 11 0
11 -4 2 -21 -8 -15 -14 -18 -22 -10 -6 6 -17 11 -24 11 -11 0 -11 -3 -1 -14 7
-8 16 -12 21 -9 4 2 7 -1 7 -6 0 -6 5 -11 11 -11 5 0 7 5 4 10 -3 6 -1 10 4
10 6 0 11 -6 11 -12 0 -8 7 -5 15 6 8 11 15 15 15 9 0 -13 -66 -64 -73 -57 -3
3 -3 13 0 22 4 15 3 15 -6 2 -8 -10 -13 -12 -18 -4 -5 6 -23 19 -40 28 -18 9
-33 21 -33 27 0 6 5 7 10 4 6 -3 10 -1 10 4 0 15 27 14 33 -1 3 -7 4 -3 4 10
-1 17 -6 22 -19 19 -10 -3 -21 -1 -24 4 -3 5 -10 6 -17 2 -7 -4 -4 -9 7 -13
16 -5 15 -7 -7 -17 -21 -10 -30 -9 -49 6 -43 33 -109 44 -219 36 -63 -5 -99
-4 -96 2 3 5 -1 10 -9 10 -9 0 -20 -11 -25 -24z"/>
<path d="M8375 4060 c3 -5 8 -10 11 -10 2 0 4 5 4 10 0 6 -5 10 -11 10 -5 0
-7 -4 -4 -10z"/>
<path d="M8296 4023 c-6 -14 -5 -15 5 -6 7 7 10 15 7 18 -3 3 -9 -2 -12 -12z"/>
<path d="M9320 3749 c0 -5 5 -7 10 -4 6 3 10 8 10 11 0 2 -4 4 -10 4 -5 0 -10
-5 -10 -11z"/>
<path d="M8376 3507 c3 -10 9 -15 12 -12 3 3 0 11 -7 18 -10 9 -11 8 -5 -6z"/>
<path d="M8430 3450 c13 -11 28 -20 34 -20 13 0 -35 39 -48 40 -5 0 1 -9 14
-20z"/>
<path d="M9107 3437 c-16 -18 -26 -24 -23 -14 8 24 -21 22 -34 -3 -10 -18 -8
-19 22 -16 29 4 68 36 68 57 0 12 -1 11 -33 -24z"/>
<path d="M8462 3396 c7 -8 15 -12 17 -11 5 6 -10 25 -20 25 -5 0 -4 -6 3 -14z"/>
<path d="M8614 3389 c-2 -4 7 -10 21 -13 35 -9 38 -8 41 9 2 11 -6 15 -28 13
-16 -1 -31 -5 -34 -9z"/>
<path d="M8530 3376 c0 -2 11 -11 25 -20 14 -9 25 -13 25 -8 0 5 -11 14 -25
20 -14 6 -25 10 -25 8z"/>
<path d="M8690 3362 c0 -4 9 -8 20 -8 11 0 20 4 20 8 0 4 -9 8 -20 8 -11 0
-20 -4 -20 -8z"/>
<path d="M9555 3418 c-11 -6 -35 -29 -54 -50 -19 -21 -39 -38 -45 -39 -6 0
-31 -16 -56 -34 -57 -43 -181 -118 -197 -118 -12 0 25 -82 49 -109 15 -16 27
-34 68 -103 16 -27 46 -64 67 -82 21 -17 52 -43 68 -57 17 -15 47 -31 67 -36
20 -6 39 -16 41 -23 3 -7 6 -5 6 6 1 10 9 17 22 17 25 0 104 53 124 83 14 22
27 177 15 177 -4 0 -13 19 -20 43 -14 43 -51 126 -72 162 -6 11 -15 27 -19 35
-4 8 -12 14 -19 12 -6 -1 -9 2 -6 7 4 5 1 11 -5 13 -6 2 -13 15 -14 28 -2 14
-4 30 -5 35 -1 6 -2 16 -1 24 1 11 4 11 19 0 15 -13 16 -12 3 4 -7 9 -14 17
-15 17 0 0 -10 -6 -21 -12z m10 -48 c3 -5 1 -10 -4 -10 -6 0 -11 5 -11 10 0 6
2 10 4 10 3 0 8 -4 11 -10z"/>
<path d="M9307 3373 c-13 -12 -7 -18 19 -19 14 -1 24 -1 22 0 -2 1 -10 7 -19
14 -9 6 -19 9 -22 5z"/>
<path d="M9360 3370 c0 -5 5 -10 10 -10 6 0 10 5 10 10 0 6 -4 10 -10 10 -5 0
-10 -4 -10 -10z"/>
<path d="M9240 3344 c0 -8 5 -12 10 -9 6 3 10 10 10 16 0 5 -4 9 -10 9 -5 0
-10 -7 -10 -16z"/>
<path d="M9067 3179 c7 -7 15 -10 18 -7 3 3 -2 9 -12 12 -14 6 -15 5 -6 -5z"/>
<path d="M9120 3170 c0 -5 5 -10 10 -10 6 0 10 5 10 10 0 6 -4 10 -10 10 -5 0
-10 -4 -10 -10z"/>
<path d="M8776 3044 c-11 -8 -16 -14 -10 -14 13 0 39 18 34 24 -3 2 -14 -2
-24 -10z"/>
<path d="M9215 3030 c-3 -5 -1 -10 4 -10 6 0 11 5 11 10 0 6 -2 10 -4 10 -3 0
-8 -4 -11 -10z"/>
<path d="M8775 3020 c-16 -7 -17 -9 -3 -9 9 -1 20 4 23 9 7 11 7 11 -20 0z"/>
<path d="M8614 2919 c0 -10 4 -19 8 -19 4 0 8 6 8 14 0 8 -4 17 -8 20 -4 2 -8
-4 -8 -15z"/>
<path d="M9200 2880 c0 -5 7 -10 16 -10 8 0 12 5 9 10 -3 6 -10 10 -16 10 -5
0 -9 -4 -9 -10z"/>
<path d="M9196 2847 c3 -10 9 -15 12 -12 3 3 0 11 -7 18 -10 9 -11 8 -5 -6z"/>
<path d="M9042 2470 c-7 -11 -8 -20 -3 -20 9 0 24 30 18 36 -1 2 -8 -6 -15
-16z"/>
<path d="M9090 2450 c-9 -6 -10 -10 -3 -10 6 0 15 5 18 10 8 12 4 12 -15 0z"/>
<path d="M9055 2440 c-3 -5 -1 -10 4 -10 6 0 11 5 11 10 0 6 -2 10 -4 10 -3 0
-8 -4 -11 -10z"/>
<path d="M9076 2404 c-3 -9 -6 -22 -6 -30 0 -12 3 -12 13 -3 13 13 18 49 6 49
-4 0 -10 -7 -13 -16z"/>
<path d="M9035 2401 c-3 -5 -2 -12 3 -15 5 -3 9 1 9 9 0 17 -3 19 -12 6z"/>
<path d="M9015 2351 c-3 -5 -1 -12 5 -16 5 -3 10 1 10 9 0 18 -6 21 -15 7z"/>
<path d="M8975 2340 c3 -5 8 -10 11 -10 2 0 4 5 4 10 0 6 -5 10 -11 10 -5 0
-7 -4 -4 -10z"/>
<path d="M10005 2659 c-4 -6 -5 -12 -2 -15 2 -3 7 2 10 11 7 17 1 20 -8 4z"/>
<path d="M9965 2621 c-3 -6 3 -9 14 -8 11 0 17 5 15 9 -7 11 -22 10 -29 -1z"/>
<path d="M10005 2595 c-3 -8 -7 -22 -9 -29 -3 -9 0 -13 7 -10 7 2 12 15 12 29
0 28 -4 32 -10 10z"/>
<path d="M9877 2553 c-3 -5 -1 -17 4 -28 6 -17 7 -16 6 8 -1 28 -3 32 -10 20z"/>
<path d="M9930 2552 c0 -5 7 -9 15 -9 8 0 15 4 15 9 0 4 -7 8 -15 8 -8 0 -15
-4 -15 -8z"/>
<path d="M9837 2464 c-4 -4 -7 -19 -6 -33 l0 -26 10 24 c10 26 8 47 -4 35z"/>
<path d="M9885 2410 c-4 -12 -5 -24 -2 -27 3 -2 8 5 12 17 4 12 5 24 2 27 -3
2 -8 -5 -12 -17z"/>
<path d="M9817 2240 c-25 -35 -22 -56 4 -31 11 10 19 27 17 38 -3 16 -5 15
-21 -7z"/>
<path d="M9810 2147 c0 -8 7 -14 15 -14 11 0 12 4 4 14 -6 7 -13 13 -15 13 -2
0 -4 -6 -4 -13z"/>
<path d="M9764 2110 c0 -13 4 -16 10 -10 7 7 7 13 0 20 -6 6 -10 3 -10 -10z"/>
<path d="M9640 2036 c0 -2 7 -7 16 -10 8 -3 12 -2 9 4 -6 10 -25 14 -25 6z"/>
<path d="M9710 1950 c-8 -5 -12 -11 -10 -14 3 -2 14 2 24 10 22 15 10 19 -14
4z"/>
<path d="M9800 1946 c0 -2 9 -6 20 -9 11 -3 18 -1 14 4 -5 9 -34 13 -34 5z"/>
<path d="M9858 1943 c7 -3 16 -2 19 1 4 3 -2 6 -13 5 -11 0 -14 -3 -6 -6z"/>
<path d="M9604 1894 c-17 -14 -17 -15 -1 -10 10 3 23 6 28 6 5 0 9 5 9 10 0
14 -13 12 -36 -6z"/>
<path d="M10105 1890 c-3 -5 1 -10 10 -10 9 0 13 5 10 10 -3 6 -8 10 -10 10
-2 0 -7 -4 -10 -10z"/>
<path d="M10175 1880 c3 -5 14 -10 23 -10 15 0 15 2 2 10 -20 13 -33 13 -25 0z"/>
<path d="M9545 1870 c-3 -5 -1 -10 4 -10 6 0 11 5 11 10 0 6 -2 10 -4 10 -3 0
-8 -4 -11 -10z"/>
<path d="M10463 1873 c-15 -5 -17 -23 -4 -23 5 0 11 7 15 15 3 8 4 15 3 14 -1
0 -8 -3 -14 -6z"/>
<path d="M9510 1860 c0 -5 5 -10 10 -10 6 0 10 5 10 10 0 6 -4 10 -10 10 -5 0
-10 -4 -10 -10z"/>
<path d="M10370 1866 c0 -2 7 -6 15 -10 8 -3 15 -1 15 4 0 6 -7 10 -15 10 -8
0 -15 -2 -15 -4z"/>
<path d="M9285 1830 c3 -5 8 -10 11 -10 2 0 4 5 4 10 0 6 -5 10 -11 10 -5 0
-7 -4 -4 -10z"/>
<path d="M9385 1824 c-9 -9 -13 -19 -9 -23 4 -3 9 0 11 7 3 6 8 10 12 8 4 -3
8 1 8 9 0 19 -2 19 -22 -1z"/>
<path d="M6797 2139 c7 -7 15 -10 18 -7 3 3 -2 9 -12 12 -14 6 -15 5 -6 -5z"/>
<path d="M3150 1242 c0 -5 7 -15 15 -22 8 -7 15 -8 15 -2 0 5 -7 15 -15 22 -8
7 -15 8 -15 2z"/>
<path d="M4800 429 c0 -5 5 -7 10 -4 6 3 10 8 10 11 0 2 -4 4 -10 4 -5 0 -10
-5 -10 -11z"/>
<path d="M0 5905 c0 -65 4 -84 31 -138 74 -146 109 -291 109 -452 0 -164 -30
-288 -106 -439 -33 -66 -35 -76 -32 -151 l3 -80 38 54 c46 63 128 234 150 311
50 173 59 324 28 486 -23 122 -48 200 -93 291 -35 71 -103 179 -119 189 -5 3
-9 -28 -9 -71z m54 -121 c3 -8 2 -12 -4 -9 -6 3 -10 10 -10 16 0 14 7 11 14
-7z"/>
<path d="M3653 5780 c0 -25 2 -35 4 -22 2 12 2 32 0 45 -2 12 -4 2 -4 -23z"/>
<path d="M1 5320 c0 -378 1 -384 18 -345 45 100 76 293 66 405 -10 110 -53
290 -76 315 -5 5 -9 -154 -8 -375z"/>
<path d="M605 5441 c-4 -7 -3 -16 2 -20 6 -3 13 -13 16 -21 5 -13 5 -13 6 0 0
8 -4 24 -8 34 -6 15 -10 16 -16 7z"/>
<path d="M592 5315 c0 -16 2 -22 5 -12 2 9 2 23 0 30 -3 6 -5 -1 -5 -18z"/>
<path d="M611 5314 c0 -11 3 -14 6 -6 3 7 2 16 -1 19 -3 4 -6 -2 -5 -13z"/>
<path d="M571 5024 c0 -11 3 -14 6 -6 3 7 2 16 -1 19 -3 4 -6 -2 -5 -13z"/>
<path d="M330 4600 c0 -5 5 -10 10 -10 6 0 10 5 10 10 0 6 -4 10 -10 10 -5 0
-10 -4 -10 -10z"/>
<path d="M7060 1650 c0 -5 5 -10 11 -10 5 0 7 5 4 10 -3 6 -8 10 -11 10 -2 0
-4 -4 -4 -10z"/>
<path d="M7090 1636 c0 -18 45 -23 55 -6 3 6 0 10 -9 10 -8 0 -21 3 -30 6 -11
4 -16 1 -16 -10z"/>
<path d="M7090 1570 c0 -5 11 -10 25 -10 14 0 25 5 25 10 0 6 -11 10 -25 10
-14 0 -25 -4 -25 -10z"/>
<path d="M7080 1443 c0 -9 8 -13 22 -11 30 4 33 23 3 24 -16 1 -25 -3 -25 -13z"/>
<path d="M7070 1380 c0 -5 11 -10 25 -10 14 0 25 5 25 10 0 6 -11 10 -25 10
-14 0 -25 -4 -25 -10z"/>
<path d="M7070 1316 c0 -9 8 -12 25 -8 14 2 25 8 25 13 0 5 -11 9 -25 9 -14 0
-25 -6 -25 -14z"/>
<path d="M7070 1255 c0 -16 9 -19 34 -9 25 9 19 24 -9 24 -16 0 -25 -6 -25
-15z"/>
</g>
</svg>
