<?xml version="1.0" standalone="no"?>
<!DOCTYPE svg PUBLIC "-//W3C//DTD SVG 20010904//EN"
 "http://www.w3.org/TR/2001/REC-SVG-20010904/DTD/svg10.dtd">
<svg version="1.0" xmlns="http://www.w3.org/2000/svg"
 width="476.000000pt" height="573.000000pt" viewBox="0 0 476.000000 573.000000"
 preserveAspectRatio="xMidYMid meet">

<g transform="translate(0.000000,573.000000) scale(0.100000,-0.100000)"
fill="#000000" stroke="none">
<path d="M2289 5526 c-2 -3 -27 -7 -55 -10 -52 -5 -102 -29 -166 -80 -46 -36
-69 -69 -75 -110 -3 -17 -9 -32 -14 -34 -5 -2 -9 -10 -9 -18 0 -8 -4 -14 -10
-14 -5 0 -10 -8 -10 -18 0 -9 -9 -23 -20 -30 -17 -10 -28 -9 -70 9 -55 24 -62
42 -30 77 12 12 17 22 13 22 -14 0 -28 -14 -41 -40 -6 -14 -16 -32 -21 -40
-31 -49 -40 -81 -29 -110 12 -37 5 -60 -20 -60 -10 0 -29 -9 -42 -20 -13 -12
-31 -18 -39 -15 -10 3 -8 -2 5 -12 14 -12 20 -28 18 -48 -1 -16 -3 -40 -3 -53
-1 -19 -3 -21 -15 -10 -8 7 -11 18 -8 23 3 6 -2 3 -12 -4 -16 -13 -16 -16 -2
-26 13 -10 13 -15 -3 -42 -10 -16 -30 -38 -43 -49 -27 -22 -43 -54 -26 -54 10
0 8 -24 -7 -99 -9 -47 -6 -226 5 -321 7 -52 11 -129 10 -172 -1 -49 5 -89 15
-113 8 -21 15 -48 15 -60 0 -13 6 -25 14 -28 16 -7 23 35 32 196 3 61 12 142
20 178 7 37 16 102 19 145 20 271 69 376 213 461 170 100 314 112 562 46 133
-36 190 -59 323 -131 99 -54 134 -86 168 -153 31 -63 33 -76 59 -348 6 -63 15
-123 21 -133 15 -28 32 -310 25 -428 -8 -145 -41 -346 -70 -434 -47 -139 -140
-284 -174 -271 -7 2 -11 1 -8 -3 4 -6 -39 -29 -101 -53 -53 -21 -73 -33 -73
-46 0 -7 -5 -13 -11 -13 -5 0 -7 5 -3 11 9 15 -37 1 -51 -16 -5 -6 -28 -22
-50 -36 -31 -19 -51 -24 -90 -22 -87 5 -107 4 -119 -5 -6 -5 -26 -14 -43 -20
-27 -9 -33 -8 -33 3 0 12 -4 12 -27 -1 -35 -18 -69 -18 -76 0 -3 7 -20 16 -39
19 -18 3 -46 11 -63 18 -16 7 -36 11 -44 10 -8 -2 -12 3 -8 12 4 11 -5 16 -33
21 -25 4 -41 13 -44 24 -3 10 -20 26 -37 36 -16 10 -34 29 -39 42 -5 13 -13
24 -17 24 -5 0 -14 14 -21 30 -8 17 -22 35 -32 40 -14 8 -17 5 -15 -13 4 -37
5 -38 15 -32 6 4 10 -5 10 -19 0 -14 4 -26 8 -26 5 0 9 -6 10 -12 3 -44 11
-71 34 -114 14 -27 23 -54 21 -60 -2 -6 3 -17 12 -24 8 -7 15 -18 15 -25 0 -7
7 -15 15 -19 8 -3 15 -12 15 -20 0 -18 51 -56 75 -56 11 0 15 -5 12 -14 -6
-16 42 -28 111 -28 27 0 32 -2 17 -8 -11 -4 -34 -6 -52 -4 -18 1 -33 -2 -33
-7 0 -5 9 -9 21 -9 11 0 17 -4 14 -10 -4 -6 5 -10 21 -10 17 0 37 -12 59 -36
25 -27 42 -36 73 -38 49 -4 63 -12 55 -31 -3 -10 1 -15 15 -15 12 0 23 -4 26
-8 3 -5 27 -5 53 -1 70 11 133 11 133 -2 0 -6 -5 -19 -11 -30 -7 -15 -7 -24 2
-35 6 -8 8 -14 3 -14 -5 0 -2 -5 6 -10 8 -5 45 -10 81 -10 63 0 67 -1 73 -25
4 -14 16 -35 27 -46 20 -20 20 -22 3 -75 -9 -30 -21 -54 -25 -54 -5 0 -9 -6
-9 -14 0 -7 -7 -19 -15 -26 -8 -7 -15 -21 -15 -31 0 -21 19 -36 29 -22 3 5 26
15 51 23 25 8 61 29 81 47 33 30 38 32 72 22 20 -5 37 -14 37 -19 0 -4 8 -6
18 -4 12 3 23 -8 40 -43 13 -27 34 -68 48 -91 13 -24 21 -49 18 -54 -5 -7 -2
-8 6 -3 10 6 12 4 7 -8 -4 -12 -2 -14 10 -10 14 5 15 0 10 -33 -4 -33 -4 -35
5 -16 22 44 28 20 28 -104 0 -115 2 -128 23 -159 13 -19 26 -32 29 -29 3 3 5
-1 5 -8 -3 -20 25 -122 34 -129 22 -14 100 -319 130 -504 42 -262 47 -312 44
-480 -4 -298 -22 -485 -46 -485 -5 0 -9 -11 -9 -25 l0 -25 671 0 671 0 -8 48
c-10 55 -10 92 1 262 8 141 -4 214 -52 316 -29 62 -30 78 -24 274 3 84 0 103
-24 165 -15 39 -35 123 -44 190 -32 218 -238 816 -307 890 -12 14 -35 27 -51
31 -15 3 -100 41 -188 84 -88 43 -225 106 -305 140 -80 34 -201 89 -270 123
-118 58 -129 62 -215 67 -96 6 -111 12 -227 100 -39 29 -48 42 -53 77 -10 62
27 252 73 373 41 108 66 185 76 233 5 23 10 26 30 21 21 -5 24 -1 30 35 3 23
14 49 24 59 9 9 18 33 19 52 1 19 0 29 -3 23 -9 -20 -24 -15 -24 6 0 10 13 32
28 49 l28 30 -23 5 c-13 2 -23 0 -23 -4 0 -5 -3 -9 -8 -9 -4 0 -6 18 -4 40 2
22 7 40 11 40 3 0 5 20 3 44 -3 27 2 56 13 76 16 32 17 32 31 11 16 -22 34
-28 34 -10 0 5 -4 8 -9 5 -4 -3 -13 6 -19 19 -8 18 -8 26 0 31 6 4 8 3 5 -3
-4 -6 -1 -15 6 -21 13 -11 13 -3 1 116 -4 30 -1 88 5 130 37 265 31 444 -24
639 -52 186 -55 192 -132 262 -15 14 -23 32 -23 55 0 34 -13 50 -64 81 -10 6
-18 23 -19 38 -1 15 -8 31 -15 36 -7 4 -15 17 -16 27 -2 13 -10 18 -25 16 -11
-2 -21 2 -21 8 0 6 5 8 13 4 8 -5 8 -2 -2 9 -7 9 -19 17 -26 17 -15 0 -36 24
-39 45 -3 19 -51 46 -69 39 -7 -2 -41 -1 -75 4 -47 7 -67 6 -80 -4 -24 -18
-37 -17 -93 8 -50 23 -62 38 -31 38 25 0 -35 48 -70 56 -15 4 -29 12 -32 20
-5 14 -18 18 -27 10z m26 -56 c-3 -5 -13 -10 -21 -10 -8 0 -12 5 -9 10 3 6 13
10 21 10 8 0 12 -4 9 -10z m125 -74 c0 -3 -4 -8 -10 -11 -5 -3 -10 -1 -10 4 0
6 5 11 10 11 6 0 10 -2 10 -4z m-530 -2466 c8 -5 11 -10 5 -10 -5 0 -17 5 -25
10 -8 5 -10 10 -5 10 6 0 17 -5 25 -10z m130 -144 c0 -11 -19 -15 -25 -6 -3 5
1 10 9 10 9 0 16 -2 16 -4z"/>
<path d="M2920 5201 c0 -5 5 -13 10 -16 6 -3 10 -2 10 4 0 5 -4 13 -10 16 -5
3 -10 2 -10 -4z"/>
<path d="M1830 4416 c-15 -9 -26 -24 -27 -40 -2 -22 2 -26 26 -26 15 0 31 -4
37 -9 9 -10 193 -15 319 -9 64 3 70 5 71 25 1 12 -4 21 -10 20 -6 -1 -10 3 -9
9 1 7 -6 19 -17 29 -16 14 -34 16 -127 12 -59 -3 -131 -8 -160 -11 -30 -3 -55
-1 -58 4 -8 13 -15 12 -45 -4z"/>
<path d="M2537 4403 c-16 -3 -31 -12 -33 -21 -3 -9 -12 -29 -20 -44 -21 -40
-30 -225 -12 -258 8 -14 21 -25 29 -25 9 0 24 -6 33 -14 9 -8 20 -11 23 -7 4
4 1 11 -7 16 -8 6 -11 10 -6 10 5 0 1 9 -9 20 -17 19 -16 19 36 16 61 -4 101
-13 138 -32 14 -8 33 -14 41 -14 8 0 22 -5 30 -11 11 -8 -6 -9 -59 -4 -40 4
-80 9 -90 12 -14 6 -14 4 2 -14 22 -25 87 -43 156 -43 58 0 84 8 74 22 -4 7 4
9 23 4 50 -12 59 -11 59 2 0 7 7 17 14 22 12 7 9 11 -15 22 -16 7 -42 25 -59
41 -16 15 -48 38 -70 51 -41 24 -145 60 -145 49 0 -3 -6 -1 -12 5 -7 5 -32 13
-55 17 -41 6 -42 8 -28 28 13 19 23 21 101 18 110 -4 134 -11 192 -60 46 -39
93 -54 120 -37 7 4 12 26 12 49 0 34 -8 51 -37 89 -21 25 -49 53 -63 61 -47
28 -258 46 -363 30z m96 -255 c8 -30 2 -35 -33 -30 l-31 4 22 24 c28 30 35 30
42 2z m-110 -8 c-3 -11 -9 -20 -14 -20 -11 0 -11 3 -3 24 9 23 23 20 17 -4z"/>
<path d="M2025 4226 c-71 -28 -185 -84 -185 -92 0 -8 235 2 249 10 6 4 11 3
11 -1 0 -5 23 -9 50 -11 30 -1 50 2 50 9 0 5 -10 28 -22 50 -21 35 -32 43 -78
54 -8 2 -42 -7 -75 -19z m15 -36 c0 -5 -4 -10 -10 -10 -5 0 -10 5 -10 10 0 6
5 10 10 10 6 0 10 -4 10 -10z m72 -23 c-26 -12 -35 -6 -26 16 5 14 10 15 27 5
l22 -11 -23 -10z"/>
<path d="M2460 3740 c0 -5 14 -10 30 -10 17 0 30 5 30 10 0 6 -13 10 -30 10
-16 0 -30 -4 -30 -10z"/>
<path d="M2574 3719 c-5 -8 -31 -10 -80 -6 -59 4 -77 2 -89 -10 -14 -13 -14
-17 -1 -27 8 -6 16 -22 18 -35 2 -17 12 -27 31 -32 15 -4 27 -3 27 2 0 5 7 9
15 9 8 0 15 -7 15 -15 0 -8 7 -15 16 -15 10 0 14 6 10 15 -3 9 0 15 9 15 18 0
20 16 3 23 -10 4 -10 8 1 15 7 5 10 15 6 22 -4 7 1 13 14 17 12 3 21 12 21 19
0 17 -6 18 -16 3z"/>
<path d="M2595 3570 c-3 -5 -2 -10 4 -10 5 0 13 5 16 10 3 6 2 10 -4 10 -5 0
-13 -4 -16 -10z"/>
<path d="M2668 3543 c7 -3 16 -2 19 1 4 3 -2 6 -13 5 -11 0 -14 -3 -6 -6z"/>
<path d="M1970 3457 c15 -15 102 -48 108 -42 11 10 -43 44 -79 50 -39 6 -42 5
-29 -8z"/>
<path d="M2480 3449 c0 -5 5 -7 10 -4 6 3 10 8 10 11 0 2 -4 4 -10 4 -5 0 -10
-5 -10 -11z"/>
<path d="M2510 3452 c0 -12 40 -33 50 -27 18 11 10 -4 -16 -30 -21 -21 -29
-24 -40 -14 -22 18 -30 2 -10 -20 11 -12 25 -16 43 -13 18 3 24 1 19 -7 -4 -6
-10 -9 -14 -7 -4 2 -15 -7 -25 -20 -16 -22 -17 -24 -1 -24 22 0 83 38 114 72
14 15 37 31 53 37 33 13 35 29 5 40 -32 11 -178 22 -178 13z"/>
<path d="M2465 3360 c3 -5 11 -10 16 -10 6 0 7 5 4 10 -3 6 -11 10 -16 10 -6
0 -7 -4 -4 -10z"/>
<path d="M2830 3141 c-13 -26 2 -35 18 -11 7 11 8 21 2 25 -5 3 -14 -3 -20
-14z"/>
<path d="M2650 3080 c0 -5 4 -10 9 -10 6 0 13 5 16 10 3 6 -1 10 -9 10 -9 0
-16 -4 -16 -10z"/>
<path d="M1667 2641 c-21 -23 -41 -41 -45 -41 -4 0 -18 -10 -32 -23 -14 -12
-51 -39 -82 -58 -32 -20 -54 -40 -50 -44 4 -5 2 -5 -4 -2 -7 4 -45 -15 -85
-42 -65 -42 -335 -161 -367 -161 -7 0 -12 -5 -12 -10 0 -6 -6 -9 -12 -8 -7 2
-12 -3 -10 -10 1 -8 -3 -12 -10 -10 -7 3 -18 -2 -25 -11 -11 -14 -12 -14 -13
-1 0 8 -9 -2 -18 -22 -22 -46 -98 -118 -125 -118 -13 0 -17 -5 -13 -15 4 -11
-2 -15 -23 -15 -24 0 -28 4 -24 19 3 10 1 21 -4 24 -4 3 -9 -11 -11 -31 -1
-20 -7 -41 -12 -46 -6 -6 -5 -16 0 -27 12 -22 3 -49 -16 -49 -8 0 -17 -13 -20
-30 -4 -16 -10 -28 -14 -25 -7 5 -27 -85 -35 -160 -9 -87 -33 -233 -50 -312
-7 -31 -22 -29 -28 5 -3 15 -15 70 -27 122 -17 75 -21 127 -21 246 1 84 4 159
7 168 13 33 -8 14 -23 -21 -24 -56 -24 -50 -35 -298 -11 -230 -2 -398 31 -609
7 -40 6 -64 -1 -76 -10 -15 -2 -143 14 -235 2 -17 -3 -21 -33 -23 -33 -3 -38
-7 -43 -38 -8 -39 -9 -35 52 -127 25 -37 43 -70 40 -72 -2 -2 -21 9 -41 26
-34 28 -38 29 -53 15 -19 -19 -26 -20 -42 -4 -9 9 -12 8 -13 -8 -3 -37 3 -89
12 -100 4 -5 15 -36 23 -67 19 -72 4 -140 -32 -145 -13 -2 -25 3 -28 13 -8 21
-82 95 -94 95 -12 0 -12 -8 -1 -87 9 -58 25 -105 56 -163 l14 -25 195 -3 196
-2 0 27 c0 16 -5 60 -11 98 -5 39 -14 164 -19 280 -11 243 -31 395 -65 480
-35 91 -44 133 -45 220 -1 88 4 114 44 225 39 106 150 309 163 297 3 -3 -4
-19 -16 -35 -12 -17 -21 -33 -21 -37 0 -4 -22 -53 -49 -108 -41 -83 -52 -119
-62 -192 -13 -98 -6 -282 11 -299 7 -7 10 -4 10 11 0 11 12 72 26 134 15 63
35 150 44 194 10 44 18 71 19 59 1 -11 -8 -61 -18 -110 -27 -129 -45 -294 -37
-348 6 -36 11 -46 26 -46 10 0 22 5 26 11 4 8 9 7 15 -2 7 -11 9 -9 9 5 0 10
15 37 33 60 19 23 41 55 50 71 14 27 16 28 17 8 0 -26 -20 -73 -32 -73 -4 0
-8 -8 -8 -19 0 -10 -13 -35 -30 -56 -35 -43 -38 -76 -11 -113 22 -32 36 -71
32 -94 -1 -9 3 -19 9 -23 5 -3 10 -15 10 -26 0 -16 5 -19 20 -14 15 5 23 0 32
-22 15 -34 28 -44 49 -37 10 2 19 -2 23 -11 14 -36 35 -318 36 -472 0 -30 4
-43 14 -43 11 0 13 23 11 113 l-3 112 8 -100 c4 -55 8 -106 9 -112 1 -10 48
-13 201 -13 192 0 200 1 191 19 -6 10 -10 60 -11 112 0 52 -2 130 -5 174 -9
176 35 682 59 668 5 -4 7 0 3 9 -3 9 1 47 9 84 20 97 31 157 43 244 17 114 27
167 50 265 38 158 41 178 51 307 6 70 15 149 21 175 5 26 18 98 29 158 10 61
25 125 32 142 l14 33 13 -73 c12 -71 49 -212 50 -192 1 6 -10 65 -24 133 -26
126 -31 210 -17 272 5 19 6 61 3 94 l-6 58 -38 -41z m-807 -821 c-6 -11 -13
-20 -16 -20 -2 0 0 9 6 20 6 11 13 20 16 20 2 0 0 -9 -6 -20z m-40 -76 c0 -10
-42 -75 -46 -72 -6 6 29 78 38 78 4 0 8 -3 8 -6z m157 -1411 c-2 -27 -3 -5 -3
47 0 52 1 74 3 48 2 -27 2 -69 0 -95z"/>
<path d="M2627 2355 c-4 -8 -2 -17 3 -20 6 -4 10 3 10 14 0 25 -6 27 -13 6z"/>
<path d="M733 153 c-2 -6 -1 -42 4 -80 l8 -68 43 -3 44 -3 -7 31 c-4 17 -8 49
-10 73 -2 23 -8 41 -14 40 -6 -2 -11 3 -11 11 0 17 -50 16 -57 -1z"/>
<path d="M2279 121 c-21 -21 -29 -39 -29 -63 0 -47 15 -58 78 -58 48 0 57 4
85 34 25 26 29 36 20 45 -7 6 -17 11 -23 11 -5 0 -10 7 -10 15 0 16 -49 45
-75 45 -9 0 -30 -13 -46 -29z m98 -47 c-9 -9 -28 6 -21 18 4 6 10 6 17 -1 6
-6 8 -13 4 -17z m-89 -39 c-3 -3 -9 2 -12 12 -6 14 -5 15 5 6 7 -7 10 -15 7
-18z"/>
</g>
</svg>
