<?xml version="1.0" standalone="no"?>
<!DOCTYPE svg PUBLIC "-//W3C//DTD SVG 20010904//EN"
 "http://www.w3.org/TR/2001/REC-SVG-20010904/DTD/svg10.dtd">
<svg version="1.0" xmlns="http://www.w3.org/2000/svg"
 width="702.000000pt" height="550.000000pt" viewBox="0 0 702.000000 550.000000"
 preserveAspectRatio="xMidYMid meet">

<g transform="translate(0.000000,550.000000) scale(0.100000,-0.100000)"
fill="#000000" stroke="none">
<path d="M4 4015 c0 -88 2 -123 3 -77 2 46 2 118 0 160 -1 42 -3 5 -3 -83z"/>
<path d="M80 3746 c0 -233 3 -438 6 -455 l7 -31 72 4 c40 2 94 12 120 21 26 8
71 15 99 14 81 -3 156 3 162 12 3 5 14 9 24 9 10 0 27 13 36 30 23 38 38 43
64 20 12 -10 28 -16 36 -13 8 3 14 -1 14 -11 0 -20 12 -20 118 0 66 12 86 13
92 4 4 -7 12 -10 18 -6 6 3 12 1 14 -5 2 -7 12 -6 28 3 30 16 29 37 -6 120
-36 85 -32 106 24 148 25 19 69 47 97 61 175 92 200 107 203 125 10 68 3 64
112 64 55 0 100 -4 100 -9 0 -17 -32 -42 -61 -48 -16 -3 -29 -9 -29 -13 0 -4
37 1 83 12 219 52 259 58 430 58 140 0 167 -2 167 -15 0 -10 -6 -12 -17 -8
-15 6 -16 4 -6 -8 11 -13 8 -15 -18 -11 -36 5 -64 -17 -73 -59 -4 -23 -11 -29
-33 -30 -66 -2 -102 -29 -103 -76 0 -26 -17 -68 -44 -107 l-19 -28 22 7 c11 3
21 3 21 -1 0 -10 -49 -54 -61 -54 -5 0 -15 -12 -21 -26 -7 -14 -30 -34 -55
-45 -24 -11 -43 -24 -43 -29 0 -12 -55 -41 -63 -34 -3 3 -29 1 -59 -5 -29 -6
-70 -12 -91 -13 -20 -1 -37 -5 -37 -9 0 -15 -43 -48 -53 -42 -6 3 -7 2 -4 -4
3 -5 -7 -17 -24 -27 -16 -9 -27 -21 -24 -25 7 -12 -47 -21 -88 -14 -29 4 -36
2 -39 -13 -3 -15 -19 -21 -91 -30 -70 -9 -92 -16 -103 -32 -8 -12 -21 -28 -29
-36 -8 -8 -15 -21 -15 -29 0 -8 -9 -26 -21 -41 -14 -18 -16 -26 -7 -26 15 0
29 15 73 77 31 44 55 55 55 26 0 -24 -35 -75 -44 -66 -4 4 -4 1 -1 -8 6 -16
-50 -89 -68 -89 -5 0 -15 -7 -21 -15 -17 -23 -85 -9 -96 20 -16 42 -161 63
-235 33 -45 -18 -74 -49 -81 -88 -4 -19 -15 -47 -26 -62 -11 -16 -18 -40 -16
-55 3 -24 8 -28 37 -29 19 -1 38 -9 43 -18 6 -11 23 -16 51 -16 27 0 49 -6 59
-17 53 -55 57 -57 122 -57 63 0 63 0 42 -17 -21 -18 -20 -20 19 -23 11 0 20
-7 19 -13 -1 -7 -2 -26 -2 -42 -2 -24 -6 -28 -21 -24 -25 6 -81 -26 -81 -47 0
-8 -7 -23 -15 -34 -13 -18 -15 -17 -45 13 -35 35 -50 33 -50 -7 0 -17 -10 -34
-27 -48 -26 -20 -26 -23 -15 -63 7 -22 17 -41 22 -41 6 0 10 -6 10 -13 0 -18
34 -57 49 -57 6 0 11 -7 11 -15 0 -9 6 -12 15 -9 8 4 15 2 15 -3 0 -16 139
-57 232 -67 47 -5 135 -41 153 -63 6 -6 19 -13 30 -16 11 -3 -206 -5 -482 -6
-473 -1 -503 0 -504 17 0 14 -2 14 -9 -3 -5 -11 -9 -15 -9 -8 -1 6 -6 24 -13
40 l-11 28 -8 -45 c-4 -25 -8 -111 -8 -192 l-1 -148 1630 0 1630 0 0 155 0
155 -582 0 c-548 0 -581 1 -558 17 13 9 31 17 39 18 53 6 103 21 151 45 30 15
78 35 105 45 28 9 64 23 82 31 17 8 35 14 41 14 5 0 35 11 65 25 49 21 57 28
63 60 7 39 7 39 46 49 22 5 26 3 22 -9 -9 -22 12 -18 47 7 25 19 31 20 39 8 7
-12 12 -12 21 -3 10 10 17 9 32 -5 15 -12 19 -13 15 -3 -7 22 51 73 75 65 14
-4 26 2 42 22 19 24 25 27 39 15 11 -9 27 -11 53 -5 21 4 45 7 54 6 9 -1 19 7
22 18 8 31 30 24 25 -7 -3 -16 -2 -41 2 -58 7 -29 8 -28 9 10 0 23 11 59 22
80 20 37 22 59 27 282 2 134 2 253 -2 266 -5 21 -11 24 -53 23 -27 -1 -54 -5
-60 -9 -12 -8 -17 -2 -14 17 1 5 -5 6 -14 2 -9 -3 -19 -6 -21 -6 -3 0 -2 -5 1
-10 9 -15 -64 -80 -89 -80 -12 0 -55 11 -97 25 -42 13 -106 29 -143 36 -37 6
-82 22 -102 35 -19 13 -51 31 -70 39 -19 8 -34 18 -34 23 0 5 -23 12 -50 14
-44 4 -56 11 -90 48 -22 24 -44 58 -48 74 -10 38 -78 89 -107 80 -11 -3 -36
-7 -55 -10 -19 -3 -41 -7 -47 -9 -7 -2 -36 7 -65 20 -59 27 -88 31 -106 13 -9
-9 -12 -8 -12 7 1 46 10 49 142 42 99 -6 235 -22 303 -37 23 -5 34 1 29 15 -4
10 0 15 12 15 34 0 146 -21 257 -47 104 -24 109 -26 104 -49 -3 -18 0 -24 14
-24 9 0 37 -8 61 -19 59 -25 171 -50 200 -44 15 3 50 -7 86 -24 49 -24 62 -27
67 -15 3 7 5 236 5 508 l0 494 -1630 0 -1630 0 0 -424z m634 -275 c-11 -52
-12 -53 -35 -33 -20 19 -20 21 -4 52 13 25 19 29 31 20 9 -8 12 -22 8 -39z
m536 -311 c0 -5 -7 -7 -15 -4 -8 4 -15 8 -15 10 0 2 7 4 15 4 8 0 15 -4 15
-10z m47 -88 c6 -4 11 -21 12 -37 1 -58 2 -65 15 -65 8 0 27 -7 42 -15 17 -9
22 -15 13 -15 -9 0 -22 -7 -29 -15 -11 -13 -8 -15 19 -15 28 0 32 -3 29 -22
-3 -20 -10 -24 -63 -28 l-60 -5 55 -8 c143 -20 132 -16 127 -50 -7 -62 -14
-67 -80 -67 -33 0 -58 -2 -56 -4 4 -4 73 -15 99 -16 9 0 11 -3 4 -10 -14 -14
-97 -16 -102 -2 -2 7 -12 12 -23 12 -24 0 -25 20 -1 21 14 0 14 2 -3 9 -54 23
-60 1 -11 -46 33 -32 35 -32 125 -33 51 0 102 -6 114 -13 12 -6 42 -10 67 -9
42 2 44 1 25 -13 l-20 -16 20 6 c16 5 17 4 5 -5 -48 -35 -189 -44 -255 -16
-49 21 -77 27 -70 15 10 -17 -18 -23 -30 -7 -7 10 -22 17 -34 17 -11 0 -21 5
-21 11 0 9 16 7 59 -9 22 -8 -3 30 -46 69 -21 19 -49 51 -63 72 -14 20 -28 37
-32 37 -5 0 -8 9 -8 20 0 26 14 25 51 -2 17 -13 46 -23 65 -23 38 -1 45 10 13
20 -11 4 -24 18 -29 31 -6 16 -17 24 -32 24 -51 0 -174 32 -186 48 -16 22 -12
57 8 57 10 0 14 8 12 22 -2 12 2 25 9 29 17 10 49 -31 50 -65 1 -15 3 -19 6
-9 6 24 23 28 125 29 56 1 85 4 77 10 -8 5 -32 9 -55 9 -23 0 -55 5 -73 11
-34 12 -42 39 -11 39 11 0 20 7 20 15 0 12 13 15 58 15 31 0 62 -4 69 -8z
m363 -12 c0 -5 -4 -10 -10 -10 -5 0 -10 5 -10 10 0 6 5 10 10 10 6 0 10 -4 10
-10z m1005 -11 c4 -5 -8 -9 -25 -9 -17 0 -29 4 -26 8 7 11 45 12 51 1z m-1035
-39 c0 -5 -5 -10 -11 -10 -5 0 -7 5 -4 10 3 6 8 10 11 10 2 0 4 -4 4 -10z
m-88 -22 c-7 -7 -12 -8 -12 -2 0 14 12 26 19 19 2 -3 -1 -11 -7 -17z m45 0 c2
-18 0 -20 -7 -8 -12 18 -13 30 -2 30 4 0 9 -10 9 -22z m101 12 c14 0 14 -2 3
-9 -7 -5 -11 -13 -8 -18 3 -5 0 -10 -8 -10 -8 0 -12 4 -9 8 2 4 0 10 -6 14 -5
3 -10 1 -10 -4 0 -6 -4 -11 -9 -11 -5 0 -7 9 -4 21 4 12 11 18 20 15 8 -3 22
-6 31 -6z m22 -80 c0 -5 -4 -10 -10 -10 -5 0 -10 5 -10 10 0 6 5 10 10 10 6 0
10 -4 10 -10z m-113 -46 c-3 -3 -12 -4 -19 -1 -8 3 -5 6 6 6 11 1 17 -2 13 -5z
m-882 -18 c19 -8 35 -19 35 -24 0 -15 -29 -23 -48 -13 -9 5 -25 12 -34 15 -22
7 -24 36 -3 36 9 0 31 -7 50 -14z m955 10 c0 -3 -4 -8 -10 -11 -5 -3 -10 -1
-10 4 0 6 5 11 10 11 6 0 10 -2 10 -4z m-134 -62 c-9 -8 -20 -12 -26 -9 -15 9
-2 25 21 25 19 0 19 -1 5 -16z m-596 -53 c0 -12 52 -11 68 2 24 19 36 -8 17
-37 l-17 -26 30 0 c46 0 77 -15 102 -51 l23 -32 -34 7 c-107 19 -107 19 -114
-3 -8 -25 -22 -27 -47 -4 -15 14 -18 14 -18 1 0 -8 9 -23 20 -33 22 -20 23
-24 11 -43 -14 -22 -70 13 -87 54 -8 19 -21 34 -29 34 -8 0 -15 5 -15 10 0 6
8 10 17 10 9 0 14 3 10 6 -3 4 1 13 9 21 8 8 12 19 9 24 -4 5 -1 9 4 9 6 0 11
11 11 23 0 13 3 27 7 30 9 10 23 9 23 -2z m-110 -71 c0 -5 -2 -10 -4 -10 -3 0
-8 5 -11 10 -3 6 -1 10 4 10 6 0 11 -4 11 -10z m405 -81 c11 -17 2 -18 -19 -3
-17 12 -17 14 -4 14 9 0 20 -5 23 -11z m-85 -19 c0 -5 -7 -10 -16 -10 -8 0
-12 5 -9 10 3 6 10 10 16 10 5 0 9 -4 9 -10z m355 -30 c8 -13 -5 -13 -25 0
-13 8 -13 10 2 10 9 0 20 -4 23 -10z m-309 -15 c11 -2 21 -11 21 -20 0 -22
-73 -21 -86 3 -7 10 -11 12 -11 4 0 -9 -7 -11 -19 -7 -11 3 -22 1 -26 -5 -4
-6 4 -10 18 -10 13 0 36 -9 50 -21 20 -15 31 -18 45 -10 12 7 30 7 48 1 16 -5
54 -13 84 -19 159 -28 209 -46 207 -72 -1 -10 -6 -15 -12 -11 -5 4 -14 7 -20
8 -5 1 -57 9 -115 18 -58 9 -127 23 -154 31 -27 8 -83 15 -123 15 -65 0 -77
-3 -98 -25 -14 -13 -25 -29 -25 -35 0 -5 -7 -10 -15 -10 -9 0 -15 9 -15 25 0
33 20 75 36 75 18 0 29 21 15 29 -16 10 -2 43 15 37 8 -3 24 -2 35 2 22 8 107
7 145 -3z m341 -7 c-3 -8 -6 -5 -6 6 -1 11 2 17 5 13 3 -3 4 -12 1 -19z m-627
-29 c0 -4 -7 -6 -15 -3 -8 4 -15 10 -15 15 0 4 7 6 15 3 8 -4 15 -10 15 -15z
m513 2 c5 -5 0 -14 -13 -21 -31 -17 -114 -3 -137 22 l-18 21 80 -7 c43 -3 83
-10 88 -15z m397 0 c0 -11 -31 -24 -38 -16 -3 3 0 5 7 5 7 0 9 5 6 10 -3 6 1
10 9 10 9 0 16 -4 16 -9z m104 -7 c18 -7 12 -24 -10 -24 -8 0 -14 7 -14 15 0
17 2 18 24 9z m557 -51 c13 -16 30 -38 37 -50 14 -27 16 -83 2 -83 -5 0 -7 -6
-4 -14 6 -17 -54 -66 -81 -66 -16 0 -13 6 15 35 23 24 35 47 40 79 6 43 5 48
-32 86 -31 32 -35 40 -20 40 10 0 29 -12 43 -27z m-994 1 c-3 -3 -12 -4 -19
-1 -8 3 -5 6 6 6 11 1 17 -2 13 -5z m281 -6 c17 -17 15 -38 -3 -38 -8 0 -15 4
-15 9 0 5 -3 16 -6 25 -7 19 7 21 24 4z m-191 -14 c-3 -3 -12 -4 -19 -1 -8 3
-5 6 6 6 11 1 17 -2 13 -5z m412 -61 c26 -25 37 -63 18 -63 -18 0 -33 17 -46
53 -12 32 0 36 28 10z m-409 -13 c6 -11 7 -20 2 -20 -10 0 -32 21 -32 32 0 16
19 8 30 -12z m-750 -123 c0 -5 -5 -7 -11 -5 -6 2 -9 7 -7 12 2 5 -7 12 -20 17
-27 10 -47 51 -38 76 6 15 14 8 42 -37 19 -30 34 -58 34 -63z m434 107 c9 -3
16 -12 16 -20 0 -10 12 -14 40 -14 22 0 40 3 40 8 0 4 20 8 45 8 25 1 52 7 60
14 9 7 19 9 23 5 4 -4 1 -10 -5 -12 -7 -3 -13 -13 -13 -22 0 -25 -44 -43 -120
-48 -78 -6 -140 9 -177 43 l-28 25 53 -4 c49 -4 72 6 35 16 -16 4 -16 5 -1 6
9 0 23 -2 32 -5z m-109 -64 c4 -6 -5 -9 -19 -8 -15 1 -26 6 -26 10 0 12 38 10
45 -2z m-370 -40 c3 -5 1 -10 -4 -10 -6 0 -11 5 -11 10 0 6 2 10 4 10 3 0 8
-4 11 -10z m405 -37 c0 -7 -6 -12 -12 -10 -16 3 -38 39 -31 50 7 11 43 -22 43
-40z m-40 -3 c0 -5 -5 -10 -11 -10 -5 0 -7 5 -4 10 3 6 8 10 11 10 2 0 4 -4 4
-10z m134 -13 c62 -17 72 -37 19 -37 -22 0 -43 -4 -48 -8 -6 -5 -21 -6 -35 -1
-23 6 -22 7 9 8 28 1 32 3 21 16 -6 8 -15 14 -18 13 -20 -2 -32 4 -32 16 0 16
1 15 84 -7z m206 9 c0 -3 -4 -8 -10 -11 -5 -3 -10 -1 -10 4 0 6 5 11 10 11 6
0 10 -2 10 -4z m-295 -69 c22 -8 72 -18 110 -22 50 -5 64 -10 50 -16 -30 -12
-85 -11 -85 2 0 8 -5 7 -15 -1 -12 -10 -21 -10 -41 -1 -14 6 -23 7 -19 2 3 -6
-15 -9 -45 -9 -27 1 -50 6 -50 11 0 5 6 7 14 4 25 -10 25 4 1 27 -20 17 -22
25 -14 46 l10 25 22 -27 c12 -15 40 -33 62 -41z m425 42 c13 -9 13 -10 0 -6
-8 2 -20 -3 -26 -11 -13 -18 -114 -30 -114 -14 0 6 -7 9 -15 6 -8 -4 -15 -1
-15 4 0 11 33 19 105 25 22 2 42 4 45 5 3 1 12 -3 20 -9z m320 -19 c0 -5 -5
-10 -11 -10 -5 0 -7 5 -4 10 3 6 8 10 11 10 2 0 4 -4 4 -10z"/>
<path d="M1265 2930 c3 -5 11 -10 16 -10 6 0 7 5 4 10 -3 6 -11 10 -16 10 -6
0 -7 -4 -4 -10z"/>
<path d="M1305 2920 c-3 -5 1 -10 10 -10 9 0 13 5 10 10 -3 6 -8 10 -10 10 -2
0 -7 -4 -10 -10z"/>
<path d="M1290 2790 c8 -5 38 -9 65 -9 44 1 46 2 20 9 -46 12 -103 12 -85 0z"/>
<path d="M1226 2767 c3 -10 9 -15 12 -12 3 3 0 11 -7 18 -10 9 -11 8 -5 -6z"/>
<path d="M945 2690 c-3 -5 1 -10 9 -10 9 0 16 5 16 10 0 6 -4 10 -9 10 -6 0
-13 -4 -16 -10z"/>
<path d="M3414 2945 l1 -1225 1633 0 1632 0 0 155 0 155 -1223 0 -1223 0 2 48
c1 26 3 59 3 73 1 14 7 34 15 44 12 16 16 17 30 6 20 -17 22 2 2 22 -8 8 -17
34 -20 59 -3 24 -8 62 -12 85 l-6 41 38 -2 c27 -1 48 -11 68 -29 44 -41 48
-33 13 22 -18 28 -36 49 -42 47 -5 -1 -18 8 -29 21 -17 23 -17 25 -1 43 10 11
13 20 7 20 -6 0 -15 -7 -20 -16 -12 -21 -32 -9 -32 19 0 12 -5 29 -10 37 -7
11 -10 5 -10 -23 0 -31 -3 -38 -17 -35 -18 4 -20 41 -3 63 4 6 10 22 14 37 7
30 29 37 111 39 28 0 57 3 65 5 21 5 23 44 3 44 -9 0 -13 3 -10 7 4 3 2 12 -4
19 -7 9 -2 14 20 19 44 9 52 29 10 23 -19 -3 -42 -8 -51 -13 -13 -5 -18 -3
-18 10 0 9 -5 13 -10 10 -10 -6 15 -63 34 -76 11 -9 -2 -29 -18 -29 -8 0 -16
9 -19 20 -4 16 -11 18 -43 13 -22 -3 -45 -15 -52 -25 -16 -23 -32 -15 -25 12
6 24 -4 26 -27 5 -25 -23 -53 -9 -47 23 6 31 -1 52 -18 52 -15 0 -65 -45 -65
-60 0 -5 -4 -10 -10 -10 -5 0 -10 -13 -10 -29 0 -24 -5 -31 -30 -36 -16 -4
-49 -5 -73 -4 -23 2 -47 0 -52 -3 -15 -8 -75 -8 -75 1 0 4 6 13 12 19 10 10
10 15 -2 22 -10 7 -16 5 -18 -4 -5 -23 -52 -7 -51 18 0 11 3 15 6 8 4 -10 8
-10 19 -1 8 6 26 9 41 7 l28 -4 1 81 c1 44 -1 63 -3 43 -2 -21 -8 -38 -12 -38
-8 0 -3 36 17 127 5 23 5 40 1 37 -5 -3 -9 0 -9 5 0 6 7 11 15 11 8 0 15 4 15
9 0 5 -7 11 -15 15 -8 3 -15 12 -15 21 0 11 11 15 40 15 29 0 40 4 40 15 0 8
12 17 28 21 15 3 34 8 43 10 13 4 16 -4 14 -40 -1 -33 3 -47 14 -52 28 -13
222 -14 215 -2 -4 7 -2 8 5 4 6 -4 26 -4 44 1 23 6 -9 9 -113 13 -138 5 -145
6 -142 25 1 11 5 67 9 125 3 58 11 108 17 112 6 5 70 7 142 7 l132 -1 6 -50
c4 -27 4 -75 0 -107 -4 -39 -3 -61 5 -65 8 -5 12 19 13 81 1 68 3 75 5 31 6
-85 18 -70 20 24 1 53 6 84 15 91 9 6 8 7 -4 3 -13 -4 -18 0 -18 13 0 14 8 18
43 18 59 1 71 5 79 28 4 14 6 10 7 -16 1 -20 4 -51 8 -69 5 -29 4 -33 -12 -26
-15 6 -16 4 -5 -9 9 -11 14 -53 16 -128 2 -160 0 -156 84 -158 40 0 50 -3 35
-9 -16 -7 -17 -9 -3 -9 9 -1 20 4 23 9 3 6 31 10 61 10 47 0 58 -4 79 -27 30
-34 33 -53 4 -27 -12 11 -23 14 -27 8 -10 -14 -76 -19 -68 -5 5 7 -2 10 -18 9
-15 -1 -26 -6 -26 -10 0 -4 -9 -8 -19 -8 -26 0 -36 -17 -21 -35 16 -19 4 -35
-26 -35 -14 0 -23 -4 -19 -10 3 -5 12 -7 19 -4 23 9 27 -26 6 -53 -19 -25 -20
-25 -20 -4 0 12 6 21 15 21 8 0 15 5 15 11 0 6 -7 8 -16 5 -9 -3 -22 -6 -30
-6 -8 0 -14 -9 -14 -19 0 -31 -19 -35 -30 -7 -17 45 -50 24 -50 -31 0 -38 11
-41 73 -19 20 8 40 10 43 5 3 -5 23 -9 45 -9 55 0 74 -12 106 -68 14 -26 41
-63 58 -83 22 -25 35 -54 45 -100 7 -35 19 -77 26 -94 13 -29 13 -29 14 -5 0
43 -58 225 -76 239 -13 9 -17 88 -5 95 16 10 54 -69 70 -144 15 -68 76 -244
79 -227 2 10 7 15 12 12 20 -12 18 16 -4 67 -28 62 -61 176 -54 184 3 2 24
-11 48 -31 23 -19 50 -35 61 -35 10 0 34 -14 54 -31 19 -17 35 -26 35 -20 0 6
12 9 28 6 97 -15 124 -15 118 0 -3 10 1 15 13 15 49 0 112 34 170 92 34 34 61
65 61 70 0 4 4 8 9 8 11 0 -20 -114 -42 -157 -9 -17 -35 -52 -57 -78 -22 -25
-40 -52 -40 -58 0 -7 -5 -29 -11 -49 -7 -28 -15 -38 -30 -38 -20 0 -93 35
-139 67 -24 17 -24 17 -11 0 7 -9 45 -38 83 -63 53 -35 74 -57 93 -95 14 -26
25 -57 25 -69 0 -11 7 -20 15 -20 11 0 15 11 15 38 1 20 7 53 14 72 8 19 26
66 40 104 14 38 31 75 37 82 6 8 9 25 6 39 -2 14 0 63 5 108 4 45 10 99 13
119 2 21 7 43 11 49 4 6 18 59 33 118 l26 106 45 -2 c25 -1 70 -3 99 -3 110
-3 257 -37 346 -81 54 -27 85 -48 85 -58 0 -9 21 -31 48 -48 26 -17 85 -66
132 -108 47 -43 97 -83 113 -91 15 -8 27 -18 27 -22 0 -5 17 -20 38 -34 20
-13 65 -43 99 -66 34 -23 64 -42 68 -42 3 0 5 412 5 915 l0 915 -1634 0 -1633
0 1 -1225z m2856 908 c0 -4 -10 -18 -22 -31 -13 -14 -17 -22 -10 -18 26 15 52
-4 52 -39 0 -38 14 -52 35 -35 32 26 36 1 30 -158 -9 -226 -16 -260 -62 -300
-31 -28 -44 -33 -70 -29 -42 7 -84 44 -64 57 11 6 9 9 -8 12 -34 5 -87 111
-121 238 -6 25 -16 60 -22 78 -5 19 -11 50 -12 70 -1 21 -5 42 -9 49 -4 6 -3
14 2 18 6 3 8 12 5 19 -9 22 25 46 65 46 20 0 46 7 57 15 19 15 154 22 154 8z
m-2236 -18 c65 -15 235 -39 353 -50 72 -7 73 -7 78 -38 3 -18 2 -104 -2 -192
l-8 -160 -46 3 c-26 1 -143 9 -261 16 -118 7 -220 16 -226 20 -9 5 -10 59 -6
199 3 106 7 198 10 205 5 16 34 15 108 -3z m1706 -18 c0 -7 9 -21 21 -31 25
-21 23 -50 -14 -150 -14 -39 -23 -75 -19 -80 4 -6 7 -22 7 -36 0 -14 5 -24 11
-23 14 3 14 -139 0 -149 -7 -5 -5 -8 4 -8 9 0 16 -9 17 -20 2 -17 -2 -20 -19
-14 -14 4 -18 2 -14 -5 4 -6 14 -11 22 -11 8 0 14 -4 14 -10 0 -15 -44 -12
-76 5 -23 12 -25 15 -11 21 20 7 57 86 57 121 0 39 -36 97 -72 116 l-33 17 -3
115 -3 114 28 14 c15 7 36 12 46 10 9 -3 17 0 17 6 0 6 5 11 10 11 6 0 10 -6
10 -13z m755 3 c3 -5 -1 -10 -9 -10 -9 0 -19 0 -23 -1 -4 0 -9 4 -11 10 -5 14
35 14 43 1z m-2788 -76 c-3 -3 -12 -4 -19 -1 -8 3 -5 6 6 6 11 1 17 -2 13 -5z
m-8 -20 c3 -3 6 -100 5 -215 0 -163 2 -206 12 -198 7 6 14 6 18 1 3 -6 -1 -16
-10 -23 -12 -10 -37 -10 -127 -1 -61 6 -115 16 -121 22 -12 12 -11 404 1 423
6 10 211 2 222 -9z m908 0 c-3 -3 -12 -4 -19 -1 -8 3 -5 6 6 6 11 1 17 -2 13
-5z m762 -118 c54 -9 47 -13 -26 -15 -37 0 -90 6 -118 14 l-50 14 80 -3 c44
-2 95 -6 114 -10z m-1632 -88 c-2 -13 -4 -3 -4 22 0 25 2 35 4 23 2 -13 2 -33
0 -45z m1702 -32 c33 -30 71 -102 71 -135 0 -36 -17 -41 -29 -9 -10 27 -22 9
-14 -21 4 -15 11 -20 24 -16 21 7 45 -25 55 -73 8 -42 24 -51 24 -15 1 18 10
34 27 47 33 24 55 12 67 -37 8 -30 6 -45 -13 -81 -12 -25 -25 -68 -28 -96 -4
-36 -12 -56 -28 -68 -12 -10 -26 -33 -30 -52 -8 -44 -35 -121 -47 -137 -33
-42 -89 41 -96 142 -5 63 -28 110 -76 154 -41 38 -39 20 4 -40 41 -57 53 -97
24 -81 -18 10 -64 4 -64 -8 0 -5 9 -12 20 -15 11 -3 20 -11 20 -17 0 -5 -7 -7
-16 -4 -9 3 -37 6 -62 6 -36 0 -44 3 -32 11 12 9 12 10 -4 5 -35 -12 -57 2
-50 32 4 15 11 31 15 36 12 14 11 29 -1 21 -5 -3 -10 -1 -10 4 0 6 4 11 9 11
19 0 19 29 0 51 -18 21 -22 37 -22 107 0 17 -3 32 -8 32 -5 0 -9 5 -9 10 0 21
30 9 44 -17 8 -16 27 -41 42 -57 25 -26 31 -28 76 -23 27 4 63 13 80 22 17 8
37 15 44 15 20 0 44 41 43 75 l-1 30 -12 -35 c-22 -69 -52 -83 -59 -27 l-4 32
-1 -36 c-2 -42 -15 -49 -99 -49 l-52 0 -25 54 c-14 30 -26 60 -26 65 0 15 30
14 30 -1 0 -7 9 -24 19 -37 15 -20 29 -25 70 -27 38 -1 51 2 51 13 0 8 -4 11
-10 8 -5 -3 -10 -2 -10 4 0 6 12 13 28 17 46 10 52 13 52 28 0 7 -7 16 -15 20
-8 3 -15 1 -15 -5 0 -13 -39 -1 -58 17 -11 12 -9 14 19 14 27 0 30 2 19 15
-11 13 -8 16 19 21 43 9 34 14 -32 20 -96 8 -176 -36 -177 -98 0 -20 -4 -26
-14 -22 -8 3 -13 11 -10 17 4 12 -41 42 -108 72 -20 9 -39 24 -42 32 -8 19 20
53 43 54 9 1 5 5 -9 9 l-25 8 26 1 c14 1 29 5 35 10 15 15 61 19 195 17 109
-1 130 -4 148 -20z m-1712 -123 c-2 -21 -4 -6 -4 32 0 39 2 55 4 38 2 -18 2
-50 0 -70z m961 -255 c-2 -13 -7 -23 -13 -23 -5 0 -11 10 -13 23 -2 15 2 22
13 22 11 0 15 -7 13 -22z m-698 -18 c0 -5 -5 -10 -11 -10 -5 0 -7 5 -4 10 3 6
8 10 11 10 2 0 4 -4 4 -10z m1051 -47 c12 -32 -5 -115 -27 -134 -11 -9 -13 1
-10 67 5 99 4 94 16 94 6 0 15 -12 21 -27z m-401 -35 c0 -4 -16 -8 -35 -8 -19
0 -35 4 -35 9 0 5 16 9 35 8 19 -1 35 -5 35 -9z m-880 -114 c0 -8 -4 -12 -10
-9 -5 3 -10 10 -10 16 0 5 5 9 10 9 6 0 10 -7 10 -16z m1573 -6 c4 -10 7 -10
14 -1 5 7 19 11 31 10 16 -1 22 -8 22 -25 0 -12 9 -41 21 -64 26 -51 20 -94
-20 -132 -16 -16 -47 -32 -68 -36 -21 -4 -53 -11 -70 -15 -29 -7 -33 -5 -33
14 0 12 -5 31 -10 42 -8 15 -7 19 5 19 8 0 15 5 15 10 0 6 -4 10 -10 10 -5 0
-10 5 -10 10 0 6 6 10 13 9 52 -7 78 14 36 29 -20 8 -20 10 -5 24 20 21 20 28
-1 28 -14 0 -14 2 2 20 18 20 18 20 -28 14 -60 -9 -64 11 -4 21 23 4 49 11 57
16 22 12 38 11 43 -3z m-543 -41 c0 -8 -11 -24 -24 -36 l-24 -22 -6 27 c-4 14
-5 29 -1 32 3 3 5 -2 5 -11 0 -9 7 -17 15 -17 8 0 15 9 15 20 0 11 5 20 10 20
6 0 10 -6 10 -13z m37 -13 c-3 -3 -12 -4 -19 -1 -8 3 -5 6 6 6 11 1 17 -2 13
-5z m407 -15 c-3 -5 -10 -7 -15 -3 -5 3 -7 10 -3 15 3 5 10 7 15 3 5 -3 7 -10
3 -15z m-187 -48 c-2 -12 -6 -10 -16 7 -7 13 -9 31 -6 40 6 14 9 13 16 -7 6
-14 8 -32 6 -40z m-387 39 c0 -5 -4 -10 -10 -10 -5 0 -10 5 -10 10 0 6 5 10
10 10 6 0 10 -4 10 -10z m3 -31 c7 0 3 -4 -8 -8 -24 -10 -47 -3 -39 11 3 5 13
7 21 4 8 -3 20 -6 26 -7z m62 -10 c4 -5 -2 -6 -11 -2 -12 4 -15 3 -10 -5 4 -7
1 -12 -7 -12 -7 0 -14 6 -14 13 0 15 34 20 42 6z m-615 -71 c0 -18 -2 -20 -9
-8 -6 8 -7 18 -5 22 9 14 14 9 14 -14z m777 -130 c-3 -8 -6 -5 -6 6 -1 11 2
17 5 13 3 -3 4 -12 1 -19z"/>
<path d="M3948 3650 c-1 -8 -2 -48 -2 -88 -1 -82 2 -85 79 -79 35 3 41 6 46
32 8 34 12 24 9 -20 -2 -25 0 -27 13 -17 10 9 22 10 40 3 14 -5 28 -7 31 -4 3
3 11 1 18 -4 7 -5 30 -10 51 -12 32 -1 37 1 37 21 0 13 5 30 10 38 10 15 11
13 14 -29 2 -30 14 -36 76 -36 l58 0 6 64 c6 52 4 67 -10 82 -19 21 -78 26
-89 9 -5 -8 -11 -7 -20 0 -8 7 -19 9 -25 5 -5 -3 -13 1 -17 10 -4 12 -13 15
-34 11 -16 -3 -30 -2 -33 3 -3 4 -27 6 -53 3 -77 -7 -115 -4 -124 9 -6 10 -13
10 -35 0 -22 -10 -29 -10 -35 1 -7 10 -9 10 -11 -2z m182 -114 c0 -3 -4 -8
-10 -11 -5 -3 -10 -1 -10 4 0 6 5 11 10 11 6 0 10 -2 10 -4z m99 -43 c1 -7 -3
-13 -9 -13 -5 0 -10 15 -9 33 0 27 2 29 9 12 5 -11 9 -26 9 -32z"/>
<path d="M3510 3574 c0 -8 5 -12 10 -9 6 3 10 10 10 16 0 5 -4 9 -10 9 -5 0
-10 -7 -10 -16z"/>
<path d="M3556 3555 c-9 -24 -9 -25 24 -25 20 0 30 -5 30 -15 0 -19 16 -19 24
0 3 8 12 12 21 9 17 -7 19 4 4 26 -9 12 -12 13 -16 1 -3 -8 -8 -9 -12 -3 -3 5
-20 13 -37 16 -24 5 -33 3 -38 -9z"/>
<path d="M3507 3543 c-4 -3 -7 -20 -7 -37 0 -24 3 -27 10 -16 7 11 10 7 10
-18 0 -20 -4 -31 -10 -27 -5 3 -10 -3 -10 -15 0 -20 1 -20 25 -4 19 12 25 25
25 50 0 19 -4 34 -10 34 -5 0 -10 9 -10 20 0 20 -11 26 -23 13z"/>
<path d="M3570 3466 c0 -24 -41 -76 -60 -76 -13 0 -13 -37 1 -45 6 -4 9 0 7
11 -2 11 3 19 10 18 39 -3 41 -5 35 -21 -6 -16 -5 -16 11 -4 12 11 16 23 12
43 -3 15 -2 28 3 28 5 0 8 14 7 32 -2 38 -26 52 -26 14z"/>
<path d="M5615 3251 c-3 -5 -1 -12 5 -16 5 -3 10 -18 10 -33 1 -22 2 -24 10
-10 7 11 7 25 0 42 -10 28 -15 31 -25 17z"/>
<path d="M5561 3134 c0 -11 3 -14 6 -6 3 7 2 16 -1 19 -3 4 -6 -2 -5 -13z"/>
<path d="M5576 3103 c-6 -14 -5 -15 5 -6 7 7 10 15 7 18 -3 3 -9 -2 -12 -12z"/>
<path d="M5235 3089 c-9 -13 -7 -15 28 -23 31 -7 37 8 8 24 -25 13 -28 13 -36
-1z"/>
<path d="M5200 3003 c0 -4 5 -15 10 -23 7 -11 12 -12 21 -3 8 8 6 14 -10 22
-12 7 -21 8 -21 4z"/>
<path d="M5260 2982 c0 -5 7 -13 16 -16 10 -4 14 -1 12 6 -5 15 -28 23 -28 10z"/>
<path d="M6740 2945 l1 -1225 139 0 140 0 0 1225 0 1225 -140 0 -140 0 0
-1225z"/>
<path d="M1347 3833 c-23 -22 13 -50 47 -37 14 5 13 9 -8 25 -27 21 -30 22
-39 12z"/>
<path d="M1641 3514 c0 -11 3 -14 6 -6 3 7 2 16 -1 19 -3 4 -6 -2 -5 -13z"/>
<path d="M1020 3290 c0 -5 5 -10 10 -10 6 0 10 5 10 10 0 6 -4 10 -10 10 -5 0
-10 -4 -10 -10z"/>
<path d="M575 3260 c-16 -5 -47 -13 -68 -18 -55 -15 -273 -100 -339 -133 -25
-13 -38 -15 -40 -7 -9 26 -36 -2 -42 -44 -7 -45 0 -214 9 -228 7 -11 45 19 45
35 0 10 96 75 111 75 5 0 9 4 9 8 0 4 15 14 34 20 19 7 37 19 40 27 3 8 15 15
26 15 12 0 19 4 16 9 -3 5 12 11 33 15 31 5 40 11 43 29 2 12 8 22 13 22 6 0
16 4 23 8 7 5 25 7 40 4 15 -2 21 -2 14 0 -7 3 17 20 55 40 115 59 133 70 125
78 -4 5 2 5 12 1 10 -3 35 -1 54 5 29 9 32 13 20 25 -8 8 -23 11 -36 7 -18 -4
-20 -8 -10 -15 8 -5 -2 -6 -27 -2 -22 4 -41 11 -43 15 -2 5 -10 9 -19 9 -10 0
-12 -6 -8 -20 3 -11 2 -20 -3 -20 -6 0 -13 11 -16 25 -7 26 -19 29 -71 15z"/>
<path d="M4 3120 c0 -58 1 -81 3 -52 2 28 2 76 0 105 -2 28 -3 5 -3 -53z"/>
<path d="M1077 3199 c-4 -16 -3 -18 9 -8 7 6 11 15 8 20 -8 13 -11 11 -17 -12z"/>
<path d="M4141 3165 c0 -35 2 -37 11 -19 7 15 7 28 -1 40 -9 16 -10 12 -10
-21z"/>
<path d="M4240 3173 c0 -24 -6 -31 -37 -43 -21 -8 -45 -15 -53 -15 -13 0 -16
-8 -11 -33 1 -11 110 3 123 16 13 13 5 95 -9 100 -9 2 -13 -7 -13 -25z"/>
<path d="M184 3155 c-10 -8 -14 -15 -8 -15 5 0 19 7 30 15 10 8 14 15 8 15 -5
0 -19 -7 -30 -15z"/>
<path d="M600 3080 c-12 -8 -10 -10 8 -10 13 0 20 4 17 10 -7 12 -6 12 -25 0z"/>
<path d="M840 2945 c-10 -13 -9 -15 8 -15 15 0 20 5 16 15 -4 8 -7 15 -9 15
-1 0 -8 -7 -15 -15z"/>
<path d="M4618 2873 c7 -3 16 -2 19 1 4 3 -2 6 -13 5 -11 0 -14 -3 -6 -6z"/>
<path d="M4580 2455 c0 -5 9 -23 20 -40 11 -16 20 -25 20 -20 0 6 -9 24 -20
40 -11 17 -20 26 -20 20z"/>
<path d="M3140 2390 c-13 -8 -12 -10 3 -10 9 0 17 5 17 10 0 12 -1 12 -20 0z"/>
<path d="M4980 2309 c0 -5 5 -9 10 -9 6 0 10 -8 11 -17 0 -15 2 -15 9 2 7 15
9 16 9 4 1 -9 12 -41 26 -70 14 -30 24 -47 21 -38 -2 10 -10 37 -17 60 -7 24
-16 49 -21 55 -11 15 -48 25 -48 13z"/>
<path d="M2908 2293 c7 -3 16 -2 19 1 4 3 -2 6 -13 5 -11 0 -14 -3 -6 -6z"/>
<path d="M4 1875 c0 -88 2 -123 3 -77 2 46 2 118 0 160 -1 42 -3 5 -3 -83z"/>
<path d="M4657 890 c-41 -40 -39 -50 8 -50 40 0 48 -9 75 -90 11 -36 28 -79
36 -97 7 -17 14 -35 14 -40 0 -5 14 -25 30 -43 28 -31 30 -39 31 -119 l1 -86
16 78 c8 42 19 77 24 77 5 0 16 -17 24 -37 19 -47 37 -84 40 -80 1 1 -2 25 -6
52 -9 53 3 75 41 75 10 0 29 11 43 25 32 32 46 31 78 -2 50 -54 61 -80 54
-126 l-7 -42 21 33 c12 20 18 42 15 53 -4 10 -2 19 2 19 14 0 71 -63 76 -85 4
-16 5 -15 6 5 0 14 -15 50 -34 80 -22 35 -33 61 -29 73 3 11 6 35 5 56 0 20 5
49 11 64 15 38 -3 77 -35 77 -13 0 -28 -5 -33 -10 -7 -7 -70 -9 -170 -8 l-159
3 -31 64 c-27 55 -87 123 -104 119 -3 0 -22 -18 -43 -38z"/>
<path d="M1010 590 c0 -19 -7 -20 -109 -20 -63 0 -112 -4 -116 -10 -4 -6 35
-10 109 -10 107 0 116 -1 116 -19 0 -19 25 -31 68 -31 17 0 22 6 22 25 0 17 6
25 18 26 11 0 12 2 4 6 -7 3 -17 16 -22 29 -8 20 -16 24 -50 24 -33 0 -40 -3
-40 -20z"/>
<path d="M2131 424 c-50 -25 -53 -26 -65 -8 -12 16 -32 19 -145 21 l-131 3 0
-34 c0 -34 1 -35 43 -38 l42 -3 3 -137 3 -138 39 0 c29 0 42 5 50 19 5 11 10
74 10 141 l0 121 38 -3 c31 -2 36 -6 33 -23 -14 -80 -12 -117 8 -157 60 -120
203 -141 297 -43 67 70 68 166 1 242 -60 68 -137 81 -226 37z m149 -84 c80
-57 22 -184 -76 -166 -43 9 -74 48 -74 96 0 74 88 114 150 70z"/>
<path d="M1688 429 c-16 -9 -18 -28 -18 -174 l0 -165 33 0 c62 0 62 3 59 177
-2 86 -6 161 -8 165 -7 11 -45 9 -66 -3z"/>
<path d="M2472 424 c-28 -19 -52 -65 -52 -98 0 -33 50 -81 102 -97 32 -10 43
-19 43 -34 0 -26 -38 -31 -95 -11 -52 18 -60 14 -60 -24 0 -23 7 -33 33 -47
40 -21 134 -23 170 -4 49 26 60 127 19 164 -9 8 -39 24 -67 34 -37 14 -51 24
-53 41 -3 19 1 22 27 22 16 0 42 -5 55 -12 22 -9 29 -8 46 7 11 10 20 24 20
32 0 37 -144 58 -188 27z"/>
<path d="M787 423 c-4 -3 -7 -80 -7 -170 l0 -163 50 0 50 0 0 71 c0 67 1 70
22 67 15 -2 37 -25 65 -68 43 -65 43 -65 93 -67 27 -1 50 0 50 3 0 14 -44 88
-70 117 l-29 34 25 14 c58 31 67 109 17 149 -22 17 -41 20 -143 20 -64 0 -120
-3 -123 -7z m172 -54 c23 -8 31 -17 31 -35 0 -28 -26 -44 -74 -44 -35 0 -36 1
-36 38 0 56 15 63 79 41z"/>
<path d="M1120 277 c0 -196 -7 -187 158 -187 74 0 123 4 127 11 4 5 4 21 1 34
-6 23 -11 24 -94 27 l-87 3 0 35 0 35 83 3 82 3 0 29 0 29 -82 3 -83 3 0 30 0
30 88 3 87 3 0 29 0 30 -140 0 -140 0 0 -153z"/>
<path d="M1439 408 c-4 -108 4 -294 13 -305 8 -10 35 -13 97 -11 l86 3 0 35 0
35 -52 3 -52 3 -3 127 -3 127 -42 3 c-39 3 -43 1 -44 -20z"/>
<path d="M4820 344 c-17 -9 -20 -14 -9 -14 9 0 22 7 29 15 15 18 13 18 -20 -1z"/>
<path d="M4791 186 c-12 -14 -4 -106 9 -106 4 0 4 19 0 42 -5 24 -4 50 1 60
11 21 6 24 -10 4z"/>
<path d="M4925 194 c-8 -3 -10 -26 -6 -101 1 -7 5 -13 10 -13 4 0 6 11 4 24
-4 19 0 25 18 29 24 4 24 4 2 6 -17 1 -23 7 -23 25 0 19 6 26 28 29 25 4 25 4
2 5 -14 0 -29 -1 -35 -4z"/>
<path d="M5440 180 c-11 -11 -20 -31 -20 -43 0 -23 27 -57 46 -57 4 0 -2 7
-14 16 -38 26 -23 78 28 97 12 4 11 6 -2 6 -10 1 -27 -8 -38 -19z"/>
<path d="M4582 176 c7 -8 15 -12 17 -11 5 6 -10 25 -20 25 -5 0 -4 -6 3 -14z"/>
<path d="M4648 183 c-5 -27 -3 -61 4 -57 5 3 5 16 2 30 -5 20 -3 24 16 24 19
0 21 -4 16 -25 -4 -14 -2 -25 2 -25 5 0 9 12 8 28 -1 20 -7 28 -23 30 -13 2
-24 0 -25 -5z"/>
<path d="M4855 174 c23 -23 15 -66 -15 -81 -17 -9 -20 -13 -8 -13 25 0 48 28
48 59 0 27 -16 51 -33 51 -5 0 -1 -7 8 -16z"/>
<path d="M5102 150 c-1 -26 -7 -51 -14 -58 -9 -9 -9 -12 0 -12 15 0 25 39 19
81 -3 29 -4 27 -5 -11z"/>
<path d="M5152 153 c-2 -47 5 -73 20 -73 7 0 7 4 0 13 -6 7 -12 33 -15 57 l-4
45 -1 -42z"/>
<path d="M5220 140 c0 -31 -4 -50 -12 -50 -6 0 -8 -3 -5 -6 4 -4 13 -1 22 6
17 14 21 100 5 100 -5 0 -10 -22 -10 -50z"/>
<path d="M5282 138 c-2 -49 1 -58 16 -58 11 0 13 3 5 8 -6 4 -13 30 -16 57
l-3 50 -2 -57z"/>
<path d="M5513 172 c22 -25 21 -48 -3 -72 -11 -11 -16 -20 -12 -20 15 0 42 36
42 54 0 24 -18 56 -32 56 -6 0 -4 -8 5 -18z"/>
<path d="M4560 115 c-25 -26 -30 -35 -17 -35 9 0 17 5 17 12 0 6 10 22 22 35
12 13 19 23 17 23 -3 0 -20 -16 -39 -35z"/>
<path d="M4692 100 c-7 -11 -8 -20 -3 -20 9 0 24 30 18 36 -1 2 -8 -6 -15 -16z"/>
<path d="M2562 20 c0 -14 2 -19 5 -12 2 6 2 18 0 25 -3 6 -5 1 -5 -13z"/>
<path d="M2181 14 c0 -11 3 -14 6 -6 3 7 2 16 -1 19 -3 4 -6 -2 -5 -13z"/>
<path d="M2226 15 c4 -8 8 -15 10 -15 2 0 4 7 4 15 0 8 -4 15 -10 15 -5 0 -7
-7 -4 -15z"/>
</g>
</svg>
