<?xml version="1.0" standalone="no"?>
<!DOCTYPE svg PUBLIC "-//W3C//DTD SVG 20010904//EN"
 "http://www.w3.org/TR/2001/REC-SVG-20010904/DTD/svg10.dtd">
<svg version="1.0" xmlns="http://www.w3.org/2000/svg"
 width="873.000000pt" height="503.000000pt" viewBox="0 0 873.000000 503.000000"
 preserveAspectRatio="xMidYMid meet">

<g transform="translate(0.000000,503.000000) scale(0.100000,-0.100000)"
fill="#000000" stroke="none">
<path d="M67 4933 c-4 -3 -7 -900 -7 -1992 l0 -1986 208 -3 c434 -5 1476 -43
1712 -62 69 -5 265 -19 435 -30 171 -11 321 -22 335 -25 100 -19 1204 -84
1428 -85 39 0 62 -4 62 -11 0 -12 -702 -7 -840 6 -36 3 -155 12 -265 21 -110
8 -272 21 -360 29 -673 60 -1667 112 -2347 121 l-368 5 0 -95 0 -96 -30 0 -30
0 0 -365 0 -365 4365 0 4365 0 0 365 0 365 -1445 0 c-1149 0 -1445 3 -1445 13
0 6 -1 478 -3 1047 l-2 1035 -722 3 -723 2 0 -1050 0 -1050 -46 0 c-42 0 -45
2 -39 21 4 12 4 68 0 125 -7 107 -19 129 -44 82 l-11 -23 6 23 c5 20 2 22 -30
22 -33 0 -36 -2 -35 -27 2 -24 2 -25 6 -5 5 28 23 29 23 1 0 -11 3 -18 8 -16
4 3 12 -1 19 -8 18 -20 -26 -27 -172 -28 -87 0 -129 4 -140 13 -13 11 -15 54
-15 319 0 268 2 309 16 330 17 23 17 23 190 19 l174 -4 0 58 c0 55 -1 58 -25
58 -22 0 -25 -4 -25 -35 0 -25 4 -33 14 -29 8 3 17 0 22 -7 4 -7 3 -10 -4 -5
-6 3 -22 2 -36 -4 -39 -14 -294 -15 -311 0 -23 19 -22 615 1 648 15 21 21 22
190 22 171 0 174 0 174 21 0 18 -4 20 -27 15 -16 -4 -95 -10 -177 -13 -137 -5
-151 -4 -163 13 -19 26 -19 622 0 648 11 15 34 17 196 19 l184 2 10 30 c13 40
62 91 112 115 39 19 63 20 468 20 278 0 427 3 427 10 0 6 47 10 120 10 106 0
121 2 126 18 15 45 17 48 21 27 13 -66 12 -65 53 -65 l40 0 -2 893 -3 892
-2806 3 c-1543 1 -2809 -1 -2812 -5z m1201 -106 c2 -10 0 -31 -4 -45 -7 -27
-8 -27 -13 8 l-6 35 -550 0 -550 0 -3 -27 c-4 -34 -22 -37 -22 -4 0 60 -41 56
578 54 540 -3 567 -4 570 -21z m3094 -78 c58 -29 117 -121 117 -184 1 -17 -1
-17 -9 -5 -9 13 -10 13 -10 0 -1 -8 -10 8 -21 37 -36 93 -118 145 -203 129
-122 -23 -186 -180 -121 -295 29 -51 31 -61 8 -37 -10 9 -26 22 -35 29 -20 14
-39 85 -20 73 9 -5 12 7 12 39 0 28 -4 44 -10 40 -14 -9 -13 4 6 58 20 60 89
123 147 135 50 11 89 5 139 -19z m470 0 c65 -33 120 -120 117 -184 -1 -17 -2
-17 -6 -2 -2 9 -8 17 -13 17 -4 0 -18 21 -30 46 -32 65 -87 99 -160 99 -73 0
-121 -31 -155 -99 -33 -65 -33 -123 1 -189 21 -42 22 -48 6 -34 -10 9 -21 14
-25 11 -7 -7 -37 49 -37 71 0 8 5 15 10 15 6 0 10 21 10 48 0 34 -3 43 -10 32
-18 -28 -11 12 11 60 55 121 168 165 281 109z m437 16 c61 -13 151 -116 151
-174 0 -39 -21 -31 -41 16 -25 59 -43 80 -91 104 -91 47 -194 4 -239 -99 -19
-44 -39 -48 -39 -8 0 32 52 106 95 135 36 25 89 41 115 36 8 -2 30 -7 49 -10z
m-1875 -5 c70 -26 162 -158 126 -180 -11 -7 -21 4 -40 43 -38 79 -112 118
-193 103 -44 -8 -113 -68 -127 -109 -10 -33 -40 -47 -40 -20 0 47 58 126 115
156 34 18 120 22 159 7z m479 -1 c30 -16 79 -58 96 -81 18 -26 43 -111 31
-103 -6 4 -10 -12 -10 -37 0 -31 3 -39 10 -28 8 12 10 11 10 -7 0 -31 -30
-104 -40 -98 -5 3 -23 -7 -41 -22 l-33 -28 26 35 c81 107 71 226 -25 303 -65
53 -172 44 -228 -19 -53 -60 -66 -172 -29 -243 l19 -39 -24 12 c-34 16 -63 86
-35 86 14 0 13 87 -1 92 -20 7 9 76 50 121 20 22 50 46 66 53 37 16 129 18
158 3z m-3725 -103 c-3 -57 -3 -109 1 -115 5 -8 154 -10 552 -9 l544 3 3 33
c2 18 8 30 13 27 13 -9 11 -59 -3 -73 -17 -17 -1109 -17 -1126 0 -15 15 -16
64 -2 73 6 3 10 42 10 86 0 43 3 79 6 79 4 0 4 -47 2 -104z m1099 -13 c-2 -21
-4 -4 -4 37 0 41 2 58 4 38 2 -21 2 -55 0 -75z m213 84 c10 -4 8 -6 -7 -6 -16
-1 -23 5 -23 17 0 10 3 13 8 6 4 -6 14 -14 22 -17z m80 -103 l0 -74 -105 0
-105 0 0 75 0 74 88 3 c128 4 122 8 122 -78z m928 10 c10 -3 12 -33 10 -126
l-3 -123 -61 -5 c-33 -3 -74 -3 -90 0 l-29 5 -3 127 c-2 114 -1 127 15 131 19
5 138 -2 161 -9z m2311 2 c6 -7 12 -55 14 -107 l2 -94 -60 0 -60 0 2 94 c2 52
8 100 14 107 6 8 26 14 44 14 18 0 38 -6 44 -14z m-1364 -64 c-2 -3 -23 7 -46
22 l-41 27 -40 -26 c-54 -36 -60 -25 -7 12 l43 30 48 -30 c26 -17 46 -32 43
-35z m-25 52 c0 -8 -4 -12 -10 -9 -5 3 -10 10 -10 16 0 5 5 9 10 9 6 0 10 -7
10 -16z m1868 0 c29 -20 28 -43 -3 -88 -14 -20 -25 -41 -25 -46 0 -13 -27 -13
-35 1 -4 5 5 28 20 49 31 45 25 65 -16 56 -24 -4 -29 -2 -29 13 0 32 51 41 88
15z m-944 0 c9 -3 16 -15 16 -25 0 -12 5 -16 14 -13 24 9 29 -16 8 -39 -12
-13 -22 -39 -24 -62 -3 -40 -3 -40 -43 -39 -95 4 -85 -6 -85 88 0 58 4 86 13
89 18 8 83 8 101 1z m-454 -29 c7 -8 10 -27 7 -41 -2 -15 1 -41 9 -59 7 -18
10 -35 7 -39 -4 -3 -44 -6 -91 -6 -83 0 -84 0 -77 23 4 12 10 40 14 62 5 35
10 40 31 39 14 -1 31 7 38 17 16 23 45 25 62 4z m-494 -16 c31 -19 34 -25 34
-70 0 -42 -3 -49 -19 -49 -16 0 -20 8 -23 38 -3 32 -6 37 -28 37 -22 0 -25 -5
-28 -38 -3 -33 -6 -38 -25 -35 -18 2 -23 11 -25 43 -3 35 1 43 29 68 40 32 42
33 85 6z m1575 -74 c5 4 9 -6 9 -22 0 -32 -36 -97 -49 -88 -5 3 -12 1 -16 -5
-3 -5 -11 -10 -17 -10 -6 0 -4 8 5 18 23 25 47 86 48 124 2 31 2 31 6 5 2 -15
9 -25 14 -22z m-469 1 c18 11 1 -66 -18 -87 -10 -11 -20 -17 -22 -14 -3 3 -19
-7 -36 -22 -27 -24 -28 -25 -9 -3 27 31 62 107 64 140 2 24 2 24 6 2 3 -13 9
-19 15 -16z m947 -38 c-6 -25 -19 -54 -30 -64 -10 -9 -19 -13 -19 -9 0 4 -9 0
-20 -10 -15 -13 -10 1 16 51 20 38 40 68 45 67 5 -2 9 2 9 9 0 6 2 9 4 7 3 -2
0 -25 -5 -51z m-1889 18 c0 -43 -17 -72 -49 -86 -17 -7 -31 -16 -31 -21 0 -5
-5 -9 -12 -9 -6 0 -2 10 9 23 12 12 31 43 43 70 24 51 40 61 40 23z m-390 -1
c0 6 11 -13 24 -41 13 -28 36 -60 51 -72 15 -12 24 -22 19 -22 -5 0 -28 19
-51 41 -24 22 -43 37 -43 32 -1 -24 -20 27 -20 52 0 23 3 27 10 15 5 -8 10
-10 10 -5z m1935 -82 l18 -28 -27 24 c-14 14 -26 20 -26 15 -1 -20 -30 31 -30
52 0 36 24 34 36 -3 6 -18 20 -45 29 -60z m160 37 c0 -8 -10 -16 -22 -18 -18
-3 -23 2 -23 18 0 16 5 21 23 18 12 -2 22 -10 22 -18z m-5019 -36 c-5 -19 -3
-25 6 -22 7 3 14 14 16 26 2 12 8 22 13 22 13 0 2 -40 -16 -59 -7 -7 -18 -10
-24 -7 -14 9 -14 66 0 66 7 0 9 -10 5 -26z m82 19 c-15 -4 -15 -8 -5 -24 10
-16 9 -21 -3 -29 -8 -5 -19 -6 -24 -3 -6 4 -5 8 2 11 7 2 10 13 6 28 -5 20 -3
24 17 23 17 -1 19 -3 7 -6z m34 -18 c-2 -15 0 -25 7 -25 6 0 11 9 11 19 0 11
5 23 10 26 17 10 11 -32 -6 -50 -14 -14 -19 -14 -30 -3 -8 7 -11 23 -8 36 8
30 22 28 16 -3z m92 9 c12 -31 6 -41 -24 -41 l-29 0 17 29 c19 32 27 35 36 12z
m62 -6 c-3 -13 -6 -27 -6 -31 0 -5 -5 -5 -11 -1 -6 3 -15 0 -20 -7 -6 -10 -9
-5 -9 17 0 36 6 44 33 44 15 0 18 -5 13 -22z m28 -5 c-7 -31 -12 -38 -18 -32
-7 7 6 59 15 59 5 0 6 -12 3 -27z m66 3 c0 -13 5 -27 10 -29 6 -3 5 -4 -2 -3
-7 2 -20 0 -29 -5 -22 -11 -43 13 -34 41 4 13 15 20 31 20 19 0 24 -5 24 -24z
m300 -1 c0 -14 5 -25 10 -25 6 0 10 11 10 25 0 20 5 25 25 25 20 0 25 -5 25
-24 0 -36 -23 -50 -61 -37 -24 8 -36 8 -45 0 -18 -15 -18 -5 1 31 19 37 35 39
35 5z m110 13 c0 -9 3 -9 12 0 7 7 16 12 20 12 12 0 10 -48 -2 -55 -5 -3 -10
-2 -10 2 0 5 -9 9 -20 10 -11 1 -20 -3 -20 -9 0 -6 -2 -9 -5 -6 -9 8 6 58 16
58 5 0 9 -5 9 -12z m61 -39 c-10 -23 -10 -23 -10 7 -1 17 2 34 7 38 11 12 14
-18 3 -45z m46 35 c6 -15 8 -15 21 2 13 18 14 17 7 -11 -9 -40 -13 -42 -30
-19 -13 17 -14 17 -15 2 0 -10 -4 -18 -8 -18 -5 0 -7 14 -4 30 5 33 19 39 29
14z m63 9 c0 -19 -13 -53 -19 -53 -4 0 -6 14 -3 30 2 17 8 30 13 30 5 0 9 -3
9 -7z m38 0 c-14 -4 -15 -8 -5 -23 15 -25 -5 -52 -25 -32 -9 9 -8 12 7 12 15
0 16 3 7 12 -19 19 -14 38 11 37 16 -1 17 -3 5 -6z m108 -18 c-4 -14 -3 -25 2
-25 5 0 14 11 20 25 14 31 28 32 36 3 9 -35 7 -41 -10 -34 -9 4 -22 2 -29 -4
-9 -8 -17 -6 -29 5 -9 9 -16 12 -16 6 0 -6 -5 -11 -11 -11 -7 0 -9 10 -5 25 4
14 2 25 -4 25 -5 0 -12 -11 -16 -25 -8 -34 -19 -31 -19 5 0 29 2 30 44 30 41
0 43 -1 37 -25z m130 14 c4 -8 9 -8 17 0 15 15 44 14 51 -1 5 -10 7 -10 12 0
3 6 14 12 25 12 20 0 22 -10 9 -50 -4 -14 -8 -19 -9 -11 -1 7 -7 11 -16 7 -9
-3 -15 0 -15 10 0 12 -5 10 -20 -7 -19 -23 -20 -23 -34 -5 -14 17 -16 17 -31
2 -26 -25 -45 -20 -45 12 0 16 3 32 7 35 10 11 41 8 49 -4z m3260 -87 c-5 -4
-66 26 -66 33 0 3 16 -3 35 -12 19 -9 33 -18 31 -21z m429 20 c-3 -3 -11 0
-18 7 -9 10 -8 11 6 5 10 -3 15 -9 12 -12z m-295 3 c0 -2 -10 -9 -22 -15 -22
-11 -22 -10 -4 4 21 17 26 19 26 11z m-1430 -9 c0 -2 -7 -7 -16 -10 -8 -3 -12
-2 -9 4 6 10 25 14 25 6z m820 -6 c8 -5 11 -10 5 -10 -5 0 -17 5 -25 10 -8 5
-10 10 -5 10 6 0 17 -5 25 -10z m120 0 c-8 -5 -19 -10 -25 -10 -5 0 -3 5 5 10
8 5 20 10 25 10 6 0 3 -5 -5 -10z m-4136 -121 c13 11 16 11 16 0 0 -10 3 -10
12 -1 17 17 48 15 48 -3 0 -8 5 -15 10 -15 6 0 10 7 10 15 0 9 9 15 21 15 18
0 20 -4 15 -25 -4 -14 -3 -25 2 -25 5 0 14 11 20 25 15 33 29 32 34 -4 4 -27
1 -29 -31 -35 -22 -3 -38 -1 -43 7 -6 9 -10 8 -18 -3 -8 -13 -10 -12 -10 3 0
17 -1 17 -16 3 -21 -22 -33 -20 -43 7 l-9 22 -10 -25 c-8 -18 -11 -20 -11 -7
-1 9 -8 17 -16 17 -8 0 -15 -8 -16 -17 0 -12 -2 -13 -6 -5 -3 7 -2 25 2 39 5
20 9 23 15 13 7 -11 11 -11 24 -1z m282 -3 c8 -22 -14 -56 -36 -56 -15 0 -20
7 -20 28 0 16 3 32 7 35 12 12 43 7 49 -7z m44 4 c-8 -5 -11 -10 -6 -10 5 0 3
-7 -4 -15 -10 -12 -10 -15 1 -15 10 0 10 -3 1 -12 -17 -17 -31 2 -25 35 4 19
11 27 27 27 17 0 18 -2 6 -10z m48 -15 c-3 -14 -1 -25 3 -25 5 0 9 -4 9 -10 0
-5 -7 -10 -15 -10 -15 0 -20 26 -9 54 9 25 17 19 12 -9z m46 0 c-4 -17 -2 -25
7 -25 10 0 10 -3 2 -11 -6 -6 -15 -9 -20 -6 -12 8 -4 67 8 67 5 0 7 -11 3 -25z
m56 15 c-8 -5 -11 -10 -6 -10 5 0 3 -7 -4 -15 -9 -10 -9 -15 -1 -15 6 0 11 -4
11 -10 0 -5 -7 -10 -15 -10 -10 0 -15 10 -15 28 0 33 7 42 29 42 14 0 14 -2 1
-10z m53 0 c-23 -9 -32 -40 -12 -40 5 0 7 5 4 10 -3 6 0 10 8 10 10 0 13 -7
10 -20 -6 -23 -26 -26 -43 -5 -19 23 -3 55 28 54 26 0 26 -1 5 -9z m67 -27 c0
-27 -3 -34 -9 -24 -8 12 -12 12 -25 2 -19 -16 -21 -3 -4 34 17 38 38 32 38
-12z m68 10 c2 -16 -4 -26 -22 -35 -33 -14 -38 -9 -30 31 5 25 11 31 28 29 13
-2 22 -12 24 -25z m56 5 c9 -35 7 -41 -10 -34 -9 4 -23 1 -31 -5 -11 -10 -12
-8 -3 16 20 53 34 60 44 23z m299 14 c-6 -4 -7 -16 -3 -27 7 -19 8 -18 21 8
10 23 18 27 43 25 25 -2 31 -7 29 -25 -2 -14 3 -23 11 -23 8 0 12 9 11 25 -2
16 2 25 11 25 9 0 14 -11 14 -27 l1 -28 16 27 c16 25 21 26 90 26 76 -1 84 -7
67 -52 -10 -26 -25 -18 -18 9 4 15 2 25 -5 25 -6 0 -11 -9 -11 -19 0 -25 -31
-37 -46 -17 -14 20 -25 21 -18 1 4 -10 0 -15 -15 -15 -25 0 -27 12 -6 30 17
14 20 30 6 30 -5 0 -19 -16 -31 -35 -12 -19 -26 -35 -31 -35 -6 0 -8 4 -5 8 3
5 -15 7 -40 6 -33 -2 -44 1 -44 12 0 21 -18 17 -25 -6 -3 -11 -13 -20 -21 -20
-8 0 -12 4 -9 10 3 5 0 7 -8 4 -8 -3 -18 0 -22 6 -5 8 -10 8 -20 0 -19 -16
-35 -4 -35 24 0 31 5 34 58 34 25 0 41 -3 35 -6z m375 -18 c-3 -29 -32 -54
-45 -40 -4 5 -2 11 5 13 10 4 10 8 2 19 -15 17 -4 34 21 34 16 0 20 -6 17 -26z
m72 2 c0 -30 -26 -54 -42 -38 -17 17 -1 62 22 62 14 0 20 -7 20 -24z m42 16
c-9 -6 -7 -14 8 -30 12 -12 19 -22 18 -23 -31 -7 -68 -7 -68 1 0 6 8 10 18 11
10 0 12 3 5 6 -23 9 -15 43 10 43 14 0 18 -3 9 -8z m70 -22 c-6 -39 -22 -49
-22 -14 0 21 -3 24 -13 15 -8 -6 -17 -8 -20 -4 -7 6 29 30 49 32 6 1 9 -11 6
-29z m58 20 c0 -5 12 -10 28 -10 21 0 24 2 12 10 -12 8 -11 10 8 10 17 0 22
-6 22 -27 0 -26 1 -26 18 -10 15 16 15 19 2 27 -12 8 -11 10 8 10 15 0 22 -6
22 -20 0 -11 -4 -20 -10 -20 -5 0 -7 -6 -4 -14 4 -11 -10 -14 -76 -13 -70 1
-79 3 -64 14 10 7 12 13 6 13 -7 0 -12 9 -12 20 0 13 7 20 20 20 11 0 20 -4
20 -10z m190 -25 c0 -8 7 -15 15 -15 8 0 15 7 15 15 0 10 11 15 35 15 24 0 35
-5 35 -15 0 -8 5 -15 10 -15 19 0 10 -16 -10 -17 -12 -1 -20 5 -21 15 -1 15
-2 15 -6 0 -2 -10 -9 -18 -14 -18 -6 0 -8 10 -4 23 6 22 6 22 -7 1 -8 -14 -21
-20 -35 -18 -12 2 -29 -3 -37 -11 -8 -8 -17 -15 -20 -15 -8 0 -8 34 0 54 8 20
44 21 44 1z m-1868 -102 c-3 -16 -7 -22 -10 -15 -4 13 4 42 11 42 2 0 2 -12
-1 -27z m2063 16 c-240 -8 -1675 -8 -1795 1 -47 4 383 6 955 6 592 0 954 -3
840 -7z m265 -1284 l0 -1295 -1170 0 c-643 0 -1170 3 -1170 8 0 4 524 6 1165
4 l1165 -2 -2 1290 c-2 709 0 1290 5 1290 4 0 7 -583 7 -1295z m-2159 1255
c25 -14 28 -90 3 -90 -14 0 -14 3 -4 15 9 11 9 15 1 15 -7 0 -10 4 -7 9 3 5
-1 14 -9 21 -12 10 -15 9 -15 -5 0 -15 -3 -15 -34 3 -30 18 -35 18 -40 5 -10
-25 -7 -45 5 -37 7 4 10 1 7 -7 -3 -8 -15 -15 -27 -15 -13 -1 -27 -8 -32 -15
-6 -9 -9 -1 -9 25 0 58 30 86 92 86 27 0 58 -5 69 -10z m2275 -15 l6 -25 20
25 c23 29 52 34 44 8 -3 -10 -8 -35 -12 -55 -3 -21 -10 -38 -16 -38 -5 0 -6
17 -3 38 l6 37 -20 -25 c-18 -22 -20 -23 -26 -7 -10 25 -25 21 -25 -7 0 -14
-5 -28 -11 -32 -9 -5 -10 7 -4 42 4 27 9 52 12 57 9 15 23 6 29 -18z m149 15
c-3 -5 -13 -10 -21 -10 -20 0 -17 -30 4 -31 13 0 12 -2 -5 -9 -27 -11 -31 -40
-5 -41 12 0 10 -3 -7 -10 -35 -14 -41 -1 -29 59 10 48 13 52 40 52 17 0 27 -4
23 -10z m75 0 c0 -5 -9 -10 -20 -10 -24 0 -26 -13 -5 -30 25 -21 15 -54 -17
-58 -16 -2 -28 1 -28 7 0 6 6 8 14 5 21 -8 32 17 13 31 -17 12 -23 46 -10 58
10 11 53 8 53 -3z m84 -7 c13 -46 17 -93 8 -93 -5 0 -12 7 -16 15 -8 21 -33
19 -46 -5 -6 -11 -15 -18 -20 -15 -11 7 41 114 57 114 6 1 14 -7 17 -16z m144
-6 c2 -11 -8 -32 -24 -48 -22 -23 -24 -29 -11 -29 9 0 17 -4 17 -9 0 -10 -50
-5 -60 6 -3 3 10 17 28 32 37 31 41 51 11 51 -12 0 -17 4 -14 11 11 16 49 6
53 -14z m-2388 -34 c0 -17 -4 -23 -14 -20 -7 3 -19 0 -25 -6 -16 -16 -14 -1 4
34 18 34 35 30 35 -8z m28 12 c-3 -14 -1 -25 3 -25 5 0 9 -4 9 -10 0 -5 -7
-10 -15 -10 -15 0 -20 26 -9 54 9 25 17 19 12 -9z m82 17 c-1 -4 -8 -18 -16
-32 -14 -24 -15 -24 -11 -2 3 12 2 22 -2 22 -5 0 -13 -10 -19 -22 -8 -17 -11
-19 -11 -6 -2 30 9 44 34 46 14 1 25 -2 25 -6z m49 -41 c1 -7 -5 -11 -13 -8
-7 3 -19 0 -25 -6 -18 -18 -14 15 6 42 16 23 17 23 24 5 4 -10 8 -25 8 -33z
m46 39 c3 -5 2 -10 -3 -10 -6 0 -8 -8 -5 -19 5 -20 -13 -38 -25 -26 -4 4 -1
10 6 12 10 4 10 8 2 19 -12 13 -6 34 10 34 5 0 12 -4 15 -10z m67 -3 c3 4 3 2
1 -5 -1 -8 -3 -21 -3 -29 0 -9 -3 -13 -7 -10 -3 4 -12 2 -20 -4 -9 -8 -13 -8
-13 -1 0 6 5 14 10 17 6 4 8 16 4 28 -6 19 -5 20 9 9 8 -7 17 -9 19 -5z m39
-23 l-8 -29 -5 27 c-3 16 0 29 6 31 16 6 16 4 7 -29z m55 25 c3 -6 2 -15 -4
-21 -6 -6 -8 -17 -5 -24 3 -8 -1 -14 -11 -14 -9 0 -16 7 -16 15 0 8 5 15 11
15 6 0 8 9 4 20 -7 21 9 28 21 9z m-624 -34 c-6 -32 -17 -32 -18 0 -1 14 4 25
11 25 8 0 10 -9 7 -25z m-133 -14 c9 -6 10 -11 2 -15 -13 -8 -31 1 -31 15 0
11 11 11 29 0z m5311 -20 c13 -25 13 -161 0 -181 -7 -11 -10 -2 -10 31 0 63
-17 106 -43 113 -12 3 -363 6 -779 6 -756 0 -758 0 -779 -21 -20 -20 -21 -26
-13 -202 10 -244 10 -218 1 -430 -11 -255 -25 -237 183 -237 162 0 174 -3 152
-37 -11 -17 -339 -20 -355 -4 -8 8 -13 56 -14 134 -1 67 1 111 6 97 l7 -25 7
25 c9 33 9 458 0 501 -7 33 -7 33 -14 9 -4 -14 -7 21 -8 82 -1 62 4 118 11
133 l11 25 813 0 c794 0 814 0 824 -19z m-5433 -558 c-1 -104 -2 -19 -2 187 0
206 1 291 2 188 2 -104 2 -272 0 -375z m106 541 c3 -4 0 -13 -8 -20 -18 -18
-26 -18 -19 1 4 8 1 15 -5 15 -6 0 -11 -7 -11 -15 0 -8 -4 -15 -10 -15 -11 0
-14 23 -3 33 8 9 48 9 56 1z m77 -13 c0 -15 -8 -19 -42 -19 -34 -1 -39 1 -25
9 9 6 15 14 12 20 -4 5 8 9 24 9 24 0 31 -4 31 -19z m2257 -60 c10 9 13 5 12
-22 -1 -19 -3 -26 -6 -17 -3 13 -9 15 -27 8 -21 -7 -22 -6 -18 17 3 17 8 21
15 14 7 -7 15 -7 24 0z m90 -22 c2 -22 -2 -29 -15 -28 -10 0 -12 3 -5 6 10 3
10 9 0 24 -14 22 -32 26 -23 4 3 -8 1 -15 -5 -15 -6 0 -7 -4 -4 -10 3 -5 1
-10 -4 -10 -12 0 -13 6 -5 37 4 16 13 21 32 21 22 -1 27 -6 29 -29z m44 22
c-7 -5 -10 -14 -7 -20 4 -6 1 -11 -6 -11 -9 0 -9 -3 2 -10 13 -8 12 -10 -4
-10 -12 0 -16 5 -12 16 3 9 6 22 6 30 0 8 8 14 18 14 13 0 14 -2 3 -9z m46
-20 c-1 -22 -5 -27 -14 -19 -9 7 -13 7 -13 -2 0 -8 -2 -11 -5 -8 -4 3 -3 17 1
32 9 36 34 34 31 -3z m58 -2 c0 -15 -7 -25 -18 -27 -22 -4 -33 24 -17 43 18
21 35 13 35 -16z m58 16 c-3 -9 -8 -14 -10 -11 -3 3 -2 9 2 15 9 16 15 13 8
-4z m47 -18 c0 -16 -6 -23 -20 -23 -24 0 -23 -2 -9 30 14 29 29 25 29 -7z m22
-29 c-8 -8 -9 -4 -5 13 4 13 8 18 11 10 2 -7 -1 -18 -6 -23z m-1925 -14 c-3
-3 -12 -4 -19 -1 -8 3 -5 6 6 6 11 1 17 -2 13 -5z m56 -1 c-7 -2 -21 -2 -30 0
-10 3 -4 5 12 5 17 0 24 -2 18 -5z m390 0 c-67 -2 -179 -2 -250 0 -70 1 -15 3
122 3 138 0 195 -2 128 -3z m1100 -65 c4 -10 8 -9 16 2 9 12 11 10 11 -10 1
-24 1 -24 12 -5 16 30 18 31 28 15 21 -32 11 -47 -30 -48 -32 -2 -40 2 -41 16
-1 16 -2 16 -6 0 -2 -10 -9 -18 -14 -18 -10 0 -11 7 -3 38 7 24 20 29 27 10z
m120 -15 c-9 -16 -18 -29 -19 -31 -1 -2 -4 11 -6 28 -4 26 -2 30 19 30 23 0
23 0 6 -27z m55 5 l11 -23 0 23 c1 12 6 22 12 22 7 0 9 -10 7 -25 -4 -17 -1
-25 8 -25 8 0 14 11 14 25 0 14 5 25 11 25 6 0 8 -10 4 -22 l-6 -23 17 23 c22
29 31 28 36 -7 l4 -28 -83 -1 c-46 0 -83 1 -83 3 0 11 24 55 30 55 4 0 12 -10
18 -22z m188 -4 c-5 -17 -3 -23 4 -19 5 3 10 15 10 25 0 14 7 18 33 17 25 -2
33 -7 35 -24 4 -29 23 -30 19 -2 -1 12 3 24 9 26 6 2 11 -9 12 -26 l1 -29 -70
0 c-45 0 -69 4 -69 12 0 6 -4 4 -10 -4 -13 -21 -19 -10 -13 23 4 19 11 27 25
27 17 0 19 -5 14 -26z m234 15 c0 -5 -5 -7 -11 -3 -7 4 -10 1 -7 -6 7 -23 28
-23 28 -1 0 14 6 21 20 21 25 0 27 -36 3 -48 -23 -11 -113 -15 -113 -5 1 38
14 53 46 53 19 0 34 -5 34 -11z m109 -6 c9 -16 10 -16 11 -1 0 12 8 16 32 15
25 -2 33 -7 38 -27 4 -17 8 -21 14 -12 4 7 5 19 2 27 -4 11 2 15 21 15 25 0
25 -1 10 -18 -20 -22 -21 -32 -4 -32 8 0 19 11 25 25 15 34 32 32 32 -4 l0
-28 -75 -1 c-74 -1 -75 0 -76 26 l-2 27 -4 -27 c-5 -32 -17 -36 -32 -10 -10
16 -10 16 -11 0 0 -12 -8 -18 -21 -18 -15 0 -19 4 -15 16 3 9 6 22 6 30 0 20
37 17 49 -3z m2289 -255 c-1 -176 -4 -250 -8 -208 -14 122 -9 480 6 480 2 0 3
-123 2 -272z m-1459 155 c-1 -23 -2 -24 -6 -6 -2 12 -12 24 -21 26 -12 3 -10
5 6 6 18 1 22 -4 21 -26z m43 20 c-6 -2 -10 -9 -7 -13 3 -5 1 -11 -5 -15 -5
-3 -10 3 -10 14 0 14 6 21 18 20 10 0 12 -3 4 -6z m39 -2 c-9 -6 -10 -11 -2
-15 6 -4 11 -12 11 -17 0 -6 -7 -4 -15 5 -20 20 -19 36 3 36 13 0 14 -2 3 -9z
m57 2 c-21 -5 -24 -39 -5 -46 9 -4 9 -6 -1 -6 -16 -1 -26 24 -18 44 3 8 13 14
23 14 17 -1 17 -2 1 -6z m117 -3 c-13 -6 -15 -9 -5 -9 10 -1 11 -4 4 -9 -6 -4
-14 -14 -17 -22 -3 -9 -6 -5 -6 11 -1 30 6 39 28 38 12 0 11 -3 -4 -9z m45 0
c0 -5 -4 -10 -10 -10 -5 0 -10 5 -10 10 0 6 5 10 10 10 6 0 10 -4 10 -10z m26
-25 c-6 -24 -26 -27 -26 -4 0 6 5 7 10 4 6 -3 10 4 10 16 0 12 3 20 6 16 4 -3
3 -18 0 -32z m58 27 c-6 -4 -13 -14 -16 -22 -3 -10 -6 -8 -10 8 -5 18 -2 22
15 22 13 0 17 -3 11 -8z m63 -8 c3 -8 1 -20 -5 -26 -8 -8 -9 -5 -5 11 7 26
-21 29 -36 4 -6 -10 -11 -13 -11 -7 -1 29 46 45 57 18z m-473 -36 c7 -5 4 -8
-6 -8 -12 0 -18 7 -17 23 0 15 2 17 6 7 3 -8 11 -18 17 -22z m236 17 c0 -20
-28 -31 -42 -17 -8 8 -5 9 11 5 15 -4 21 -1 21 11 0 9 2 16 5 16 3 0 5 -7 5
-15z m-1740 -12 c-25 -10 -31 -27 -13 -40 15 -12 15 -13 1 -13 -9 0 -19 7 -22
16 -8 20 11 44 33 43 13 0 14 -2 1 -6z m27 -52 c-14 -5 -16 2 -9 34 l6 30 6
-30 c3 -16 2 -32 -3 -34z m37 25 c-3 -15 -8 -25 -11 -23 -2 3 -1 17 3 31 3 15
8 25 11 23 2 -3 1 -17 -3 -31z m40 26 c-13 -8 -15 -42 -3 -42 5 0 12 12 15 26
5 19 9 23 18 13 8 -8 8 -13 -1 -16 -7 -3 -13 -11 -13 -19 0 -8 -10 -14 -26
-14 -20 0 -25 4 -20 16 3 9 6 22 6 30 0 8 8 14 18 14 10 0 13 -3 6 -8z m58
-27 c-5 -18 -11 -25 -15 -18 -4 7 -2 21 5 32 16 26 19 22 10 -14z m40 10 c-7
-36 -19 -40 -18 -5 1 17 6 30 12 30 7 0 9 -10 6 -25z m38 15 c-12 -8 -12 -10
-1 -10 10 0 11 -3 2 -14 -10 -11 -8 -15 6 -19 14 -4 13 -5 -4 -6 -19 -1 -23 4
-23 29 0 22 5 30 18 30 14 0 15 -2 2 -10z m1327 -6 c-3 -3 -12 -4 -19 -1 -8 3
-5 6 6 6 11 1 17 -2 13 -5z m-50 -80 c-3 -3 -12 -4 -19 -1 -8 3 -5 6 6 6 11 1
17 -2 13 -5z m63 -4 c0 -5 -2 -10 -4 -10 -3 0 -8 5 -11 10 -3 6 -1 10 4 10 6
0 11 -4 11 -10z m22 -17 c-4 -23 -2 -25 17 -20 11 3 19 1 15 -4 -17 -27 -53 4
-40 36 9 24 14 17 8 -12z m97 10 c0 -11 -3 -13 -6 -5 -7 17 -21 15 -26 -5 -4
-14 -5 -12 -6 5 -1 16 5 22 19 22 13 0 20 -6 19 -17z m65 1 c3 -8 2 -13 -3 -9
-5 3 -12 -1 -14 -7 -3 -7 -6 -3 -6 10 -1 25 14 30 23 6z m86 -13 c0 -12 -9
-20 -24 -23 -24 -5 -25 -4 -10 24 16 30 34 29 34 -1z m-355 0 c3 -5 1 -12 -5
-16 -5 -3 -10 1 -10 9 0 18 6 21 15 7z m222 -23 c-3 -7 -5 -2 -5 12 0 14 2 19
5 13 2 -7 2 -19 0 -25z m-149 1 c3 -11 2 -11 -7 1 -10 13 -12 13 -21 0 -5 -8
-10 -10 -10 -4 0 27 31 30 38 3z m214 -1 c-7 -7 -12 -8 -12 -2 0 6 3 14 7 17
3 4 9 5 12 2 2 -3 -1 -11 -7 -17z m-239 -110 c-2 -4 -10 -2 -17 5 -8 6 -12 15
-9 19 2 4 10 2 17 -5 8 -6 12 -15 9 -19z m27 10 c0 -19 -2 -20 -10 -8 -13 19
-13 30 0 30 6 0 10 -10 10 -22z m20 -15 c-11 -17 -11 -17 -6 0 3 10 6 24 7 30
0 9 2 9 5 0 3 -7 0 -20 -6 -30z m31 14 c-10 -9 -11 -8 -5 6 3 10 9 15 12 12 3
-3 0 -11 -7 -18z m31 -6 c2 -17 1 -28 -4 -25 -8 5 -12 54 -4 54 2 0 6 -13 8
-29z m35 7 c-3 -8 -6 -5 -6 6 -1 11 2 17 5 13 3 -3 4 -12 1 -19z m36 8 c3 -8
0 -17 -7 -19 -10 -4 -12 1 -9 14 6 23 9 24 16 5z m52 -36 c-3 -6 -12 -10 -18
-10 -7 0 -6 4 3 10 12 7 12 12 2 22 -6 6 -12 17 -12 22 0 6 7 0 16 -12 8 -12
12 -27 9 -32z m87 24 c-4 -20 -1 -25 9 -22 8 3 14 15 13 27 0 11 3 21 8 21 14
0 9 -37 -7 -50 -17 -14 -35 -5 -35 19 0 15 8 31 15 31 1 0 0 -12 -3 -26z
m-375 -16 c-3 -8 -6 -5 -6 6 -1 11 2 17 5 13 3 -3 4 -12 1 -19z m-1497 -8
c-11 -7 -12 -10 -2 -10 10 0 10 -3 -2 -15 -20 -21 -24 -19 -18 10 2 15 11 25
21 25 14 0 14 -2 1 -10z m52 -14 c4 -19 1 -23 -18 -23 -15 0 -21 4 -17 13 3 8
9 11 14 8 5 -3 6 2 3 10 -3 9 -2 16 4 16 5 0 12 -11 14 -24z m37 17 c0 -5 -4
-17 -9 -28 -8 -18 -9 -17 -9 8 -1 15 4 27 9 27 6 0 10 -3 9 -7z m40 0 c-1 -17
-18 -47 -18 -35 -1 7 -5 10 -11 7 -14 -9 -13 8 2 23 13 13 28 16 27 5z m10
-37 c-9 -8 -10 -7 -5 7 3 10 7 24 7 30 1 7 3 4 6 -7 3 -10 -1 -23 -8 -30z m28
-3 c-3 -10 -5 -2 -5 17 0 19 2 27 5 18 2 -10 2 -26 0 -35z m57 25 c4 12 12 22
17 22 13 0 11 -18 -3 -23 -8 -3 -6 -6 5 -6 32 -2 17 -19 -16 -18 -30 1 -33 4
-28 27 l5 25 6 -25 6 -25 8 23z m86 15 c0 -12 -20 -39 -20 -28 0 6 -5 3 -10
-5 -11 -17 -13 -1 -4 24 6 16 34 23 34 9z m1427 -9 c-3 -3 -12 -4 -19 -1 -8 3
-5 6 6 6 11 1 17 -2 13 -5z m-175 -76 c-5 -7 -12 -22 -15 -33 -5 -20 -5 -20
-6 1 0 11 4 25 11 32 16 16 23 15 10 0z m70 -10 c-2 -10 -6 -18 -7 -18 -1 0
-5 8 -7 18 -3 11 0 19 7 19 7 0 10 -8 7 -19z m-45 -20 c-3 -7 -5 -2 -5 12 0
14 2 19 5 13 2 -7 2 -19 0 -25z m-80 -10 c-3 -8 -6 -5 -6 6 -1 11 2 17 5 13 3
-3 4 -12 1 -19z m154 -1 c-10 -9 -11 -8 -5 6 3 10 9 15 12 12 3 -3 0 -11 -7
-18z m39 3 c0 -5 -5 -10 -11 -10 -5 0 -7 5 -4 10 3 6 8 10 11 10 2 0 4 -4 4
-10z m-1684 -41 c5 -9 -35 -53 -42 -46 -1 1 0 14 3 30 5 28 26 36 39 16z m42
-19 c11 26 17 14 6 -14 -14 -37 -46 -10 -35 29 4 17 6 15 12 -10 l6 -30 11 25z
m52 -3 c0 -5 -4 -5 -10 -2 -5 3 -10 -2 -10 -11 0 -10 -3 -15 -6 -11 -4 3 -3
18 0 34 6 21 9 24 17 12 5 -7 9 -18 9 -22z m65 23 c-3 -5 -10 -10 -16 -10 -5
0 -9 5 -9 10 0 6 7 10 16 10 8 0 12 -4 9 -10z m53 -18 c4 -25 -23 -41 -40 -24
-7 7 -6 17 2 32 14 26 34 22 38 -8z m45 21 c-8 -3 -11 -14 -7 -29 5 -19 2 -24
-12 -23 -11 0 -14 3 -7 6 8 3 11 14 7 29 -5 19 -2 24 12 23 11 0 14 -3 7 -6z
m-147 -51 c-11 -10 -15 4 -8 28 l7 25 3 -23 c2 -13 1 -26 -2 -30z m31 6 c-3
-8 -6 -5 -6 6 -1 11 2 17 5 13 3 -3 4 -12 1 -19z m-147 -85 c-25 -10 -31 -27
-13 -40 15 -12 15 -13 1 -13 -9 0 -18 6 -21 13 -7 19 12 47 31 46 14 0 14 -2
2 -6z m27 -15 c-3 -8 -6 -5 -6 6 -1 11 2 17 5 13 3 -3 4 -12 1 -19z m33 -15
c-11 -17 -11 -17 -6 0 3 10 6 24 7 30 0 9 2 9 5 0 3 -7 0 -20 -6 -30z m44 29
c-6 -4 -14 -14 -17 -22 -4 -10 -6 -8 -6 8 -1 15 5 22 17 22 10 0 13 -3 6 -8z
m36 -13 c0 -5 -4 -9 -10 -9 -5 0 -10 7 -10 16 0 8 5 12 10 9 6 -3 10 -10 10
-16z m59 -9 c-13 -37 -22 -40 -13 -4 5 20 3 25 -7 22 -7 -2 -16 -15 -19 -29
-4 -15 -8 -20 -13 -12 -11 18 15 53 40 53 20 0 21 -3 12 -30z m41 20 c-12 -8
-12 -10 -1 -10 10 0 11 -3 2 -14 -9 -11 -9 -15 1 -19 8 -4 7 -6 -4 -6 -13 -1
-18 7 -18 29 0 22 5 30 18 30 14 0 15 -2 2 -10z m41 1 c-12 -7 -12 -13 -3 -24
12 -14 7 -27 -12 -27 -6 0 -5 4 3 9 9 6 10 11 2 15 -17 11 -13 36 7 36 14 0
14 -2 3 -9z m963 -7 c6 -17 -9 -54 -23 -54 -15 0 -21 31 -11 51 13 23 26 24
34 3z m-1209 -34 c3 -5 1 -10 -4 -10 -6 0 -11 5 -11 10 0 6 2 10 4 10 3 0 8
-4 11 -10z m85 0 c0 -5 -12 -10 -27 -9 l-28 1 25 8 c14 4 26 8 28 9 1 1 2 -3
2 -9z m468 -75 l22 -5 -2 -315 c-3 -286 -5 -316 -21 -332 -16 -16 -45 -18
-318 -21 -218 -2 -305 0 -315 9 -21 17 -21 635 0 658 13 14 52 16 313 14 164
-2 308 -5 321 -8z m709 -7 c4 -7 6 -152 5 -323 -3 -254 -6 -313 -18 -325 -12
-13 -64 -15 -316 -18 -271 -3 -302 -1 -319 14 -18 16 -19 36 -19 315 0 205 4
306 12 324 l11 25 318 0 c243 0 320 -3 326 -12z m738 -538 c3 -5 2 -10 -4 -10
-5 0 -13 5 -16 10 -3 6 -2 10 4 10 5 0 13 -4 16 -10z m53 -23 c3 -16 1 -17
-17 -7 -25 13 -28 33 -4 28 10 -2 19 -11 21 -21z m-100 -32 c-3 -3 -9 2 -12
12 -6 14 -5 15 5 6 7 -7 10 -15 7 -18z m52 5 c0 -5 7 -7 15 -4 18 7 75 -14 75
-28 0 -6 -6 -8 -14 -5 -7 3 -34 8 -59 12 -46 7 -75 35 -37 35 11 0 20 -4 20
-10z m54 -49 c16 -4 32 -13 34 -20 3 -9 -2 -11 -15 -7 -11 4 -38 7 -59 8 -22
1 -42 6 -46 12 -6 8 -8 8 -8 -1 0 -6 -9 -9 -20 -6 -20 5 -25 15 -15 25 7 6 86
-1 129 -11z m157 3 c10 -13 10 -17 -1 -24 -9 -5 -20 -4 -27 2 -30 24 -24 -5 6
-36 28 -29 31 -37 22 -55 -15 -28 -66 -29 -81 -2 -13 25 4 38 26 20 29 -24 27
2 -2 34 -41 43 -36 77 10 77 19 0 39 -7 47 -16z m69 -31 c-2 -66 -1 -73 10
-73 6 0 10 27 10 60 0 47 3 60 15 60 13 0 15 -13 13 -72 -3 -72 -3 -73 -31
-76 -45 -5 -57 13 -57 84 0 58 2 64 21 64 18 0 20 -6 19 -47z m125 15 c11 -52
18 -55 30 -12 6 23 18 40 28 42 15 3 17 -6 17 -72 0 -61 -3 -76 -15 -76 -8 0
-16 8 -16 18 -1 16 -2 16 -6 0 -2 -10 -11 -18 -18 -18 -8 0 -19 8 -24 18 -10
16 -10 16 -11 0 0 -10 -7 -18 -15 -18 -12 0 -15 15 -15 75 0 67 2 75 19 75 14
0 21 -10 26 -32z m189 -26 c20 -72 20 -92 1 -92 -8 0 -15 7 -15 15 0 8 -7 15
-15 15 -9 0 -18 -7 -21 -15 -7 -17 -34 -21 -34 -4 0 6 8 40 17 75 23 85 44 87
67 6z m131 8 c0 -39 -3 -45 -25 -50 -16 -4 -26 -14 -28 -28 -7 -44 -27 -15
-30 42 -5 79 0 88 45 84 38 -3 38 -3 38 -48z m119 34 c3 -9 6 -35 6 -59 0 -60
-8 -75 -39 -75 -39 0 -51 17 -51 75 0 28 5 56 12 63 17 17 65 15 72 -4z m116
12 c0 -2 3 -12 7 -21 5 -15 1 -16 -25 -10 -18 3 -32 4 -32 1 0 -2 14 -20 30
-38 32 -34 35 -45 21 -66 -13 -21 -75 -11 -79 11 -3 16 1 18 27 12 17 -4 31
-4 31 -1 0 2 -13 20 -30 38 -29 31 -37 57 -23 71 7 8 73 10 73 3z m-870 -66
c0 -6 -26 -10 -60 -10 -33 0 -60 4 -60 9 0 4 27 9 60 10 34 1 60 -3 60 -9z
m-1536 -6 c14 -5 16 -42 16 -310 0 -309 -4 -346 -39 -359 -30 -12 -603 -6
-617 6 -19 16 -20 639 -2 657 9 9 94 12 319 12 169 0 314 -3 323 -6z m702 -6
c5 -7 8 -154 6 -325 l-3 -313 -22 -15 c-18 -12 -62 -15 -213 -15 -388 -2 -401
-1 -418 16 -24 23 -24 608 0 642 15 22 16 22 328 22 240 0 316 -3 322 -12z
m789 -28 c-3 -5 -13 -10 -21 -10 -8 0 -14 5 -14 10 0 6 9 10 21 10 11 0 17 -4
14 -10z m0 -50 c-3 -5 -10 -10 -16 -10 -5 0 -9 5 -9 10 0 6 7 10 16 10 8 0 12
-4 9 -10z m789 -28 c3 -5 -1 -9 -9 -9 -8 0 -15 4 -15 9 0 4 4 8 9 8 6 0 12 -4
15 -8z m51 -2 c3 -5 -1 -10 -10 -10 -9 0 -13 5 -10 10 3 6 8 10 10 10 2 0 7
-4 10 -10z m45 6 c0 -3 -4 -8 -10 -11 -5 -3 -10 -1 -10 4 0 6 5 11 10 11 6 0
10 -2 10 -4z m-1050 -216 c0 -5 -5 -10 -11 -10 -5 0 -7 5 -4 10 3 6 8 10 11
10 2 0 4 -4 4 -10z m52 -24 c7 4 8 2 4 -5 -11 -17 -26 -3 -25 22 2 22 2 22 6
-1 3 -13 9 -19 15 -16z m42 18 c3 -8 2 -12 -4 -9 -6 3 -10 1 -10 -6 0 -7 -2
-10 -5 -7 -5 5 4 38 10 38 2 0 6 -7 9 -16z m46 -17 c0 -2 -7 -4 -15 -4 -8 0
-15 9 -15 19 0 17 2 18 15 4 8 -8 15 -16 15 -19z m30 21 c0 15 26 16 35 2 10
-17 -15 -42 -30 -30 -6 5 -15 7 -18 3 -4 -3 -7 5 -7 18 0 19 2 21 10 9 6 -10
10 -11 10 -2z m-157 -29 c-8 -8 -13 -7 -18 2 -5 8 -4 10 3 5 7 -4 12 -2 12 5
0 7 3 9 7 6 4 -4 2 -12 -4 -18z m321 -129 c19 -7 26 -6 26 3 0 8 3 8 8 2 4 -6
18 -10 32 -8 79 6 196 1 193 -9 -2 -5 -3 -12 -3 -18 0 -11 -32 -1 -42 14 -5 7
-8 5 -8 -4 0 -12 -11 -15 -50 -14 -28 1 -61 5 -75 8 -15 4 -25 2 -25 -4 0 -7
-7 -7 -21 1 -12 6 -24 7 -28 3 -5 -8 -23 -9 -56 -5 -5 1 1 8 15 17 23 14 23
14 3 9 -14 -4 -23 -2 -23 4 0 14 21 14 54 1z m297 -7 c0 -15 2 -15 9 2 8 20 9
20 9 -1 1 -11 -2 -24 -6 -27 -9 -9 -33 12 -33 29 0 21 20 17 21 -3z m49 -5 c0
-9 4 -8 10 2 9 13 10 13 11 0 0 -12 2 -12 6 -1 5 11 7 11 14 0 6 -10 9 -11 9
-1 0 7 13 12 33 12 18 0 39 -6 46 -12 11 -10 13 -10 7 0 -4 6 -3 12 2 12 16 0
22 -13 12 -26 -12 -13 -53 -7 -44 7 8 14 -6 11 -22 -5 -20 -20 -98 -15 -102 7
-2 9 1 17 7 17 6 0 11 -6 11 -12z m517 -5 c-8 -9 -20 -12 -26 -9 -19 12 -12
21 15 23 24 1 25 -1 11 -14z m-1430 -125 c-3 -8 -6 -5 -6 6 -1 11 2 17 5 13 3
-3 4 -12 1 -19z m-1089 -81 c7 -9 10 -115 9 -325 -2 -276 -4 -313 -19 -328
-15 -15 -50 -17 -321 -17 -168 0 -310 4 -316 7 -8 5 -11 104 -11 331 0 298 1
325 18 334 27 16 627 14 640 -2z m698 2 c8 -13 7 -615 -2 -641 -3 -9 -15 -20
-27 -24 -12 -4 -154 -7 -316 -7 -273 1 -295 2 -308 19 -10 14 -13 85 -13 319
0 256 2 304 16 323 15 22 16 22 329 22 222 0 316 -3 321 -11z m601 -15 c-3 -3
-12 -4 -19 -1 -8 3 -5 6 6 6 11 1 17 -2 13 -5z m49 -12 c1 -7 0 -8 -3 -2 -7
16 -21 12 -26 -7 -3 -13 -5 -12 -6 5 -1 17 4 23 16 20 9 -2 18 -9 19 -16z m44
-18 c0 -3 -7 -1 -15 6 -8 7 -15 17 -15 22 0 5 7 3 15 -6 8 -8 15 -18 15 -22z
m33 16 c-3 -11 -7 -20 -8 -20 -1 0 -5 9 -8 20 -3 12 0 20 8 20 8 0 11 -8 8
-20z m47 2 c0 -10 -7 -19 -15 -19 -8 0 -15 9 -15 19 0 10 7 18 15 18 8 0 15
-8 15 -18z m47 -21 c-5 -2 -13 3 -18 10 -7 12 -9 12 -9 0 0 -8 -2 -12 -5 -9
-3 3 -3 12 1 21 5 14 7 14 23 -1 9 -9 13 -19 8 -21z m33 35 c0 -2 -7 -6 -15
-10 -8 -3 -15 -1 -15 4 0 6 7 10 15 10 8 0 15 -2 15 -4z m23 -16 c-3 -11 -7
-20 -9 -20 -2 0 -4 9 -4 20 0 11 4 20 9 20 5 0 7 -9 4 -20z m57 -16 c0 -3 -7
-1 -15 6 -8 7 -15 17 -15 22 0 5 7 3 15 -6 8 -8 15 -18 15 -22z m39 18 c7 -14
6 -18 -10 -18 -22 0 -21 -1 -13 20 8 20 11 20 23 -2z m-4411 -154 l-3 -103
-150 0 -150 0 -3 89 c-2 49 -1 95 2 103 4 10 40 13 156 13 l151 0 -3 -102z
m377 -3 l0 -100 -157 -3 -158 -3 0 99 c0 54 3 102 7 106 4 3 75 5 157 4 l151
-3 0 -100z m203 -8 c2 -8 -6 -21 -17 -27 -19 -9 -21 -8 -21 13 0 39 31 50 38
14z m50 3 c3 -7 0 -10 -6 -6 -6 4 -8 -2 -5 -16 3 -17 2 -19 -5 -9 -8 11 -10
11 -15 0 -3 -8 -6 -2 -6 12 -1 39 26 53 37 19z m62 -10 c0 -21 -25 -44 -40
-35 -14 9 -13 52 3 58 20 7 37 -4 37 -23z m50 4 c0 -7 -9 -18 -20 -24 -17 -9
-20 -8 -20 13 0 13 3 26 6 30 10 9 34 -4 34 -19z m46 -20 c-14 -13 -16 -13
-16 -1 0 9 3 23 6 32 6 16 8 16 16 1 6 -11 4 -21 -6 -32z m374 36 c-13 -8 -13
-11 3 -27 16 -16 17 -16 17 10 0 20 5 27 20 27 13 0 20 -7 20 -20 0 -11 -6
-20 -14 -20 -8 0 -16 -4 -18 -8 -5 -13 -58 -24 -58 -12 0 5 4 10 9 10 4 0 6
11 3 25 -3 19 0 25 14 25 16 0 17 -2 4 -10z m84 -15 c-4 -17 -2 -25 7 -25 10
0 10 -3 2 -11 -6 -6 -15 -9 -20 -6 -12 8 -4 67 8 67 5 0 7 -11 3 -25z m37 -16
l-9 -34 -1 31 c-1 17 2 34 6 37 12 13 14 -1 4 -34z m55 25 c-9 -8 -16 -22 -16
-30 0 -8 -3 -14 -7 -14 -5 0 -8 14 -8 30 0 25 4 30 23 30 21 0 22 -1 8 -16z
m248 -9 c-4 -15 -2 -25 5 -25 6 0 11 10 11 22 0 12 3 18 7 15 3 -4 12 -2 20 5
11 9 13 7 9 -15 -4 -22 -1 -27 16 -27 16 0 18 3 9 14 -7 9 -8 17 -2 20 5 3 12
0 14 -6 4 -10 8 -9 16 2 9 12 11 11 11 -7 0 -12 6 -23 13 -26 6 -2 -12 -5 -40
-5 -44 -1 -53 1 -53 16 -1 16 -1 16 -11 0 -15 -26 -39 -22 -39 5 0 21 7 37 17
37 2 0 1 -11 -3 -25z m214 0 c-6 -31 7 -34 15 -3 5 17 9 19 21 9 11 -9 15 -9
19 1 3 7 6 3 6 -9 1 -25 -15 -39 -23 -21 -5 10 -7 10 -12 1 -3 -7 -14 -13 -25
-13 -13 0 -19 7 -19 23 0 22 7 37 18 37 2 0 2 -11 0 -25z m81 -29 c-9 -8 -10
-7 -5 7 3 10 7 26 7 35 1 9 4 6 6 -7 3 -13 -1 -28 -8 -35z m71 23 c0 -24 -29
-37 -40 -19 -5 7 -5 20 -2 29 5 12 7 10 12 -9 4 -15 9 -20 13 -13 4 6 4 19 0
29 -4 12 -3 15 5 10 7 -4 12 -16 12 -27z m-1188 -4 c-2 -14 -6 -25 -8 -25 -2
0 -4 11 -4 25 0 14 4 25 9 25 4 0 6 -11 3 -25z m76 3 c18 32 32 27 31 -10 0
-18 -3 -28 -5 -21 -4 8 -16 10 -36 6 -27 -5 -30 -4 -25 11 4 10 7 23 8 29 1 7
4 1 8 -13 l7 -25 12 23z m905 2 c-3 -11 -1 -20 5 -20 6 0 13 9 16 20 5 17 6
17 4 -2 -2 -13 -10 -23 -18 -23 -8 0 -16 10 -18 23 -2 12 1 22 6 22 6 0 8 -9
5 -20z m2853 -211 c4 -8 9 -7 15 2 6 10 9 5 9 -15 0 -24 -2 -27 -15 -16 -10 9
-15 9 -15 1 0 -19 -37 -12 -43 8 -3 11 -2 22 1 25 9 10 41 6 48 -5z m101 -10
c6 -21 6 -21 19 2 l13 24 10 -25 10 -25 0 23 c1 30 36 26 37 -4 1 -19 -4 -21
-57 -21 -50 1 -59 3 -59 19 0 26 -20 22 -21 -4 0 -22 -1 -22 -9 -3 -14 32 -12
35 21 35 23 0 32 -5 36 -21z m-4877 -36 c-25 -10 -31 -27 -13 -40 19 -15 11
-28 -12 -20 -15 6 -21 48 -8 60 3 4 16 7 27 6 15 0 17 -2 6 -6z m50 -3 c-8 -5
-11 -10 -5 -10 5 0 4 -5 -2 -11 -6 -6 -9 -18 -6 -27 4 -9 1 -13 -6 -11 -7 3
-12 8 -12 12 1 4 1 18 1 32 0 19 5 25 23 25 18 0 19 -2 7 -10z m51 -2 c-1 -5
-1 -20 -1 -34 0 -22 -3 -24 -14 -15 -11 9 -15 9 -19 -1 -3 -7 -6 -3 -6 9 -1
32 10 54 26 51 8 -2 14 -6 14 -10z m58 0 c-1 -16 -17 -56 -18 -44 -1 5 -9 2
-18 -5 -15 -13 -16 -11 -10 11 4 14 7 31 7 38 0 6 9 12 20 12 11 0 20 -6 19
-12z m51 -2 c0 -8 3 -22 7 -32 5 -14 3 -16 -12 -11 -9 4 -24 2 -31 -4 -19 -15
-18 -3 3 32 19 31 33 38 33 15z m64 6 c3 -5 2 -22 -3 -37 -5 -21 -10 -25 -15
-16 -7 11 -10 11 -17 0 -6 -10 -9 -4 -9 17 0 17 3 34 7 37 9 10 31 9 37 -1z
m64 -4 c9 -9 12 -9 12 0 0 7 5 12 10 12 13 0 13 -41 -1 -60 -9 -12 -10 -10 -6
8 5 19 3 21 -9 11 -11 -9 -14 -8 -15 2 0 8 -4 5 -9 -6 -7 -17 -9 -15 -9 13 -1
34 7 40 27 20z m112 2 c-11 -7 -11 -11 0 -25 12 -15 15 -14 27 9 19 37 33 32
33 -10 0 -29 -3 -34 -13 -25 -8 6 -17 8 -21 4 -11 -11 -45 -13 -51 -3 -3 6 -1
10 5 10 8 0 8 6 0 20 -6 11 -16 20 -22 20 -6 0 -8 -3 -5 -7 4 -3 2 -12 -4 -20
-9 -9 -8 -13 0 -13 6 0 11 -4 11 -10 0 -5 -7 -10 -15 -10 -10 0 -15 10 -15 28
0 37 4 40 47 40 23 0 31 -3 23 -8z m305 0 c5 -8 11 -7 20 0 18 15 35 4 35 -21
0 -22 -32 -39 -38 -20 -3 8 -8 9 -17 1 -9 -8 -11 -4 -7 15 2 15 0 25 -7 25 -6
0 -12 -12 -12 -27 -1 -18 -3 -22 -6 -10 -9 35 16 63 32 37z m138 -4 c12 1 17
-2 14 -11 -3 -7 0 -18 6 -24 8 -8 8 -11 -1 -11 -6 0 -16 8 -21 18 -10 16 -10
15 -11 -3 0 -17 -2 -17 -10 -5 -9 13 -10 13 -10 0 0 -12 -2 -13 -9 -1 -5 7
-14 10 -20 7 -7 -5 -11 1 -11 14 0 15 5 20 15 17 8 -4 17 -1 21 5 4 6 9 7 13
0 3 -5 14 -8 24 -6z m165 -14 c4 -25 -23 -41 -40 -24 -7 7 -6 17 2 32 14 26
34 22 38 -8z m294 13 c2 3 5 -8 5 -25 0 -16 -4 -30 -9 -30 -4 0 -8 12 -8 26 0
18 -5 25 -17 22 -23 -4 -29 -28 -7 -28 13 0 15 -3 7 -11 -15 -15 -33 -3 -33
21 0 23 30 42 46 29 6 -5 13 -7 16 -4z m107 -4 c18 -18 20 -18 24 -3 3 10 5 5
6 -10 1 -31 -16 -38 -26 -11 -6 15 -7 15 -14 -3 -7 -17 -8 -17 -8 4 -1 12 -6
22 -12 22 -5 0 -7 -4 -4 -10 3 -5 2 -10 -4 -10 -6 0 -8 -7 -5 -15 4 -8 1 -15
-5 -15 -12 0 -15 29 -5 54 8 22 30 20 53 -3z m81 10 c0 -6 -4 -13 -10 -16 -5
-3 -11 -16 -11 -28 -1 -17 -3 -15 -8 8 -4 17 -6 33 -4 38 6 10 33 9 33 -2z
m77 -4 c3 -4 2 -7 -4 -7 -6 0 -9 -8 -6 -19 5 -20 -13 -38 -25 -26 -4 4 -1 10
6 12 10 4 10 8 1 19 -17 20 -27 17 -25 -8 0 -11 -5 -23 -11 -25 -15 -6 -17 21
-3 47 10 18 51 22 67 7z m153 -10 c0 -7 -9 -18 -20 -25 -23 -14 -24 -13 -10
23 10 25 30 27 30 2z m85 -5 c-3 -8 0 -19 7 -24 10 -6 8 -8 -4 -8 -10 0 -18 6
-18 13 0 8 -3 7 -10 -3 -7 -12 -12 -12 -21 -3 -10 10 -16 10 -26 1 -12 -10
-12 -7 -2 15 15 33 29 35 29 5 1 -22 2 -21 16 5 15 28 40 28 29 -1z m184 11
c6 -10 11 -12 11 -5 0 6 4 12 10 12 6 0 5 -10 -2 -25 -6 -14 -15 -25 -20 -25
-4 0 -8 11 -8 25 0 28 -19 35 -21 8 -1 -10 -1 -21 0 -25 0 -5 -3 -8 -9 -8 -11
0 -13 20 -4 44 8 21 31 20 43 -1z m76 -5 c12 37 39 24 29 -14 -6 -21 -39 -30
-50 -13 -3 6 -12 5 -21 -3 -13 -10 -12 -6 2 22 l19 35 7 -25 7 -25 7 23z
m-1168 -25 c-3 -10 -5 -4 -5 12 0 17 2 24 5 18 2 -7 2 -21 0 -30z m20 0 c-3
-10 -5 -4 -5 12 0 17 2 24 5 18 2 -7 2 -21 0 -30z m34 6 c-5 -13 -10 -19 -10
-12 -1 15 10 45 15 40 3 -2 0 -15 -5 -28z m235 20 c4 -8 9 -7 15 2 6 10 9 6 9
-13 0 -31 -17 -38 -27 -11 -6 15 -7 15 -14 -3 -6 -16 -8 -15 -8 9 -1 27 12 36
25 16z m156 -14 c-2 -14 -6 -25 -8 -25 -2 0 -4 11 -4 25 0 14 4 25 9 25 4 0 6
-11 3 -25z m508 -1 c0 -23 -1 -24 -16 -10 -8 9 -12 20 -9 26 12 19 25 10 25
-16z m40 1 c0 -14 -4 -25 -9 -25 -4 0 -6 11 -3 25 2 14 6 25 8 25 2 0 4 -11 4
-25z m32 0 c-2 -14 -6 -25 -8 -25 -2 0 -4 11 -4 25 0 14 4 25 9 25 4 0 6 -11
3 -25z m2048 -165 c0 -5 -4 -10 -10 -10 -5 0 -10 5 -10 10 0 6 5 10 10 10 6 0
10 -4 10 -10z m1359 -331 c19 -7 31 -18 31 -29 0 -15 -8 -18 -52 -16 -41 1
-53 -3 -56 -15 -2 -12 10 -20 45 -28 26 -7 53 -17 60 -23 19 -15 16 -72 -4
-91 -42 -37 -158 -24 -158 18 0 15 5 19 20 16 99 -18 137 11 50 38 -65 21 -87
56 -61 95 28 43 69 54 125 35z m121 -74 c6 -91 12 -105 44 -105 37 0 46 19 46
101 0 69 2 78 20 84 11 3 24 3 30 0 13 -8 13 -146 0 -180 -22 -57 -130 -68
-170 -18 -16 21 -20 41 -20 108 0 85 4 98 30 93 11 -3 16 -22 20 -83z m230 73
c6 -7 25 -37 41 -67 l31 -53 37 63 c25 45 43 64 56 64 19 0 20 -8 23 -112 l3
-113 -26 0 c-24 0 -25 3 -25 58 l-1 57 -25 -42 c-15 -24 -34 -43 -43 -43 -10
0 -27 18 -40 40 -24 43 -33 50 -30 23 1 -10 1 -35 0 -55 -1 -34 -4 -38 -26
-38 l-25 0 0 108 c0 60 3 112 7 115 10 11 31 8 43 -5z m346 4 c15 -9 103 -205
97 -214 -9 -16 -42 -7 -57 14 -11 16 -27 22 -60 24 -38 2 -45 -1 -55 -22 -7
-16 -19 -24 -36 -24 -14 0 -25 4 -25 9 0 16 92 206 103 213 15 10 19 10 33 0z
m296 -24 c14 -22 9 -81 -9 -100 -11 -13 -30 -18 -64 -18 -45 0 -48 -1 -47 -27
0 -16 0 -34 -1 -40 -1 -15 -51 -18 -51 -3 -1 6 -1 46 -1 90 0 44 0 89 1 99 0
17 8 20 53 23 60 3 107 -6 119 -24z m193 16 c36 -17 56 -54 58 -107 2 -74 -72
-129 -144 -108 -53 16 -79 53 -79 111 0 95 79 145 165 104z m224 5 c20 -7 31
-18 31 -30 0 -17 -5 -19 -55 -13 -51 6 -55 5 -55 -14 0 -15 9 -22 33 -27 64
-14 87 -32 87 -70 0 -58 -66 -84 -153 -62 -22 6 -28 13 -25 30 2 16 9 21 23
18 56 -9 90 -6 93 11 2 13 -6 19 -35 24 -60 10 -83 29 -83 68 0 61 63 91 139
65z m-459 -414 c0 -13 -40 -15 -300 -15 -260 0 -300 2 -300 15 0 13 40 15 300
15 260 0 300 -2 300 -15z"/>
<path d="M2337 4531 c-3 -14 -1 -18 9 -14 8 3 12 9 9 13 -3 5 3 11 12 13 14 4
14 5 -3 6 -14 1 -24 -6 -27 -18z"/>
<path d="M2357 4503 c-10 -9 -8 -33 2 -33 5 0 11 9 14 20 5 20 -3 26 -16 13z"/>
<path d="M2380 4460 c0 -5 4 -10 9 -10 6 0 13 5 16 10 3 6 -1 10 -9 10 -9 0
-16 -4 -16 -10z"/>
<path d="M4713 4623 c-7 -2 -13 -18 -13 -34 0 -27 2 -29 41 -29 40 0 41 1 34
27 -9 38 -29 50 -62 36z"/>
<path d="M4730 4493 c0 -22 2 -25 10 -13 13 20 13 40 0 40 -5 0 -10 -12 -10
-27z"/>
<path d="M4210 4533 l0 -73 55 0 c49 0 55 2 55 20 0 17 -3 19 -18 11 -12 -6
-30 -7 -48 -1 l-29 8 28 1 c15 1 27 6 27 11 0 6 -12 11 -27 11 -22 2 -19 3 12
9 l40 7 -40 3 -40 3 45 6 c39 5 45 9 48 32 3 24 1 25 -53 25 l-55 0 0 -73z"/>
<path d="M540 4400 c0 -11 4 -20 9 -20 11 0 22 26 14 34 -12 12 -23 5 -23 -14z"/>
<path d="M914 4406 c-8 -22 3 -33 18 -18 9 9 9 15 0 24 -9 9 -13 7 -18 -6z"/>
<path d="M1280 4409 c0 -5 5 -7 10 -4 6 3 10 8 10 11 0 2 -4 4 -10 4 -5 0 -10
-5 -10 -11z"/>
<path d="M1397 4399 c-3 -13 -1 -19 6 -16 15 5 22 37 9 37 -5 0 -12 -9 -15
-21z"/>
<path d="M1463 4405 c-3 -9 -3 -18 0 -21 9 -9 27 6 27 22 0 19 -19 18 -27 -1z"/>
<path d="M244 4206 c-8 -22 3 -33 18 -18 9 9 9 15 0 24 -9 9 -13 7 -18 -6z"/>
<path d="M447 4200 c-3 -13 0 -20 9 -20 8 0 14 9 14 20 0 11 -4 20 -9 20 -5 0
-11 -9 -14 -20z"/>
<path d="M830 4200 c0 -13 5 -20 13 -17 6 2 12 10 12 17 0 7 -6 15 -12 18 -8
2 -13 -5 -13 -18z"/>
<path d="M1287 4203 c-4 -3 -7 -11 -7 -17 0 -6 5 -5 12 2 6 6 9 14 7 17 -3 3
-9 2 -12 -2z"/>
<path d="M1471 4194 c0 -11 3 -14 6 -6 3 7 2 16 -1 19 -3 4 -6 -2 -5 -13z"/>
<path d="M1640 4195 c0 -8 2 -15 4 -15 2 0 6 7 10 15 3 8 1 15 -4 15 -6 0 -10
-7 -10 -15z"/>
<path d="M1840 4188 c0 -4 12 -8 26 -8 14 0 23 4 19 9 -6 11 -45 10 -45 -1z"/>
<path d="M265 4070 c-3 -6 1 -7 9 -4 18 7 21 14 7 14 -6 0 -13 -4 -16 -10z"/>
<path d="M2885 4047 c-4 -10 -5 -21 -1 -24 10 -10 18 4 13 24 -4 17 -4 17 -12
0z"/>
<path d="M2800 3875 c0 -8 7 -15 15 -15 8 0 15 7 15 15 0 8 -7 15 -15 15 -8 0
-15 -7 -15 -15z"/>
<path d="M2990 3745 c0 -8 5 -15 10 -15 6 0 10 7 10 15 0 8 -4 15 -10 15 -5 0
-10 -7 -10 -15z"/>
<path d="M3127 3750 c-4 -15 0 -20 15 -20 18 0 19 2 7 18 -7 9 -14 18 -15 20
-1 1 -4 -6 -7 -18z"/>
<path d="M3252 3750 c0 -14 2 -19 5 -12 2 6 2 18 0 25 -3 6 -5 1 -5 -13z"/>
<path d="M3335 3757 c-4 -10 -5 -21 -1 -24 10 -10 18 4 13 24 -4 17 -4 17 -12
0z"/>
<path d="M4416 3535 c-3 -8 -1 -15 4 -15 6 0 10 7 10 15 0 8 -2 15 -4 15 -2 0
-6 -7 -10 -15z"/>
<path d="M2570 3210 c0 -5 5 -10 11 -10 5 0 7 5 4 10 -3 6 -8 10 -11 10 -2 0
-4 -4 -4 -10z"/>
<path d="M2777 3206 c-6 -15 1 -26 15 -26 4 0 8 9 8 20 0 23 -15 27 -23 6z"/>
<path d="M3811 3064 c0 -11 3 -14 6 -6 3 7 2 16 -1 19 -3 4 -6 -2 -5 -13z"/>
<path d="M2592 2645 c-7 -14 -12 -27 -12 -28 0 -1 11 -2 25 -2 21 0 25 5 25
28 0 34 -23 36 -38 2z"/>
<path d="M2646 2648 c-9 -37 -8 -40 22 -36 21 2 27 8 27 28 0 35 -40 41 -49 8z
m39 -8 c0 -7 -6 -15 -12 -17 -8 -3 -13 4 -13 17 0 13 5 20 13 18 6 -3 12 -11
12 -18z"/>
<path d="M2718 2664 c-5 -4 -8 -19 -8 -33 1 -23 2 -24 11 -8 11 19 9 53 -3 41z"/>
<path d="M2747 2663 c-4 -3 -7 -17 -7 -30 0 -18 5 -23 23 -22 16 1 18 2 5 6
-25 6 -22 32 5 43 21 8 21 9 1 9 -11 1 -24 -2 -27 -6z"/>
<path d="M2797 2657 c-11 -29 -9 -53 4 -40 6 6 9 21 7 34 -3 21 -4 22 -11 6z"/>
<path d="M2824 2655 c-9 -23 3 -45 25 -45 20 0 37 32 26 50 -9 15 -45 12 -51
-5z m36 -15 c0 -11 -7 -20 -15 -20 -15 0 -21 21 -8 33 12 13 23 7 23 -13z"/>
<path d="M2890 2656 c0 -8 -3 -21 -6 -30 -3 -9 -1 -16 5 -16 6 0 11 8 11 18 1
15 2 15 15 -2 17 -23 20 -21 29 19 6 27 5 28 -8 12 -12 -15 -14 -16 -20 -2 -7
19 -26 20 -26 1z"/>
<path d="M2966 2642 l-14 -28 51 -2 c33 -1 47 1 38 7 -8 5 -11 16 -6 30 4 12
2 21 -4 21 -6 0 -11 -11 -11 -25 0 -14 -4 -25 -10 -25 -5 0 -10 11 -10 25 0
33 -16 32 -34 -3z m24 -2 c0 -5 -5 -10 -11 -10 -5 0 -7 5 -4 10 3 6 8 10 11
10 2 0 4 -4 4 -10z"/>
<path d="M3066 2654 c-11 -28 -6 -44 12 -44 13 0 14 2 3 9 -11 7 -10 11 5 20
14 8 15 11 4 11 -13 0 -13 1 0 10 13 8 13 10 -1 10 -9 0 -20 -7 -23 -16z"/>
<path d="M3110 2656 c0 -8 5 -18 12 -22 8 -5 6 -10 -8 -15 -17 -7 -17 -8 4 -8
23 -1 31 23 10 35 -8 5 -6 10 8 15 17 7 17 8 -3 8 -14 1 -23 -5 -23 -13z"/>
<path d="M3260 2863 l0 -87 33 31 c55 52 132 84 221 93 45 4 83 6 85 4 9 -8
-13 -23 -44 -28 -19 -4 -35 -12 -35 -18 0 -5 7 -7 16 -4 39 15 64 18 64 7 0
-6 -9 -11 -19 -11 -11 0 -23 -4 -26 -10 -8 -13 7 -13 55 2 44 14 51 27 20 35
-31 8 -13 23 28 23 48 0 130 -25 164 -50 15 -11 30 -20 33 -20 3 0 5 27 5 60
l0 60 -300 0 -300 0 0 -87z"/>
<path d="M3466 2867 c-25 -18 -36 -77 -19 -103 12 -19 11 -23 -9 -38 -13 -9
-32 -23 -43 -31 -27 -19 1 -20 35 0 33 19 50 19 50 -1 0 -8 5 -12 10 -9 13 8
13 -7 -2 -42 -15 -37 -19 -73 -8 -73 20 0 80 34 80 45 0 19 -32 79 -49 91 -12
10 -11 13 8 23 18 10 26 9 50 -12 16 -13 42 -29 58 -36 28 -11 30 -15 23 -51
-7 -38 3 -49 23 -25 5 6 6 0 2 -11 -4 -17 0 -23 17 -28 41 -11 86 -6 102 10
26 26 18 34 -16 16 -43 -21 -70 -26 -45 -8 18 14 25 42 7 31 -5 -3 -10 -2 -10
3 0 6 7 12 15 16 8 3 15 12 15 20 0 13 28 36 44 36 3 0 12 -12 20 -27 18 -33
21 -16 4 24 -6 15 -11 31 -10 36 1 4 -7 7 -18 7 -11 0 -20 -4 -20 -8 0 -4 -9
-8 -20 -9 -11 -1 -20 2 -20 6 0 14 24 31 45 32 16 0 13 4 -12 16 -27 14 -33
22 -33 50 0 24 -5 33 -16 33 -14 0 -14 -3 -3 -16 10 -13 10 -17 -2 -24 -8 -5
-14 -13 -14 -17 -1 -14 -25 -53 -33 -53 -4 0 -12 10 -17 22 -12 25 -41 45 -51
35 -4 -3 -2 -13 5 -20 9 -12 7 -13 -14 -9 -14 2 -28 8 -30 13 -3 4 -11 6 -18
3 -7 -2 -20 8 -29 23 -12 20 -18 23 -18 11 0 -9 -5 -20 -12 -24 -7 -4 -8 -3
-4 4 4 6 2 21 -4 32 -9 16 -8 25 1 36 14 17 8 18 -15 1z m249 -207 c3 -5 1
-10 -4 -10 -6 0 -11 5 -11 10 0 6 2 10 4 10 3 0 8 -4 11 -10z m-31 -15 c3 -8
1 -15 -4 -15 -6 0 -10 7 -10 15 0 8 2 15 4 15 2 0 6 -7 10 -15z m36 -35 c0 -5
-4 -10 -10 -10 -5 0 -10 5 -10 10 0 6 5 10 10 10 6 0 10 -4 10 -10z"/>
<path d="M3690 2820 c0 -5 5 -10 10 -10 6 0 10 5 10 10 0 6 -4 10 -10 10 -5 0
-10 -4 -10 -10z"/>
<path d="M3270 2721 c0 -15 71 -24 84 -10 8 9 6 10 -13 6 -13 -3 -34 -2 -47 3
-13 5 -24 6 -24 1z"/>
<path d="M3446 2681 c-3 -5 1 -14 8 -20 16 -13 32 2 21 19 -8 12 -22 13 -29 1z"/>
<path d="M3354 2636 c-4 -10 1 -25 11 -36 13 -14 14 -20 5 -20 -31 0 3 -13 42
-16 37 -3 44 0 44 16 0 10 -4 17 -7 14 -4 -2 -10 0 -14 6 -3 5 0 10 7 10 10 0
10 2 -1 9 -7 5 -22 6 -34 3 -12 -3 -25 2 -33 13 -12 17 -14 17 -20 1z"/>
<path d="M3275 2630 c-3 -5 -1 -18 4 -27 9 -15 10 -14 9 10 -3 30 -4 32 -13
17z"/>
<path d="M3260 2537 l0 -57 55 0 c30 0 55 3 54 8 -1 4 -25 29 -55 56 l-54 49
0 -56z"/>
<path d="M3561 2587 c-1 -5 11 -28 25 -53 17 -28 33 -44 46 -44 10 0 16 5 13
10 -3 6 -12 10 -20 10 -8 0 -17 5 -21 12 -4 7 -3 8 4 4 7 -4 12 -2 12 4 0 7 7
10 15 6 8 -3 15 -2 15 3 0 15 -13 21 -26 10 -10 -9 -15 -7 -20 5 -3 9 -12 16
-19 16 -7 0 -16 6 -18 13 -3 6 -6 8 -6 4z"/>
<path d="M3575 2375 c-3 -8 -7 -22 -10 -31 -3 -8 -1 -13 4 -10 5 3 11 17 13
31 6 27 0 34 -7 10z"/>
<path d="M3651 2381 c-12 -8 -12 -12 -2 -25 11 -13 11 -16 -3 -16 -9 0 -16 8
-16 20 0 22 -16 27 -22 8 -6 -18 19 -40 40 -36 11 2 17 13 17 31 1 15 1 27 0
27 0 0 -6 -4 -14 -9z"/>
<path d="M3462 2355 c-7 -15 -8 -25 -2 -25 6 0 10 5 10 12 0 9 3 9 12 0 7 -7
25 -12 40 -12 24 0 28 4 27 28 -2 23 -2 24 -6 5 -5 -28 -29 -30 -45 -3 -17 26
-22 25 -36 -5z"/>
<path d="M3511 2364 c0 -11 3 -14 6 -6 3 7 2 16 -1 19 -3 4 -6 -2 -5 -13z"/>
<path d="M5302 2298 c2 -13 8 -23 13 -23 6 0 11 10 13 23 2 15 -2 22 -13 22
-11 0 -15 -7 -13 -22z"/>
<path d="M5420 2275 c0 -33 4 -45 15 -45 11 0 15 12 15 45 0 33 -4 45 -15 45
-11 0 -15 -12 -15 -45z"/>
<path d="M2730 2177 c0 -16 6 -23 20 -24 15 -1 20 4 20 23 0 17 -5 24 -20 24
-14 0 -20 -7 -20 -23z"/>
<path d="M2820 2190 c0 -5 7 -10 16 -10 8 0 12 5 9 10 -3 6 -10 10 -16 10 -5
0 -9 -4 -9 -10z"/>
<path d="M2899 2200 c0 -3 -2 -25 -5 -50 -3 -25 -7 -81 -9 -125 -5 -103 -5
-101 -29 -101 -16 1 -20 -4 -19 -21 2 -15 -3 -23 -12 -23 -8 0 -15 7 -15 15 0
8 -4 15 -10 15 -6 0 -10 27 -9 63 1 34 3 54 6 45 5 -19 33 -25 33 -8 0 6 -5
10 -11 10 -14 0 -7 52 9 58 7 2 15 -9 18 -28 4 -20 10 -28 16 -22 13 13 -12
82 -29 82 -8 0 -20 -15 -28 -32 l-13 -33 -11 28 c-6 16 -11 34 -11 42 0 8 -4
16 -9 20 -13 8 -41 -23 -41 -45 0 -10 -7 -26 -16 -35 -11 -10 -14 -24 -9 -42
3 -14 3 -50 -1 -80 -6 -51 -8 -54 -33 -51 l-26 3 1 105 c0 58 -3 94 -7 80 -4
-14 -7 -65 -8 -113 l-1 -89 43 3 c23 1 50 -2 60 -6 9 -4 29 -4 45 0 15 4 59 8
97 9 l70 1 -3 35 c-4 38 -6 113 -4 145 3 38 -10 130 -19 140 -5 5 -9 7 -10 5z
m-138 -147 c11 -13 11 -17 2 -20 -18 -6 -16 -23 2 -23 8 0 15 -4 15 -9 0 -5
-7 -14 -15 -21 -8 -7 -15 -19 -15 -26 0 -19 -16 -18 -24 2 -3 8 -2 12 4 9 13
-8 13 5 0 25 -6 9 -5 17 3 22 9 6 9 10 -1 16 -13 9 -7 42 8 42 4 0 14 -7 21
-17z m19 -93 c0 -5 -5 -10 -11 -10 -5 0 -7 5 -4 10 3 6 8 10 11 10 2 0 4 -4 4
-10z m-15 -70 c3 -5 -3 -10 -14 -10 -12 0 -21 5 -21 10 0 6 6 10 14 10 8 0 18
-4 21 -10z"/>
<path d="M2966 2133 c-3 -32 -9 -89 -12 -126 l-7 -68 34 3 c32 3 34 6 37 43 2
22 -1 57 -8 77 -6 21 -11 58 -12 83 -1 67 -24 58 -32 -12z m39 -113 c3 -5 1
-10 -4 -10 -6 0 -11 5 -11 10 0 6 2 10 4 10 3 0 8 -4 11 -10z"/>
<path d="M3050 2180 c0 -5 7 -10 15 -10 8 0 15 5 15 10 0 6 -7 10 -15 10 -8 0
-15 -4 -15 -10z"/>
<path d="M2640 2122 c0 -4 9 -8 20 -8 11 0 20 4 20 8 0 4 -9 8 -20 8 -11 0
-20 -4 -20 -8z"/>
<path d="M3034 2063 c-3 -18 -4 -38 -1 -45 3 -7 6 -1 6 14 2 46 31 45 50 -2
l10 -25 0 25 c1 48 -9 68 -35 66 -19 -1 -25 -8 -30 -33z"/>
<path d="M2681 2074 c0 -11 3 -14 6 -6 3 7 2 16 -1 19 -3 4 -6 -2 -5 -13z"/>
<path d="M2830 1971 c-8 -6 -17 -8 -20 -6 -4 2 -7 -2 -7 -10 0 -14 9 -11 47
15 19 12 0 13 -20 1z"/>
<path d="M3031 1917 c0 -10 -5 -16 -10 -12 -5 3 -12 1 -15 -4 -7 -10 -25 -9
-43 2 -9 6 -13 2 -13 -11 0 -33 52 -38 72 -8 5 7 8 7 8 -1 0 -8 14 -13 35 -13
33 0 35 2 35 32 l0 33 -27 -30 -28 -29 -6 29 c-4 17 -7 22 -8 12z"/>
<path d="M2722 1768 c-15 -15 -15 -35 0 -44 8 -5 9 -2 5 9 -3 9 1 23 9 32 9 8
12 15 7 15 -5 0 -14 -5 -21 -12z"/>
<path d="M2764 1765 c-3 -8 -4 -22 -1 -32 3 -12 5 -8 6 10 0 15 6 27 11 27 6
0 10 -12 10 -27 0 -20 3 -24 9 -14 7 11 9 11 14 0 4 -10 6 -9 6 4 1 9 -3 17
-9 17 -5 0 -7 6 -4 13 3 8 -4 13 -16 14 -12 1 -23 -4 -26 -12z"/>
<path d="M2878 1773 c-10 -2 -18 -10 -18 -16 0 -7 -4 -6 -10 3 -8 12 -10 9
-10 -12 0 -34 13 -36 28 -5 l11 22 0 -24 c1 -31 12 -21 15 13 2 14 3 25 2 25
0 -1 -9 -3 -18 -6z"/>
<path d="M2925 1769 c4 -5 -1 -19 -11 -30 -15 -16 -15 -19 -2 -19 9 0 18 8 22
18 3 9 9 23 12 30 3 7 -1 12 -11 12 -9 0 -13 -5 -10 -11z"/>
<path d="M3004 1765 c-3 -8 -3 -19 1 -25 3 -5 1 -10 -5 -10 -7 0 -14 9 -17 20
-7 27 -17 25 -32 -7 -10 -23 -10 -25 3 -14 10 8 16 9 21 1 3 -5 15 -10 25 -10
15 0 19 6 17 30 -2 33 -5 37 -13 15z"/>
<path d="M2887 1683 c-4 -3 -7 -18 -6 -32 1 -26 1 -25 10 3 9 31 7 41 -4 29z"/>
<path d="M2662 1655 c0 -16 2 -22 5 -12 2 9 2 23 0 30 -3 6 -5 -1 -5 -18z"/>
<path d="M2685 1672 c-3 -3 -5 -14 -5 -24 0 -19 1 -19 18 -2 16 16 17 16 20 1
5 -24 23 -21 29 4 4 16 8 17 14 7 7 -10 9 -9 9 5 0 9 -7 17 -15 17 -8 0 -15
-8 -16 -17 0 -15 -2 -15 -7 -3 -7 15 -36 23 -47 12z"/>
<path d="M2784 1665 c-3 -8 -4 -20 -2 -27 3 -7 7 -1 10 15 6 29 1 36 -8 12z"/>
<path d="M2808 1657 c-4 -22 -3 -25 8 -16 11 9 14 8 14 -2 0 -12 2 -12 9 0 7
11 9 11 13 0 3 -8 7 -4 10 9 7 26 -19 44 -32 22 -6 -10 -9 -9 -12 1 -3 8 -7 2
-10 -14z"/>
<path d="M2921 1662 c-7 -13 -10 -26 -7 -30 3 -3 6 1 6 8 0 11 3 11 12 2 21
-21 38 -14 37 16 -1 16 -3 20 -6 10 -2 -10 -8 -18 -13 -18 -5 0 -10 8 -12 18
-3 14 -6 14 -17 -6z"/>
<path d="M2984 1656 c-2 -24 9 -28 34 -13 7 5 12 4 12 -2 0 -6 4 -11 9 -11 4
0 6 11 3 25 -5 28 -20 33 -28 10 -6 -14 -8 -14 -18 0 -9 13 -11 12 -12 -9z"/>
<path d="M3054 1664 c3 -9 6 -20 6 -25 0 -6 5 -7 10 -4 8 5 8 11 0 20 -8 10
-7 14 2 18 8 3 6 6 -6 6 -13 1 -16 -4 -12 -15z"/>
<path d="M3605 2210 c3 -5 8 -10 11 -10 2 0 4 5 4 10 0 6 -5 10 -11 10 -5 0
-7 -4 -4 -10z"/>
<path d="M3476 2175 c4 -8 8 -15 10 -15 2 0 4 7 4 15 0 8 -4 15 -10 15 -5 0
-7 -7 -4 -15z"/>
<path d="M3670 2171 c0 -25 6 -27 13 -6 4 8 2 17 -3 20 -6 4 -10 -3 -10 -14z"/>
<path d="M3438 2124 c-1 -31 0 -58 5 -61 4 -2 7 23 7 56 0 76 -7 79 -12 5z"/>
<path d="M3700 2150 c0 -11 5 -20 10 -20 6 0 10 9 10 20 0 11 -4 20 -10 20 -5
0 -10 -9 -10 -20z"/>
<path d="M3400 2149 c0 -5 5 -7 10 -4 6 3 10 8 10 11 0 2 -4 4 -10 4 -5 0 -10
-5 -10 -11z"/>
<path d="M3370 2140 c0 -5 5 -10 11 -10 5 0 7 5 4 10 -3 6 -8 10 -11 10 -2 0
-4 -4 -4 -10z"/>
<path d="M3470 2076 c-10 -58 -17 -76 -34 -86 -12 -6 -23 -21 -23 -33 -2 -17
0 -19 7 -7 9 13 11 13 20 0 8 -13 11 -12 25 5 16 20 16 20 10 -2 -4 -16 -2
-23 7 -23 10 0 13 24 12 105 0 57 -3 107 -6 110 -3 3 -11 -28 -18 -69z"/>
<path d="M3275 2120 c-3 -5 -1 -10 4 -10 6 0 11 5 11 10 0 6 -2 10 -4 10 -3 0
-8 -4 -11 -10z"/>
<path d="M3321 2114 c0 -11 3 -14 6 -6 3 7 2 16 -1 19 -3 4 -6 -2 -5 -13z"/>
<path d="M3786 2115 c4 -8 8 -15 10 -15 2 0 4 7 4 15 0 8 -4 15 -10 15 -5 0
-7 -7 -4 -15z"/>
<path d="M3370 2110 c0 -8 6 -32 14 -54 11 -33 14 -35 19 -16 3 13 -2 35 -14
53 -10 18 -19 25 -19 17z"/>
<path d="M3659 2094 c0 -5 -2 -18 -4 -29 -2 -11 1 -22 7 -26 16 -10 0 -29 -26
-29 -19 0 -22 -6 -23 -37 -1 -34 0 -35 5 -9 5 20 14 30 30 32 25 4 30 -13 7
-22 -13 -5 -14 -18 -9 -71 5 -50 4 -67 -7 -74 -23 -15 -37 -10 -42 14 -4 19
-4 18 -6 -5 0 -16 -6 -28 -12 -28 -5 0 -8 4 -5 9 3 5 0 11 -8 14 -8 3 -17 16
-19 29 -3 13 -4 1 -3 -27 1 -49 2 -50 31 -48 17 1 39 7 50 12 11 5 44 17 74
26 38 12 49 20 40 26 -12 8 -12 11 1 19 10 6 11 10 3 10 -9 0 -13 19 -13 61 0
37 4 58 10 54 6 -3 10 -1 10 4 0 6 -5 11 -11 11 -7 0 -10 13 -7 34 2 19 1 33
-3 30 -4 -2 -9 0 -11 5 -4 13 -58 26 -59 15z"/>
<path d="M3761 2084 c0 -11 3 -14 6 -6 3 7 2 16 -1 19 -3 4 -6 -2 -5 -13z"/>
<path d="M3548 2059 c-3 -15 -2 -28 1 -27 26 2 40 -5 44 -24 3 -14 5 -9 6 15
0 20 -3 37 -9 37 -5 0 -10 6 -10 13 0 26 -28 13 -32 -14z"/>
<path d="M3620 2060 c0 -11 5 -20 10 -20 6 0 10 9 10 20 0 11 -4 20 -10 20 -5
0 -10 -9 -10 -20z"/>
<path d="M3278 2050 c-7 -24 -3 -38 8 -28 3 4 4 17 2 30 l-3 23 -7 -25z"/>
<path d="M3814 2035 c4 -35 16 -44 16 -12 0 14 -4 28 -9 32 -5 3 -8 -6 -7 -20z"/>
<path d="M3541 1994 c0 -11 3 -14 6 -6 3 7 2 16 -1 19 -3 4 -6 -2 -5 -13z"/>
<path d="M3760 1995 c0 -12 59 -34 65 -25 3 6 5 10 3 10 -2 0 -18 4 -36 9 -17
5 -32 8 -32 6z"/>
<path d="M3351 1973 c-11 -12 -11 -17 -1 -23 7 -4 9 -16 5 -29 -4 -13 -2 -21
5 -21 6 0 8 5 4 12 -5 7 0 9 14 6 18 -5 20 -3 12 12 -6 10 -7 25 -4 33 7 20
-18 28 -35 10z"/>
<path d="M3515 1960 c3 -5 8 -10 11 -10 2 0 4 5 4 10 0 6 -5 10 -11 10 -5 0
-7 -4 -4 -10z"/>
<path d="M3537 1948 c-2 -7 -1 -22 4 -33 7 -19 8 -19 8 3 1 13 5 20 11 17 6
-3 10 1 10 9 0 19 -26 21 -33 4z"/>
<path d="M3437 1923 c-4 -3 -5 -25 -2 -47 2 -23 2 -32 -1 -21 -8 29 -24 43
-19 17 2 -15 -1 -22 -11 -22 -8 0 -12 5 -9 10 3 6 0 10 -9 10 -8 0 -17 6 -19
13 -3 7 -6 5 -6 -5 -1 -10 -5 -18 -11 -18 -5 0 -10 8 -11 18 0 10 -3 12 -6 4
-2 -6 -9 -10 -14 -6 -5 3 -9 1 -9 -5 0 -5 30 -19 68 -31 37 -11 75 -25 85 -31
25 -14 34 -5 29 30 -3 19 -9 28 -17 24 -10 -3 -13 5 -10 31 3 34 -10 48 -28
29z"/>
<path d="M3821 1923 c0 -6 -11 -13 -23 -15 -12 -2 -23 -9 -26 -16 -2 -7 2 -11
10 -10 7 2 12 -3 11 -9 -3 -15 6 -16 25 -4 8 5 12 20 9 37 -2 16 -5 24 -6 17z"/>
<path d="M3283 1913 c4 -3 1 -13 -6 -21 -10 -13 -9 -15 6 -9 10 4 23 7 28 7 4
0 6 7 3 15 -4 8 -13 15 -22 15 -8 0 -12 -3 -9 -7z"/>
<path d="M3615 1860 c3 -5 8 -10 11 -10 2 0 4 5 4 10 0 6 -5 10 -11 10 -5 0
-7 -4 -4 -10z"/>
<path d="M3420 1765 c-14 -17 -7 -45 12 -45 9 0 8 3 -2 10 -12 8 -13 13 -2 30
14 23 10 27 -8 5z"/>
<path d="M3460 1754 c-12 -31 -12 -34 -1 -34 5 0 11 14 13 30 6 37 1 38 -12 4z"/>
<path d="M3497 1773 c-4 -3 -7 -18 -6 -32 0 -14 3 -20 6 -12 5 11 7 11 14 0 6
-10 9 -4 9 19 0 30 -9 40 -23 25z"/>
<path d="M3578 1755 c-6 -30 -3 -43 8 -33 3 4 4 19 2 35 l-3 28 -7 -30z"/>
<path d="M3623 1773 c4 -3 0 -17 -8 -30 -14 -21 -14 -23 0 -23 9 0 14 4 10 9
-3 5 -1 12 5 16 14 9 13 35 -2 35 -6 0 -8 -3 -5 -7z"/>
<path d="M3695 1770 c-4 -6 -1 -17 5 -25 10 -12 9 -15 -4 -15 -9 0 -16 8 -16
20 0 28 -15 25 -29 -7 -11 -23 -10 -25 3 -13 11 8 16 9 16 1 0 -6 11 -11 25
-11 21 0 24 4 22 30 -2 31 -11 38 -22 20z"/>
<path d="M3538 1743 c5 -25 6 -25 18 -8 8 10 14 24 13 29 0 6 -3 5 -6 -2 -3
-9 -9 -10 -18 -2 -9 8 -11 4 -7 -17z"/>
<path d="M3367 1673 c-4 -3 -7 -16 -6 -27 0 -20 1 -20 8 -2 7 19 8 19 15 1 6
-16 9 -17 16 -5 6 8 9 22 9 30 0 11 -2 11 -6 2 -3 -9 -9 -10 -17 -3 -7 6 -16
8 -19 4z"/>
<path d="M3421 1653 c-10 -23 -10 -25 2 -14 12 9 16 9 20 -1 3 -7 6 -1 6 15 1
34 -12 35 -28 0z"/>
<path d="M3467 1673 c-9 -9 -9 -43 1 -43 4 0 7 11 7 25 0 14 0 25 -1 25 0 0
-4 -3 -7 -7z"/>
<path d="M3511 1673 c-1 -6 -4 -20 -7 -30 -5 -17 -5 -17 6 0 6 10 9 23 6 30
-3 9 -5 9 -5 0z"/>
<path d="M3531 1653 c2 -24 2 -25 6 -5 2 12 9 22 15 22 6 0 8 -9 5 -19 -5 -19
7 -22 31 -8 7 5 12 4 12 -2 0 -6 5 -11 10 -11 6 0 10 12 10 28 0 21 -2 24 -10
12 -6 -10 -10 -11 -10 -2 0 18 -18 15 -23 -5 -4 -17 -5 -17 -6 0 -1 10 -9 17
-21 17 -15 0 -20 -6 -19 -27z"/>
<path d="M3643 1669 c-7 -7 -13 -20 -13 -28 0 -13 2 -13 9 -2 6 9 11 10 15 2
14 -22 36 -12 35 17 -1 16 -3 20 -6 10 -6 -22 -20 -23 -25 -2 -2 12 -5 13 -15
3z"/>
<path d="M3710 1653 c0 -30 9 -27 15 6 2 11 0 21 -6 21 -5 0 -9 -12 -9 -27z"/>
<path d="M3740 1671 c0 -6 5 -13 10 -16 6 -4 8 -11 5 -16 -4 -5 -1 -9 4 -9 6
0 11 7 11 15 0 8 -5 15 -11 15 -5 0 -7 5 -4 10 3 6 1 10 -4 10 -6 0 -11 -4
-11 -9z"/>
<path d="M4690 1934 c0 -8 5 -12 10 -9 6 3 10 10 10 16 0 5 -4 9 -10 9 -5 0
-10 -7 -10 -16z"/>
<path d="M4968 1773 c7 -3 16 -2 19 1 4 3 -2 6 -13 5 -11 0 -14 -3 -6 -6z"/>
<path d="M2560 1310 l0 -230 299 0 299 0 1 230 2 230 -301 0 -300 0 0 -230z
m289 116 c6 -4 11 -2 11 4 0 7 6 10 13 7 6 -2 12 -12 12 -23 0 -23 28 -30 47
-11 20 20 74 13 128 -16 29 -16 44 -30 42 -41 -3 -19 14 -22 21 -3 2 6 9 -5
16 -26 16 -47 7 -59 -46 -64 -21 -2 -40 -8 -43 -13 -4 -6 -31 -17 -61 -26 -65
-20 -211 -14 -238 9 -9 8 -31 18 -49 22 -18 4 -30 10 -27 15 3 5 -1 11 -7 13
-7 3 -4 6 7 7 18 1 17 2 -5 14 -14 8 -28 12 -31 10 -4 -2 -9 7 -11 21 -5 25 5
34 17 15 3 -5 12 -6 21 -3 13 5 12 9 -6 28 l-21 23 43 24 c33 19 56 24 99 23
31 -1 61 -5 68 -9z m-229 -107 c0 -5 -4 -9 -10 -9 -5 0 -10 7 -10 16 0 8 5 12
10 9 6 -3 10 -10 10 -16z"/>
<path d="M2802 1403 c2 -11 14 -19 30 -21 22 -3 26 0 21 17 -7 27 -56 30 -51
4z"/>
<path d="M2718 1393 c-21 -5 -23 -19 -5 -29 6 -4 9 -4 5 1 -4 4 0 14 10 21 18
14 17 14 -10 7z"/>
<path d="M2743 1374 c-18 -19 -5 -44 23 -44 13 0 24 -4 24 -10 0 -5 -6 -10
-14 -10 -7 0 -26 -10 -41 -22 -26 -20 -27 -22 -9 -35 25 -18 42 -16 49 7 5 15
12 19 31 14 13 -3 31 -3 41 0 14 6 14 8 -3 21 -19 14 -19 14 1 15 20 1 20 1 1
15 -23 17 -40 20 -31 5 3 -5 3 -10 0 -10 -3 0 -11 13 -16 30 -6 16 -16 27 -21
24 -6 -4 -13 -2 -17 4 -4 6 -10 5 -18 -4z"/>
<path d="M2990 1370 c13 -8 12 -10 -3 -10 -10 0 -17 -5 -15 -12 7 -20 23 -19
46 1 l22 19 -22 6 c-34 9 -45 7 -28 -4z"/>
<path d="M2862 1345 c-1 -17 3 -25 14 -25 11 0 14 5 9 18 -5 14 -4 15 7 4 11
-11 10 -16 -6 -27 -23 -18 -11 -38 20 -32 16 3 25 -1 29 -12 6 -21 45 -45 56
-34 12 12 -12 85 -25 79 -6 -2 -20 -7 -31 -11 -19 -6 -19 -6 -2 8 22 18 22 27
-2 27 -10 0 -21 7 -25 15 -9 25 -41 18 -44 -10z"/>
<path d="M2700 1340 c0 -5 7 -10 16 -10 8 0 12 5 9 10 -3 6 -10 10 -16 10 -5
0 -9 -4 -9 -10z"/>
<path d="M3072 1318 c-7 -7 -17 -13 -22 -13 -13 0 -14 -19 -3 -22 10 -4 53 30
53 41 0 10 -15 7 -28 -6z"/>
<path d="M2670 1306 c7 -7 14 -6 21 1 9 9 7 12 -9 10 -14 -1 -18 -5 -12 -11z"/>
<path d="M3116 1305 c4 -8 8 -15 10 -15 2 0 4 7 4 15 0 8 -4 15 -10 15 -5 0
-7 -7 -4 -15z"/>
<path d="M2848 1253 c6 -2 18 -2 25 0 6 3 1 5 -13 5 -14 0 -19 -2 -12 -5z"/>
<path d="M2878 1223 c6 -2 18 -2 25 0 6 3 1 5 -13 5 -14 0 -19 -2 -12 -5z"/>
<path d="M2637 973 c-13 -12 -7 -41 9 -47 15 -6 15 -4 3 10 -11 14 -11 18 6
30 15 11 15 14 4 14 -9 0 -19 -3 -22 -7z"/>
<path d="M2680 965 c-16 -20 5 -51 25 -35 6 5 15 7 19 3 4 -4 3 4 -2 17 -11
30 -25 35 -42 15z m30 -9 c0 -8 -4 -18 -10 -21 -5 -3 -10 3 -10 14 0 12 5 21
10 21 6 0 10 -6 10 -14z"/>
<path d="M2730 963 c0 -7 7 -13 15 -13 8 0 15 -6 16 -12 1 -7 5 -2 9 12 l8 25
1 -27 c1 -31 20 -38 27 -10 9 32 4 37 -36 37 -26 0 -40 -4 -40 -12z"/>
<path d="M2826 963 c-4 -9 -1 -23 7 -30 12 -12 16 -12 26 1 16 19 8 46 -13 46
-7 0 -17 -8 -20 -17z m27 -19 c-4 -10 -9 -12 -15 -6 -12 12 -1 35 12 27 5 -3
6 -13 3 -21z"/>
<path d="M2897 973 c-4 -3 -7 -15 -7 -26 0 -19 1 -19 20 -2 11 10 17 22 14 26
-6 11 -18 12 -27 2z"/>
<path d="M2941 973 c-1 -6 -4 -20 -7 -30 -5 -17 -5 -17 6 0 6 10 9 23 6 30 -3
9 -5 9 -5 0z"/>
<path d="M2966 963 c-3 -10 -9 -24 -12 -30 -3 -8 1 -13 10 -13 9 0 13 6 10 14
-3 8 -1 17 5 21 13 8 14 25 2 25 -5 0 -11 -8 -15 -17z"/>
<path d="M3002 955 c-10 -21 -9 -27 3 -31 8 -4 22 -1 30 6 8 6 19 9 25 5 12
-8 13 15 1 34 -8 12 -12 10 -22 -12 -7 -15 -16 -27 -21 -27 -11 0 -10 17 2 25
12 8 13 25 2 25 -5 0 -14 -11 -20 -25z"/>
<path d="M3080 968 c0 -7 5 -20 10 -28 8 -11 9 -9 8 13 -2 26 -18 40 -18 15z"/>
<path d="M3260 1395 c0 -132 2 -147 20 -165 11 -11 29 -20 41 -20 17 0 20 -5
18 -34 -2 -19 -1 -37 1 -39 3 -2 40 -7 83 -11 66 -6 77 -5 77 9 0 8 3 14 8 13
9 -3 52 34 52 44 0 5 -7 8 -15 8 -8 0 -15 4 -15 9 0 15 63 -9 82 -31 20 -22
125 -42 144 -26 7 5 10 19 7 31 -3 16 -2 18 5 9 5 -8 25 -14 43 -15 34 -2 34
-1 37 44 3 43 0 48 -35 74 -21 16 -41 33 -44 38 -4 5 -9 5 -13 -1 -3 -6 -1
-12 6 -14 10 -4 21 -48 12 -48 -6 0 -89 43 -101 53 -10 7 -9 13 3 25 13 13 17
13 25 1 7 -12 9 -11 9 2 0 22 -32 49 -37 32 -3 -8 -14 -11 -28 -7 -16 4 -30
-1 -44 -15 -23 -23 -20 -41 6 -41 13 0 13 -3 3 -15 -7 -8 -10 -16 -6 -16 3 -1
11 -3 16 -4 6 -1 15 -3 22 -4 8 -1 7 -7 -4 -18 -14 -14 -22 -15 -43 -5 -16 8
-25 8 -25 1 0 -6 -4 -7 -10 -4 -16 10 -11 36 6 33 10 -2 19 3 21 10 3 8 -5 12
-24 12 -15 0 -37 8 -48 16 -19 15 -19 15 8 9 16 -5 27 -3 27 3 0 6 -9 12 -20
14 -12 2 -20 7 -20 12 1 5 -14 15 -32 21 -21 7 -33 17 -32 28 1 9 -2 17 -8 17
-5 0 -6 5 -3 10 3 6 2 10 -3 10 -5 0 -12 -8 -16 -17 -3 -10 -9 -24 -12 -30 -3
-8 1 -13 12 -13 9 0 15 -3 11 -6 -9 -9 -47 6 -44 18 1 6 -4 13 -12 16 -10 3
-12 0 -8 -12 5 -11 3 -15 -5 -10 -8 5 -9 2 -5 -9 4 -11 1 -17 -8 -17 -8 0 -15
-9 -15 -20 0 -24 -13 -26 -30 -5 -13 16 -6 60 14 87 12 17 86 49 116 51 67 4
90 -4 133 -47 43 -44 44 -44 73 -29 63 33 119 16 91 -28 -7 -11 -6 -22 1 -35
6 -10 12 -13 12 -6 0 18 24 15 54 -9 28 -22 48 -21 21 1 -8 7 -15 20 -15 30 0
10 -7 23 -15 30 -8 7 -15 16 -15 21 0 17 20 9 49 -21 l28 -30 7 37 c3 21 6 62
6 91 l0 52 -300 0 -300 0 0 -145z m500 -10 c0 -5 -5 -3 -10 5 -5 8 -10 20 -10
25 0 6 5 3 10 -5 5 -8 10 -19 10 -25z m-445 -98 c-12 -10 -14 -16 -7 -21 14
-8 16 -26 4 -26 -5 0 -17 6 -28 14 -19 15 -19 15 1 30 11 8 26 16 34 16 11 0
10 -4 -4 -13z m162 -23 c-3 -3 -12 -4 -19 -1 -8 3 -5 6 6 6 11 1 17 -2 13 -5z
m361 -19 c1 -1 0 -10 -4 -19 -9 -24 -31 -19 -36 9 -5 22 -3 25 16 19 11 -4 22
-8 24 -9z m-418 -16 c0 -6 -4 -7 -10 -4 -5 3 -10 11 -10 16 0 6 5 7 10 4 6 -3
10 -11 10 -16z m360 3 c0 -5 -9 -17 -20 -27 -15 -14 -17 -21 -9 -32 16 -19
-40 -14 -67 7 -29 21 -20 42 12 29 34 -12 44 -11 44 5 0 13 13 23 33 25 4 1 7
-3 7 -7z m-130 -23 c0 -5 -7 -9 -15 -9 -15 0 -20 12 -9 23 8 8 24 -1 24 -14z
m-185 -5 c23 -9 -1 -23 -27 -16 -15 4 -17 7 -6 13 16 11 13 10 33 3z"/>
<path d="M3525 1370 c3 -5 10 -10 16 -10 5 0 9 5 9 10 0 6 -7 10 -16 10 -8 0
-12 -4 -9 -10z"/>
<path d="M3568 1133 c7 -3 16 -2 19 1 4 3 -2 6 -13 5 -11 0 -14 -3 -6 -6z"/>
<path d="M3626 1133 c-3 -3 -3 -10 0 -14 7 -12 34 -11 34 0 0 11 -26 22 -34
14z"/>
<path d="M3307 973 c-11 -10 -8 -43 4 -43 5 0 7 5 3 12 -4 6 1 17 11 25 15 10
16 13 4 13 -9 0 -19 -3 -22 -7z"/>
<path d="M3350 965 c-16 -20 6 -51 25 -35 6 5 15 7 18 3 4 -3 7 -1 7 5 0 7 7
12 15 12 8 0 15 -4 15 -10 0 -5 7 -10 15 -10 9 0 15 9 15 24 0 21 -5 25 -30
24 -16 -1 -30 -6 -30 -12 0 -6 -5 -5 -12 2 -16 16 -23 15 -38 -3z m30 -9 c0
-8 -4 -18 -10 -21 -5 -3 -10 3 -10 14 0 12 5 21 10 21 6 0 10 -6 10 -14z"/>
<path d="M3488 973 c14 -5 17 -43 3 -43 -5 0 -12 8 -15 18 -4 13 -4 12 -3 -3
2 -14 9 -19 22 -17 11 1 30 4 42 5 25 2 27 6 16 32 -5 15 -8 15 -24 -6 l-19
-24 0 23 c0 14 -6 22 -17 21 -11 0 -13 -3 -5 -6z"/>
<path d="M3587 973 c-13 -12 -7 -40 9 -40 10 0 14 7 11 19 -3 10 -1 16 4 12 5
-3 9 0 9 5 0 12 -23 15 -33 4z"/>
<path d="M3633 963 c-3 -10 -7 -20 -9 -23 -1 -3 12 -6 29 -5 18 0 32 5 32 12
0 6 4 15 9 20 5 4 7 4 4 -2 -3 -5 0 -15 7 -22 10 -10 14 -9 19 3 9 24 7 41 -3
25 -6 -9 -11 -10 -15 -2 -11 18 -26 13 -36 -11 l-9 -23 0 23 c-1 26 -19 29
-28 5z"/>
<path d="M3738 955 c-6 -28 7 -42 25 -27 7 5 22 8 35 7 17 -1 22 4 22 22 0 13
-5 23 -11 23 -6 0 -8 -7 -5 -16 3 -8 2 -12 -4 -9 -6 3 -10 0 -11 -7 0 -7 -4
-3 -9 10 -12 30 -37 28 -42 -3z m32 1 c0 -8 -4 -18 -10 -21 -5 -3 -10 3 -10
14 0 12 5 21 10 21 6 0 10 -6 10 -14z"/>
<path d="M1100 1365 c0 -8 5 -15 10 -15 6 0 10 7 10 15 0 8 -4 15 -10 15 -5 0
-10 -7 -10 -15z"/>
<path d="M1645 1380 c-3 -5 -1 -10 4 -10 6 0 11 5 11 10 0 6 -2 10 -4 10 -3 0
-8 -4 -11 -10z"/>
<path d="M400 1099 c0 -5 5 -7 10 -4 6 3 10 8 10 11 0 2 -4 4 -10 4 -5 0 -10
-5 -10 -11z"/>
<path d="M1055 1097 c-4 -10 -5 -21 -1 -24 10 -10 18 4 13 24 -4 17 -4 17 -12
0z"/>
<path d="M1300 1090 c0 -19 3 -21 12 -12 9 9 9 15 0 24 -9 9 -12 7 -12 -12z"/>
<path d="M6311 490 c-10 -29 -9 -30 19 -30 27 0 28 1 17 30 -6 17 -14 30 -18
30 -4 0 -12 -13 -18 -30z"/>
<path d="M6523 523 c3 -21 10 -29 29 -31 29 -4 51 18 42 42 -4 10 -18 16 -40
16 -32 0 -34 -2 -31 -27z"/>
<path d="M6740 531 c-16 -31 -12 -86 8 -104 39 -35 82 -9 82 49 0 51 -15 74
-50 74 -19 0 -33 -7 -40 -19z"/>
<path d="M7900 4550 c0 -13 7 -20 20 -20 13 0 20 7 20 20 0 13 -7 20 -20 20
-13 0 -20 -7 -20 -20z"/>
<path d="M8277 4563 c-14 -13 -7 -33 11 -33 24 0 32 8 25 26 -5 15 -25 19 -36
7z"/>
<path d="M6481 4544 c-57 -41 -62 -134 -9 -179 45 -38 138 -34 138 6 0 16 -6
17 -49 12 -43 -5 -50 -3 -65 18 -21 30 -21 68 0 98 15 20 23 23 65 19 42 -4
49 -2 49 12 0 10 -7 21 -16 24 -30 11 -90 6 -113 -10z"/>
<path d="M6654 4547 c-3 -8 -3 -56 -2 -108 3 -80 6 -94 21 -97 14 -3 17 4 17
41 0 25 3 52 6 61 6 16 54 23 54 9 7 -112 9 -119 36 -109 13 5 16 17 12 67 -6
83 -25 98 -95 72 -9 -4 -13 7 -13 36 0 30 -4 41 -15 41 -9 0 -18 -6 -21 -13z"/>
<path d="M7487 4533 c-4 -3 -7 -15 -7 -25 0 -10 -7 -18 -15 -18 -8 0 -15 -7
-15 -15 0 -8 7 -15 15 -15 11 0 15 -11 15 -43 0 -51 22 -77 63 -77 33 0 35 22
5 35 -17 7 -24 20 -26 48 -3 34 -1 37 22 37 16 0 26 6 26 15 0 9 -9 15 -25 15
-20 0 -25 5 -25 25 0 24 -18 34 -33 18z"/>
<path d="M8150 4520 c0 -11 -7 -23 -15 -26 -8 -4 -15 -12 -15 -20 0 -8 7 -14
15 -14 11 0 15 -12 15 -49 0 -30 5 -53 14 -60 22 -18 70 -10 74 13 2 10 0 16
-6 12 -23 -14 -42 6 -42 44 0 32 4 39 23 42 28 4 29 22 0 26 -13 2 -23 11 -25
25 -4 29 -38 36 -38 7z"/>
<path d="M6871 4491 c-45 -12 -37 -31 13 -31 34 0 46 -4 46 -15 0 -10 -10 -15
-34 -15 -35 0 -66 -21 -66 -45 0 -34 68 -62 86 -34 4 8 9 8 17 0 6 -6 17 -11
24 -11 18 0 18 123 0 138 -18 15 -58 21 -86 13z m57 -98 c-4 -21 -36 -29 -51
-14 -9 9 -8 14 3 21 25 16 52 12 48 -7z"/>
<path d="M7085 4490 c-11 -5 -30 -6 -42 -3 -24 5 -30 -8 -32 -77 -1 -52 10
-75 33 -67 12 5 16 20 16 56 0 46 2 50 30 60 29 9 39 25 23 34 -5 3 -17 1 -28
-3z"/>
<path d="M7181 4491 c-45 -12 -37 -31 13 -31 34 0 46 -4 46 -15 0 -10 -10 -15
-31 -15 -17 0 -39 -5 -50 -10 -21 -12 -25 -50 -7 -68 15 -15 65 -16 74 -1 5 8
9 7 14 -1 4 -7 15 -10 24 -7 22 9 22 109 0 131 -8 9 -19 16 -24 16 -5 0 -14 2
-22 4 -7 2 -24 1 -37 -3z m57 -98 c-4 -22 -58 -31 -58 -10 0 20 10 27 37 27
18 0 24 -5 21 -17z"/>
<path d="M7353 4485 c-60 -26 -52 -125 12 -141 35 -9 75 3 75 22 0 11 -6 13
-20 9 -46 -15 -76 17 -59 63 7 17 16 22 44 22 24 0 35 4 35 15 0 8 -6 15 -14
15 -8 0 -20 2 -28 5 -7 2 -27 -2 -45 -10z"/>
<path d="M7633 4490 c-47 -19 -58 -92 -20 -128 34 -32 117 -29 117 5 0 11 -8
12 -35 7 -22 -4 -41 -2 -50 6 -26 22 -17 30 33 30 27 0 51 3 55 6 11 12 -15
62 -39 73 -29 13 -31 13 -61 1z m51 -26 c30 -12 18 -34 -19 -34 -37 0 -43 8
-23 28 14 14 20 14 42 6z"/>
<path d="M7832 4484 c-13 -9 -22 -11 -22 -5 0 6 -9 11 -20 11 -19 0 -21 -5
-18 -72 2 -60 6 -73 21 -76 14 -3 17 4 17 48 0 48 2 52 30 63 29 11 39 30 22
41 -5 3 -18 -2 -30 -10z"/>
<path d="M8012 4490 c-49 -20 -39 -66 18 -85 54 -18 52 -39 -4 -33 -33 4 -46
2 -46 -7 0 -16 23 -25 66 -25 62 0 84 73 25 86 -46 10 -53 14 -48 27 2 7 18
11 41 9 42 -3 48 14 10 28 -30 12 -32 12 -62 0z"/>
<path d="M8390 4487 c-53 -27 -61 -103 -14 -133 30 -20 88 -15 92 8 3 15 -2
17 -25 12 -36 -7 -56 14 -51 53 3 24 8 28 41 31 41 4 51 26 15 36 -30 8 -29 8
-58 -7z"/>
<path d="M8532 4490 c-49 -20 -39 -66 18 -85 54 -18 52 -39 -4 -33 -33 4 -46
2 -46 -7 0 -30 88 -35 114 -6 24 26 12 59 -22 67 -47 10 -54 14 -49 27 2 7 18
11 41 9 42 -3 48 14 10 28 -30 12 -32 12 -62 0z"/>
<path d="M7900 4414 c0 -66 2 -75 18 -72 14 3 18 16 20 76 3 67 1 72 -18 72
-18 0 -20 -6 -20 -76z"/>
<path d="M8270 4415 c0 -68 2 -75 20 -75 18 0 20 7 20 75 0 68 -2 75 -20 75
-18 0 -20 -7 -20 -75z"/>
<path d="M6434 4148 c-4 -6 -3 -8 4 -4 5 3 13 0 15 -6 3 -8 6 -6 6 5 1 19 -14
23 -25 5z"/>
<path d="M6470 4145 c0 -13 34 -15 250 -15 216 0 250 2 250 15 0 13 -34 15
-250 15 -216 0 -250 -2 -250 -15z"/>
<path d="M6981 4143 c0 -11 3 -13 6 -5 2 6 10 9 15 6 7 -4 8 -2 4 4 -11 18
-26 14 -25 -5z"/>
<path d="M6458 3933 c7 -3 16 -2 19 1 4 3 -2 6 -13 5 -11 0 -14 -3 -6 -6z"/>
<path d="M7128 3913 c7 -3 16 -2 19 1 4 3 -2 6 -13 5 -11 0 -14 -3 -6 -6z"/>
<path d="M7818 3913 c7 -3 16 -2 19 1 4 3 -2 6 -13 5 -11 0 -14 -3 -6 -6z"/>
<path d="M6713 3875 c0 -22 2 -30 4 -17 2 12 2 30 0 40 -3 9 -5 -1 -4 -23z"/>
<path d="M7171 3884 c0 -11 3 -14 6 -6 3 7 2 16 -1 19 -3 4 -6 -2 -5 -13z"/>
<path d="M8390 3885 c0 -7 11 -10 30 -7 17 2 30 5 30 7 0 2 -13 5 -30 7 -19 3
-30 0 -30 -7z"/>
<path d="M7003 3883 c9 -2 23 -2 30 0 6 3 -1 5 -18 5 -16 0 -22 -2 -12 -5z"/>
<path d="M8498 3883 c7 -3 16 -2 19 1 4 3 -2 6 -13 5 -11 0 -14 -3 -6 -6z"/>
<path d="M7501 3864 c0 -11 3 -14 6 -6 3 7 2 16 -1 19 -3 4 -6 -2 -5 -13z"/>
<path d="M6825 3860 c-16 -7 -17 -9 -3 -9 9 -1 20 4 23 9 7 11 7 11 -20 0z"/>
<path d="M6998 3858 c5 -5 16 -8 23 -6 8 3 3 7 -10 11 -17 4 -21 3 -13 -5z"/>
<path d="M7428 3858 c5 -5 16 -8 23 -6 8 3 3 7 -10 11 -17 4 -21 3 -13 -5z"/>
<path d="M7908 3858 c6 -6 18 -8 28 -6 14 3 12 5 -9 10 -19 3 -25 2 -19 -4z"/>
<path d="M8118 3858 c5 -5 16 -8 23 -6 8 3 3 7 -10 11 -17 4 -21 3 -13 -5z"/>
<path d="M8477 3859 c7 -7 15 -10 18 -7 3 3 -2 9 -12 12 -14 6 -15 5 -6 -5z"/>
<path d="M6458 3853 c7 -3 16 -2 19 1 4 3 -2 6 -13 5 -11 0 -14 -3 -6 -6z"/>
<path d="M6738 3853 c7 -3 16 -2 19 1 4 3 -2 6 -13 5 -11 0 -14 -3 -6 -6z"/>
<path d="M7188 3853 c7 -3 16 -2 19 1 4 3 -2 6 -13 5 -11 0 -14 -3 -6 -6z"/>
<path d="M7678 3853 c7 -3 16 -2 19 1 4 3 -2 6 -13 5 -11 0 -14 -3 -6 -6z"/>
<path d="M7748 3853 c7 -3 16 -2 19 1 4 3 -2 6 -13 5 -11 0 -14 -3 -6 -6z"/>
<path d="M8198 3853 c7 -3 16 -2 19 1 4 3 -2 6 -13 5 -11 0 -14 -3 -6 -6z"/>
<path d="M8418 3853 c7 -3 16 -2 19 1 4 3 -2 6 -13 5 -11 0 -14 -3 -6 -6z"/>
<path d="M8568 3853 c7 -3 16 -2 19 1 4 3 -2 6 -13 5 -11 0 -14 -3 -6 -6z"/>
<path d="M7655 3650 c-4 -6 3 -10 14 -10 25 0 27 6 6 13 -8 4 -17 2 -20 -3z"/>
<path d="M6798 3643 c7 -3 16 -2 19 1 4 3 -2 6 -13 5 -11 0 -14 -3 -6 -6z"/>
<path d="M6860 3646 c0 -2 7 -7 16 -10 8 -3 12 -2 9 4 -6 10 -25 14 -25 6z"/>
<path d="M8310 3619 c0 -5 11 -9 25 -9 14 0 25 2 25 4 0 2 -11 6 -25 8 -14 3
-25 1 -25 -3z"/>
<path d="M7013 3613 c9 -2 25 -2 35 0 9 3 1 5 -18 5 -19 0 -27 -2 -17 -5z"/>
<path d="M8491 3604 c0 -11 3 -14 6 -6 3 7 2 16 -1 19 -3 4 -6 -2 -5 -13z"/>
<path d="M7178 3583 c7 -3 16 -2 19 1 4 3 -2 6 -13 5 -11 0 -14 -3 -6 -6z"/>
<path d="M7988 3583 c7 -3 16 -2 19 1 4 3 -2 6 -13 5 -11 0 -14 -3 -6 -6z"/>
<path d="M8628 3583 c7 -3 16 -2 19 1 4 3 -2 6 -13 5 -11 0 -14 -3 -6 -6z"/>
<path d="M6530 3376 c0 -2 7 -7 16 -10 8 -3 12 -2 9 4 -6 10 -25 14 -25 6z"/>
<path d="M7090 3370 c0 -5 5 -10 11 -10 5 0 7 5 4 10 -3 6 -8 10 -11 10 -2 0
-4 -4 -4 -10z"/>
<path d="M7262 3350 c0 -19 2 -27 5 -17 2 9 2 25 0 35 -3 9 -5 1 -5 -18z"/>
<path d="M7758 3373 c7 -3 16 -2 19 1 4 3 -2 6 -13 5 -11 0 -14 -3 -6 -6z"/>
<path d="M8198 3373 c7 -3 16 -2 19 1 4 3 -2 6 -13 5 -11 0 -14 -3 -6 -6z"/>
<path d="M8508 3373 c7 -3 16 -2 19 1 4 3 -2 6 -13 5 -11 0 -14 -3 -6 -6z"/>
<path d="M7027 3349 c7 -7 15 -10 18 -7 3 3 -2 9 -12 12 -14 6 -15 5 -6 -5z"/>
<path d="M6538 3343 c7 -3 16 -2 19 1 4 3 -2 6 -13 5 -11 0 -14 -3 -6 -6z"/>
<path d="M7375 3340 c3 -5 8 -10 11 -10 2 0 4 5 4 10 0 6 -5 10 -11 10 -5 0
-7 -4 -4 -10z"/>
<path d="M6510 3331 c0 -10 19 -25 25 -20 1 2 -3 10 -11 17 -8 7 -14 8 -14 3z"/>
<path d="M7347 3319 c7 -7 15 -10 18 -7 3 3 -2 9 -12 12 -14 6 -15 5 -6 -5z"/>
<path d="M7038 3313 c7 -3 16 -2 19 1 4 3 -2 6 -13 5 -11 0 -14 -3 -6 -6z"/>
<path d="M7768 3313 c7 -3 16 -2 19 1 4 3 -2 6 -13 5 -11 0 -14 -3 -6 -6z"/>
<path d="M8618 3313 c7 -3 16 -2 19 1 4 3 -2 6 -13 5 -11 0 -14 -3 -6 -6z"/>
<path d="M6970 2915 c0 -8 -9 -15 -19 -15 -10 0 -21 -7 -25 -15 -9 -25 4 -45
30 -45 22 0 24 4 24 45 0 25 -2 45 -5 45 -3 0 -5 -7 -5 -15z m-4 -36 c3 -6 1
-16 -5 -22 -9 -9 -14 -8 -21 3 -9 15 -4 30 10 30 5 0 12 -5 16 -11z"/>
<path d="M7002 2888 c-2 -40 1 -48 16 -48 11 0 13 3 5 8 -6 4 -13 25 -16 47
-4 40 -4 40 -5 -7z"/>
<path d="M4252 2886 c-32 -31 -33 -36 -34 -107 0 -101 4 -124 42 -199 4 -8 13
-15 21 -15 11 0 15 31 17 156 1 86 -1 165 -5 176 -8 19 -10 19 -41 -11z"/>
<path d="M6631 2878 c1 -24 3 -35 6 -25 2 9 11 17 19 17 8 0 14 5 14 10 0 6
-8 10 -17 10 -21 0 -6 16 22 23 13 3 9 5 -12 6 -32 1 -33 0 -32 -41z"/>
<path d="M7828 2904 c-3 -2 -3 -17 0 -34 3 -20 10 -30 21 -29 10 0 11 2 4 6
-16 6 -17 40 -1 45 8 3 6 6 -4 10 -9 4 -18 5 -20 2z"/>
<path d="M6701 2868 c1 -22 3 -26 6 -13 3 11 10 26 15 33 8 9 6 12 -6 12 -12
0 -16 -9 -15 -32z"/>
<path d="M6752 2870 c0 -19 2 -27 5 -17 2 9 2 25 0 35 -3 9 -5 1 -5 -18z"/>
<path d="M6784 2886 c-9 -24 3 -46 26 -46 17 0 21 5 18 27 -3 31 -34 44 -44
19z m33 -2 c-3 -3 -12 -4 -19 -1 -8 3 -5 6 6 6 11 1 17 -2 13 -5z"/>
<path d="M6851 2868 c1 -30 2 -30 8 -9 9 35 29 37 34 4 4 -27 4 -27 6 5 1 28
-2 32 -24 32 -22 0 -25 -4 -24 -32z"/>
<path d="M7033 2890 c2 -8 7 -25 11 -37 5 -14 3 -23 -3 -23 -6 0 -11 -4 -11
-10 0 -5 7 -7 15 -4 15 6 41 72 31 81 -3 4 -6 -1 -6 -10 0 -22 -9 -21 -27 1
-11 12 -13 13 -10 2z"/>
<path d="M7135 2880 c-8 -25 1 -40 24 -40 18 0 35 35 25 52 -10 16 -43 8 -49
-12z"/>
<path d="M7200 2869 c0 -33 9 -35 14 -2 2 10 9 18 16 18 7 0 14 -8 16 -18 4
-32 16 -34 12 -2 -2 24 -8 31 -30 33 -25 3 -28 0 -28 -29z"/>
<path d="M7270 2898 c0 -15 20 -58 28 -58 4 0 13 14 19 30 6 17 7 30 2 30 -5
0 -9 -7 -9 -15 0 -20 -10 -19 -26 3 -7 9 -14 14 -14 10z"/>
<path d="M7342 2870 c0 -19 2 -27 5 -17 2 9 2 25 0 35 -3 9 -5 1 -5 -18z"/>
<path d="M7370 2870 c0 -34 15 -41 17 -8 1 11 8 25 15 29 9 6 6 9 -9 9 -19 0
-23 -6 -23 -30z"/>
<path d="M7424 2885 c-9 -23 3 -45 26 -45 16 0 20 7 20 30 0 23 -4 30 -20 30
-11 0 -23 -7 -26 -15z m36 -15 c0 -11 -7 -20 -15 -20 -8 0 -15 9 -15 20 0 11
7 20 15 20 8 0 15 -9 15 -20z"/>
<path d="M7490 2870 c0 -19 4 -29 10 -25 6 4 8 10 6 14 -3 4 0 13 5 21 8 13
10 13 19 0 5 -8 8 -21 5 -27 -2 -7 0 -13 6 -13 6 0 9 12 7 28 -2 21 -9 28 -30
30 -25 3 -28 0 -28 -28z"/>
<path d="M7571 2868 c2 -31 2 -31 6 -5 5 33 26 31 32 -4 l4 -24 6 24 c9 34 29
37 34 6 4 -24 4 -24 3 2 -1 25 -5 28 -43 31 -43 3 -43 3 -42 -30z"/>
<path d="M7684 2886 c-9 -24 3 -46 26 -46 17 0 21 5 18 27 -3 31 -34 44 -44
19z m33 -2 c-3 -3 -12 -4 -19 -1 -8 3 -5 6 6 6 11 1 17 -2 13 -5z m0 -30 c-3
-3 -12 -4 -19 -1 -8 3 -5 6 6 6 11 1 17 -2 13 -5z"/>
<path d="M7751 2868 c1 -30 2 -30 8 -9 9 35 29 37 34 4 4 -27 4 -27 6 5 1 28
-2 32 -24 32 -22 0 -25 -4 -24 -32z"/>
<path d="M4020 2826 c0 -7 3 -28 6 -45 6 -30 9 -31 55 -31 41 0 49 3 49 18 0
10 5 23 11 29 7 7 9 19 6 27 -8 22 -127 23 -127 2z"/>
<path d="M3972 2765 c0 -16 2 -22 5 -12 2 9 2 23 0 30 -3 6 -5 -1 -5 -18z"/>
<path d="M4138 2715 c-4 -16 -10 -59 -14 -94 -6 -58 -5 -64 10 -58 10 4 20 7
22 7 7 0 3 123 -5 150 l-7 25 -6 -30z"/>
<path d="M7522 2553 c-5 -10 -5 -31 -1 -48 7 -30 7 -30 8 -3 0 14 7 29 14 31
9 4 8 6 -2 6 -11 1 -11 4 -1 16 8 10 9 15 2 15 -6 0 -15 -8 -20 -17z"/>
<path d="M7798 2553 c-2 -10 -1 -31 3 -48 7 -30 7 -30 8 -3 0 14 7 29 14 31 9
4 8 6 -2 6 -11 1 -11 4 -1 16 10 12 10 15 -3 15 -8 0 -17 -8 -19 -17z"/>
<path d="M6631 2518 c1 -35 2 -38 8 -18 l7 25 8 -22 c4 -13 11 -23 16 -23 4 0
11 10 15 23 l7 22 8 -25 c7 -21 8 -19 9 18 1 46 -15 57 -25 17 -3 -14 -10 -25
-14 -25 -4 0 -11 11 -14 25 -10 40 -26 29 -25 -17z"/>
<path d="M7178 2544 c-3 -2 -3 -17 0 -34 3 -20 10 -30 21 -29 10 0 11 2 4 6
-16 6 -17 40 -1 45 8 3 6 6 -4 10 -9 4 -18 5 -20 2z"/>
<path d="M7878 2544 c-3 -2 -3 -17 0 -34 3 -20 10 -30 21 -29 10 0 11 2 4 6
-16 6 -17 40 -1 45 8 3 6 6 -4 10 -9 4 -18 5 -20 2z"/>
<path d="M4250 2520 c0 -15 7 -20 25 -20 14 0 25 4 25 8 0 5 -11 14 -25 20
-22 10 -25 9 -25 -8z"/>
<path d="M6730 2531 c0 -6 8 -8 18 -5 16 5 16 5 0 -9 -27 -21 -22 -37 11 -37
27 0 29 2 22 28 -7 26 -51 46 -51 23z"/>
<path d="M6803 2510 c0 -19 6 -25 24 -26 19 -2 22 1 12 12 -9 11 -9 17 0 28
10 11 7 14 -12 12 -18 -1 -24 -7 -24 -26z"/>
<path d="M6872 2510 c0 -19 2 -27 5 -17 2 9 2 25 0 35 -3 9 -5 1 -5 -18z"/>
<path d="M6901 2508 c1 -30 2 -30 8 -9 10 36 31 38 32 4 1 -27 1 -27 8 -4 9
35 29 37 34 4 4 -27 4 -27 6 5 1 32 0 32 -44 32 -44 0 -45 -1 -44 -32z"/>
<path d="M7010 2512 c0 -18 4 -32 9 -32 4 0 7 12 5 26 -4 38 -14 42 -14 6z"/>
<path d="M7053 2533 c17 -4 17 -6 2 -29 -15 -24 -15 -24 17 -23 18 1 25 3 16
6 -20 5 -23 18 -8 28 19 12 10 25 -17 24 -19 -1 -22 -3 -10 -6z"/>
<path d="M7110 2531 c0 -6 8 -8 18 -5 16 5 16 5 0 -9 -27 -21 -22 -37 11 -37
27 0 29 2 22 28 -7 26 -51 46 -51 23z"/>
<path d="M7232 2510 c0 -19 2 -27 5 -17 2 9 2 25 0 35 -3 9 -5 1 -5 -18z"/>
<path d="M7264 2525 c-9 -23 4 -47 23 -43 11 2 19 14 21 31 3 22 -1 27 -18 27
-11 0 -23 -7 -26 -15z m36 -15 c0 -11 -7 -20 -15 -20 -8 0 -15 9 -15 20 0 11
7 20 15 20 8 0 15 -9 15 -20z"/>
<path d="M7330 2509 c0 -18 3 -29 7 -25 4 4 8 15 8 23 0 28 23 25 34 -4 l10
-28 -2 30 c-2 25 -7 31 -29 33 -25 3 -28 0 -28 -29z"/>
<path d="M7447 2526 c-10 -26 4 -47 27 -44 15 2 21 10 21 28 0 29 -38 41 -48
16z m39 -7 c10 -17 -13 -36 -27 -22 -12 12 -4 33 11 33 5 0 12 -5 16 -11z"/>
<path d="M7601 2498 c0 -24 3 -37 6 -30 2 6 13 12 23 12 24 0 33 15 25 40 -4
13 -15 20 -31 20 -22 0 -24 -4 -23 -42z m45 21 c10 -17 -13 -36 -27 -22 -12
12 -4 33 11 33 5 0 12 -5 16 -11z"/>
<path d="M7677 2528 c-2 -7 -1 -22 4 -33 7 -18 8 -17 8 7 1 14 7 29 14 31 7 4
6 6 -4 6 -9 1 -19 -5 -22 -11z"/>
<path d="M7724 2525 c-9 -23 3 -45 25 -45 10 0 21 7 25 15 8 23 -4 45 -25 45
-11 0 -22 -7 -25 -15z m39 -10 c8 -18 -11 -31 -25 -17 -11 11 -3 32 12 32 4 0
10 -7 13 -15z"/>
<path d="M7842 2510 c0 -19 2 -27 5 -17 2 9 2 25 0 35 -3 9 -5 1 -5 -18z"/>
<path d="M7925 2531 c-3 -5 4 -16 16 -24 19 -14 20 -15 2 -20 -15 -4 -14 -5 5
-6 26 -1 29 16 5 36 -17 14 -17 14 0 9 9 -3 17 -1 17 4 0 13 -37 13 -45 1z"/>
<path d="M4137 2383 c-4 -3 -7 -16 -7 -28 0 -20 5 -22 55 -24 46 -1 55 2 56
17 0 14 2 14 7 2 4 -8 16 -16 27 -18 16 -2 20 4 21 26 1 28 -1 29 -40 28 -34
-1 -42 -5 -44 -24 -5 -31 -22 -27 -23 6 0 26 -1 26 -9 5 -6 -14 -15 -21 -24
-17 -8 3 -12 12 -9 20 5 15 1 18 -10 7z"/>
<path d="M3960 2015 l0 -235 170 2 170 1 0 103 c0 58 -4 106 -10 109 -5 3 -10
2 -10 -3 0 -19 -32 -8 -43 15 -5 13 -16 23 -23 23 -16 0 -27 32 -18 54 6 17
34 23 34 7 0 -10 40 -19 58 -13 8 2 12 31 12 88 l0 84 -170 0 -170 0 0 -235z
m216 17 c-10 -2 -22 0 -28 6 -6 6 0 7 19 4 21 -5 23 -7 9 -10z m-57 -48 c5 -6
16 -25 25 -42 l16 -31 -30 2 c-21 1 -30 7 -30 19 0 9 -4 19 -10 23 -5 3 -6 13
-3 21 3 9 0 20 -7 24 -7 4 -9 13 -5 20 6 10 11 8 21 -6 7 -10 17 -24 23 -30z
m-69 -3 c0 -6 -4 -13 -10 -16 -5 -3 -10 1 -10 9 0 9 5 16 10 16 6 0 10 -4 10
-9z m161 -25 c5 3 9 0 9 -6 0 -15 -23 -7 -26 8 -1 7 0 8 3 2 2 -5 9 -8 14 -4z
m-211 -26 c0 -5 -4 -10 -10 -10 -5 0 -10 5 -10 10 0 6 5 10 10 10 6 0 10 -4
10 -10z m146 -92 c-14 -9 -20 17 -10 40 6 14 8 13 14 -8 3 -14 2 -28 -4 -32z
m73 15 c-1 -24 -3 -29 -6 -15 -2 12 -8 22 -13 22 -5 0 -10 -10 -13 -22 -3 -21
-4 -21 -11 -5 -6 12 -2 23 14 37 13 11 25 20 27 20 1 0 2 -17 2 -37z m-109 -5
c-1 -27 -2 -30 -11 -16 -5 9 -16 15 -24 12 -10 -4 -12 0 -8 15 3 12 14 21 24
21 15 0 19 -7 19 -32z m-80 12 c0 -5 -4 -10 -10 -10 -5 0 -10 5 -10 10 0 6 5
10 10 10 6 0 10 -4 10 -10z"/>
<path d="M7602 2178 c-2 -40 1 -48 16 -48 11 0 13 3 5 8 -6 4 -13 25 -16 47
-4 40 -4 40 -5 -7z"/>
<path d="M6633 2170 c0 -25 2 -35 4 -22 2 12 2 32 0 45 -2 12 -4 2 -4 -23z"/>
<path d="M6948 2194 c-3 -2 -3 -17 0 -34 3 -20 10 -30 21 -29 10 0 11 2 4 6
-16 6 -17 40 -1 45 8 3 6 6 -4 10 -9 4 -18 5 -20 2z"/>
<path d="M7425 2191 c-3 -5 -1 -12 5 -16 5 -3 10 -15 10 -26 0 -12 7 -19 18
-18 10 0 12 3 5 6 -7 2 -13 13 -13 24 0 10 6 19 13 19 8 0 7 4 -3 10 -19 12
-27 12 -35 1z"/>
<path d="M6668 2161 c-3 -17 -1 -31 4 -31 4 0 8 12 8 26 0 32 22 27 32 -7 6
-22 7 -21 5 6 -1 22 -8 31 -23 33 -17 2 -22 -3 -26 -27z"/>
<path d="M6730 2188 c0 -13 23 -58 31 -58 4 0 12 15 18 33 10 29 9 30 -4 13
-15 -20 -15 -20 -30 0 -8 10 -15 16 -15 12z"/>
<path d="M6804 2176 c-9 -24 3 -46 25 -46 15 0 19 6 18 27 -3 31 -33 44 -43
19z m36 0 c0 -11 -19 -15 -25 -6 -3 5 1 10 9 10 9 0 16 -2 16 -4z m-3 -32 c-3
-3 -12 -4 -19 -1 -8 3 -5 6 6 6 11 1 17 -2 13 -5z"/>
<path d="M6871 2158 c1 -30 2 -30 8 -9 9 35 29 37 34 4 4 -27 4 -27 6 5 1 28
-2 32 -24 32 -22 0 -25 -4 -24 -32z"/>
<path d="M6994 2176 c-10 -26 4 -48 28 -44 17 2 23 10 23 28 0 18 -6 26 -23
28 -13 2 -25 -3 -28 -12z m42 -7 c10 -17 -13 -36 -27 -22 -12 12 -4 33 11 33
5 0 12 -5 16 -11z"/>
<path d="M7071 2158 c2 -31 2 -31 6 -5 5 35 30 35 44 0 7 -20 6 -28 -3 -35
-10 -6 -9 -8 4 -8 17 0 46 66 34 77 -3 4 -6 -1 -6 -10 0 -21 -16 -22 -24 -2
-3 8 -17 15 -31 15 -22 0 -25 -4 -24 -32z"/>
<path d="M7215 2180 c-11 -18 6 -50 26 -50 10 0 19 4 19 9 0 5 -8 8 -17 7 -10
0 -18 6 -18 14 0 8 8 14 18 14 9 -1 17 2 17 7 0 12 -37 11 -45 -1z"/>
<path d="M7284 2175 c-9 -23 3 -45 25 -45 10 0 21 7 25 15 8 23 -4 45 -25 45
-11 0 -22 -7 -25 -15z m42 -6 c10 -17 -13 -36 -27 -22 -12 12 -4 33 11 33 5 0
12 -5 16 -11z"/>
<path d="M7361 2158 c2 -31 2 -31 6 -5 5 33 24 31 35 -4 6 -22 7 -21 5 6 -2
23 -7 31 -24 33 -20 3 -23 -1 -22 -30z"/>
<path d="M7481 2158 c1 -21 3 -26 6 -13 3 11 12 26 21 33 14 11 13 12 -6 12
-18 0 -22 -5 -21 -32z"/>
<path d="M7527 2176 c-10 -26 4 -47 27 -44 15 2 21 10 21 28 0 29 -38 41 -48
16z m43 -16 c0 -11 -7 -20 -15 -20 -8 0 -15 9 -15 20 0 11 7 20 15 20 8 0 15
-9 15 -20z"/>
<path d="M6804 1838 c5 -55 6 -58 14 -58 4 0 6 20 4 45 -2 25 -8 45 -12 45 -5
0 -7 -15 -6 -32z"/>
<path d="M6637 1823 c-15 -39 -13 -59 3 -33 8 12 13 13 30 2 11 -7 20 -9 20
-5 0 15 -24 73 -31 73 -4 0 -14 -17 -22 -37z m33 -4 c0 -5 -4 -9 -10 -9 -5 0
-10 7 -10 16 0 8 5 12 10 9 6 -3 10 -10 10 -16z"/>
<path d="M6728 1843 c-11 -3 -18 -14 -18 -28 0 -13 -3 -30 -6 -39 -3 -9 -1
-16 6 -16 6 0 8 5 5 10 -3 6 3 10 15 10 12 0 18 -4 15 -10 -3 -5 -1 -10 4 -10
22 0 10 30 -11 31 -16 1 -18 3 -7 6 15 4 35 55 20 52 -3 -1 -14 -3 -23 -6z
m12 -23 c0 -5 -4 -10 -10 -10 -5 0 -10 5 -10 10 0 6 5 10 10 10 6 0 10 -4 10
-10z"/>
<path d="M7093 1843 c-20 -4 -23 -10 -22 -46 0 -23 3 -36 6 -29 2 6 12 12 20
12 13 0 13 -3 3 -15 -11 -13 -10 -14 4 -9 24 9 20 34 -6 35 l-23 0 22 9 c13 6
21 17 20 29 -1 12 -1 20 -2 20 0 -1 -10 -4 -22 -6z m7 -23 c0 -5 -4 -10 -10
-10 -5 0 -10 5 -10 10 0 6 5 10 10 10 6 0 10 -4 10 -10z"/>
<path d="M7227 1844 c-11 -11 15 -64 31 -63 11 0 12 2 5 6 -7 2 -13 13 -13 24
0 10 6 19 13 19 8 0 7 4 -3 10 -17 11 -24 12 -33 4z"/>
<path d="M7398 1844 c-3 -2 -3 -17 0 -34 3 -20 10 -30 21 -29 10 0 11 2 4 6
-16 6 -17 40 -1 45 8 3 6 6 -4 10 -9 4 -18 5 -20 2z"/>
<path d="M6770 1810 c0 -16 3 -30 8 -30 4 0 8 14 8 30 1 17 -2 30 -7 30 -5 0
-9 -13 -9 -30z"/>
<path d="M6844 1825 c-9 -23 3 -45 26 -45 16 0 20 7 20 30 0 23 -4 30 -20 30
-11 0 -23 -7 -26 -15z"/>
<path d="M6950 1809 c0 -18 4 -28 10 -24 6 4 8 10 5 15 -3 5 2 16 11 24 14 15
14 16 -5 16 -17 0 -21 -6 -21 -31z"/>
<path d="M7004 1826 c-9 -24 3 -46 26 -46 17 0 21 5 18 27 -3 31 -34 44 -44
19z m33 -2 c-3 -3 -12 -4 -19 -1 -8 3 -5 6 6 6 11 1 17 -2 13 -5z m0 -30 c-3
-3 -12 -4 -19 -1 -8 3 -5 6 6 6 11 1 17 -2 13 -5z"/>
<path d="M7138 1815 c-3 -14 -1 -28 3 -31 5 -3 9 9 9 25 0 38 -6 40 -12 6z"/>
<path d="M7170 1825 c0 -9 8 -19 17 -22 15 -6 15 -7 -3 -14 -17 -7 -17 -8 4
-8 26 -1 29 16 5 36 -17 14 -17 14 0 9 9 -3 17 -1 17 4 0 6 -9 10 -20 10 -11
0 -20 -7 -20 -15z"/>
<path d="M7281 1808 c0 -33 0 -33 12 -8 6 14 16 28 22 32 5 4 0 8 -12 8 -19 0
-23 -5 -22 -32z"/>
<path d="M7330 1831 c0 -6 8 -8 18 -5 16 5 16 5 0 -9 -26 -21 -22 -37 8 -37
22 0 25 4 22 28 -2 19 -9 28 -25 30 -13 2 -23 -1 -23 -7z"/>
<path d="M7452 1810 c0 -19 2 -27 5 -17 2 9 2 25 0 35 -3 9 -5 1 -5 -18z"/>
<path d="M7484 1825 c-9 -23 4 -47 23 -43 11 2 19 14 21 31 3 22 -1 27 -18 27
-11 0 -23 -7 -26 -15z m36 -15 c0 -11 -7 -20 -15 -20 -8 0 -15 9 -15 20 0 11
7 20 15 20 8 0 15 -9 15 -20z"/>
<path d="M7550 1809 c0 -18 3 -29 7 -25 4 4 8 15 8 24 0 26 28 20 37 -8 6 -23
7 -23 5 5 -2 25 -7 31 -29 33 -25 3 -28 0 -28 -29z"/>
<path d="M4215 1679 c-4 -6 -12 -8 -19 -6 -6 3 -12 -6 -13 -21 0 -16 2 -20 7
-12 5 8 9 9 14 1 4 -6 13 -11 19 -11 7 0 6 4 -3 10 -13 9 -13 12 3 24 9 7 17
16 17 20 0 10 -18 7 -25 -5z"/>
<path d="M4117 1673 c-9 -9 -9 -43 1 -43 4 0 7 11 7 25 0 14 0 25 -1 25 0 0
-4 -3 -7 -7z"/>
<path d="M4148 1658 c7 -27 17 -29 17 -4 0 13 -5 23 -11 23 -6 0 -9 -9 -6 -19z"/>
<path d="M4235 1515 c-16 -7 -35 -11 -42 -8 -7 3 -13 0 -13 -6 0 -6 9 -11 19
-11 11 0 22 -4 25 -8 7 -12 -31 -52 -49 -52 -8 0 -15 -4 -15 -10 0 -13 6 -13
31 0 13 7 25 8 37 1 16 -10 16 -10 0 -11 -9 0 -24 -7 -33 -16 -8 -9 -23 -13
-32 -10 -28 11 -53 -3 -53 -32 0 -20 -3 -23 -12 -14 -14 14 -68 16 -68 2 0 -5
-7 -10 -15 -10 -8 0 -15 5 -15 12 0 6 -3 9 -6 6 -9 -9 15 -48 29 -48 7 0 29
-11 48 -24 l36 -25 23 24 c27 28 72 39 114 27 28 -8 27 -9 -27 -21 -62 -14
-83 -36 -73 -77 8 -30 40 -47 77 -42 38 6 27 -9 -14 -18 l-32 -7 40 -14 c31
-10 45 -11 61 -2 21 11 21 17 20 207 -1 216 -1 214 -61 187z m-145 -215 c-8
-5 -17 -7 -19 -4 -3 3 1 9 9 14 8 5 17 7 19 4 3 -3 -1 -9 -9 -14z m200 -104
c0 -2 -8 -10 -17 -17 -16 -13 -17 -12 -4 4 13 16 21 21 21 13z"/>
<path d="M6761 1478 c-1 -44 1 -48 23 -48 16 0 27 7 31 20 8 25 -1 40 -25 40
-10 0 -21 8 -23 18 -3 9 -5 -4 -6 -30z m45 -9 c10 -17 -13 -36 -27 -22 -12 12
-4 33 11 33 5 0 12 -5 16 -11z"/>
<path d="M6836 1490 c2 -53 4 -60 12 -60 4 0 6 20 4 45 -4 50 -18 63 -16 15z"/>
<path d="M6632 1503 c11 -3 18 -17 21 -41 l4 -37 1 37 c1 25 7 38 20 41 9 3
-1 5 -23 5 -22 0 -32 -2 -23 -5z"/>
<path d="M7123 1493 c-20 -4 -23 -10 -22 -46 0 -23 3 -36 6 -29 2 6 12 12 20
12 13 0 13 -3 3 -15 -11 -13 -10 -14 4 -9 24 9 20 34 -6 35 l-23 0 22 9 c13 6
21 17 20 29 -1 12 -1 20 -2 20 0 -1 -10 -4 -22 -6z m7 -23 c0 -5 -4 -10 -10
-10 -5 0 -10 5 -10 10 0 6 5 10 10 10 6 0 10 -4 10 -10z"/>
<path d="M7467 1494 c-4 -4 -3 -12 1 -18 7 -11 8 -16 11 -36 0 -5 9 -10 19 -9
10 0 12 3 5 6 -7 2 -13 13 -13 24 0 10 6 19 13 19 8 0 7 4 -3 10 -18 11 -24
12 -33 4z"/>
<path d="M6690 1481 c0 -6 7 -8 15 -5 8 4 15 1 15 -5 0 -6 -7 -11 -15 -11 -8
0 -15 -7 -15 -15 0 -10 10 -15 29 -15 27 0 29 2 22 28 -7 26 -51 46 -51 23z"/>
<path d="M6874 1475 c-9 -23 3 -45 26 -45 16 0 20 7 20 30 0 23 -4 30 -20 30
-11 0 -23 -7 -26 -15z m33 -1 c-3 -3 -12 -4 -19 -1 -8 3 -5 6 6 6 11 1 17 -2
13 -5z"/>
<path d="M6984 1475 c-9 -23 3 -45 26 -45 16 0 20 7 20 30 0 23 -4 30 -20 30
-11 0 -23 -7 -26 -15z m36 -15 c0 -11 -7 -20 -15 -20 -8 0 -15 9 -15 20 0 11
7 20 15 20 8 0 15 -9 15 -20z"/>
<path d="M7050 1459 c0 -18 4 -28 10 -24 6 4 8 10 5 15 -3 5 2 16 11 24 14 15
14 16 -5 16 -17 0 -21 -6 -21 -31z"/>
<path d="M7166 1481 c-4 -5 4 -7 16 -4 l23 5 -23 -19 c-25 -21 -20 -33 13 -33
18 0 21 5 17 30 -3 21 -10 30 -23 30 -10 0 -20 -4 -23 -9z"/>
<path d="M7230 1459 c0 -28 13 -34 16 -8 1 5 2 14 3 19 2 19 17 10 28 -17 l12
-28 -2 30 c-2 25 -7 31 -29 33 -25 3 -28 0 -28 -29z"/>
<path d="M7312 1460 c0 -19 2 -27 5 -17 2 9 2 25 0 35 -3 9 -5 1 -5 -18z"/>
<path d="M7350 1480 c12 -7 12 -12 2 -22 -19 -19 -14 -28 16 -27 16 1 20 3 10
6 -22 6 -22 12 -1 35 15 17 15 18 -13 18 -22 0 -25 -3 -14 -10z"/>
<path d="M7405 1481 c-3 -6 0 -9 7 -6 9 4 14 -2 15 -15 1 -11 -3 -20 -8 -20
-6 0 -7 5 -4 10 3 6 1 10 -4 10 -6 0 -11 -7 -11 -15 0 -10 10 -15 29 -15 27 0
29 2 22 28 -8 28 -34 41 -46 23z"/>
<path d="M7522 1460 c0 -19 2 -27 5 -17 2 9 2 25 0 35 -3 9 -5 1 -5 -18z"/>
<path d="M7554 1475 c-9 -23 3 -45 25 -45 10 0 21 7 25 15 8 23 -4 45 -25 45
-11 0 -22 -7 -25 -15z m42 -6 c10 -17 -13 -36 -27 -22 -12 12 -4 33 11 33 5 0
12 -5 16 -11z"/>
<path d="M7629 1488 c-5 -21 -4 -50 3 -54 4 -3 8 7 8 21 0 33 21 29 32 -6 6
-22 7 -21 5 6 -2 23 -7 31 -24 33 -13 2 -23 2 -24 0z"/>
<path d="M4076 1447 c3 -10 9 -15 12 -12 3 3 0 11 -7 18 -10 9 -11 8 -5 -6z"/>
<path d="M4120 1445 c7 -8 16 -15 21 -15 5 0 6 7 3 15 -4 8 -13 15 -21 15 -13
0 -13 -3 -3 -15z"/>
<path d="M7133 1140 c-8 -11 -9 -21 -3 -25 5 -3 7 -12 4 -19 -3 -8 -1 -17 5
-21 7 -4 11 4 11 19 0 13 6 27 13 29 9 4 8 6 -2 6 -11 1 -11 4 -1 16 10 12 10
15 -1 15 -8 0 -20 -9 -26 -20z"/>
<path d="M6637 1143 c-13 -13 -7 -32 13 -38 11 -3 20 -11 20 -17 0 -6 -9 -8
-20 -5 -11 3 -20 1 -20 -5 0 -14 53 -5 58 9 2 7 -8 18 -22 24 -26 12 -26 35 0
25 8 -3 14 -1 14 4 0 11 -33 14 -43 3z"/>
<path d="M6940 1140 c0 -5 -11 -10 -25 -10 -22 0 -25 -4 -24 -32 1 -30 2 -31
8 -8 10 35 41 40 41 6 0 -18 5 -26 18 -25 10 0 12 3 5 6 -15 5 -17 40 -4 45 5
2 3 9 -5 16 -8 7 -14 8 -14 2z"/>
<path d="M7478 1134 c-12 -11 9 -59 28 -62 18 -4 18 -3 -1 12 -19 15 -19 17
-2 30 16 12 16 14 1 20 -19 7 -19 7 -26 0z"/>
<path d="M6708 1118 c-3 -7 -2 -22 3 -33 6 -17 8 -16 8 8 1 34 22 32 32 -4 7
-23 7 -23 8 4 1 34 22 32 33 -4 6 -22 7 -21 5 6 -2 28 -5 30 -43 33 -27 2 -43
-1 -46 -10z"/>
<path d="M6820 1121 c0 -6 7 -8 15 -5 8 4 15 1 15 -5 0 -6 -7 -11 -15 -11 -8
0 -15 -7 -15 -15 0 -10 10 -15 29 -15 27 0 29 2 22 28 -7 26 -51 46 -51 23z"/>
<path d="M7032 1100 c0 -19 2 -27 5 -17 2 9 2 25 0 35 -3 9 -5 1 -5 -18z"/>
<path d="M7061 1098 c1 -30 2 -30 8 -9 9 35 29 37 34 4 4 -27 4 -27 6 5 1 28
-2 32 -24 32 -22 0 -25 -4 -24 -32z"/>
<path d="M7181 1117 c-17 -21 -3 -49 23 -45 15 2 21 10 21 28 0 28 -26 38 -44
17z m34 -17 c0 -7 -6 -15 -12 -17 -8 -3 -13 4 -13 17 0 13 5 20 13 18 6 -3 12
-11 12 -18z"/>
<path d="M7251 1098 c1 -21 3 -26 6 -13 3 11 12 26 21 33 14 11 13 12 -6 12
-18 0 -22 -5 -21 -32z"/>
<path d="M7301 1097 c1 -29 2 -30 8 -8 10 36 31 38 32 4 1 -27 1 -27 8 -4 9
35 29 37 34 4 4 -28 4 -28 6 3 1 31 0 31 -44 32 -44 1 -45 1 -44 -31z"/>
<path d="M7410 1121 c0 -6 7 -8 15 -5 8 4 15 1 15 -5 0 -6 -7 -11 -15 -11 -8
0 -15 -7 -15 -15 0 -10 10 -15 29 -15 27 0 29 2 22 28 -7 26 -51 46 -51 23z"/>
<path d="M7532 1100 c0 -19 2 -27 5 -17 2 9 2 25 0 35 -3 9 -5 1 -5 -18z"/>
<path d="M7564 1115 c-9 -23 3 -45 25 -45 10 0 21 7 25 15 8 23 -4 45 -25 45
-11 0 -22 -7 -25 -15z m40 -3 c2 -4 1 -14 -4 -22 -7 -11 -12 -12 -21 -3 -6 6
-8 16 -5 22 8 13 23 14 30 3z"/>
<path d="M7639 1098 c5 -33 6 -33 9 -5 4 33 23 31 34 -4 6 -22 7 -21 5 6 -2
24 -7 31 -28 33 -24 3 -25 1 -20 -30z"/>
<path d="M4095 960 c-4 -13 -2 -27 5 -34 10 -8 12 -7 7 6 -3 9 -2 18 3 20 5 2
6 9 1 17 -7 11 -10 9 -16 -9z"/>
<path d="M4130 966 c0 -9 5 -16 10 -16 6 0 10 4 10 9 0 6 -4 13 -10 16 -5 3
-10 -1 -10 -9z"/>
<path d="M4158 960 c-7 -24 -3 -38 8 -28 3 4 4 17 2 30 l-3 23 -7 -25z"/>
</g>
</svg>
