<?xml version="1.0" standalone="no"?>
<!DOCTYPE svg PUBLIC "-//W3C//DTD SVG 20010904//EN"
 "http://www.w3.org/TR/2001/REC-SVG-20010904/DTD/svg10.dtd">
<svg version="1.0" xmlns="http://www.w3.org/2000/svg"
 width="1196.000000pt" height="591.000000pt" viewBox="0 0 1196.000000 591.000000"
 preserveAspectRatio="xMidYMid meet">

<g transform="translate(0.000000,591.000000) scale(0.100000,-0.100000)"
fill="#000000" stroke="none">
<path d="M0 5450 l0 -460 3304 0 3305 0 6 -44 c4 -23 5 -73 3 -109 l-3 -66 68
-17 c38 -9 71 -23 74 -31 4 -10 15 -13 37 -9 40 7 50 0 65 -47 9 -26 10 -46 2
-70 -14 -44 -17 -89 -7 -105 4 -7 25 -20 46 -28 39 -16 55 -45 41 -73 -10 -20
-25 -92 -22 -108 1 -7 -11 -15 -26 -19 -48 -10 -50 -12 -56 -43 -4 -18 -13
-31 -22 -31 -13 0 -17 -12 -14 -37 2 -13 -35 -26 -90 -31 -103 -9 -133 -7
-146 11 -7 9 -17 17 -24 17 -6 0 -11 6 -11 13 0 8 -17 26 -37 40 l-38 27 30 1
c19 1 23 3 11 6 -10 3 -38 -1 -62 -7 -42 -12 -43 -13 -38 -49 2 -23 14 -45 31
-60 27 -24 28 -27 26 -125 -2 -94 -4 -102 -28 -123 -14 -12 -25 -28 -25 -36 0
-18 117 -53 203 -62 87 -9 129 -26 158 -67 25 -34 32 -115 12 -140 -17 -21
-22 -69 -8 -74 7 -3 36 9 66 26 30 17 64 36 77 42 12 6 22 15 22 20 0 4 6 8
14 8 8 0 16 3 18 8 2 4 29 24 61 46 31 21 57 42 57 47 0 4 8 10 18 13 28 9 26
70 -4 100 -15 14 -20 26 -14 28 8 2 6 15 -6 41 -17 35 -34 49 -34 26 0 -17
-19 0 -36 33 -19 36 -28 196 -12 215 6 7 8 13 5 13 -3 0 -1 14 5 30 8 25 7 34
-7 49 -26 29 -3 54 92 100 99 49 139 48 207 -3 55 -42 68 -82 49 -152 -7 -29
-13 -57 -12 -61 5 -30 -2 -35 -37 -28 -25 4 -34 3 -29 -5 3 -6 8 -38 9 -71 2
-49 6 -62 25 -76 16 -11 22 -22 18 -39 -6 -34 7 -30 53 17 37 39 45 55 41 87
-1 6 9 27 22 45 13 17 35 53 47 80 13 26 27 47 31 47 9 0 77 99 97 140 6 14
26 65 43 115 32 91 37 178 11 194 -6 3 -14 31 -18 61 -11 87 -81 222 -128 249
-16 9 -38 24 -48 33 -17 17 1 18 392 18 226 0 410 -3 410 -7 0 -13 -47 -63
-59 -63 -20 0 -12 17 11 23 12 4 19 9 16 13 -4 3 -22 -3 -40 -14 -20 -13 -43
-19 -55 -16 -30 8 -104 -62 -136 -129 -41 -83 -80 -218 -79 -269 2 -98 89
-231 183 -279 39 -19 54 -21 178 -16 75 2 130 2 124 0 -24 -9 -13 -20 14 -15
18 3 30 -1 40 -13 7 -11 13 -14 13 -8 0 7 40 8 120 5 102 -4 120 -2 120 10 0
17 91 28 234 28 65 0 86 4 106 20 33 25 42 25 69 -4 17 -18 19 -25 9 -30 -7
-3 -4 -4 7 -1 18 4 21 0 23 -31 2 -27 12 -44 40 -69 20 -19 33 -37 29 -41 -8
-9 39 -54 57 -54 6 0 17 5 23 11 12 12 159 -6 209 -26 26 -11 32 -20 38 -56 4
-24 11 -46 16 -49 6 -4 13 -28 16 -55 3 -28 9 -52 14 -55 4 -3 11 -20 15 -39
7 -33 42 -78 52 -67 7 6 12 56 13 131 0 71 11 95 33 76 9 -7 18 -8 21 -2 3 5
0 11 -6 14 -7 2 -10 7 -6 11 3 4 20 0 37 -8 34 -18 67 -21 76 -6 3 6 -5 10
-19 10 -27 0 -51 32 -42 55 2 7 17 15 33 17 25 3 28 7 28 38 0 19 6 39 12 43
7 4 13 12 13 17 0 6 22 32 49 60 41 42 55 50 86 50 79 0 157 -86 170 -188 4
-29 9 -51 11 -49 5 5 32 144 39 198 4 32 11 53 40 124 12 29 15 95 4 95 -5 0
-9 8 -8 18 0 10 3 12 6 5 2 -7 9 -13 14 -13 7 0 8 31 3 83 -4 45 -6 91 -5 102
1 11 2 63 2 115 1 77 -3 104 -20 143 -21 45 -38 66 -24 30 6 -15 4 -16 -9 -5
-9 7 -14 21 -11 30 5 21 -46 91 -68 92 -8 0 -20 -5 -27 -12 -10 -10 -16 -8
-29 5 -16 16 37 17 925 17 l942 0 0 460 0 460 -5980 0 -5980 0 0 -460z m640
213 c0 -25 -54 -12 -58 14 -3 21 -1 22 27 12 17 -6 31 -18 31 -26z m-19 -43
c38 -12 69 -26 69 -33 0 -21 -164 15 -168 36 -5 22 15 22 99 -3z m215 -38 c6
-4 14 -17 18 -29 6 -20 4 -23 -18 -23 -14 0 -26 5 -26 10 0 6 -7 10 -15 10
-23 0 -19 -9 25 -56 43 -47 46 -55 30 -85 -8 -14 -21 -19 -55 -19 -34 0 -47 5
-55 19 -15 29 -12 41 10 41 11 0 20 -4 20 -10 0 -5 9 -10 20 -10 29 0 25 11
-20 55 -43 42 -49 64 -24 89 16 16 70 21 90 8z m94 -72 c0 -73 2 -80 20 -80
18 0 20 7 20 80 0 79 0 80 25 80 24 0 25 -2 25 -74 0 -41 -4 -86 -10 -100 -8
-23 -15 -26 -54 -26 -58 0 -66 14 -66 119 0 74 2 81 20 81 18 0 20 -7 20 -80z
m180 33 c19 -72 23 -73 40 -13 12 43 21 56 38 58 21 3 22 1 22 -97 0 -94 -1
-101 -20 -101 -14 0 -20 7 -21 23 l-2 22 -4 -22 c-7 -34 -46 -31 -60 5 l-11
27 -1 -27 c-1 -21 -6 -28 -21 -28 -19 0 -20 7 -20 100 0 99 0 100 24 100 20 0
26 -8 36 -47z m256 -38 c13 -44 23 -88 24 -97 0 -25 -36 -23 -43 2 -3 12 -14
20 -25 20 -12 0 -23 -9 -27 -20 -7 -22 -45 -28 -45 -7 0 6 7 35 15 62 9 28 20
67 26 88 8 30 14 38 31 35 16 -2 25 -19 44 -83z m165 75 c15 -8 19 -21 19 -58
0 -55 -12 -72 -52 -72 -24 0 -28 -4 -28 -30 0 -23 -4 -30 -20 -30 -19 0 -20 7
-20 100 l0 100 41 0 c22 0 49 -5 60 -10z m163 -6 c20 -19 23 -153 4 -172 -7
-7 -28 -12 -48 -12 -52 0 -60 13 -60 102 0 63 3 79 18 87 26 15 69 13 86 -5z
m160 0 c22 -22 20 -44 -4 -44 -11 0 -20 5 -20 10 0 6 -9 10 -20 10 -29 0 -25
-11 20 -55 43 -42 49 -64 24 -89 -33 -34 -115 -10 -100 29 6 17 36 21 36 5 0
-5 9 -10 20 -10 27 0 26 4 -20 51 -43 45 -51 81 -22 98 26 15 69 13 86 -5z
m-1201 -15 c22 -6 36 -15 34 -22 -3 -7 -11 -10 -18 -9 -18 5 -69 8 -146 10
-57 2 -63 4 -63 23 0 21 3 22 78 15 42 -3 94 -11 115 -17z m3685 -5 c33 -9 27
-24 -7 -18 -23 5 -32 2 -40 -14 -15 -28 -14 -38 5 -56 10 -11 24 -14 41 -10
18 5 24 3 19 -5 -12 -19 -74 -13 -86 8 -16 30 -12 59 10 81 22 22 25 23 58 14z
m77 -34 c12 0 26 -7 29 -16 9 -25 7 -64 -4 -64 -5 0 -10 14 -10 30 0 23 -4 30
-20 30 -16 0 -20 -7 -20 -30 0 -16 -4 -30 -10 -30 -12 0 -14 103 -2 114 4 4 8
-2 10 -13 2 -14 11 -21 27 -21z m1269 34 c25 -10 19 -23 -10 -21 -39 3 -40
-19 -2 -34 18 -7 36 -14 39 -16 4 -2 9 6 12 17 8 31 61 24 65 -7 3 -19 -1 -23
-23 -23 -16 0 -24 -4 -20 -10 4 -6 15 -8 26 -5 11 4 19 2 19 -4 0 -17 -58 -13
-68 5 -8 14 -10 14 -21 0 -15 -18 -81 -22 -81 -5 0 6 9 8 20 4 11 -3 28 -2 37
4 16 8 13 12 -19 26 -42 17 -51 47 -20 64 20 12 25 13 46 5z m910 0 c28 -11
17 -24 -14 -18 -26 6 -30 3 -36 -21 -9 -37 7 -60 40 -58 14 1 26 -2 26 -8 0
-13 -64 -11 -78 3 -21 21 -15 75 10 92 25 18 30 19 52 10z m1076 -60 l0 -55
-37 3 c-36 3 -38 5 -38 38 0 31 3 35 28 38 19 2 27 9 27 23 0 11 5 17 10 14 6
-3 10 -31 10 -61z m704 53 c27 -20 16 -50 -22 -62 -21 -6 -32 -15 -32 -27 0
-10 -4 -18 -10 -18 -5 0 -10 24 -10 54 0 49 2 55 23 59 12 2 25 5 28 6 3 0 13
-5 23 -12z m46 -48 c0 -27 5 -49 10 -49 6 0 10 7 10 15 0 8 11 17 25 21 14 3
22 10 20 15 -3 4 -12 6 -20 2 -8 -3 -15 0 -15 7 0 6 11 10 28 8 23 -3 27 -8
30 -40 l3 -37 -55 0 -56 1 0 60 c0 37 4 57 10 53 6 -3 10 -28 10 -56z m570 1
l0 -60 -35 0 c-29 0 -36 4 -41 25 -7 29 10 55 37 55 12 0 19 7 19 20 0 11 5
20 10 20 6 0 10 -27 10 -60z m871 44 c11 -13 9 -14 -14 -9 -33 9 -57 -9 -57
-41 0 -51 74 -54 84 -3 4 22 11 29 30 29 32 0 50 -24 42 -55 -6 -23 -11 -25
-59 -25 -28 0 -61 0 -72 0 -43 -2 -60 65 -25 100 24 24 53 26 71 4z m849 1
c11 -13 8 -14 -18 -9 -24 5 -32 2 -41 -14 -15 -28 -14 -38 5 -56 10 -11 24
-14 41 -10 18 5 24 3 19 -5 -10 -16 -62 -14 -80 5 -22 21 -20 60 4 84 24 24
53 26 70 5z m-5730 -5 c0 -5 -2 -10 -4 -10 -3 0 -8 5 -11 10 -3 6 -1 10 4 10
6 0 11 -4 11 -10z m170 0 c0 -5 -2 -10 -4 -10 -3 0 -8 5 -11 10 -3 6 -1 10 4
10 6 0 11 -4 11 -10z m820 6 c0 -3 -4 -8 -10 -11 -5 -3 -10 -1 -10 4 0 6 5 11
10 11 6 0 10 -2 10 -4z m3250 0 c0 -3 -4 -8 -10 -11 -5 -3 -10 -1 -10 4 0 6 5
11 10 11 6 0 10 -2 10 -4z m-4424 -21 c9 -8 11 -15 5 -15 -6 0 -11 -13 -11
-30 0 -21 5 -30 16 -30 11 0 14 5 10 16 -3 8 -1 24 5 35 15 29 63 22 67 -8 3
-19 -1 -23 -23 -23 -16 0 -24 -4 -20 -10 4 -6 15 -8 26 -5 11 4 19 2 19 -4 0
-11 -24 -16 -45 -11 -5 2 -25 2 -42 1 -31 -2 -33 0 -33 32 0 32 -2 33 -31 29
-24 -4 -29 -9 -27 -26 2 -13 10 -20 21 -20 9 1 17 -2 17 -7 0 -5 -11 -9 -25
-9 -30 0 -46 27 -34 58 6 17 16 22 44 22 19 0 35 5 35 10 0 14 9 12 26 -5z
m310 0 c9 -8 11 -15 5 -15 -6 0 -11 -13 -11 -30 0 -20 5 -30 15 -30 10 0 15
11 15 35 0 19 5 35 10 35 6 0 10 -18 10 -40 0 -39 -1 -40 -34 -40 -32 0 -35 3
-38 31 -2 26 -8 32 -30 35 -32 3 -38 -12 -8 -21 11 -3 20 -15 20 -26 0 -14 -7
-19 -30 -19 -16 0 -30 4 -30 9 0 5 9 7 20 4 11 -3 20 -1 20 5 0 5 -9 12 -21
15 -36 10 -20 42 24 45 20 2 37 7 37 13 0 13 9 11 26 -6z m1720 0 c9 -8 11
-15 5 -15 -15 0 -14 -57 2 -63 6 -3 2 -6 -10 -6 -14 -1 -24 5 -24 14 -1 8 -3
20 -4 25 -1 6 -3 14 -4 18 0 4 -13 7 -28 6 -41 -3 -41 -3 -10 -20 16 -8 26
-21 24 -27 -5 -15 -67 -22 -67 -7 0 6 10 8 25 4 31 -8 33 8 3 21 -38 17 -29
40 17 41 21 1 41 6 43 13 5 15 10 14 28 -4z m3260 1 c9 -9 10 -17 4 -21 -14
-9 -12 -52 3 -58 6 -3 2 -6 -10 -6 -19 -1 -23 4 -23 28 0 17 -4 33 -10 36 -6
4 -5 11 3 20 15 18 16 18 33 1z m204 4 c0 -5 8 -10 18 -10 16 -1 16 -1 0 -11
-10 -5 -18 -19 -18 -29 0 -10 8 -24 18 -30 15 -9 14 -10 -8 -8 -19 2 -26 10
-30 33 -3 19 -11 29 -20 29 -8 -1 -21 -2 -28 -3 -8 -1 -12 -10 -10 -23 2 -17
9 -22 26 -21 12 2 22 -2 22 -7 0 -6 -13 -10 -30 -10 -23 0 -31 5 -36 25 -8 33
11 55 47 55 16 0 29 5 29 10 0 6 5 10 10 10 6 0 10 -4 10 -10z m632 -2 c2 -6
21 -11 45 -10 48 2 68 -16 59 -54 -6 -22 -12 -25 -39 -23 -18 2 -37 0 -43 -4
-27 -16 -50 31 -45 91 1 15 18 16 23 0z m-6394 -51 c3 -38 3 -38 -30 -35 -42
4 -51 34 -14 44 14 3 23 10 21 15 -3 4 -12 6 -20 2 -8 -3 -15 0 -15 7 0 6 11
10 28 8 23 -3 27 -8 30 -41z m60 29 c-10 -7 -18 -25 -18 -40 0 -14 -4 -26 -10
-26 -5 0 -10 18 -10 40 0 37 2 40 28 40 24 -1 25 -2 10 -14z m80 -29 c3 -38 3
-38 -30 -35 -42 4 -51 34 -14 44 14 3 23 10 21 15 -3 4 -12 6 -20 2 -8 -3 -15
0 -15 7 0 6 11 10 28 8 23 -3 27 -8 30 -41z m312 3 c0 -22 -4 -40 -10 -40 -5
0 -10 16 -10 35 0 19 -4 35 -8 35 -15 0 -32 -24 -32 -47 0 -13 -4 -23 -10 -23
-5 0 -10 18 -10 40 l0 40 40 0 40 0 0 -40z m250 30 c0 -6 -8 -10 -17 -8 -13 2
-18 -4 -18 -22 0 -18 5 -25 18 -24 9 1 17 -2 17 -7 0 -5 -11 -9 -25 -9 -31 0
-50 32 -35 60 11 21 60 29 60 10z m76 -2 c5 -8 0 -9 -14 -6 -31 9 -36 -7 -7
-20 29 -13 32 -27 9 -40 -19 -11 -54 -4 -54 9 0 5 11 7 25 3 15 -4 25 -2 25 5
0 6 -6 11 -14 11 -18 0 -39 27 -31 40 8 14 52 13 61 -2z m544 3 c0 -5 -7 -11
-15 -15 -8 -3 -15 -17 -15 -31 0 -14 -4 -25 -10 -25 -11 0 -14 63 -3 73 10 10
43 8 43 -2z m35 -11 c3 -11 10 -20 15 -20 5 0 12 9 15 20 6 18 25 29 25 15 0
-17 -31 -75 -39 -75 -9 0 -41 61 -41 76 0 13 20 0 25 -16z m85 -20 c0 -22 -4
-40 -10 -40 -5 0 -10 18 -10 40 0 22 5 40 10 40 6 0 10 -18 10 -40z m75 30 c4
-6 -5 -10 -20 -10 -22 0 -26 -4 -23 -22 2 -17 9 -22 26 -21 12 2 22 -2 22 -7
0 -6 -13 -10 -30 -10 -23 0 -31 5 -36 25 -4 15 -1 32 6 40 14 17 46 20 55 5z
m83 -17 c3 -20 -1 -23 -28 -23 -20 0 -29 -4 -24 -11 3 -6 17 -8 30 -5 14 4 24
2 24 -4 0 -16 -56 -12 -70 5 -10 12 -10 21 -1 41 15 33 64 31 69 -3z m72 16
c0 -6 -7 -9 -15 -6 -26 11 -25 -10 1 -22 14 -6 24 -17 22 -24 -6 -16 -68 -22
-68 -7 0 7 8 9 19 5 11 -3 22 -1 26 5 3 5 -3 10 -14 10 -23 0 -35 15 -27 35 6
17 56 20 56 4z m450 -25 c0 -45 24 -42 28 4 5 46 22 39 22 -9 0 -39 -1 -40
-32 -37 -30 3 -33 6 -36 41 -2 21 1 37 7 37 6 0 11 -16 11 -36z m265 -4 c0
-30 -4 -35 -26 -38 -36 -4 -55 21 -40 54 9 20 17 25 39 22 24 -3 27 -7 27 -38z
m137 26 c11 -16 10 -66 -2 -66 -5 0 -10 14 -10 30 0 20 -5 30 -15 30 -10 0
-15 -10 -15 -30 0 -40 -18 -38 -22 3 -2 17 -7 32 -13 32 -5 0 -11 -15 -13 -32
-5 -47 -22 -41 -22 7 l0 40 53 -1 c28 -1 55 -7 59 -13z m87 -5 c12 -22 5 -31
-26 -31 -14 0 -22 -4 -18 -10 4 -6 15 -8 26 -5 11 4 19 2 19 -5 0 -7 -13 -10
-32 -8 -26 2 -34 8 -36 26 -7 46 47 72 67 33z m137 7 c5 -7 0 -9 -14 -6 -32 9
-36 -7 -6 -21 14 -6 24 -17 22 -24 -6 -15 -68 -22 -68 -7 0 6 10 8 25 4 15 -4
25 -2 25 5 0 6 -7 11 -15 11 -8 0 -20 9 -27 19 -16 26 -38 15 -38 -20 0 -16
-4 -29 -10 -29 -5 0 -10 18 -10 39 l0 40 55 0 c30 0 58 -5 61 -11z m474 -3
c16 -19 4 -35 -26 -35 -16 0 -23 -4 -18 -11 3 -6 17 -8 31 -4 16 4 22 2 18 -5
-3 -5 -19 -10 -35 -10 -23 0 -31 5 -36 25 -11 45 37 75 66 40z m138 -27 c2
-22 -1 -38 -7 -38 -6 0 -11 14 -11 30 0 20 -5 30 -15 30 -10 0 -15 -10 -15
-30 0 -16 -4 -30 -10 -30 -5 0 -10 14 -10 30 0 20 -5 30 -15 30 -10 0 -15 -10
-15 -30 0 -16 -4 -30 -10 -30 -5 0 -10 18 -10 40 l0 40 58 -2 57 -3 3 -37z
m87 2 c0 -29 -4 -36 -23 -38 -43 -6 -69 37 -40 66 7 7 24 12 38 10 21 -3 25
-8 25 -38z m625 0 c0 -48 -17 -54 -22 -7 -2 17 -7 32 -13 32 -5 0 -11 -15 -13
-32 -5 -47 -22 -41 -22 7 0 39 1 40 35 40 34 0 35 -1 35 -40z m80 29 c0 -6 -9
-8 -20 -4 -11 3 -20 2 -20 -4 0 -5 9 -13 20 -16 11 -3 20 -15 20 -26 0 -14 -7
-19 -30 -19 -16 0 -30 4 -30 9 0 5 9 7 20 4 11 -3 20 0 20 6 0 6 -6 11 -14 11
-19 0 -29 17 -22 35 6 17 56 21 56 4z m124 -5 c3 -9 6 -27 6 -40 0 -21 -5 -24
-36 -24 -31 0 -35 3 -32 23 2 14 11 23 26 25 12 2 20 7 17 12 -3 4 -14 6 -25
3 -11 -3 -20 0 -20 6 0 17 57 13 64 -5z m94 -26 c2 -22 -1 -38 -7 -38 -6 0
-11 14 -11 31 0 24 -4 30 -17 27 -11 -2 -19 -14 -21 -31 -5 -38 -22 -34 -22 6
0 42 7 49 45 45 27 -3 30 -7 33 -40z m222 28 c20 -26 8 -61 -22 -64 -16 -2
-28 -9 -28 -18 0 -8 -4 -14 -10 -14 -5 0 -10 25 -10 55 0 54 1 55 29 55 16 0
34 -7 41 -14z m57 -4 c-10 -10 -17 -28 -17 -40 0 -12 -4 -22 -10 -22 -5 0 -10
18 -10 40 0 37 2 40 27 40 25 0 25 -1 10 -18z m43 -22 c0 -22 -4 -40 -10 -40
-5 0 -10 18 -10 40 0 22 5 40 10 40 6 0 10 -18 10 -40z m80 29 c0 -6 -6 -9
-14 -6 -19 8 -38 -16 -30 -38 4 -10 14 -15 25 -12 11 3 19 1 19 -4 0 -5 -11
-9 -25 -9 -32 0 -55 41 -35 65 14 17 60 20 60 4z m78 -16 c3 -19 -1 -23 -22
-23 -14 0 -26 -5 -26 -11 0 -7 10 -9 25 -5 14 4 25 2 25 -4 0 -5 -13 -10 -30
-10 -37 0 -56 30 -40 61 16 28 64 23 68 -8z m78 15 c5 -8 0 -9 -14 -6 -32 9
-36 -7 -6 -21 14 -6 24 -17 22 -24 -6 -15 -68 -22 -68 -7 0 6 10 8 25 4 14 -3
25 -2 25 4 0 5 -11 13 -25 16 -24 6 -33 25 -18 39 11 11 51 8 59 -5z m578 -4
c9 -25 7 -64 -4 -64 -5 0 -10 13 -10 28 0 34 -7 43 -26 35 -8 -3 -14 -18 -14
-34 0 -16 -4 -29 -10 -29 -5 0 -10 18 -10 40 0 39 1 40 34 40 22 0 36 -6 40
-16z m140 0 c3 -9 6 -27 6 -40 0 -21 -5 -24 -36 -24 -31 0 -35 3 -32 22 2 14
13 25 28 29 25 7 25 7 -3 8 -16 1 -26 5 -22 11 10 16 52 12 59 -6z m576 -20
c0 -45 24 -42 28 4 5 46 22 39 22 -9 0 -39 -1 -40 -32 -37 -30 3 -33 6 -36 41
-2 21 1 37 7 37 6 0 11 -16 11 -36z m130 25 c0 -6 -9 -8 -20 -4 -11 3 -20 2
-20 -4 0 -5 9 -13 20 -16 11 -3 20 -15 20 -26 0 -14 -7 -19 -30 -19 -16 0 -30
4 -30 9 0 5 9 7 20 4 11 -3 20 0 20 6 0 6 -6 11 -14 11 -19 0 -29 17 -22 35 6
17 56 21 56 4z m278 -31 c2 -21 -1 -38 -7 -38 -5 0 -11 15 -13 33 -2 17 -7 32
-13 32 -5 0 -11 -15 -13 -32 -4 -41 -22 -43 -22 -3 0 20 -5 30 -15 30 -10 0
-15 -10 -15 -30 0 -16 -4 -30 -10 -30 -5 0 -10 18 -10 40 l0 40 58 -2 57 -3 3
-37z m90 15 c3 -20 -1 -23 -28 -23 -20 0 -29 -4 -24 -11 3 -6 17 -8 30 -5 13
4 24 2 24 -3 0 -18 -41 -19 -62 -1 -20 16 -21 21 -10 44 16 35 65 34 70 -1z
m50 13 c-10 -7 -18 -25 -18 -40 0 -14 -4 -26 -10 -26 -5 0 -10 18 -10 40 0 37
2 40 28 40 24 -1 25 -2 10 -14z m126 -2 c3 -9 6 -27 6 -40 0 -21 -5 -24 -36
-24 -31 0 -35 3 -32 23 2 14 11 23 26 25 12 2 20 7 17 12 -3 4 -14 6 -25 3
-11 -3 -20 0 -20 6 0 17 57 13 64 -5z m81 5 c4 -6 1 -10 -6 -8 -31 4 -40 -2
-37 -23 2 -17 9 -22 26 -21 12 2 22 -2 22 -7 0 -6 -13 -10 -30 -10 -23 0 -31
5 -36 25 -4 15 -1 32 6 40 14 17 46 20 55 4z m75 0 c0 -6 -6 -9 -14 -6 -19 8
-38 -16 -30 -38 4 -10 14 -15 25 -12 11 3 19 1 19 -4 0 -5 -11 -9 -25 -9 -31
0 -50 32 -35 60 11 21 60 28 60 9z m78 -16 c3 -19 -1 -23 -22 -23 -14 0 -26
-5 -26 -11 0 -7 10 -9 25 -5 14 4 25 2 25 -3 0 -11 -30 -19 -48 -14 -22 8 -34
41 -22 64 16 28 64 23 68 -8z m78 15 c5 -8 0 -9 -14 -6 -32 9 -36 -7 -6 -21
14 -6 24 -17 22 -24 -6 -15 -68 -22 -68 -7 0 6 10 8 25 4 15 -4 25 -2 25 5 0
6 -6 11 -14 11 -18 0 -39 27 -31 40 8 14 52 13 61 -2z m74 1 c0 -6 -7 -9 -15
-6 -26 11 -25 -10 1 -22 14 -6 24 -17 22 -24 -6 -16 -68 -22 -68 -7 0 7 8 9
19 5 11 -3 22 -1 26 5 3 5 -3 10 -14 10 -23 0 -35 15 -27 35 6 17 56 20 56 4z
m-11130 -14 c0 -11 -13 -15 -52 -15 -29 0 -63 -3 -75 -6 -19 -5 -23 -2 -23 15
0 20 5 21 75 21 60 0 75 -3 75 -15z m-52 -52 c-4 -23 -48 -31 -48 -9 0 13 14
21 43 25 5 0 7 -7 5 -16z m2 -62 c0 -12 -9 -20 -25 -23 -19 -4 -25 -1 -25 13
0 15 12 23 43 28 4 0 7 -7 7 -18z m820 -64 c-10 -9 -11 -9 -6 0 3 6 2 14 -4
18 -5 3 -10 11 -10 16 0 6 7 3 16 -6 14 -13 14 -19 4 -28z m113 30 c3 -8 1
-20 -4 -28 -6 -10 -9 -7 -9 14 0 29 5 35 13 14z m54 -19 c-3 -7 -5 -2 -5 12 0
14 2 19 5 13 2 -7 2 -19 0 -25z m143 1 c0 -3 -7 -6 -15 -6 -17 0 -17 0 -9 22
5 13 8 14 15 3 5 -7 9 -16 9 -19z m90 5 c-1 -4 4 -11 12 -16 10 -8 10 -9 -2
-5 -8 2 -16 14 -17 28 -1 13 0 18 3 12 3 -7 5 -15 4 -19z m-156 -1 c4 -10 2
-13 -8 -10 -8 3 -16 1 -19 -6 -2 -6 -6 -2 -9 9 -6 24 27 31 36 7z m120 2 c-4
-8 -11 -12 -16 -9 -6 4 -5 10 3 15 19 12 19 11 13 -6z m-313 -12 c13 -16 12
-17 -3 -4 -10 7 -18 15 -18 17 0 8 8 3 21 -13z m8569 -346 c0 -20 37 -51 42
-36 4 13 58 -27 58 -44 0 -5 16 -27 35 -48 19 -22 35 -44 35 -50 0 -12 -9 -3
-70 70 -24 29 -46 49 -48 42 -3 -10 56 -92 84 -117 7 -5 15 -23 19 -40 l6 -29
-16 28 c-9 15 -20 25 -25 22 -6 -4 -10 1 -10 9 0 9 -4 16 -9 16 -5 0 -13 10
-17 22 -3 12 -31 54 -61 95 -36 49 -49 73 -38 73 8 0 15 -6 15 -13z m94 -23
c3 -8 2 -12 -4 -9 -6 3 -10 10 -10 16 0 14 7 11 14 -7z m-126 -12 c6 -18 -15
-14 -22 4 -4 10 -1 14 6 12 6 -2 14 -10 16 -16z m161 -36 c7 -8 8 -17 3 -20
-6 -3 -12 3 -15 14 -6 24 -4 25 12 6z m-111 -31 c-3 -3 -9 2 -12 12 -6 14 -5
15 5 6 7 -7 10 -15 7 -18z m57 -85 c3 -5 1 -10 -4 -10 -6 0 -11 5 -11 10 0 6
2 10 4 10 3 0 8 -4 11 -10z m97 -532 c-8 -8 -9 -4 -5 13 4 13 8 18 11 10 2 -7
-1 -18 -6 -23z m-1219 5 c-13 -2 -33 -2 -45 0 -13 2 -3 4 22 4 25 0 35 -2 23
-4z"/>
<path d="M1470 5520 c0 -23 4 -30 20 -30 16 0 20 7 20 30 0 23 -4 30 -20 30
-16 0 -20 -7 -20 -30z"/>
<path d="M1630 5490 c0 -53 2 -60 20 -60 18 0 20 7 20 60 0 53 -2 60 -20 60
-18 0 -20 -7 -20 -60z"/>
<path d="M5745 5500 c-3 -5 1 -10 10 -10 9 0 13 5 10 10 -3 6 -8 10 -10 10 -2
0 -7 -4 -10 -10z"/>
<path d="M7614 5495 c-8 -21 3 -47 19 -43 6 3 13 14 15 25 4 24 -26 40 -34 18z"/>
<path d="M8320 5520 c0 -16 5 -21 23 -18 12 2 22 10 22 18 0 8 -10 16 -22 18
-18 3 -23 -2 -23 -18z"/>
<path d="M8460 5460 c0 -5 4 -10 9 -10 6 0 13 5 16 10 3 6 -1 10 -9 10 -9 0
-16 -4 -16 -10z"/>
<path d="M8932 5478 c2 -13 10 -23 18 -23 8 0 16 10 18 23 3 17 -2 22 -18 22
-16 0 -21 -5 -18 -22z"/>
<path d="M9892 5478 c2 -13 10 -23 18 -23 8 0 16 10 18 23 3 17 -2 22 -18 22
-16 0 -21 -5 -18 -22z"/>
<path d="M4845 5500 c-3 -5 1 -10 10 -10 9 0 13 5 10 10 -3 6 -8 10 -10 10 -2
0 -7 -4 -10 -10z"/>
<path d="M10924 5495 c-8 -19 2 -45 16 -45 5 0 10 14 10 30 0 31 -16 41 -26
15z"/>
<path d="M10974 5495 c-8 -21 3 -47 19 -43 6 3 13 14 15 25 4 24 -26 40 -34
18z"/>
<path d="M4480 5460 c0 -5 7 -10 15 -10 8 0 15 5 15 10 0 6 -7 10 -15 10 -8 0
-15 -4 -15 -10z"/>
<path d="M4620 5460 c0 -5 7 -10 15 -10 8 0 15 5 15 10 0 6 -7 10 -15 10 -8 0
-15 -4 -15 -10z"/>
<path d="M6085 5500 c-3 -5 1 -10 10 -10 9 0 13 5 10 10 -3 6 -8 10 -10 10 -2
0 -7 -4 -10 -10z"/>
<path d="M6866 5491 c-9 -14 5 -42 18 -38 18 6 20 47 2 47 -8 0 -17 -4 -20 -9z"/>
<path d="M7095 5500 c-3 -5 3 -10 15 -10 12 0 18 5 15 10 -3 6 -10 10 -15 10
-5 0 -12 -4 -15 -10z"/>
<path d="M7705 5500 c-3 -5 3 -10 15 -10 12 0 18 5 15 10 -3 6 -10 10 -15 10
-5 0 -12 -4 -15 -10z"/>
<path d="M7931 5497 c-13 -17 -4 -50 13 -44 15 5 20 37 9 48 -6 6 -14 4 -22
-4z"/>
<path d="M8760 5460 c0 -5 4 -10 9 -10 6 0 13 5 16 10 3 6 -1 10 -9 10 -9 0
-16 -4 -16 -10z"/>
<path d="M9072 5478 c2 -13 10 -23 18 -23 8 0 16 10 18 23 3 17 -2 22 -18 22
-16 0 -21 -5 -18 -22z"/>
<path d="M9335 5500 c-3 -5 1 -10 10 -10 9 0 13 5 10 10 -3 6 -8 10 -10 10 -2
0 -7 -4 -10 -10z"/>
<path d="M10130 5460 c0 -5 4 -10 9 -10 6 0 13 5 16 10 3 6 -1 10 -9 10 -9 0
-16 -4 -16 -10z"/>
<path d="M11205 5500 c-3 -5 1 -10 10 -10 9 0 13 5 10 10 -3 6 -8 10 -10 10
-2 0 -7 -4 -10 -10z"/>
<path d="M11380 5460 c0 -5 4 -10 9 -10 6 0 13 5 16 10 3 6 -1 10 -9 10 -9 0
-16 -4 -16 -10z"/>
<path d="M11615 5500 c-3 -5 1 -10 10 -10 9 0 13 5 10 10 -3 6 -8 10 -10 10
-2 0 -7 -4 -10 -10z"/>
<path d="M6515 4543 c-4 -21 -9 -45 -11 -54 -9 -32 38 -31 108 1 25 12 26 14
10 26 -16 13 -16 13 1 14 24 0 21 20 -4 20 -11 0 -27 7 -35 15 -9 8 -26 15
-39 15 -20 0 -25 -6 -30 -37z"/>
<path d="M528 4326 c-34 -36 -20 -48 63 -52 65 -3 88 11 70 44 -16 30 -108 35
-133 8z"/>
<path d="M221 4327 c-12 -15 -11 -17 3 -17 27 0 17 -24 -24 -55 -21 -16 -39
-38 -40 -48 0 -10 -6 -28 -14 -40 -22 -36 -42 -574 -22 -594 13 -14 81 -2 130
24 28 14 58 26 66 27 22 2 80 30 80 38 0 5 8 8 18 8 9 1 29 11 43 23 24 20 25
27 20 76 -3 30 -11 56 -17 58 -11 4 -34 -38 -34 -62 0 -8 -5 -15 -11 -15 -7 0
-9 -10 -5 -24 6 -25 -9 -46 -17 -24 -3 10 -8 10 -21 -1 -9 -8 -15 -20 -12 -26
3 -8 -6 -12 -24 -11 -16 1 -26 6 -23 12 2 6 -10 25 -26 42 l-31 30 0 121 c0
101 2 121 15 121 11 0 15 11 15 40 0 29 4 40 15 40 11 0 15 11 15 40 0 22 -4
40 -10 40 -5 0 -10 18 -10 40 0 29 -4 40 -15 40 -11 0 -15 11 -15 40 0 28 -4
40 -14 40 -8 0 -16 7 -18 17 -3 15 -4 15 -17 0z"/>
<path d="M8835 4220 c28 -12 45 -12 45 0 0 6 -15 10 -32 9 -28 0 -30 -2 -13
-9z"/>
<path d="M7109 4158 c-14 -20 -14 -23 3 -40 23 -23 24 -23 44 7 13 20 14 28 4
40 -17 20 -32 18 -51 -7z"/>
<path d="M10097 4024 c-3 -11 0 -41 8 -69 l14 -50 0 55 c1 60 -12 97 -22 64z"/>
<path d="M6423 3950 c0 -25 2 -35 4 -22 2 12 2 32 0 45 -2 12 -4 2 -4 -23z"/>
<path d="M9878 3965 c0 -17 -1 -38 0 -47 1 -10 -5 -18 -13 -18 -11 0 -13 -7
-7 -32 8 -39 7 -110 -3 -155 -8 -36 -7 -37 28 -24 16 6 26 20 30 41 5 21 16
35 34 43 67 29 83 47 83 93 0 41 -11 58 -37 59 -7 0 -14 5 -14 10 -3 16 -32
34 -54 35 -12 0 -26 5 -33 12 -9 9 -12 5 -14 -17z"/>
<path d="M422 3961 c-10 -6 -10 -13 2 -37 8 -16 17 -37 20 -46 9 -31 66 -16
66 17 0 13 -56 75 -67 75 -4 0 -14 -4 -21 -9z"/>
<path d="M10163 3881 c-6 -32 -17 -73 -26 -92 -31 -72 -38 -97 -32 -122 4 -14
13 -28 21 -31 8 -3 14 -15 14 -27 0 -23 44 -71 55 -60 4 3 3 -27 0 -66 l-8
-73 61 0 60 0 11 63 c15 87 14 102 -9 147 -21 42 -71 75 -97 66 -11 -5 -13 -2
-9 10 3 9 -3 32 -15 51 -19 31 -21 44 -15 114 3 43 5 79 4 79 -2 0 -8 -26 -15
-59z m18 -174 c-8 -8 -11 -7 -11 4 0 7 -3 25 -6 39 -5 24 -4 24 11 -4 12 -20
14 -31 6 -39z"/>
<path d="M8194 3797 c3 -10 6 -25 6 -32 0 -7 14 -26 31 -42 18 -15 61 -56 97
-90 44 -42 73 -63 90 -63 17 0 22 -4 19 -14 -7 -17 40 -29 48 -12 3 6 3 1 1
-11 -2 -15 0 -20 9 -16 8 3 15 -5 18 -19 3 -19 5 -18 6 7 1 44 -27 80 -108
135 -39 28 -74 50 -77 50 -11 0 -88 62 -118 94 -18 19 -26 24 -22 13z"/>
<path d="M10076 3795 c-9 -26 -7 -32 5 -12 6 10 9 21 6 23 -2 3 -7 -2 -11 -11z"/>
<path d="M8905 3746 c-22 -6 -56 -18 -75 -28 -19 -9 -57 -19 -85 -23 -27 -4
-54 -11 -60 -15 -5 -5 -26 -12 -45 -17 -20 -5 -36 -17 -38 -26 -5 -25 46 -68
77 -65 22 3 27 -2 29 -25 2 -15 8 -25 13 -21 6 3 7 -5 3 -21 -7 -27 -6 -27 34
-20 29 5 49 2 72 -10 47 -24 127 -43 142 -34 7 5 28 9 46 9 17 0 48 9 68 19
l35 19 -28 10 -28 10 33 1 c17 1 40 9 51 20 10 10 27 24 37 30 15 10 16 13 5
18 -10 4 -4 11 19 22 18 9 32 21 31 26 -1 12 -210 19 -254 8 -18 -5 -52 -6
-77 -3 l-45 5 58 18 c32 10 62 15 67 12 6 -3 10 -2 10 4 0 14 34 31 83 41 l42
8 -42 1 c-24 1 -43 5 -43 9 0 13 -47 32 -73 31 -12 -1 -40 -7 -62 -13z m162
-122 c-3 -3 -12 -4 -19 -1 -8 3 -5 6 6 6 11 1 17 -2 13 -5z m46 -77 c-20 -35
-162 -63 -179 -35 -5 8 -2 9 9 5 10 -4 17 -1 17 6 0 8 4 6 10 -3 6 -9 10 -11
10 -3 0 7 7 10 15 7 10 -4 15 0 15 11 0 9 4 14 10 10 5 -3 7 -13 4 -23 -2 -9
1 -7 7 6 7 13 21 22 35 22 15 0 25 8 30 23 7 21 7 21 14 2 4 -11 6 -23 3 -28z
m27 23 c0 -5 -4 -10 -10 -10 -5 0 -10 5 -10 10 0 6 5 10 10 10 6 0 10 -4 10
-10z"/>
<path d="M10045 3750 c-3 -5 -1 -10 4 -10 6 0 11 5 11 10 0 6 -2 10 -4 10 -3
0 -8 -4 -11 -10z"/>
<path d="M9058 3743 c6 -2 18 -2 25 0 6 3 1 5 -13 5 -14 0 -19 -2 -12 -5z"/>
<path d="M9025 3670 c3 -5 8 -10 11 -10 2 0 4 5 4 10 0 6 -5 10 -11 10 -5 0
-7 -4 -4 -10z"/>
<path d="M9841 3593 c-1 -12 4 -25 9 -28 12 -7 12 2 0 30 -8 19 -9 19 -9 -2z"/>
<path d="M9726 3473 c-11 -11 -6 -23 9 -23 8 0 15 4 15 9 0 13 -16 22 -24 14z"/>
<path d="M90 3395 c-35 -18 -41 -25 -28 -30 16 -6 16 -8 0 -26 -24 -25 -28
-85 -7 -93 35 -13 149 132 130 164 -10 16 -47 10 -95 -15z"/>
<path d="M6383 3233 c-10 -4 -13 -276 -13 -1314 l0 -1309 2308 0 2308 0 -3
1313 -4 1312 -2292 2 c-1261 1 -2298 -1 -2304 -4z m4238 -216 l-24 -22 19 27
c10 14 21 24 23 22 3 -3 -6 -15 -18 -27z m-1162 0 c0 -9 -2 -8 -6 1 -2 6 -10
9 -15 6 -7 -4 -8 -2 -4 5 9 13 26 5 25 -12z m-442 -19 c2 -18 0 -20 -7 -8 -12
18 -13 30 -2 30 4 0 9 -10 9 -22z m1165 -15 c-5 -24 -6 -25 -12 -8 -6 16 2 33
16 35 1 0 -1 -12 -4 -27z m-746 8 c15 12 54 3 54 -12 0 -6 -6 -7 -12 -2 -19
11 -37 12 -44 2 -8 -14 -21 -11 -29 9 -5 13 -4 14 6 5 9 -9 16 -9 25 -2z
m-1096 -46 c0 -8 -4 -15 -10 -15 -5 0 -7 7 -4 15 4 8 8 15 10 15 2 0 4 -7 4
-15z m-103 -11 c-3 -3 -12 -4 -19 -1 -8 3 -5 6 6 6 11 1 17 -2 13 -5z m1560
-260 c-3 -3 -12 -4 -19 -1 -8 3 -5 6 6 6 11 1 17 -2 13 -5z m-1259 -52 c2 -7
-1 -12 -8 -12 -6 0 -8 5 -5 10 3 6 1 10 -4 10 -6 0 -11 -10 -12 -22 0 -22 -1
-22 -8 -3 -5 12 -4 23 3 27 14 10 29 5 34 -10z m57 10 c6 -4 11 -15 12 -26 1
-13 -2 -15 -10 -7 -7 7 -14 7 -24 0 -10 -9 -13 -6 -13 15 0 25 15 33 35 18z
m79 2 c19 -7 21 -30 4 -40 -7 -5 -8 -3 -3 6 5 8 1 18 -10 27 -20 14 -16 17 9
7z m72 -20 c15 21 18 18 8 -8 -12 -32 -45 -11 -43 27 0 7 5 1 10 -13 10 -24
11 -24 25 -6z m57 20 c-8 -4 -9 -13 -3 -29 7 -19 6 -23 -5 -18 -25 9 -17 54 9
52 7 0 6 -3 -1 -5z m52 -23 c0 -16 -3 -27 -7 -24 -10 5 -10 37 -1 46 9 10 9
10 8 -22z m972 -23 c-2 -13 -4 -5 -4 17 -1 22 1 32 4 23 2 -10 2 -28 0 -40z
m-1184 2 c-7 -8 -22 24 -16 34 4 5 10 1 13 -10 4 -10 6 -21 3 -24z m264 8 c-3
-7 -5 -2 -5 12 0 14 2 19 5 13 2 -7 2 -19 0 -25z m834 -15 c-10 -17 -10 -16
-11 3 0 23 13 41 18 25 2 -6 -1 -18 -7 -28z m39 27 c0 -5 8 -10 17 -10 9 0 14
-3 10 -6 -8 -8 -47 5 -47 17 0 5 5 9 10 9 6 0 10 -4 10 -10z m-830 -10 c0 -5
-5 -10 -11 -10 -5 0 -7 5 -4 10 3 6 8 10 11 10 2 0 4 -4 4 -10z m-553 -16 c-3
-3 -12 -4 -19 -1 -8 3 -5 6 6 6 11 1 17 -2 13 -5z m203 -216 c0 -7 -5 -20 -10
-28 -8 -12 -10 -9 -10 13 0 15 5 27 10 27 6 0 10 -6 10 -12z m36 -36 c-4 -3
-12 0 -18 6 -9 9 -9 12 0 12 7 0 13 8 13 18 1 10 3 8 6 -6 3 -13 2 -26 -1 -30z
m116 22 c-3 -17 -7 -22 -12 -13 -9 13 -2 39 10 39 4 0 5 -12 2 -26z m98 1 c0
-14 -4 -25 -9 -25 -4 0 -6 11 -3 25 2 14 6 25 8 25 2 0 4 -11 4 -25z m53 5
c-3 -11 -7 -20 -9 -20 -2 0 -4 9 -4 20 0 11 4 20 9 20 5 0 7 -9 4 -20z m117
-7 c-1 -24 -2 -26 -11 -10 -5 9 -7 22 -4 27 10 17 15 11 15 -17z m30 -5 c0
-12 -3 -18 -7 -14 -10 10 -11 46 -1 40 4 -3 8 -15 8 -26z m-705 13 c-6 -4 -32
-5 -60 -1 l-50 7 60 2 c34 0 55 -3 50 -8z m212 -23 c-3 -7 -5 -2 -5 12 0 14 2
19 5 13 2 -7 2 -19 0 -25z m126 20 c4 -10 8 -9 16 2 12 17 14 10 5 -14 -8 -22
-21 -20 -34 4 -6 12 -7 20 -1 20 5 0 12 -6 14 -12z m137 1 c0 -5 -4 -8 -9 -4
-5 3 -12 -3 -14 -12 -4 -14 -5 -13 -6 5 -1 13 5 22 14 22 8 0 15 -5 15 -11z
m157 -14 c1 -16 1 -16 -3 -2 -7 21 -24 23 -24 2 0 -8 -4 -15 -9 -15 -5 0 -7 9
-4 20 7 26 37 22 40 -5z m110 -7 c-3 -7 -5 -2 -5 12 0 14 2 19 5 13 2 -7 2
-19 0 -25z m36 12 c3 -11 1 -18 -4 -14 -5 3 -9 12 -9 20 0 20 7 17 13 -6z m47
5 c0 -8 -2 -15 -4 -15 -2 0 -6 7 -10 15 -3 8 -1 15 4 15 6 0 10 -7 10 -15z
m-582 -167 c10 -10 15 -10 20 -1 4 6 36 11 77 11 57 0 80 -6 125 -28 30 -15
67 -39 83 -53 18 -18 27 -22 27 -12 0 8 7 15 15 15 10 0 12 -6 8 -17 -6 -15
-4 -16 9 -5 13 11 16 9 16 -14 0 -18 -3 -22 -9 -13 -4 7 -11 10 -15 7 -3 -4 4
-28 16 -54 47 -96 37 -223 -23 -308 -12 -17 -21 -37 -19 -44 2 -7 -1 -11 -5
-10 -4 1 -33 -12 -63 -30 -30 -17 -48 -32 -40 -32 12 0 12 -2 2 -9 -8 -4 -13
-11 -13 -15 3 -23 -1 -28 -10 -13 -5 9 -7 22 -4 27 3 6 1 10 -4 10 -6 0 -11
-9 -11 -19 0 -11 -4 -23 -10 -26 -5 -3 -10 3 -10 14 0 14 -6 21 -20 21 -13 0
-20 -7 -20 -20 0 -11 -4 -20 -10 -20 -5 0 -10 9 -10 21 0 15 -5 20 -22 17 -15
-2 -22 -9 -22 -21 2 -25 -14 -21 -18 5 -2 14 -13 24 -31 29 -51 14 -118 64
-151 114 -44 66 -56 106 -56 180 0 87 51 189 119 239 27 20 54 36 60 36 6 0
11 5 11 10 0 6 -12 8 -27 5 -23 -4 -25 -4 -8 4 27 13 29 13 43 -1z m1189 -80
c-3 -8 -6 -5 -6 6 -1 11 2 17 5 13 3 -3 4 -12 1 -19z m-739 -13 c7 -15 8 -25
2 -25 -6 0 -10 7 -10 15 0 20 -16 19 -24 -1 -4 -9 -9 -14 -12 -11 -7 7 14 47
25 47 4 0 13 -11 19 -25z m47 15 c-3 -6 1 -13 9 -16 9 -3 16 -10 16 -15 0 -5
-9 -4 -20 3 -21 14 -27 38 -9 38 5 0 7 -5 4 -10z m-770 -200 c-3 -5 -1 -19 5
-30 6 -11 7 -20 3 -21 -4 0 -17 -2 -28 -4 -32 -6 -37 18 -7 42 30 25 36 28 27
13z m711 -89 c-12 -19 -21 -12 -23 15 -1 24 1 25 14 11 9 -8 12 -20 9 -26z
m71 -3 c-3 -7 -5 -2 -5 12 0 14 2 19 5 13 2 -7 2 -19 0 -25z m43 22 c0 -5 -4
-10 -10 -10 -5 0 -10 5 -10 10 0 6 5 10 10 10 6 0 10 -4 10 -10z m-748 -42 c8
-21 -2 -38 -23 -38 -22 0 -23 4 -9 31 12 22 26 25 32 7z m-88 -13 c-6 -16 -24
-21 -24 -7 0 11 11 22 21 22 5 0 6 -7 3 -15z m11 -165 c-3 -5 -11 -10 -16 -10
-6 0 -7 5 -4 10 3 6 11 10 16 10 6 0 7 -4 4 -10z m578 -43 c4 14 5 13 6 -4 1
-26 -17 -31 -25 -8 -6 14 -8 13 -20 -2 -13 -17 -13 -17 -14 3 0 32 13 38 32
15 15 -20 17 -20 21 -4z m70 16 c-7 -2 -14 -14 -14 -26 -1 -21 -2 -21 -6 -2
-3 11 -10 23 -17 27 -6 4 3 7 19 7 17 0 24 -3 18 -6z m48 -2 c-7 -5 -11 -13
-7 -19 3 -6 2 -13 -4 -17 -5 -3 -10 2 -10 13 0 21 8 32 24 32 6 0 5 -4 -3 -9z
m74 -31 c3 -6 1 -10 -4 -10 -6 0 -11 5 -11 10 0 6 -7 10 -15 10 -8 0 -15 5
-15 10 0 12 35 -4 45 -20z m-785 -15 c0 -8 -4 -15 -10 -15 -5 0 -10 7 -10 15
0 8 5 15 10 15 6 0 10 -7 10 -15z m75 -15 c-3 -5 -10 -10 -16 -10 -5 0 -9 5
-9 10 0 6 7 10 16 10 8 0 12 -4 9 -10z m-32 -167 c-7 -2 -21 -2 -30 0 -10 3
-4 5 12 5 17 0 24 -2 18 -5z m70 -18 c-3 -9 -8 -14 -10 -11 -3 3 -2 9 2 15 9
16 15 13 8 -4z m377 -43 c0 -10 -4 -10 -16 2 -8 9 -12 21 -8 27 7 13 24 -7 24
-29z m91 1 c-9 -16 -10 -14 -11 12 0 21 3 26 11 18 8 -8 8 -16 0 -30z m97 -11
c7 -2 12 5 12 17 0 12 4 21 9 21 12 0 8 -27 -7 -42 -15 -15 -42 7 -41 36 1 19
2 19 8 -3 4 -14 12 -26 19 -29z m-236 18 c10 -10 13 -22 8 -25 -5 -3 -12 5
-16 17 -7 22 -7 22 -15 3 -7 -19 -8 -19 -8 3 -1 27 9 28 31 2z m82 -2 c-4 -6
0 -15 7 -20 12 -8 11 -9 -1 -5 -8 2 -17 14 -18 26 -2 15 0 21 7 16 6 -3 8 -11
5 -17z m106 -5 c0 -19 -3 -24 -10 -17 -6 6 -8 18 -4 27 9 24 14 21 14 -10z"/>
<path d="M4378 2523 c7 -3 16 -2 19 1 4 3 -2 6 -13 5 -11 0 -14 -3 -6 -6z"/>
<path d="M4380 2506 c0 -2 7 -6 15 -10 8 -3 15 -1 15 4 0 6 -7 10 -15 10 -8 0
-15 -2 -15 -4z"/>
<path d="M5240 1879 c0 -22 37 -59 61 -59 18 0 19 1 3 25 -9 14 -20 22 -26 19
-5 -3 -16 2 -23 12 -12 16 -14 16 -15 3z"/>
<path d="M11479 1732 c-9 -9 -45 -44 -80 -76 -122 -115 -296 -352 -274 -374 7
-7 102 88 205 208 36 41 97 108 137 149 40 41 70 77 67 80 -3 3 -11 -2 -18
-12 -14 -17 -36 -23 -36 -9 0 5 9 18 20 30 24 26 4 29 -21 4z"/>
<path d="M1950 1334 c0 -8 -5 -12 -10 -9 -6 3 -13 -1 -16 -9 -3 -9 -14 -16
-24 -16 -22 0 -33 -25 -17 -37 23 -18 41 -7 69 40 21 35 24 47 13 47 -8 0 -15
-7 -15 -16z"/>
<path d="M11265 1029 c-82 -26 -135 -50 -135 -62 0 -5 10 -6 23 -2 12 3 58 15
102 26 75 19 100 33 89 51 -6 10 -6 10 -79 -13z"/>
<path d="M3173 515 c0 -8 4 -12 9 -9 5 3 6 10 3 15 -9 13 -12 11 -12 -6z"/>
<path d="M3162 461 c-12 -10 -22 -27 -22 -37 1 -18 1 -18 16 1 19 25 36 55 31
55 -2 0 -14 -8 -25 -19z"/>
<path d="M6655 10 c-3 -5 3 -10 14 -10 12 0 21 5 21 10 0 6 -6 10 -14 10 -8 0
-18 -4 -21 -10z"/>
<path d="M6745 10 c-3 -5 -1 -10 4 -10 6 0 11 5 11 10 0 6 -2 10 -4 10 -3 0
-8 -4 -11 -10z"/>
<path d="M7740 10 c20 -13 390 -13 390 0 0 6 -74 10 -202 10 -135 0 -198 -4
-188 -10z"/>
</g>
</svg>
