<svg
    xmlns="http://www.w3.org/2000/svg"
    width="147"
    height="64"
    viewBox="0 0 187 94"
    stroke-width="2" 
    stroke="#f0bf6c" 
    fill="#f0bf6c" 
    stroke-linecap="round" 
    stroke-linejoin="round"
>
    <path d="M14.3 9c-4 2.4-4.2 3.3-4.5 19.7l-.3 13.2-3.4 3.5-3.3 3.4 2.5 1.7C9.1 52.9 10 57 10 70.7c0 6.8.5 13.3 1 14.4 2 3.6 6.3 4.9 16.5 4.9H37V76H23V63.2c0-8.6-.4-13.2-1.2-14-.9-.9-.9-1.5 0-2.4.8-.8 1.2-5.4 1.2-14V20h14V7h-9.7c-8 0-10.4.4-13 2zM34 13.5V17H20v13.4c0 7.4-.5 14.7-1 16.2-.8 1.9-.8 3 0 3.8.6.6 1 6.6 1 14.8V79h14v8h-8.3c-12.6 0-12.4.2-12.9-17.9-.3-13.3-.5-15.3-2.4-17.8l-2.1-2.8 2.1-2.8c1.9-2.6 2.1-4.5 2.4-17.8.5-18.1.3-17.9 12.9-17.9H34v3.5zm114 0V20h13.9l.3 14c.2 7.7.2 20.3 0 28l-.3 14H148v14h9.6c16 0 17.3-1.5 17.4-19.7 0-14.2.7-17.3 4.8-19.9l2.6-1.7-2.6-2.1c-4.3-3.5-4.8-5.7-4.8-19.8C174.9 8.5 173.6 7 157.6 7H148v6.5zm21.6-2.1c1.7 1.3 2 3.1 2.4 16.4.4 13.3.7 15.4 2.6 17.9l2.1 2.8-2.1 2.8c-1.8 2.5-2.2 4.7-2.6 17.9-.6 18.1-.4 17.8-12.7 17.8H151v-8h13.8l.4-15.5c.1-8.5.1-22.5 0-31l-.4-15.5H151v-7h8.3c5.6 0 9 .5 10.3 1.4zM60 42v21H39v13h13c13.8 0 17.9-1 20-4.9.6-1.2 1-11.4 1-26V21H60v21zm10 4.5C70 74.7 71.1 73 54 73H42v-7h21V24h7v22.5zm6-1.4v24.1l3.4 3.4 3.4 3.4h26.9c29.6 0 30.6-.2 33.5-6 1.6-3 1.8-6.6 1.8-26.3V21h-14v42H89V21H76v24.1zm10-.1v21h48V24h8.1l-.3 22.6c-.3 22.4-.3 22.6-2.7 24.5-2.2 1.8-4.2 1.9-28.9 1.9-25.9 0-26.6-.1-28.9-2.2C79 68.7 79 68.4 79 46.3V24h7v21z" />
</svg>
